<svg width="36" height="36" fill="none" xmlns="http://www.w3.org/2000/svg"><g clip-path="url(#a)"><path d="M31.349 29.662a17.155 17.155 0 0 0 3.878-10.889C35.227 9.26 27.514 1.547 18 1.547S.773 9.259.773 18.773c0 4.13 1.455 7.921 3.879 10.89h26.697Z" fill="#73C3F9"/><path d="M18 14.171c3.869 0 7.005-.913 7.005-2.04 0-1.128-3.136-2.042-7.004-2.042-3.868 0-7.004.914-7.004 2.041 0 1.128 3.136 2.041 7.004 2.041Z" fill="#1C2E7A"/><path d="M18 10.089c-.118 0-.235 0-.351.002l-.18.213s4.189 1.748.307 3.866l.224.002c3.868 0 7.004-.914 7.004-2.042 0-1.127-3.136-2.041-7.004-2.041Z" fill="#142766"/><path d="M13.075 10.773c-.573.17-1.112.369-1.455.589a14.31 14.31 0 0 0 .252 1.937c.185.012.445.087.59.157.035-.22.093-.503.174-.713.062-.16.14-.32.237-.472.168-.264.245-.576.222-.888a7.358 7.358 0 0 1-.02-.61Zm9.849 0a7.3 7.3 0 0 1-.019.603c-.022.314.052.628.222.895.1.157.18.323.242.488.079.204.135.482.17.697.181-.088.508-.184.73-.153.023-.782.087-1.681.108-1.943-.342-.219-.88-.417-1.453-.587Z" fill="#A05838"/><path d="M24.6 13.359c-.275-.253-.824-.125-1.061.03.052.324.055.655.01.982l-.28 2.04c0 .165-.006.326-.015.485.683.206 1.022-.408 1.08-.828.024-.181.064-.36.12-.534.182-.568.837-1.542.147-2.175Z" fill="#FCAD6D"/><path d="M24.082 15.076c-.224 0-.431-.066-.605-.18l-.208 1.515c0 .165-.006.326-.015.485.683.206 1.022-.407 1.08-.828.024-.181.064-.36.12-.534.06-.186.17-.415.266-.661-.18.128-.4.203-.638.203Z" fill="#FD995B"/><path d="M11.4 13.359c.276-.253.825-.125 1.062.03a3.333 3.333 0 0 0-.01.982l.28 2.04c0 .165.005.326.015.485-.683.206-1.022-.408-1.08-.828a3.14 3.14 0 0 0-.12-.534c-.182-.568-.837-1.542-.147-2.175Z" fill="#FCAD6D"/><path d="M12.534 14.965a1.103 1.103 0 0 1-1.321-.273c.108.314.26.612.334.842.055.174.096.353.12.534.058.42.397 1.034 1.08.828a8.09 8.09 0 0 1-.015-.484l-.198-1.447Z" fill="#FD995B"/><path d="m21.973 25.938 1.275-1.737a14.69 14.69 0 0 0-.84-.22c-.681-.682-.854-1.974-.885-2.879-.356.415-.73.761-1.087 1.038a3.973 3.973 0 0 1-2.437.834 3.973 3.973 0 0 1-2.437-.834 7.533 7.533 0 0 1-1.086-1.038c-.031.905-.204 2.197-.886 2.88-.284.065-.564.138-.839.22l1.274 1.735h7.948Z" fill="#FCAD6D"/><path d="M16.252 25.13a.436.436 0 0 0 .3-.164c.476-.605.782-1.324.977-2.02a3.969 3.969 0 0 1-1.967-.806 7.533 7.533 0 0 1-1.086-1.038c-.031.905-.204 2.197-.886 2.88-.284.065-.564.138-.839.22l1.274 1.735h1.166c.375-.647.824-.784 1.06-.807Z" fill="#FD995B"/><path d="m14.796 26.987 2.528 3.444a.838.838 0 0 0 1.351 0l2.528-3.444h-6.407Z" fill="#BEC8F7"/><path d="M23.194 12.27a1.466 1.466 0 0 1-.221-.894c.012-.173.021-.38.019-.602-1.27-.376-3.037-.61-4.992-.61-1.954 0-3.72.234-4.99.61-.003.226.006.435.018.61a1.44 1.44 0 0 1-.222.887 2.712 2.712 0 0 0-.236.473 3.263 3.263 0 0 0-.185 1.627l.28 2.04a7.496 7.496 0 0 0 2.898 5.963 3.976 3.976 0 0 0 4.874 0c1.332-1.035 2.898-3.029 2.898-5.962l.28-2.04c.075-.544.019-1.1-.178-1.613a2.715 2.715 0 0 0-.243-.488Z" fill="#F9BA8F"/><path d="M19.07 22.325c-1.333-1.094-2.899-3.203-2.899-6.306l-.28-2.158a3.638 3.638 0 0 1 .185-1.722c.062-.168.14-.339.236-.5.169-.28.245-.609.223-.938a8.289 8.289 0 0 1-.02-.49c-1.356.085-2.567.285-3.506.563-.002.226.007.434.02.61.023.311-.054.623-.223.887a2.723 2.723 0 0 0-.236.472 3.263 3.263 0 0 0-.185 1.628l.28 2.04c0 2.934 1.566 4.928 2.898 5.963a3.974 3.974 0 0 0 4.213.415 3.922 3.922 0 0 1-.707-.464Z" fill="#FCAD6D"/><path d="M31.462 29.521a5.114 5.114 0 0 0-1.175-1.405l-11.57 7.018a1.41 1.41 0 0 1-1.435 0l-11.57-7.018c-.486.4-.87.882-1.174 1.405 3.157 3.949 8.014 6.48 13.462 6.48s10.305-2.531 13.462-6.48Z" fill="#3C58A0"/><path d="M9.706 30.895a.43.43 0 0 0 .136-.274l-4.13-2.505a5.14 5.14 0 0 0-1.174 1.405 17.323 17.323 0 0 0 4.302 3.843c.103-1.575.6-2.23.866-2.47Z" fill="#1C2E7A"/><path d="M19.263 26.164a.645.645 0 0 1 .036-.519H16.74a.646.646 0 0 1 .036.52c-.075.205-.19.473-.359.751l.764 1.029h1.64l.784-1.057a4.272 4.272 0 0 1-.342-.724Z" fill="#E80054"/><path d="M18.821 27.945h-1.64l-.53 1.568.674.918a.838.838 0 0 0 1.352 0l.674-.918-.53-1.568Z" fill="#FF7186"/><path d="m17.483 30.575.417-1.234a.9.9 0 0 1 .852-.611h.334l-.265-.786h-1.64l-.53 1.568.674.918a.834.834 0 0 0 .188.185l-.03-.04Z" fill="#FF4155"/><path d="m20.647 28.079 2.473-3.37c.035-.323.047-.531.047-.531l-.814-1.009a.548.548 0 0 0-.823-.034l-2.262 2.364a.644.644 0 0 0-.14.665c.186.514.62 1.404 1.519 1.915Zm-5.283.014c.916-.507 1.358-1.41 1.545-1.929a.644.644 0 0 0-.14-.665l-2.261-2.364a.548.548 0 0 0-.823.034l-.852 1.009s.014.211.052.538l2.48 3.377Z" fill="#E9EFFF"/><path d="M16.252 25.13a.439.439 0 0 0 .131-.034l-1.875-1.961a.548.548 0 0 0-.823.034l-.852 1.009s.014.211.052.538l1.71 2.33a.437.437 0 0 0 .26-.286c.391-1.368 1.083-1.599 1.397-1.63Z" fill="#D3DCFB"/><path d="M30.26 26.9a4.878 4.878 0 0 0-.708-.354l-.81-.3-10.08 6.962a1.162 1.162 0 0 1-1.322 0L7.296 26.27l-1.33.502a4.694 4.694 0 0 0-.228.13c-.511.311-.502 1.058.01 1.369l11.535 6.997c.441.268.995.268 1.436 0l11.535-6.997a.803.803 0 0 0 .006-1.371Z" fill="#FFDD40"/><path d="m10.943 28.79-3.648-2.52-1.33.502a4.819 4.819 0 0 0-.228.13c-.511.311-.502 1.058.01 1.369l4.067 2.467a.459.459 0 0 0 .03-.187c-.025-.662.442-1.256 1.099-1.761Z" fill="#FFB332"/><path d="M18.676 30.297a.838.838 0 0 1-1.351 0l-4.491-6.119-5.664 2.14 10.17 7.024a1.16 1.16 0 0 0 1.321 0l10.206-7.05-5.7-2.114-4.49 6.119Z" fill="#FFB332"/><path d="M10.853 28.86c1.182-.95 3.063-1.597 3.713-1.803a.44.44 0 0 0 .242-.189l-1.974-2.69-5.664 2.14 3.683 2.543Z" fill="#FF9100"/><path d="M28.505 4.57 18.92.2a2.221 2.221 0 0 0-1.843 0L7.494 4.57c-.889.405-.889 1.667 0 2.072l3.671 1.674v-.998c0-.45.722-.929 1.93-1.28 2.706-.79 7.104-.79 9.81 0 1.207.352 1.928.83 1.928 1.28v.998l3.672-1.674c.889-.405.889-1.667 0-2.073Z" fill="#3C58A0"/><path d="M7.494 4.57c-.889.405-.889 1.667 0 2.072l3.671 1.674v-.998c0-.45.721-.928 1.93-1.28 1.212-.354 2.765-.548 4.352-.585a3.22 3.22 0 0 1 .552-.176C14.133 3.224 17.078.2 17.078.2L7.494 4.57Z" fill="#2A428C"/><path d="M18 5.277c-3.867 0-7.003.914-7.003 2.04v4.813h.037c.36-1.029 3.341-1.832 6.967-1.832 3.625 0 6.607.803 6.967 1.832h.036V7.318c0-1.127-3.135-2.041-7.003-2.041Z" fill="#2A428C"/><path d="M18 5.277c-3.867 0-7.003.914-7.003 2.04v4.813h.037c.341-.978 3.054-1.751 6.436-1.825-.78-.302-.764-1.1-.764-1.1V6.248c0-.71 1.295-.97 1.295-.97Z" fill="#1C2E7A"/><path d="M22.177 14.842a.67.67 0 0 1-.671-.67v-2.624a.67.67 0 1 1 1.341 0v2.624c0 .37-.3.67-.67.67Z" fill="#FFDD40"/><path d="M22.177 10.877a.67.67 0 0 0-.671.67v1.983a.67.67 0 0 1 1.341 0v-1.982a.67.67 0 0 0-.67-.671Z" fill="#FFB332"/><path d="M22.177 9.914a.503.503 0 0 1-.503-.503V.567a.503.503 0 1 1 1.006 0v8.844a.503.503 0 0 1-.503.503Z" fill="#FFDD40"/><path d="M23.492 10.534a1.315 1.315 0 1 1-2.63 0 1.315 1.315 0 0 1 2.63 0Z" fill="#FFB332"/><path d="M22.44 10.678a.562.562 0 1 0 0-1.125.562.562 0 0 0 0 1.125Z" fill="#FFDD40"/><path d="M27.492 11.849c-.264 3.495-.697 5.436-1.92 7.943a2.068 2.068 0 0 0 .816 2.686c1.954 1.15 5.27 2.69 7.926 1.84a17.18 17.18 0 0 0 .913-5.545c0-3.22-.885-6.234-2.423-8.813-1.875-.56-5.09-1.073-5.312 1.889Zm-17.027 7.943c-1.224-2.506-1.657-4.447-1.92-7.942-.225-2.986-3.488-2.44-5.356-1.876a17.145 17.145 0 0 0-2.416 8.8c0 1.936.32 3.796.908 5.533 2.663.879 6.003-.672 7.967-1.828a2.068 2.068 0 0 0 .817-2.687Z" fill="#9BD8F9"/></g><defs><clipPath id="a"><path fill="#fff" d="M0 0h36v36H0z"/></clipPath></defs></svg>