<svg width="40" height="40" fill="none" xmlns="http://www.w3.org/2000/svg"><path d="M20 1.718C9.43 1.718.86 10.288.86 20.86c0 4.091 1.284 7.882 3.47 10.993l22.408 6.927c7.246-2.726 12.403-9.72 12.403-17.92 0-10.571-8.57-19.14-19.14-19.14Z" fill="#73C3F9"/><path d="M18.081 8.888c0-.727.09-1.434.257-2.11H7.652c-.237 0-.468.025-.692.072a19.245 19.245 0 0 0-2.69 3.105c-.005.07-.008.142-.008.214v21.584a19.25 19.25 0 0 0 2.815 3.224l16.92 4.604a19.014 19.014 0 0 0 2.855-.845V17.658c-4.836 0-8.77-3.934-8.77-8.77Z" fill="#167CC1"/><path d="m7.078 34.977 5.585 1.52-.158-25.224a.172.172 0 0 0-.039-.106c-.417-.527-.157-.89.007-1.044a.166.166 0 0 0 .032-.196c-.192-.375.064-.612.172-.69a.165.165 0 0 0 .06-.088l.296-1.02a.166.166 0 0 0-.036-.158c-.504-.56-.155-.959.039-1.117a.165.165 0 0 0 .052-.076H7.652a3.394 3.394 0 0 0-3.39 3.39v21.585a19.244 19.244 0 0 0 2.816 3.224Z" fill="#024788"/><path d="M6.371 15.304v18.992A19.081 19.081 0 0 0 20.001 40c1.636 0 3.225-.206 4.741-.592V17.4a8.764 8.764 0 0 1-3.863-2.097H6.37Z" fill="#E9EFFF"/><path d="M6.371 34.297a19.173 19.173 0 0 0 6.133 4.179V15.304H6.371v18.993Z" fill="#D3DCFB"/><path d="M13.058 9.208h-.338a.586.586 0 1 1 0-1.172h.338a.586.586 0 1 1 0 1.172Zm5.254 0h-3.253a.586.586 0 1 1 0-1.172h3.253a.586.586 0 1 1 0 1.172Z" fill="#1E92D3"/><path d="M18.255 10.627h-6.487a.94.94 0 0 1-.938-.937.802.802 0 0 0-.802-.802H7.652a1.28 1.28 0 0 0-1.28 1.28v5.343h14.737a8.774 8.774 0 0 1-2.854-4.884Z" fill="#9BD8F9"/><path d="M11.768 10.627a.94.94 0 0 1-.938-.937.802.802 0 0 0-.802-.802H7.652a1.28 1.28 0 0 0-1.28 1.28v5.343h6.132v-4.884h-.736Z" fill="#73C3F9"/><path d="M24.742 16.425a.586.586 0 0 0-.586.586v22.535a19.08 19.08 0 0 0 1.172-.298V17.011a.586.586 0 0 0-.586-.586ZM6.957 34.866V10.169c0-.383.312-.695.695-.695h2.376c.12 0 .216.097.216.216 0 .84.684 1.523 1.524 1.523h6.877a.586.586 0 1 0 0-1.172h-6.877a.356.356 0 0 1-.352-.351 1.39 1.39 0 0 0-1.388-1.388H7.652a1.87 1.87 0 0 0-1.867 1.867v23.507c.373.413.765.81 1.172 1.19Z" fill="#1E92D3"/><path d="M12.473 10.123a.16.16 0 0 0 .045-.082h-.75a.356.356 0 0 1-.352-.351 1.39 1.39 0 0 0-1.388-1.388H7.652a1.87 1.87 0 0 0-1.867 1.867v23.507c.373.414.765.81 1.172 1.19V10.169c0-.383.312-.695.695-.695h2.376c.12 0 .216.097.216.216 0 .84.684 1.523 1.524 1.523h.725a.18.18 0 0 0-.027-.046c-.417-.527-.157-.89.007-1.044Z" fill="#167CC1"/><path d="M18.902 12.274h-6.374v2.054h7.367a.925.925 0 0 0 .13-.01 8.763 8.763 0 0 1-1.123-2.044Z" fill="#E9EFFF"/><path d="M12.605 12.274h-1.152a1.027 1.027 0 1 0 0 2.054h1.152v-2.054Z" fill="#3C58A0"/><path d="M9.104 11.08h-.807a.586.586 0 1 1 0-1.171h.807a.586.586 0 1 1 0 1.172Z" fill="#E9EFFF"/><path d="m32.587 2.1-1.23-.36-.877-.968A8.888 8.888 0 1 0 32.587 2.1Z" fill="#FFE98D"/><path d="m29.052 11.387-4.446-3.916c-4.465 0-3.788-5.109-3.788-5.109a8.888 8.888 0 1 0 12.56 12.557c-4.177.331-4.326-3.532-4.326-3.532Z" fill="#FFDD40"/><path d="M21.862 26.914H9.252a.776.776 0 0 1-.773-.773v-6.822c0-.426.348-.774.773-.774h12.61c.425 0 .773.348.773.774v6.822a.776.776 0 0 1-.773.773Z" fill="#FF4155"/><path d="M8.479 19.319v6.822c0 .425.348.773.773.773h8.102a.252.252 0 0 0-.107-.098c-.63-.3-.614-.785-.535-1.07a.25.25 0 0 0-.152-.303c-1.119-.408-.919-1.41-.83-1.708a.254.254 0 0 0-.012-.174l-.858-1.94a.248.248 0 0 0-.21-.149c-.757-.044-.894-.661-.912-.99a.25.25 0 0 0-.208-.232c-1.254-.215-1.15-1.199-1.065-1.566a.248.248 0 0 0-.008-.139H9.252a.776.776 0 0 0-.773.774Z" fill="#E80054"/><path d="M10.799 29.844h-.39a.586.586 0 1 1 0-1.172h.39a.586.586 0 0 1 0 1.172Zm-1.929 0h-.391a.586.586 0 1 1 0-1.172h.39a.586.586 0 0 1 0 1.172Z" fill="#FF4155"/><path d="M22.634 29.844h-7.35a.586.586 0 1 1 0-1.172h7.35a.586.586 0 0 1 0 1.172Z" fill="#BEC8F7"/><path d="M15.285 29.844h-2.897a.586.586 0 1 1 0-1.172h2.897a.586.586 0 0 1 0 1.172Z" fill="#FF4155"/><path d="M15.284 30.46a.586.586 0 0 1-.586-.587v-1.21a.586.586 0 0 1 1.172 0v1.21a.586.586 0 0 1-.586.586Z" fill="#E80054"/><path d="M18.565 23.215a3.052 3.052 0 1 0-6.026-.976 3.052 3.052 0 0 0 6.026.976Z" fill="#E9EFFF"/><path d="M16.56 25.443c-1.12-.408-.92-1.41-.831-1.708a.253.253 0 0 0-.011-.174l-.859-1.94a.248.248 0 0 0-.21-.149c-.757-.044-.893-.661-.912-.99a.248.248 0 0 0-.064-.154 3.052 3.052 0 0 0 3.02 5.234.241.241 0 0 0-.133-.12Z" fill="#BEC8F7"/><path d="M23.402 11.044c.827 1.881-.523 3.017-.584 3.118-.103.135-.023.336.146.355 4.811.535 6.063-2.538 6.39-4.176a1.356 1.356 0 0 0-.314-1.161 1.053 1.053 0 0 1-.397-.142l-2.49-1.503a1.052 1.052 0 0 1-.327-.311 1.358 1.358 0 0 0-1.22.247c-.838.675-1.925 1.934-1.204 3.573Z" fill="#FFC839"/><path d="M26.153 7.535a1.052 1.052 0 0 1-.327-.312 1.358 1.358 0 0 0-1.22.248c-.838.675-1.925 1.934-1.204 3.573.827 1.881-.523 3.017-.584 3.118-.103.135-.023.336.146.354.136.016.27.028.4.037-.105-.368.092-.768.472-1.007.704-.443 1.38-1.51 1.804-3.342.423-1.83 2.135-1.69 2.135-1.69l-1.622-.98Z" fill="#FFB332"/><path d="m30.48.772-2.088 3.46a.504.504 0 0 1 .442.037l1.45.875a.504.504 0 0 1 .239.374L32.587 2.1A8.89 8.89 0 0 0 30.48.772Z" fill="#A05838"/><path d="M29.676 2.105 28.392 4.23a.504.504 0 0 1 .442.038l1.45.875a.504.504 0 0 1 .239.374L31.77 3.45c-.98.595-2.228-.193-2.095-1.345Z" fill="#823C26"/><path d="m27.176 5.84 2.49 1.502c.113.068.207.155.284.253l.63-1.992a.506.506 0 0 0-.22-.585l-1.45-.875a.506.506 0 0 0-.62.077l-1.47 1.486c.123.022.243.065.356.133Z" fill="#D3DCFB"/><path d="m27.176 5.84 2.49 1.502c.113.068.207.155.284.253l.63-1.992a.506.506 0 0 0-.22-.585l-1.45-.875a.506.506 0 0 0-.62.077l-1.47 1.486c.123.022.243.065.356.133Z" fill="#D3DCFB"/><path d="m29.95 7.595.342-1.081a81.788 81.788 0 0 1-1.118-.681c-.602-.375.082-.926.527-1.213l-.79-.477a.506.506 0 0 0-.622.077L26.82 5.706c.123.022.244.065.356.133l2.49 1.504c.113.067.207.154.284.252Z" fill="#BEC8F7"/><path d="m26.153 7.535 2.49 1.503c.5.302 1.158.14 1.46-.361.303-.5.14-1.158-.36-1.46l-2.49-1.504a1.067 1.067 0 0 0-1.461.361c-.303.5-.14 1.158.36 1.46Z" fill="#E9EFFF"/><path d="M27.734 7.258a1.16 1.16 0 0 1 1.18-.542l-1.661-1.003a1.067 1.067 0 0 0-1.461.361c-.303.5-.14 1.158.36 1.46l1.623.98a1.16 1.16 0 0 1-.041-1.256Z" fill="#D3DCFB"/><path d="m16.704 22.415-1.491-.953a.373.373 0 0 0-.574.315v1.906c0 .295.326.473.574.314l1.49-.953a.373.373 0 0 0 0-.629Z" fill="#FF4155"/><path d="M14.121 32.403H8.48a.586.586 0 1 1 0-1.171h5.643a.586.586 0 1 1 0 1.171Zm8.514 2.296H8.48a.586.586 0 1 1 0-1.172h14.156a.586.586 0 1 1 0 1.172Zm-.001.998H8.478a.583.583 0 0 0-.387.147c.456.362.928.704 1.416 1.025h13.127a.586.586 0 1 0 0-1.172Zm0 2.17H11.212c.89.461 1.821.854 2.786 1.172h8.636a.586.586 0 0 0 0-1.172Z" fill="#BEC8F7"/><path d="M23.423 8.888s-.112 1.68 1.529 1.289c1.64-.391.57 1.77 1.9 1.77s1.498.443 1.389.864c-.137.525-1.807 1.74-2.913 1.949-1.105.208-3.482.316-3.58-.73-.067-.73 1.147-1.04 1.147-2.147 0-1.107-.113-2.354.528-2.995Z" fill="#FF4155"/><path d="M24.952 10.177c-1.64.39-1.529-1.29-1.529-1.29-.64.642-.528 1.889-.528 2.996S21.68 13.3 21.749 14.03c.057.615.903.83 1.815.861-.413-.433-.23-1.03.272-1.346.704-.443 1.38-1.51 1.804-3.34-.152-.084-.368-.106-.688-.03Z" fill="#E80054"/><path d="M39.14 20.86c0-.957-.07-1.896-.206-2.815-1.364-.526-3.562-1.078-4.794.154-1.878 1.878-3.884 2.025-3.884 6.457v9.245s-.065 1.488.723 2.637c4.935-3.462 8.162-9.193 8.162-15.679Z" fill="#9BD8F9"/></svg>