<svg width="40" height="40" fill="none" xmlns="http://www.w3.org/2000/svg"><g clip-path="url(#a)"><path d="m10.435 36.936.74.473a19.069 19.069 0 0 0 7.965 1.732c3.224 0 6.26-.798 8.925-2.206h-17.63Z" fill="#1C2E7A"/><path d="m6.714 34.557.5.32h23.968c4.33-3.509 7.1-8.869 7.1-14.877C38.281 9.429 29.711.86 19.14.86c-2.842 0-5.54.62-7.965 1.731l-8.052 27.89a19.24 19.24 0 0 0 3.59 4.076Z" fill="#FFDD40"/><path d="M27.636 2.592h-16.46C4.58 5.614 0 12.272 0 20c0 1.905.28 3.744.798 5.481h12.83v-1.885c0-.6.469-1.111 1.066-1.164l.107-.01v-2.636c0-.946.77-1.716 1.715-1.716h13.788V5.26a2.67 2.67 0 0 0-2.668-2.668Z" fill="#167CC1"/><path d="M1.638 12.245a10.248 10.248 0 0 1 2.146 2.309c3.89 5.677 7.576 4.586 11.24 4.388.295-.52.853-.872 1.493-.872h12.068V6.974H5.118a19.164 19.164 0 0 0-3.48 5.27Z" fill="#73C3F9"/><path d="M7.564 6.974H5.118a19.162 19.162 0 0 0-3.48 5.271 10.246 10.246 0 0 1 2.146 2.309c1.28 1.868 2.538 3.003 3.78 3.678V6.974Z" fill="#4FABF7"/><path d="M18.914 10.299c3.517 4.304 6.662 5.37 9.67 5.384v-8.71H15.009c1.43.797 2.741 1.9 3.906 3.326Z" fill="#9BD8F9"/><path d="M27.635 4.31H8.175a19.247 19.247 0 0 0-3.203 2.82h23.612V5.26a.961.961 0 0 0-.949-.95Z" fill="#2A428C"/><path d="M7.563 6.067c0-.559.125-1.09.348-1.566a19.231 19.231 0 0 0-2.94 2.63h2.592V6.066Z" fill="#1C2E7A"/><path d="M5.77 6.306h13.826a.586.586 0 0 0 0-1.172H7.085c-.457.37-.895.762-1.315 1.172Zm20.601 0h-.764a.586.586 0 0 1 0-1.172h.764a.586.586 0 0 1 0 1.172Zm-2.656 0h-.764a.586.586 0 0 1 0-1.172h.764a.586.586 0 0 1 0 1.172Z" fill="#3C58A0"/><path d="M24.541 9.786H17.41v2.054h7.132a1.027 1.027 0 1 0 0-2.054Z" fill="#E9EFFF"/><path d="M20.69 10.813c0-.567.46-1.027 1.027-1.027H17.41v2.054h4.308c-.567 0-1.026-.46-1.026-1.027Z" fill="#D3DCFB"/><path d="M17.487 9.786h-1.153a1.027 1.027 0 1 0 0 2.054h1.153V9.786Z" fill="#3C58A0"/><path d="M3.912 14.466a10.383 10.383 0 0 0-2.208-2.371A19.07 19.07 0 0 0 0 20c0 1.905.28 3.744.798 5.481h12.83v-1.885c0-.6.469-1.111 1.066-1.165l.107-.01v-2.635c0-.376.121-.723.327-1.006-3.714.184-7.327 1.36-11.216-4.314Z" fill="#4FABF7"/><path d="M7.564 18.06c-1.197-.67-2.41-1.783-3.652-3.594a10.383 10.383 0 0 0-2.208-2.371A19.07 19.07 0 0 0 0 20c0 1.905.28 3.744.798 5.48h6.766v-7.42Z" fill="#1E9EF4"/><path d="M13.629 36.121v-5.797H7.408l-.433 3.233a4.18 4.18 0 0 1-.261 1 19.152 19.152 0 0 0 4.46 2.852h3.705v-.118h-.08a1.17 1.17 0 0 1-1.17-1.17Z" fill="#D3DCFB"/><path d="M13.63 36.121v-5.797H9.782l-.13.157s1.145.613 1.145 1.785v2.486s.027 1.612-1.336 1.762c.554.326 1.126.625 1.715.894h3.704v-.117h-.08a1.17 1.17 0 0 1-1.17-1.17Z" fill="#BEC8F7"/><path d="M3.123 30.48H13.63v-5.155H.75a19.045 19.045 0 0 0 2.372 5.156Z" fill="#E9EFFF"/><path d="M7.564 27.135v-1.81H.75a19.046 19.046 0 0 0 2.372 5.156h6.529a3.74 3.74 0 0 1-2.088-3.346Z" fill="#D3DCFB"/><path d="M11.056 29.052a1.15 1.15 0 1 0 0-2.3 1.15 1.15 0 0 0 0 2.3Z" fill="#BEC8F7"/><path d="M37.174 17.953H16.516a1.838 1.838 0 0 0-1.832 1.832v2.686a1.13 1.13 0 0 1 .115-.006h6.003c.624 0 1.131.507 1.131 1.131v11.156h17.072l.002-.075V19.785a1.838 1.838 0 0 0-1.833-1.832Z" fill="#167CC1"/><path d="M28.54 34.39c-.922-.895-.6-1.883-.287-2.44a.443.443 0 0 0-.195-.619c-1.156-.538-.96-1.644-.84-2.056a.441.441 0 0 0-.033-.328l-1.114-2.138a.427.427 0 0 0-.128-.15c-.712-.515-.57-1.26-.407-1.683a.44.44 0 0 0-.152-.513c-.787-.574-.603-1.432-.436-1.872a.44.44 0 0 0-.11-.48c-.91-.84-.634-1.724-.414-2.147a.458.458 0 0 0-.024-.471c-.336-.487-.194-.953-.031-1.243a.462.462 0 0 0 .053-.297h-7.907a1.838 1.838 0 0 0-1.832 1.833v2.685c.038-.004.076-.006.115-.006h6.003c.624 0 1.131.508 1.131 1.131v11.156h6.739a.44.44 0 0 0-.13-.361Z" fill="#0E62A8"/><path d="M16.441 22.153v.312h4.361c.624 0 1.131.508 1.131 1.131v11.156h14.958c.198 0 .358-.16.358-.358V22.153H16.44Z" fill="#FF4155"/><path d="M16.441 22.465h4.361c.624 0 1.131.508 1.131 1.131v11.156h6.739a.44.44 0 0 0-.13-.361c-.923-.896-.602-1.884-.288-2.44a.443.443 0 0 0-.195-.62c-1.157-.538-.96-1.644-.84-2.056a.44.44 0 0 0-.033-.328l-1.115-2.138a.428.428 0 0 0-.127-.15c-.713-.515-.57-1.26-.407-1.683a.44.44 0 0 0-.152-.513c-.788-.574-.603-1.432-.436-1.872a.442.442 0 0 0-.07-.438H16.44v.312Z" fill="#E80054"/><path d="M39.368 34.674H21.934v1.447c0 .624-.508 1.131-1.131 1.131h-.364v.156h17.46c1.16 0 2.102-.94 2.102-2.102a.632.632 0 0 0-.633-.632Z" fill="#E9EFFF"/><path d="M21.934 36.12c0 .625-.508 1.132-1.131 1.132h-.364v.156h8.375a.437.437 0 0 0-.105-.145c-.996-.905-.514-1.811-.135-2.273a.443.443 0 0 0 .1-.316h-6.74v1.447Z" fill="#D3DCFB"/><path d="M36.891 19.71H16.799a.358.358 0 0 0-.358.358v2.24H37.25v-2.24a.358.358 0 0 0-.358-.358Z" fill="#FF7186"/><path d="M24.425 19.964a.47.47 0 0 0 .052-.254h-7.678a.358.358 0 0 0-.358.358v2.24h8.52a.43.43 0 0 0-.122-.198c-.911-.838-.634-1.723-.413-2.146Z" fill="#FF4155"/><path d="M20.801 36.823h-6.003c-.71 0-1.287-.578-1.287-1.288V23.01c0-.71.577-1.287 1.287-1.287h6.003c.71 0 1.288.577 1.288 1.287v12.525a1.29 1.29 0 0 1-1.288 1.288Z" fill="#FFDD40"/><path d="M18.224 23.01h.59v-1.287h-4.015c-.71 0-1.287.577-1.287 1.287v12.525c0 .71.577 1.288 1.287 1.288h3.425a1.29 1.29 0 0 1-1.288-1.288V24.297c0-.71.578-1.287 1.288-1.287Z" fill="#FFB332"/><path d="M15.712 26.947h-.216a.586.586 0 1 1 0-1.172h.216a.586.586 0 1 1 0 1.172Zm0 2.251h-.216a.586.586 0 0 1 0-1.171h.216a.586.586 0 1 1 0 1.171Zm0 2.252h-.216a.586.586 0 1 1 0-1.171h.216a.586.586 0 1 1 0 1.171Zm0 2.252h-.216a.586.586 0 1 1 0-1.171h.216a.586.586 0 0 1 0 1.171Zm4.392-6.755h-2.582a.586.586 0 1 1 0-1.172h2.582a.586.586 0 1 1 0 1.172Zm0 2.251h-2.582a.586.586 0 0 1 0-1.171h2.582a.586.586 0 1 1 0 1.171Zm0 2.252h-2.582a.586.586 0 1 1 0-1.171h2.582a.586.586 0 1 1 0 1.171Zm0 2.252h-2.582a.586.586 0 1 1 0-1.171h2.582a.586.586 0 0 1 0 1.171Z" fill="#FCF2C8"/><path d="M20.802 21.137H14.8c-1.033 0-1.873.84-1.873 1.873v12.525c0 1.033.84 1.873 1.873 1.873h6.003c1.033 0 1.873-.84 1.873-1.873V23.01c0-1.033-.84-1.873-1.873-1.873Zm.702 14.398a.701.701 0 0 1-.702.702H14.8a.701.701 0 0 1-.701-.702V23.01c0-.387.314-.701.701-.701h1.08c.07 0 .127.056.127.126 0 .412.337.75.75.75h2.09c.412 0 .75-.338.75-.75 0-.07.056-.126.126-.126h1.08c.388 0 .702.314.702.701v12.525Z" fill="#167CC1"/><path d="M30.523 28.905a3.73 3.73 0 1 0-7.323-1.424 3.73 3.73 0 0 0 7.323 1.424Z" fill="#E9EFFF"/><path d="M28.06 31.331c-1.157-.538-.96-1.644-.84-2.056a.441.441 0 0 0-.033-.328l-1.115-2.138a.428.428 0 0 0-.127-.15c-.713-.515-.571-1.26-.407-1.683a.435.435 0 0 0 .011-.276 3.73 3.73 0 1 0 2.751 6.93.436.436 0 0 0-.24-.299Z" fill="#D3DCFB"/><path d="m28.395 27.91-2.093-1.18a.33.33 0 0 0-.49.287v2.358c0 .252.27.41.49.287l2.093-1.18a.33.33 0 0 0 0-.573Z" fill="#FF4155"/><path d="M17.145 36.237h-2.346a.701.701 0 0 1-.701-.702V23.01c0-.387.314-.701.701-.701h1.08c.07 0 .127.056.127.126 0 .412.337.75.75.75h.822c-.832-.973-.162-1.827.044-2.048h-2.823c-1.033 0-1.873.84-1.873 1.873v12.525c0 1.033.84 1.873 1.873 1.873H17c-.427-.606.092-1.122.145-1.171Z" fill="#0E62A8"/></g><defs><clipPath id="a"><path fill="#fff" d="M0 0h40v40H0z"/></clipPath></defs></svg>