<svg width="40" height="40" fill="none" xmlns="http://www.w3.org/2000/svg"><g clip-path="url(#a)"><path d="M33.87 34.05a19.075 19.075 0 0 0 5.27-13.19c0-10.572-8.569-19.141-19.14-19.141S.86 10.289.86 20.859c0 5.113 2.004 9.758 5.27 13.19h27.74Z" fill="#73C3F9"/><path d="M9.18 36.648h5.44a1.86 1.86 0 0 1-.006-.145V13.157c0-1.024.832-1.856 1.856-1.856h14.795V3.783A3.788 3.788 0 0 0 27.482 0H9.84a3.788 3.788 0 0 0-3.783 3.783v30.189c.94 1 1.987 1.896 3.122 2.676Z" fill="#167CC1"/><path d="M15.6 0H9.84a3.788 3.788 0 0 0-3.783 3.783v30.189c.94 1 1.987 1.896 3.122 2.676h5.44a1.86 1.86 0 0 1-.005-.145V13.157c0-.743.439-1.385 1.07-1.681V5.078a.286.286 0 0 0-.092-.21c-.511-.473-.292-.865-.095-1.07a.283.283 0 0 0 .052-.333c-.168-.299-.014-.567.078-.687a.28.28 0 0 0 .058-.17V1.533a.29.29 0 0 0-.095-.21C15.11.875 15.355.4 15.54.16A.288.288 0 0 0 15.6 0Z" fill="#024788"/><path d="M8.412 36.093A19.056 19.056 0 0 0 20.001 40c2.763 0 5.389-.586 7.76-1.64h-11.29a1.859 1.859 0 0 1-1.856-1.856V13.156c0-1.023.833-1.856 1.857-1.856h12.441V9.514h-20.5v26.579Z" fill="#E9EFFF"/><path d="M8.412 36.093a19.066 19.066 0 0 0 7.274 3.418v-1.326a1.858 1.858 0 0 1-1.07-1.681V13.156c0-.743.438-1.385 1.07-1.681V9.514H8.413v26.579Z" fill="#D3DCFB"/><path d="M27.483 2.354h-2.651c-.494 0-.895.4-.895.895a1.05 1.05 0 0 1-1.046 1.046h-8.457a1.05 1.05 0 0 1-1.046-1.046c0-.494-.4-.895-.895-.895H9.842c-.79 0-1.43.64-1.43 1.43v5.961h20.501V3.784c0-.79-.64-1.43-1.43-1.43Z" fill="#9BD8F9"/><path d="M15.686 5.078a.286.286 0 0 0-.092-.21c-.227-.21-.31-.404-.315-.573h-.845a1.05 1.05 0 0 1-1.046-1.046c0-.494-.4-.895-.895-.895H9.842c-.79 0-1.43.64-1.43 1.43v5.961h7.274V5.078Z" fill="#73C3F9"/><path d="M9.066 36.57V3.783c0-.427.348-.775.775-.775h2.652a.24.24 0 0 1 .24.24c0 .938.763 1.7 1.7 1.7h8.457c.938 0 1.7-.762 1.7-1.7a.24.24 0 0 1 .241-.24h2.652c.427 0 .776.348.776.775v8.127a.654.654 0 0 0 1.307 0V3.783A2.086 2.086 0 0 0 27.483 1.7H24.83a1.55 1.55 0 0 0-1.548 1.549c0 .213-.18.392-.393.392h-8.456a.398.398 0 0 1-.392-.392 1.55 1.55 0 0 0-1.55-1.549h-2.65a2.086 2.086 0 0 0-2.084 2.083v31.79c.42.35.857.683 1.308.997Z" fill="#1E92D3"/><path d="M15.579 3.641h-1.145a.397.397 0 0 1-.392-.392 1.55 1.55 0 0 0-1.55-1.549h-2.65a2.086 2.086 0 0 0-2.084 2.083v31.79c.42.35.857.682 1.308.996V3.783c0-.427.348-.775.775-.775h2.652a.24.24 0 0 1 .24.24c0 .938.763 1.7 1.7 1.7h1.22a.29.29 0 0 0-.06-.08c-.51-.473-.292-.865-.094-1.071a.3.3 0 0 0 .08-.156Z" fill="#167CC1"/><path d="M23.24 6.22h-7.959v2.29h7.96a1.146 1.146 0 1 0 0-2.291Z" fill="#E9EFFF"/><path d="M18.16 7.366c0-.633.513-1.146 1.146-1.146H15.28v2.29h4.025a1.146 1.146 0 0 1-1.146-1.145Z" fill="#D3DCFB"/><path d="M15.37 6.22h-1.287a1.146 1.146 0 1 0 0 2.291h1.286V6.22Z" fill="#3C58A0"/><path d="M15.875 2.711h-.377a.654.654 0 0 1 0-1.307h.377a.654.654 0 0 1 0 1.307Zm5.862 0h-3.63a.654.654 0 1 1 0-1.307h3.63a.654.654 0 0 1 0 1.307Z" fill="#1E92D3"/><path d="M11.46 4.8h-.9a.654.654 0 1 1 0-1.307h.9a.654.654 0 1 1 0 1.308Zm15.302 0h-.901a.654.654 0 1 1 0-1.307h.9a.654.654 0 0 1 0 1.308Z" fill="#E9EFFF"/><path d="M33.41 34.516H16.472a1.993 1.993 0 0 0-1.988 1.987c0 1.093.895 1.988 1.988 1.988h10.99a19.167 19.167 0 0 0 5.948-3.975Z" fill="#FF9100"/><path d="M31.482 36.01c0 .052.005.105.012.156.345-.26.681-.53 1.008-.813v-.72c-.608.278-1.02.791-1.02 1.376Z" fill="#BEC8F7"/><path d="M14.506 36.2c.147.739.974 1.309 1.964 1.309h12.977a19.152 19.152 0 0 0 2.045-1.343 1.241 1.241 0 0 1-.011-.157c0-.681.557-1.266 1.334-1.493H16.47c-.99 0-1.817.734-1.964 1.684Z" fill="#E9EFFF"/><path d="M22.212 34.516H16.47c-.99 0-1.817.734-1.964 1.684.147.739.974 1.309 1.964 1.309h5.75c-1.398-.416-1.435-2.578-.008-2.993Z" fill="#D3DCFB"/><path d="M33.943 33.972V11.69a.523.523 0 0 0-.521-.521h-16.95a1.993 1.993 0 0 0-1.988 1.987v23.348h.004a1.993 1.993 0 0 1 1.984-1.874h16.822c.222-.215.438-.434.65-.658Z" fill="#FFB332"/><path d="M14.484 13.156v23.348h.004a1.993 1.993 0 0 1 1.984-1.874h5.457c-1.32-.614-1.243-2.238-1.243-2.238V22.9c0-2.227.683-3.579.683-3.579v-2.674c-1.909-2.894.788-5.477.788-5.477h-5.685a1.993 1.993 0 0 0-1.988 1.987Z" fill="#FF9100"/><path d="M16.633 11.169h1.529v23.46h-1.53V11.17Z" fill="#FFB332"/><path d="M30.553 16.646h-9.185a.52.52 0 0 0-.52.52V18.8c0 .287.233.52.52.52h9.185a.52.52 0 0 0 .52-.52v-1.634a.52.52 0 0 0-.52-.52Z" fill="#FFDD40"/><path d="M31.074 15.04h-1.526a.654.654 0 1 1 0-1.307h1.526a.654.654 0 1 1 0 1.308Z" fill="#E9EFFF"/></g><defs><clipPath id="a"><path fill="#fff" d="M0 0h40v40H0z"/></clipPath></defs></svg>