<svg width="40" height="40" fill="none" xmlns="http://www.w3.org/2000/svg"><g clip-path="url(#a)"><path d="M33.546 34.383a19.08 19.08 0 0 0 5.595-13.524c0-10.571-8.57-19.14-19.14-19.14C9.428 1.718.858 10.287.858 20.858c0 3.68 1.04 7.117 2.84 10.035l29.847 3.489Z" fill="#FFDD40"/><path d="M6.386 6.503v2.889h24.588a2.491 2.491 0 0 1 2.488 2.488v20.212h.252a2.648 2.648 0 0 0 2.64-2.64V6.503H6.385Z" fill="#73C3F9"/><path d="m12.631 6.642.1-.139H6.385v2.889h6.232a.526.526 0 0 0-.12-.288c-.906-1.083.035-2.336.119-2.442a.393.393 0 0 0 .014-.02Z" fill="#4FABF7"/><path d="M33.714 0H9.026a2.648 2.648 0 0 0-2.64 2.64v1.738h29.967V2.64A2.648 2.648 0 0 0 33.713 0Z" fill="#2A428C"/><path d="M14.154 3.993c-.193-.359-.03-.677.089-.84a.506.506 0 0 0 .097-.299V1.53a.49.49 0 0 0-.1-.303c-.338-.433-.156-.858-.015-1.076a.478.478 0 0 0 .064-.15H9.026a2.648 2.648 0 0 0-2.64 2.64v1.738H14.2a.526.526 0 0 0-.046-.385Z" fill="#1C2E7A"/><path d="M9.635 3.04a.851.851 0 1 0 0-1.702.851.851 0 0 0 0 1.702Z" fill="#FF4155"/><path d="M11.988 3.04a.851.851 0 1 0 0-1.702.851.851 0 0 0 0 1.702Z" fill="#FFDD40"/><path d="M14.34 3.04a.851.851 0 1 0 0-1.702.851.851 0 0 0 0 1.702Z" fill="#38C674"/><path d="M15.04 4.237a2.417 2.417 0 0 1-2.417 2.417h23.731V4.237H15.04Z" fill="#E9EFFF"/><path d="M6.386 4.237v2.417h6.388a2.417 2.417 0 0 0 2.417-2.417H6.386Z" fill="#1E9EF4"/><path d="M26.524 2.757h-8.538a.568.568 0 0 1 0-1.136h8.538a.568.568 0 0 1 0 1.136Zm6.936 0h-.739a.568.568 0 1 1 0-1.136h.74a.568.568 0 1 1 0 1.136Zm-2.57 0h-.74a.568.568 0 1 1 0-1.136h.74a.568.568 0 1 1 0 1.136Z" fill="#3C58A0"/><path d="M3.646 15.743V30.81a19.212 19.212 0 0 0 2.384 3.133l8.005 5.109A19.13 19.13 0 0 0 20 40a19.081 19.081 0 0 0 13.614-5.687v-18.57H3.646Z" fill="#9BD8F9"/><path d="m9.894 15.88.097-.137H3.646V30.81a19.212 19.212 0 0 0 2.384 3.133l4.006 2.556a2.21 2.21 0 0 1 .394-.874.236.236 0 0 0-.073-.343c-.76-.45-.715-1.572-.71-1.655V22.743c0-1.011.475-1.457.801-1.644a.232.232 0 0 0 .06-.355c-.62-.719-.033-1.44.175-1.657a.237.237 0 0 0 .067-.164v-.88a.238.238 0 0 0-.14-.215c-1.314-.596-.812-1.756-.736-1.915a.22.22 0 0 1 .02-.033Z" fill="#73C3F9"/><path d="M30.974 9.24H6.286a2.648 2.648 0 0 0-2.64 2.64v1.738h29.968V11.88a2.648 2.648 0 0 0-2.64-2.64Z" fill="#2A428C"/><path d="M11.49 13.35c-.34-.454-.067-.864.057-1.011a.233.233 0 0 0 .054-.15V10.67a.232.232 0 0 0-.057-.153c-.393-.444-.23-.87-.081-1.101a.24.24 0 0 0 .033-.177h-5.21a2.648 2.648 0 0 0-2.64 2.64v1.738H11.5a.236.236 0 0 0-.01-.268Z" fill="#1C2E7A"/><path d="M7.746 11.43a.851.851 0 1 1-1.702 0 .851.851 0 0 1 1.702 0Z" fill="#FF4155"/><path d="M10.1 11.43a.851.851 0 1 1-1.703 0 .851.851 0 0 1 1.703 0Z" fill="#FFDD40"/><path d="M12.452 11.43a.851.851 0 1 1-1.702 0 .851.851 0 0 1 1.702 0Z" fill="#38C674"/><path d="M12.3 13.477a2.417 2.417 0 0 1-2.417 2.418h23.73v-2.418H12.3Z" fill="#E9EFFF"/><path d="M3.646 13.477v2.418h6.389a2.417 2.417 0 0 0 2.417-2.418H3.646Z" fill="#4FABF7"/><path d="M30.571 20.974H6.691a.84.84 0 0 0-.837.836v11.942a19.251 19.251 0 0 0 1.878 1.798h23.676V21.81a.84.84 0 0 0-.837-.836Z" fill="#E9EFFF"/><path d="M10.357 35.281c-.759-.449-.715-1.57-.71-1.654V22.743c0-1.011.475-1.457.802-1.644a.23.23 0 0 0 .103-.126H6.69a.84.84 0 0 0-.836.837v11.942a19.261 19.261 0 0 0 1.878 1.798h2.734a.237.237 0 0 0-.11-.269Z" fill="#D3DCFB"/><path d="M15.935 33.054h-2.07v-2.551a1.035 1.035 0 1 1 2.07 0v2.551Z" fill="#FF4155"/><path d="M20.077 33.054h-2.071v-1.58a1.035 1.035 0 1 1 2.07 0v1.58Z" fill="#FFDD40"/><path d="M24.218 33.054h-2.07v-5.101a1.035 1.035 0 1 1 2.07 0v5.101Z" fill="#73C3F9"/><path d="M28.36 33.054h-2.07v-7.043a1.035 1.035 0 1 1 2.07 0v7.043Z" fill="#38C674"/><path d="M14.9 31.754a1.035 1.035 0 0 1-1.036-1.036v2.336h2.071v-2.336c0 .572-.464 1.036-1.035 1.036Z" fill="#E80054"/><path d="M19.041 31.754c-.438 0-.812-.273-.963-.658a1.03 1.03 0 0 0-.072.378v1.58h2.07v-1.58c0-.134-.026-.26-.071-.378a1.035 1.035 0 0 1-.964.658Z" fill="#FFB332"/><path d="M23.183 31.754a1.035 1.035 0 0 1-1.035-1.036v2.336h2.07v-2.336c0 .572-.463 1.036-1.035 1.036Z" fill="#4FABF7"/><path d="M27.325 31.754a1.035 1.035 0 0 1-1.036-1.036v2.336h2.07v-2.336a1.035 1.035 0 0 1-1.035 1.036Z" fill="#24B55E"/><path d="M11.245 29.27H8.047a.568.568 0 0 1 0-1.135h3.198a.568.568 0 0 1 0 1.135Zm0-2.176H8.047a.568.568 0 1 1 0-1.136h3.198a.568.568 0 1 1 0 1.136Z" fill="#BEC8F7"/><path d="M9.569 24.918H8.047a.568.568 0 0 1 0-1.136H9.57a.568.568 0 1 1 0 1.136Z" fill="#167CC1"/><path d="M11.245 31.446H8.047a.568.568 0 1 1 0-1.135h3.198a.568.568 0 1 1 0 1.135Zm0 2.176H8.047a.568.568 0 1 1 0-1.135h3.198a.568.568 0 0 1 0 1.135Z" fill="#BEC8F7"/><path d="M19.042 29.342a.57.57 0 0 1-.13-.015l-4.142-.971a.568.568 0 1 1 .26-1.106l4.141.971a.567.567 0 0 1-.129 1.121Z" fill="#FFB332"/><path d="M19.04 29.342a.566.566 0 0 1-.367-1l4.141-3.522a.568.568 0 1 1 .736.865l-4.142 3.522a.565.565 0 0 1-.367.135Z" fill="#73C3F9"/><path d="M23.182 25.82a.568.568 0 0 1-.241-1.081l4.142-1.942a.568.568 0 0 1 .482 1.028l-4.142 1.942a.566.566 0 0 1-.24.054Z" fill="#38C674"/><path d="M14.282 39.13h11.437a19.077 19.077 0 0 0 5.689-2.9v-.83H7.553a19.104 19.104 0 0 0 6.729 3.732Z" fill="#FF4155"/><path d="M10.025 37.196c-.117-.72.188-1.279.405-1.571a.23.23 0 0 0 .027-.226H7.553c.773.662 1.6 1.263 2.472 1.797Z" fill="#E80054"/><path d="M22.605 17.46h-6.91v1.989h6.91a.995.995 0 1 0 0-1.99Z" fill="#E9EFFF"/><path d="M18.195 18.454c0-.55.445-.995.994-.995h-3.494v1.99h3.494a.995.995 0 0 1-.994-.995Z" fill="#D3DCFB"/><path d="M15.771 17.46h-1.116a.995.995 0 1 0 0 1.989h1.117v-1.99Z" fill="#3C58A0"/><path d="M10.75 19.022H6.894a.568.568 0 0 1 0-1.135h3.854a.568.568 0 1 1 0 1.135Z" fill="#4FABF7"/><path d="M23.785 11.997h-8.539a.568.568 0 0 1 0-1.136h8.54a.568.568 0 1 1 0 1.136Zm6.937 0h-.74a.568.568 0 0 1 0-1.136h.74a.568.568 0 1 1 0 1.136Zm-2.574 0h-.74a.568.568 0 0 1 0-1.136h.74a.568.568 0 1 1 0 1.136Z" fill="#3C58A0"/><path d="M28.956 33.622h-15.69a.568.568 0 1 1 0-1.135h15.69a.568.568 0 0 1 0 1.135Z" fill="#D3DCFB"/><path d="M27.282 37.83h-9.473a.568.568 0 0 1 0-1.136h9.473a.568.568 0 1 1 0 1.135Z" fill="#FF7186"/><path d="M17.808 37.83h-6.219a.568.568 0 0 1 0-1.136h6.219a.568.568 0 0 1 0 1.135Z" fill="#E9EFFF"/><path d="M17.809 38.402a.568.568 0 0 1-.568-.567v-1.128a.568.568 0 1 1 1.136 0v1.128a.568.568 0 0 1-.568.567Z" fill="#E80054"/><path d="M14.899 34.596a.568.568 0 0 1-.568-.568v-.67a.568.568 0 1 1 1.135 0v.67a.568.568 0 0 1-.567.568Zm4.142 0a.568.568 0 0 1-.567-.568v-.67a.568.568 0 0 1 1.135 0v.67a.568.568 0 0 1-.568.568Zm4.142 0a.568.568 0 0 1-.568-.568v-.67a.568.568 0 0 1 1.136 0v.67a.568.568 0 0 1-.568.568Zm4.142 0a.568.568 0 0 1-.568-.568v-.67a.568.568 0 0 1 1.135 0v.67a.568.568 0 0 1-.567.568Z" fill="#BEC8F7"/></g><defs><clipPath id="a"><path fill="#fff" d="M0 0h40v40H0z"/></clipPath></defs></svg>