<svg width="40" height="40" fill="none" xmlns="http://www.w3.org/2000/svg"><g clip-path="url(#a)"><path d="M36.365 30.792a19.052 19.052 0 0 0 2.776-9.933c0-10.57-8.57-19.14-19.14-19.14-10.572 0-19.142 8.57-19.142 19.14 0 3.637 1.015 7.037 2.776 9.933h32.73Z" fill="#73C3F9"/><path d="M33.085 0H6.915a3.397 3.397 0 0 0-3.397 3.397v27.197a19.22 19.22 0 0 0 2.44 3.27h28.084a19.214 19.214 0 0 0 2.44-3.27V3.397A3.397 3.397 0 0 0 33.085 0Z" fill="#167CC1"/><path d="M14.672 31.668a.254.254 0 0 0-.044-.061c-.644-.673-.205-1.306-.034-1.505a.252.252 0 0 0 .06-.164v-3.282a.256.256 0 0 0-.072-.177c-2.277-2.363-.305-4.535-.014-4.832a.254.254 0 0 1 .077-.054l2.762-1.243c.11-.05.17-.171.143-.29l-.555-2.383a.254.254 0 0 0-.105-.153l-1.87-1.269c-3.082-2.272-1.706-4.508-1.184-5.168a.252.252 0 0 0-.032-.35c-1.875-1.574-.934-4.534-.694-5.194a.254.254 0 0 0-.028-.228c-.155-.231-.043-.447.03-.549a.258.258 0 0 0 .05-.15v-1.5a.257.257 0 0 0-.058-.16.424.424 0 0 1-.06-.485.253.253 0 0 0-.054-.3c-.967-.887-.32-1.712.01-2.031a.251.251 0 0 0 .073-.14H6.915a3.397 3.397 0 0 0-3.397 3.397v27.197a19.22 19.22 0 0 0 2.44 3.27h9.813l-1.1-2.196Z" fill="#0E62A8"/><path d="M20 40a19.091 19.091 0 0 0 14.167-6.27V5.24H5.832v28.49A19.091 19.091 0 0 0 20 40Z" fill="#E9EFFF"/><path d="M5.832 33.73a19.097 19.097 0 0 0 11.96 6.143 1.21 1.21 0 0 1 .158-.633.25.25 0 0 0 .02-.197l-.576-1.915a.255.255 0 0 0-.168-.169c-1.265-.394-.99-1.42-.868-1.742a.253.253 0 0 0-.011-.203l-1.676-3.346a.257.257 0 0 0-.044-.062c-.643-.672-.205-1.305-.033-1.504a.251.251 0 0 0 .06-.165v-3.28a.256.256 0 0 0-.072-.178c-2.277-2.363-.305-4.535-.014-4.832a.253.253 0 0 1 .077-.053l2.761-1.244a.254.254 0 0 0 .144-.29l-.555-2.383a.254.254 0 0 0-.105-.153l-1.871-1.269c-3.082-2.272-1.706-4.508-1.184-5.168a.253.253 0 0 0-.032-.35c-1.874-1.574-.934-4.534-.693-5.194a.254.254 0 0 0-.029-.228.495.495 0 0 1-.04-.076h-7.21v28.49Z" fill="#D3DCFB"/><path d="M33.085 2.315H6.915c-.596 0-1.083.487-1.083 1.082v2.014h28.335V3.397c0-.595-.487-1.082-1.082-1.082Z" fill="#2A428C"/><path d="M13.111 4.766a.257.257 0 0 0 .05-.15v-1.5a.257.257 0 0 0-.057-.16.424.424 0 0 1-.06-.485.254.254 0 0 0 .023-.156H6.914c-.595 0-1.082.487-1.082 1.082v2.014h7.287a.258.258 0 0 0-.038-.096c-.154-.231-.043-.447.03-.549Z" fill="#1C2E7A"/><path d="M8.5 4.706a.843.843 0 1 0 0-1.686.843.843 0 0 0 0 1.686Z" fill="#FF4155"/><path d="M11.673 3.863a.843.843 0 1 1-1.686 0 .843.843 0 0 1 1.686 0Z" fill="#FFDD40"/><path d="M14.005 3.863a.843.843 0 1 1-1.687 0 .843.843 0 0 1 1.687 0Z" fill="#38C674"/><path d="M25.232 4.506h-8.46a.643.643 0 1 1 0-1.286h8.46a.643.643 0 1 1 0 1.286Zm6.871 0h-.733a.643.643 0 1 1 0-1.286h.733a.643.643 0 1 1 0 1.286Zm-2.549 0h-.733a.643.643 0 1 1 0-1.286h.733a.643.643 0 0 1 0 1.286Z" fill="#3C58A0"/><path d="M20 25.04c-4.502 0-4.519-17.575 0-17.575 4.503 0 4.52 17.575 0 17.575Zm0-16.29c-.337 0-.88.603-1.334 1.949-1.03 3.05-1.03 8.057 0 11.107.454 1.345.997 1.948 1.334 1.948.337 0 .88-.603 1.335-1.948 1.029-3.05 1.029-8.057 0-11.107C20.88 9.353 20.337 8.75 20 8.75Z" fill="#73C3F9"/><path d="M25.396 21.612c-4.974 0-14.836-6.586-13.007-9.754 2.251-3.899 17.48 4.874 15.22 8.788-.39.675-1.183.966-2.213.966Zm-11.893-9.11c-.168.29.082 1.063 1.02 2.129 1.027 1.167 2.599 2.39 4.424 3.444 1.825 1.054 3.67 1.803 5.195 2.109 1.392.28 2.185.11 2.354-.181.168-.292-.082-1.064-1.02-2.13-1.028-1.168-2.599-2.391-4.424-3.445-4.03-2.327-7.155-2.609-7.549-1.927Z" fill="#2A428C"/><path d="M14.603 21.612c-1.03 0-1.823-.29-2.213-.966-1.113-1.928 2.133-5.148 5.914-7.331 3.782-2.183 8.193-3.385 9.306-1.457 1.828 3.165-8.022 9.754-13.007 9.754Zm4.344-7.183c-1.825 1.053-3.396 2.277-4.423 3.444-.939 1.066-1.189 1.838-1.02 2.13.168.292.961.46 2.354.181 3.16-.634 7.495-3.14 9.619-5.553.938-1.066 1.188-1.838 1.02-2.13-.169-.291-.962-.46-2.355-.181-1.525.306-3.37 1.055-5.195 2.109Z" fill="#FF4155"/><path d="M20.517 17.475A1.328 1.328 0 1 0 19.5 15.02a1.328 1.328 0 0 0 1.017 2.454Z" fill="#FFDD40"/><path d="M21.996 36.798h-3.99c-.649 0-1.179.53-1.179 1.178 0 .648.53 1.178 1.178 1.178h3.99c.649 0 1.18-.53 1.18-1.178 0-.648-.531-1.178-1.18-1.178Z" fill="#38C674"/><path d="M20 37.976c0-.648.53-1.178 1.179-1.178h-3.174c-.648 0-1.178.53-1.178 1.178 0 .648.53 1.178 1.178 1.178h3.174c-.648 0-1.178-.53-1.178-1.178Z" fill="#24B55E"/><path d="M25.64 35.118H14.36a1.747 1.747 0 0 1-1.743-1.742c0-.958.784-1.742 1.742-1.742H25.64c.959 0 1.743.784 1.743 1.742s-.784 1.742-1.743 1.742Zm0-5.081H14.36a1.747 1.747 0 0 1-1.743-1.742c0-.958.784-1.742 1.742-1.742H25.64c.959 0 1.743.784 1.743 1.742s-.784 1.742-1.743 1.742Z" fill="#FFDD40"/><path d="M19.023 33.376c0-.958.784-1.742 1.743-1.742h-6.407c-.958 0-1.742.784-1.742 1.742s.784 1.742 1.742 1.742h6.407a1.747 1.747 0 0 1-1.743-1.742Zm0-5.081c0-.958.784-1.742 1.743-1.742h-6.407c-.958 0-1.742.784-1.742 1.742s.784 1.742 1.742 1.742h6.407a1.747 1.747 0 0 1-1.743-1.742Z" fill="#FFB332"/></g><defs><clipPath id="a"><path fill="#fff" d="M0 0h40v40H0z"/></clipPath></defs></svg>