<svg width="36" height="36" fill="none" xmlns="http://www.w3.org/2000/svg"><path d="M2.03 23.693c2.556 6.31 8.743 10.76 15.97 10.76s13.414-4.45 15.97-10.76H2.03Z" fill="#1C2E7A"/><path d="M34.197 22.06H1.804c-.121 0-.24-.013-.353-.038.178.614.388 1.215.63 1.8.085.007.17.011.257.011h31.324c.086 0 .171-.004.256-.011.242-.585.452-1.186.63-1.8a1.62 1.62 0 0 1-.352.038Z" fill="#E9EFFF"/><path d="M19.076 22.06H1.806c-.122 0-.24-.013-.354-.038.178.614.388 1.215.63 1.8.085.007.17.011.257.011h16.737V22.06Z" fill="#BEC8F7"/><path d="M33.662 21.748c.54 0 .981-.44.981-.98V12.77a21.913 21.913 0 0 0-.096-.348C32.467 5.245 25.846 0 18 0 10.153 0 3.533 5.246 1.453 12.422c-.033.116-.066.232-.097.348v7.997c0 .541.44.982.982.982h31.324Z" fill="#FF4155"/><path d="m19.128 21.569.781-1.995a.76.76 0 0 0-.016-.595c-.34-.736-.2-1.337.012-1.744a.762.762 0 0 0-.241-.97c-1.575-1.12-1.162-2.948-.936-3.63a.76.76 0 0 0-.033-.557L16.868 8.11a.786.786 0 0 0-.244-.298c-1.11-.833-.897-2.012-.633-2.704a.768.768 0 0 0-.264-.9c-1.558-1.12-1.217-2.648-.888-3.439a.778.778 0 0 0 .038-.485C8.437 1.463 3.25 6.222 1.453 12.423c-.033.115-.066.231-.097.347v7.998c0 .54.44.98.982.98h16.744a.768.768 0 0 1 .046-.18Z" fill="#E80054"/><path d="M34.05 10.958v9.81a.388.388 0 0 1-.388.387H2.338a.388.388 0 0 1-.388-.388v-9.809a17.182 17.182 0 0 0-1.177 6.269c0 1.684.243 3.312.694 4.85.25.167.55.264.871.264h31.324c.322 0 .621-.097.871-.263a17.23 17.23 0 0 0 .694-4.851 17.17 17.17 0 0 0-1.177-6.269Z" fill="#FF7186"/><path d="M2.338 21.155a.388.388 0 0 1-.388-.388v-9.809a17.18 17.18 0 0 0-1.177 6.269c0 1.684.243 3.312.694 4.85.25.167.55.264.871.264h16.737v-.493a.77.77 0 0 1 .053-.28l.162-.413H2.338Z" fill="#FF4155"/><path d="M18 17.097a6.397 6.397 0 1 0 0-12.794 6.397 6.397 0 0 0 0 12.794Z" fill="#E9EFFF"/><path d="M19.665 16.265c-1.575-1.121-1.162-2.949-.936-3.63a.76.76 0 0 0-.033-.558L16.87 8.111a.786.786 0 0 0-.244-.298c-1.11-.833-.897-2.012-.633-2.704a.777.777 0 0 0 .022-.491 6.397 6.397 0 0 0 3.968 12.166.771.771 0 0 0-.317-.519Z" fill="#D3DCFB"/><path d="m20.404 11.359-3.124 1.997a.782.782 0 0 1-1.204-.659V8.702a.782.782 0 0 1 1.204-.659l3.124 1.998a.782.782 0 0 1 0 1.318Z" fill="#FF4155"/><path d="M17.636 8.936v1.265c0 .618.683.992 1.204.66l1.423-.91.141.09a.782.782 0 0 1 0 1.318l-3.124 1.998a.782.782 0 0 1-1.204-.66V8.703a.782.782 0 0 1 1.204-.66l.438.28a2.314 2.314 0 0 0-.082.613Z" fill="#E80054"/><path d="m21.567 26.235.002-.002-.039-.006c-.369-.052-.933.077-1.497-.252a3.787 3.787 0 0 1-.823.89 1.976 1.976 0 0 1-2.424 0 3.791 3.791 0 0 1-.822-.889c-.546.32-1.084.2-1.465.248l-.071.009.003.003c-.765.137-1.331.824-1.331 1.622v2.161c0 .322.26.582.582.582h8.633c.322 0 .582-.26.582-.582v-2.161c0-.797-.566-1.486-1.33-1.623Z" fill="#73C3F9"/><path d="M14.903 28.782c0-.577.361-1.087.9-1.296a3.99 3.99 0 0 0 1.035-.584l-.052-.037a3.791 3.791 0 0 1-.822-.89c-.546.32-1.084.2-1.465.249-.045.006-.05.005-.071.009l.003.003c-.765.136-1.331.824-1.331 1.621v2.162c0 .322.26.582.582.582h1.22v-1.819Z" fill="#4FABF7"/><path d="M15.898 26.012c.265.428.589.76.889.992a1.976 1.976 0 0 0 2.424 0c.3-.233.624-.564.889-.992a1.76 1.76 0 0 1-.464-.355l.001-.001c-.257-.27-.323-.488-.512-.818a2.431 2.431 0 0 1-2.253 0c-.199.346-.259.552-.512.818h.001a1.77 1.77 0 0 1-.463.356Z" fill="#FCAD6D"/><path d="M16.36 25.656h.001a1.767 1.767 0 0 1-.463.356c.253.41.56.729.849.96 1.086-.803 1.252-1.857 1.252-1.857-.385 0-.772-.091-1.127-.277-.199.346-.259.552-.512.818Z" fill="#FD995B"/><path d="M17.54 18.46c-1.378.187-1.509.968-1.51 1.255 0 .06-.033.116-.087.142-.717.348-.33 2.028-.33 2.028.072.005.18.067.236.094a1.236 1.236 0 0 1 .16-.435.566.566 0 0 0 .086-.346c-.025-.35-.046-1.008.417-1.216.392-.177.873-.075 1.18.027a.96.96 0 0 0 .613 0c.307-.102.788-.204 1.18-.027.46.207.442.862.416 1.213a.57.57 0 0 0 .087.349 1.23 1.23 0 0 1 .16.435c.07-.034.204-.104.29-.092.011-.367.045-.763.045-.763.409-2-1.46-2.867-2.944-2.665Z" fill="#A05838"/><path d="M18.006 18.432a3.192 3.192 0 0 0-.466.027c-1.378.188-1.509.969-1.51 1.256 0 .06-.033.115-.087.142-.717.348-.33 2.028-.33 2.028.072.005.18.067.236.094a1.236 1.236 0 0 1 .16-.435.566.566 0 0 0 .086-.346c-.025-.35-.046-1.008.417-1.216.392-.177.873-.075 1.18.027a.957.957 0 0 0 .124.032.986.986 0 0 0-.035-.072c-.48-.87-.021-1.355.225-1.537Z" fill="#823C26"/><path d="M20.561 21.935c-.107-.098-.32-.049-.413.012a1.3 1.3 0 0 1 .004.382l-.11.794c0 .064-.001.127-.005.189.266.08.398-.159.42-.323.01-.07.026-.14.047-.207.071-.221.326-.6.057-.847Zm-5.125 0c.107-.098.32-.049.413.012-.02.126-.021.255-.004.382l.11.794c0 .064.001.127.005.189-.266.08-.398-.159-.42-.323-.01-.07-.025-.14-.047-.207-.07-.221-.326-.6-.057-.847Z" fill="#FD995B"/><path d="M20.115 21.701a1.064 1.064 0 0 0-.094-.19.571.571 0 0 1-.086-.348c.025-.352.012-1.039-.45-1.246-.392-.177-.872-.075-1.179.027a.974.974 0 0 1-.614 0c-.306-.102-.787-.204-1.18-.027-.462.208-.474.898-.448 1.249a.565.565 0 0 1-.087.345c-.038.06-.068.122-.092.184a1.28 1.28 0 0 0-.072.634l.11.794c0 1.142.609 1.918 1.127 2.32a1.547 1.547 0 0 0 1.898 0 2.918 2.918 0 0 0 1.128-2.32l.109-.794a1.268 1.268 0 0 0-.07-.628Z" fill="#F9BA8F"/><path d="M18.41 25.444a2.918 2.918 0 0 1-1.127-2.32l-.11-.795a1.27 1.27 0 0 1 .072-.634c.025-.062.055-.125.093-.184a.565.565 0 0 0 .086-.345c-.024-.326-.014-.944.358-1.197a.993.993 0 0 1-.09-.024c-.306-.102-.787-.204-1.18-.028-.462.208-.474.899-.448 1.25a.565.565 0 0 1-.087.344 1.05 1.05 0 0 0-.092.184 1.28 1.28 0 0 0-.072.634l.11.794a2.92 2.92 0 0 0 1.127 2.321 1.547 1.547 0 0 0 1.63.166 1.538 1.538 0 0 1-.27-.166Z" fill="#FCAD6D"/><path d="M20.508 28.822v1.78h1.186s-.103-1.526-.762-2a.269.269 0 0 0-.424.22Z" fill="#4FABF7"/><path d="m31.362 26.232.002-.002c-.012-.001.007.002-.039-.005-.369-.053-.933.076-1.497-.252a3.79 3.79 0 0 1-.822.89 1.976 1.976 0 0 1-2.425 0 3.789 3.789 0 0 1-.822-.89c-.546.32-1.084.2-1.465.248-.045.006-.05.006-.071.01l.003.002c-.765.137-1.331.825-1.331 1.622v2.162c0 .321.26.582.582.582h8.633c.322 0 .582-.26.582-.582v-2.162c0-.797-.566-1.486-1.33-1.623Z" fill="#73C3F9"/><path d="M24.698 28.78c0-.578.361-1.087.9-1.296a3.963 3.963 0 0 0 1.035-.585c-.017-.012-.035-.023-.052-.036a3.791 3.791 0 0 1-.822-.89c-.546.32-1.084.2-1.465.249-.045.005-.05.005-.071.009l.003.003c-.765.136-1.331.824-1.331 1.621v2.162c0 .322.26.582.582.582h1.22V28.78Z" fill="#4FABF7"/><path d="M25.693 26.01c.265.428.589.76.889.992a1.976 1.976 0 0 0 2.424 0c.3-.233.624-.564.889-.993a1.757 1.757 0 0 1-.464-.354l.001-.001c-.258-.271-.322-.488-.511-.818a2.431 2.431 0 0 1-2.254 0c-.199.346-.259.552-.512.818h.001a1.77 1.77 0 0 1-.463.356Z" fill="#FCAD6D"/><path d="M26.155 25.654h.001a1.764 1.764 0 0 1-.463.356c.253.41.56.729.848.96 1.087-.803 1.253-1.857 1.253-1.857-.385 0-.772-.091-1.127-.277-.199.346-.259.552-.512.818Z" fill="#FD995B"/><path d="M27.335 18.457c-1.377.188-1.508.969-1.509 1.255a.16.16 0 0 1-.087.143c-.717.348-.33 2.028-.33 2.028.072.005.18.067.236.094a1.235 1.235 0 0 1 .16-.435.566.566 0 0 0 .086-.346c-.025-.35-.046-1.008.417-1.216.392-.177.873-.075 1.18.027a.96.96 0 0 0 .613 0c.307-.102.788-.204 1.18-.027.46.207.442.862.416 1.213a.57.57 0 0 0 .087.348 1.23 1.23 0 0 1 .16.435c.07-.033.204-.103.29-.091.011-.368.045-.764.045-.764.408-1.999-1.46-2.866-2.944-2.664Z" fill="#A05838"/><path d="M27.801 18.43a3.192 3.192 0 0 0-.467.027c-1.377.188-1.508.97-1.509 1.256 0 .06-.033.115-.087.142-.717.348-.33 2.028-.33 2.028.072.005.18.067.236.094a1.234 1.234 0 0 1 .16-.435.566.566 0 0 0 .086-.346c-.026-.35-.046-1.008.417-1.216.392-.177.873-.075 1.18.027a.957.957 0 0 0 .124.032.93.93 0 0 0-.035-.072c-.48-.87-.021-1.355.225-1.537Z" fill="#823C26"/><path d="M30.356 21.933c-.107-.099-.32-.049-.413.011a1.3 1.3 0 0 1 .004.383l-.11.794c0 .064-.001.127-.005.188.266.08.398-.158.42-.322.01-.07.026-.14.047-.208.07-.22.326-.6.057-.846Zm-5.126 0c.108-.099.322-.049.414.011a1.3 1.3 0 0 0-.004.383l.11.794c0 .064.001.127.005.188-.266.08-.398-.158-.42-.322a1.36 1.36 0 0 0-.047-.208c-.07-.22-.326-.6-.057-.846Z" fill="#FD995B"/><path d="M29.91 21.699a1.057 1.057 0 0 0-.095-.19.57.57 0 0 1-.086-.348c.025-.352.012-1.039-.45-1.247-.392-.176-.872-.074-1.179.028a.974.974 0 0 1-.614 0c-.306-.102-.787-.204-1.18-.028-.462.208-.474.9-.448 1.25a.565.565 0 0 1-.087.345 1.05 1.05 0 0 0-.092.184c-.078.201-.101.42-.072.633l.11.795c0 1.142.609 1.918 1.127 2.32a1.547 1.547 0 0 0 1.898 0 2.918 2.918 0 0 0 1.128-2.32l.109-.794a1.27 1.27 0 0 0-.07-.628Z" fill="#F9BA8F"/><path d="M28.205 25.442a2.919 2.919 0 0 1-1.128-2.321l-.11-.794a1.27 1.27 0 0 1 .072-.634 1.17 1.17 0 0 1 .092-.184.565.565 0 0 0 .087-.345c-.024-.326-.014-.944.357-1.197a1.012 1.012 0 0 1-.089-.025c-.307-.102-.787-.204-1.18-.027-.462.208-.474.898-.448 1.249a.565.565 0 0 1-.087.345c-.038.06-.068.122-.092.184a1.27 1.27 0 0 0-.072.634l.11.794a2.92 2.92 0 0 0 1.127 2.321 1.547 1.547 0 0 0 1.63.166 1.542 1.542 0 0 1-.27-.166Z" fill="#FCAD6D"/><path d="M30.303 28.82v1.779h1.186s-.103-1.526-.763-2a.269.269 0 0 0-.423.22Z" fill="#4FABF7"/><path d="m11.775 26.235.002-.002-.039-.006c-.369-.052-.933.077-1.497-.252a3.786 3.786 0 0 1-.822.89 1.976 1.976 0 0 1-2.424 0 3.791 3.791 0 0 1-.823-.889c-.546.32-1.084.2-1.465.248l-.07.009.002.003c-.765.137-1.331.824-1.331 1.622v2.161c0 .322.26.582.582.582h8.633c.322 0 .582-.26.582-.582v-2.161c0-.797-.566-1.486-1.33-1.623Z" fill="#73C3F9"/><path d="M5.11 28.782c0-.577.362-1.087.9-1.296.42-.163.76-.366 1.036-.584-.017-.013-.035-.024-.051-.037a3.791 3.791 0 0 1-.823-.89c-.546.32-1.084.2-1.465.249-.045.006-.05.005-.07.009l.002.003c-.765.136-1.331.824-1.331 1.621v2.162c0 .322.26.582.582.582h1.22v-1.819Z" fill="#4FABF7"/><path d="M6.106 26.012c.265.428.589.76.889.992a1.976 1.976 0 0 0 2.424 0c.3-.233.624-.564.888-.992a1.76 1.76 0 0 1-.463-.355l.001-.001c-.257-.27-.322-.488-.511-.818a2.431 2.431 0 0 1-2.254 0c-.199.346-.259.552-.512.818h.001a1.771 1.771 0 0 1-.463.356Z" fill="#FCAD6D"/><path d="M6.568 25.656h.001a1.768 1.768 0 0 1-.463.356c.253.41.56.729.849.96 1.086-.803 1.252-1.857 1.252-1.857-.385 0-.772-.091-1.127-.277-.199.346-.259.552-.512.818Z" fill="#FD995B"/><path d="M7.748 18.46c-1.378.187-1.509.968-1.51 1.255 0 .06-.033.116-.087.142-.717.348-.33 2.028-.33 2.028.072.005.18.067.236.094a1.233 1.233 0 0 1 .16-.435.565.565 0 0 0 .086-.346c-.025-.35-.046-1.008.417-1.216.392-.177.873-.075 1.18.027a.96.96 0 0 0 .613 0c.307-.102.788-.204 1.18-.027.46.207.442.862.416 1.213a.57.57 0 0 0 .086.349 1.224 1.224 0 0 1 .16.435c.071-.034.205-.104.292-.092.01-.367.044-.763.044-.763.409-2-1.46-2.867-2.943-2.665Z" fill="#A05838"/><path d="M8.214 18.432a3.191 3.191 0 0 0-.467.027c-1.377.188-1.508.969-1.509 1.256 0 .06-.033.115-.087.142-.717.348-.33 2.028-.33 2.028.072.005.18.067.236.094a1.234 1.234 0 0 1 .16-.435.566.566 0 0 0 .086-.346c-.025-.35-.046-1.008.417-1.216.392-.177.873-.075 1.18.027a.955.955 0 0 0 .124.032.937.937 0 0 0-.035-.072c-.48-.87-.021-1.355.225-1.537Z" fill="#823C26"/><path d="M10.77 21.935c-.108-.098-.322-.049-.414.012.02.126.021.255.004.382l-.11.794c0 .064-.001.127-.005.189.266.08.398-.159.42-.323.01-.07.026-.14.047-.207.071-.221.326-.6.057-.847Zm-5.126 0c.107-.098.32-.049.413.012a1.3 1.3 0 0 0-.004.382l.11.794c0 .064.001.127.005.189-.266.08-.398-.159-.42-.323-.01-.07-.025-.14-.047-.207-.07-.221-.326-.6-.057-.847Z" fill="#FD995B"/><path d="M10.323 21.701a1.064 1.064 0 0 0-.094-.19.57.57 0 0 1-.086-.348c.025-.352.012-1.039-.45-1.246-.392-.177-.872-.075-1.179.027a.974.974 0 0 1-.614 0c-.306-.102-.787-.204-1.18-.027-.462.208-.474.898-.448 1.249a.565.565 0 0 1-.087.345c-.038.06-.068.122-.092.184a1.28 1.28 0 0 0-.072.634l.11.794c0 1.142.609 1.918 1.127 2.32a1.547 1.547 0 0 0 1.898 0 2.918 2.918 0 0 0 1.128-2.32l.109-.794a1.268 1.268 0 0 0-.07-.628Z" fill="#F9BA8F"/><path d="M8.619 25.444a2.918 2.918 0 0 1-1.128-2.32l-.11-.795a1.27 1.27 0 0 1 .072-.634c.025-.062.055-.125.093-.184a.566.566 0 0 0 .086-.345c-.024-.326-.014-.944.358-1.197a1 1 0 0 1-.09-.024c-.306-.102-.787-.204-1.18-.028-.462.208-.474.899-.448 1.25a.565.565 0 0 1-.087.344c-.038.06-.068.122-.092.184a1.27 1.27 0 0 0-.072.634l.11.794a2.92 2.92 0 0 0 1.127 2.321 1.547 1.547 0 0 0 1.63.166 1.545 1.545 0 0 1-.27-.166Z" fill="#FCAD6D"/><path d="M10.716 28.822v1.78h1.186s-.103-1.526-.762-2a.269.269 0 0 0-.424.22Z" fill="#4FABF7"/><path d="m16.601 31.633.002-.001-.039-.006c-.369-.053-.933.077-1.497-.252a3.787 3.787 0 0 1-.822.89 1.976 1.976 0 0 1-2.424 0 3.791 3.791 0 0 1-.823-.89c-.546.32-1.084.2-1.465.249-.045.005-.05.005-.07.009l.003.003c-.765.136-1.332.824-1.332 1.621v2.162c0 .322.26.582.582.582h8.633c.322 0 .582-.26.582-.582v-2.162c0-.797-.565-1.486-1.33-1.623Z" fill="#73C3F9"/><path d="M9.937 34.181c0-.578.362-1.087.9-1.296.42-.163.76-.366 1.036-.585-.018-.012-.036-.023-.052-.036a3.789 3.789 0 0 1-.823-.89c-.546.32-1.084.2-1.465.248-.045.006-.05.006-.07.01l.003.002c-.765.137-1.332.825-1.332 1.622v2.162c0 .321.26.582.582.582h1.22v-1.82Z" fill="#4FABF7"/><path d="M10.933 31.41c.264.429.588.76.888.993a1.976 1.976 0 0 0 2.424 0c.3-.233.624-.565.889-.993a1.761 1.761 0 0 1-.463-.355c-.257-.271-.322-.489-.511-.818a2.431 2.431 0 0 1-2.254 0c-.199.346-.259.552-.511.818a1.772 1.772 0 0 1-.462.356Z" fill="#FCAD6D"/><path d="M11.395 31.055a1.769 1.769 0 0 1-.462.356c.252.409.56.728.848.96 1.086-.804 1.252-1.858 1.252-1.858-.385 0-.772-.09-1.127-.276-.199.346-.259.552-.511.818Z" fill="#FD995B"/><path d="M12.574 23.858c-1.378.188-1.509.969-1.51 1.255a.16.16 0 0 1-.087.143c-.716.348-.33 2.028-.33 2.028.072.005.18.067.236.094a1.235 1.235 0 0 1 .16-.436.565.565 0 0 0 .087-.345c-.026-.35-.046-1.008.416-1.216.392-.177.873-.075 1.18.027a.974.974 0 0 0 .613 0c.307-.102.788-.204 1.18-.027.46.207.442.862.416 1.213a.57.57 0 0 0 .087.348 1.224 1.224 0 0 1 .16.435c.07-.034.204-.103.29-.091.011-.367.045-.764.045-.764.409-1.999-1.46-2.866-2.943-2.664Z" fill="#A05838"/><path d="M13.04 23.83a3.178 3.178 0 0 0-.466.028c-1.378.188-1.509.969-1.51 1.255a.16.16 0 0 1-.087.143c-.716.348-.33 2.028-.33 2.028.072.005.18.067.236.094a1.236 1.236 0 0 1 .16-.436.566.566 0 0 0 .087-.345c-.026-.35-.046-1.008.416-1.216.392-.177.873-.075 1.18.027a.953.953 0 0 0 .124.032.967.967 0 0 0-.035-.072c-.48-.87-.021-1.355.226-1.537Z" fill="#823C26"/><path d="M15.595 27.333c-.107-.098-.32-.048-.413.012a1.3 1.3 0 0 1 .004.382l-.109.795c0 .064-.002.126-.006.188.266.08.398-.158.42-.322.01-.07.026-.14.048-.208.07-.22.325-.6.056-.847Zm-5.125 0c.107-.098.321-.048.413.012-.02.126-.02.255-.003.382l.109.795c0 .064.002.126.005.188-.266.08-.398-.158-.42-.322a1.25 1.25 0 0 0-.047-.208c-.07-.22-.326-.6-.057-.847Z" fill="#FD995B"/><path d="M15.15 27.1a1.047 1.047 0 0 0-.095-.19.571.571 0 0 1-.086-.349c.025-.35.012-1.038-.45-1.246-.392-.176-.872-.074-1.179.028a.974.974 0 0 1-.614 0c-.306-.102-.787-.204-1.179-.028-.463.208-.475.899-.45 1.25a.565.565 0 0 1-.086.345c-.037.06-.068.122-.092.184a1.27 1.27 0 0 0-.072.633l.11.795c0 1.142.609 1.918 1.127 2.32a1.547 1.547 0 0 0 1.898 0 2.918 2.918 0 0 0 1.128-2.32l.11-.794a1.272 1.272 0 0 0-.07-.628Z" fill="#F9BA8F"/><path d="M13.445 30.843a2.918 2.918 0 0 1-1.128-2.321l-.11-.795a1.27 1.27 0 0 1 .073-.633 1.02 1.02 0 0 1 .092-.184.565.565 0 0 0 .086-.346c-.024-.325-.014-.943.358-1.197a.961.961 0 0 1-.09-.024c-.306-.102-.787-.204-1.179-.028-.463.208-.475.899-.45 1.25a.565.565 0 0 1-.086.345c-.037.06-.068.122-.092.184a1.27 1.27 0 0 0-.072.633l.11.795c0 1.142.609 1.918 1.127 2.32a1.547 1.547 0 0 0 1.63.167 1.547 1.547 0 0 1-.269-.166Z" fill="#FCAD6D"/><path d="M15.542 34.22V36h1.186s-.103-1.526-.762-2a.269.269 0 0 0-.424.22Z" fill="#4FABF7"/><path d="m26.396 31.631.002-.002-.039-.006v.001c-.369-.053-.933.076-1.497-.252a3.79 3.79 0 0 1-.822.89 1.977 1.977 0 0 1-2.424 0 3.789 3.789 0 0 1-.823-.89c-.546.32-1.084.2-1.465.248-.045.006-.05.006-.07.01l.003.002c-.765.137-1.332.825-1.332 1.622v2.162c0 .321.26.582.582.582h8.633c.322 0 .582-.26.582-.582v-2.162c0-.797-.565-1.486-1.33-1.623Z" fill="#73C3F9"/><path d="M19.732 34.179c0-.578.361-1.087.9-1.297.42-.162.76-.365 1.035-.584-.017-.012-.035-.023-.051-.036a3.793 3.793 0 0 1-.823-.89c-.546.32-1.084.2-1.465.248-.045.006-.05.006-.07.01l.003.003c-.765.136-1.332.824-1.332 1.621v2.162c0 .321.26.582.582.582h1.22v-1.819Z" fill="#4FABF7"/><path d="M20.727 31.409c.265.428.589.759.889.992a1.976 1.976 0 0 0 2.424 0c.3-.233.624-.565.889-.993a1.76 1.76 0 0 1-.463-.355c-.257-.271-.322-.489-.511-.819a2.431 2.431 0 0 1-2.254 0c-.198.347-.259.552-.512.818l.001.001a1.769 1.769 0 0 1-.463.356Z" fill="#FCAD6D"/><path d="M21.19 31.053a1.771 1.771 0 0 1-.463.356c.253.409.56.729.849.96 1.086-.803 1.252-1.857 1.252-1.857-.385 0-.772-.091-1.127-.277-.199.346-.259.552-.512.818Z" fill="#FD995B"/><path d="M22.369 23.856c-1.378.188-1.509.969-1.51 1.255 0 .06-.033.116-.087.142-.716.349-.33 2.029-.33 2.029.072.005.18.066.236.093a1.236 1.236 0 0 1 .16-.435.566.566 0 0 0 .086-.345c-.025-.35-.046-1.009.417-1.217.392-.176.873-.074 1.18.028a.974.974 0 0 0 .613 0c.307-.102.788-.204 1.18-.028.46.208.442.863.416 1.214a.57.57 0 0 0 .087.348 1.23 1.23 0 0 1 .16.435c.07-.034.204-.104.29-.091.012-.368.045-.764.045-.764.409-2-1.46-2.866-2.943-2.664Z" fill="#A05838"/><path d="M22.835 23.828a3.178 3.178 0 0 0-.466.028c-1.378.188-1.509.969-1.51 1.255 0 .06-.033.116-.087.142-.716.349-.33 2.029-.33 2.029.072.005.18.067.236.094a1.236 1.236 0 0 1 .16-.436.566.566 0 0 0 .086-.345c-.025-.35-.046-1.008.417-1.217.392-.176.873-.074 1.18.028a.96.96 0 0 0 .124.032.93.93 0 0 0-.035-.072c-.48-.87-.021-1.355.225-1.538Z" fill="#823C26"/><path d="M25.39 27.331c-.107-.098-.32-.048-.413.012a1.3 1.3 0 0 1 .004.382l-.109.795c0 .064-.002.126-.006.188.266.08.398-.158.42-.322.01-.07.026-.14.047-.208.071-.22.326-.6.058-.847Zm-5.125 0c.107-.098.32-.048.413.012a1.3 1.3 0 0 0-.004.382l.11.795c0 .064.001.126.005.188-.266.08-.398-.158-.42-.322a1.25 1.25 0 0 0-.047-.208c-.07-.22-.326-.6-.057-.847Z" fill="#FD995B"/><path d="M24.945 27.098a1.061 1.061 0 0 0-.095-.19.57.57 0 0 1-.086-.349c.025-.351.012-1.038-.45-1.246-.392-.176-.872-.074-1.179.028a.974.974 0 0 1-.614 0c-.306-.102-.787-.204-1.179-.028-.463.208-.475.899-.45 1.25a.565.565 0 0 1-.086.345 1.05 1.05 0 0 0-.092.184 1.27 1.27 0 0 0-.072.633l.11.795c0 1.142.609 1.918 1.127 2.32a1.547 1.547 0 0 0 1.898 0 2.918 2.918 0 0 0 1.128-2.32l.109-.795a1.27 1.27 0 0 0-.07-.627Z" fill="#F9BA8F"/><path d="M23.24 30.84a2.918 2.918 0 0 1-1.128-2.32l-.11-.795a1.269 1.269 0 0 1 .073-.633 1.02 1.02 0 0 1 .092-.184.565.565 0 0 0 .086-.346c-.024-.325-.014-.943.358-1.196a.962.962 0 0 1-.09-.025c-.306-.102-.787-.204-1.179-.028-.463.209-.475.9-.45 1.25a.565.565 0 0 1-.086.345 1.05 1.05 0 0 0-.092.184 1.27 1.27 0 0 0-.072.633l.11.795c0 1.142.609 1.918 1.127 2.32a1.548 1.548 0 0 0 1.63.166 1.55 1.55 0 0 1-.27-.165Z" fill="#FCAD6D"/><path d="M25.337 34.218v1.78h1.186s-.103-1.526-.762-2a.269.269 0 0 0-.424.22Z" fill="#4FABF7"/></svg>