<svg width="36" height="36" fill="none" xmlns="http://www.w3.org/2000/svg"><g clip-path="url(#a)"><path d="M6.046 31.176a17.192 17.192 0 0 0 8.093 4.39l8.457-.187a17.204 17.204 0 0 0 7.358-4.203l2.602-3.187a17.144 17.144 0 0 0 2.67-9.216C35.227 9.26 27.515 1.547 18 1.547S.773 9.259.773 18.773c0 3.39.98 6.55 2.67 9.216l2.603 3.187Z" fill="#FFDD40"/><path d="M6.047 31.176h23.908a17.31 17.31 0 0 0 2.602-3.187v-8.442c-.49-.395-.995-.85-1.517-1.372-5.104-5.104-9.313 4.853-17.82-5.508-3.768-4.59-7.91-4.048-9.776-3.46v18.782a17.307 17.307 0 0 0 2.603 3.187Z" fill="#E9EFFF"/><path d="M7.426 27.047V11.719c0-1.168.56-1.778.882-2.033a.346.346 0 0 0 .103-.406l-.033-.086a8.272 8.272 0 0 0-4.935.013v18.782a17.31 17.31 0 0 0 2.603 3.187h3.94c-2.714-1.042-2.56-4.129-2.56-4.129Z" fill="#D3DCFB"/><path d="M13.22 12.961c8.506 10.361 12.715.404 17.82 5.508.52.522 1.026.977 1.516 1.372V6.318H3.443V9.5c1.866-.588 6.008-1.13 9.777 3.46Z" fill="#9BD8F9"/><path d="M3.443 6.318V9.5a8.269 8.269 0 0 1 4.984.002.349.349 0 0 0-.016-.223c-.747-1.79.663-2.609 1.015-2.78a.345.345 0 0 0 .13-.111l.05-.071H3.444Z" fill="#73C3F9"/><path d="M29.991 0H6.008a2.572 2.572 0 0 0-2.565 2.565v1.688h29.113V2.565A2.572 2.572 0 0 0 29.99 0Z" fill="#2A428C"/><path d="M11.024 3.938c-.254-.395-.048-.748.074-.902a.344.344 0 0 0 .073-.214v-1.39a.359.359 0 0 0-.083-.224c-.313-.387-.184-.781-.056-1.01A.34.34 0 0 0 11.074 0H6.008a2.572 2.572 0 0 0-2.565 2.565v1.688h7.617a.35.35 0 0 0-.036-.316Z" fill="#1C2E7A"/><path d="M7.415 2.259a.827.827 0 1 0-1.632-.265.827.827 0 0 0 1.632.265Z" fill="#FF4155"/><path d="M9.712 2.126a.827.827 0 1 1-1.654 0 .827.827 0 0 1 1.654 0Z" fill="#FFDD40"/><path d="M11.99 2.26a.827.827 0 1 0-1.632-.266.827.827 0 0 0 1.632.266Zm10.563 10.746h-9.104a2.552 2.552 0 1 0 0 5.104h9.104a2.552 2.552 0 1 0 0-5.104Z" fill="#38C674"/><path d="M24.69 16.422h-6.717a1.883 1.883 0 0 1-1.091-3.416h-3.433a2.552 2.552 0 1 0 0 5.104h9.104c1.113 0 2.06-.713 2.408-1.707a1.87 1.87 0 0 1-.271.02Z" fill="#24B55E"/><path d="M11.85 4.116a2.348 2.348 0 0 1-2.348 2.348h23.054V4.116H11.85Z" fill="#E9EFFF"/><path d="M3.443 4.116v2.349H9.65a2.348 2.348 0 0 0 2.349-2.349H3.443Z" fill="#4FABF7"/><path d="M22.544 21.007h-.12c-.692 0-1.26.567-1.26 1.26v-.848c0-.673-.49-1.265-1.158-1.345a1.323 1.323 0 0 0-1.48 1.31v-.266c0-.673-.49-1.264-1.16-1.345a1.323 1.323 0 0 0-1.48 1.31v-4.196c0-.674-.49-1.265-1.159-1.345a1.323 1.323 0 0 0-1.48 1.31v7.004a.243.243 0 0 1-.252.244c-.356-.013-.904-.026-1.346.475a3.587 3.587 0 0 0-.519 3.981c.618 1.195-.211-.119 2.705 3.647a1.4 1.4 0 0 1 .304.871v2.491c1.241.285 2.533.435 3.86.435 1.593 0 3.134-.217 4.597-.621v-2.836c0-.924 1.208-1.824 1.208-4.338v-5.938c0-.693-.567-1.26-1.26-1.26Z" fill="#F9BA8F"/><path d="M14.258 15.532h.615c.353 0 .642.29.642.642v1.156a.644.644 0 0 1-.642.642h-.615a.644.644 0 0 1-.643-.642v-1.155c0-.354.29-.643.643-.643Z" fill="#E9EFFF"/><path d="M12.612 26.57c.35 0 .635-.284.635-.634v-2.08a.243.243 0 0 1-.252.243c-.272-.01-.655-.018-1.018.2v1.637c0 .35.284.635.635.635Z" fill="#FCAD6D"/><path d="M23.008 2.678h-8.295a.551.551 0 1 1 0-1.103h8.295a.551.551 0 1 1 0 1.103Zm6.738 0h-.719a.551.551 0 0 1 0-1.103h.719a.551.551 0 0 1 0 1.103Zm-2.499 0h-.719a.551.551 0 1 1 0-1.103h.719a.551.551 0 1 1 0 1.103Z" fill="#3C58A0"/><path d="M22.596 32.543c-4.54 3.645-8.457.532-8.457.532v2.49c1.241.285 2.533.435 3.86.435 1.593 0 3.134-.217 4.597-.621v-2.836Z" fill="#FCAD6D"/></g><defs><clipPath id="a"><path fill="#fff" d="M0 0h36v36H0z"/></clipPath></defs></svg>