<svg width="40" height="40" fill="none" xmlns="http://www.w3.org/2000/svg"><g clip-path="url(#a)"><path d="M8.157 35.897A19.059 19.059 0 0 0 20 40c2.26 0 4.426-.393 6.438-1.111l9.531-7.476a19.05 19.05 0 0 0 3.172-10.554c0-10.571-8.57-19.14-19.14-19.14C9.428 1.718.858 10.287.858 20.858c0 5.059 1.964 9.658 5.168 13.08l2.13 1.958Z" fill="#1C2E7A"/><path d="M35.15 22.815h-6.992a.904.904 0 0 0-.901.902v.902c0 .496.405.902.901.902h6.992v-2.706Z" fill="#E9EFFF"/><path d="M30.108 24.168c0-.744.61-1.353 1.353-1.353h-3.303a.904.904 0 0 0-.901.902v.902c0 .496.405.902.901.902h3.303a1.357 1.357 0 0 1-1.353-1.353Z" fill="#BEC8F7"/><path d="M35.15 26.107h-6.992a1.49 1.49 0 0 1-1.487-1.488v-.902c0-.82.667-1.488 1.487-1.488h6.992a.586.586 0 1 1 0 1.172h-6.992a.32.32 0 0 0-.315.316v.902a.32.32 0 0 0 .315.316h6.992a.586.586 0 1 1 0 1.172Z" fill="#38C674"/><path d="M29.952 25.52c0-.323.262-.585.586-.585h-2.38a.32.32 0 0 1-.315-.316v-.902a.32.32 0 0 1 .316-.316h2.38a.586.586 0 1 1 0-1.172h-2.38a1.49 1.49 0 0 0-1.488 1.488v.902c0 .82.667 1.488 1.488 1.488h2.38a.586.586 0 0 1-.587-.586Z" fill="#24B55E"/><path d="M8.001 28.038h18.594v2.13H8v-2.13Z" fill="#D3DCFB"/><path d="M22.599 28.038a1.1 1.1 0 0 1 0 2.13h3.995v-2.13h-3.995Z" fill="#BEC8F7"/><path d="M6.027 33.94c.66.703 1.371 1.358 2.13 1.957v-7.86h-2.13v5.902Z" fill="#E9EFFF"/><path d="M7.742 11.273h18.056v9.216H7.742v-9.216Z" fill="#FF4155"/><path d="M7.742 20.489h6.703a.353.353 0 0 0-.006-.29c-.382-.811.203-1.243.509-1.405a.341.341 0 0 0 .18-.28l.328-5.268a.348.348 0 0 0-.18-.324c-.655-.365-.59-.952-.493-1.27a.34.34 0 0 0-.1-.36l-.02-.019h-6.92v9.216Z" fill="#E80054"/><path d="m18.685 24.277-.203-1.516H15.06l-.204 1.516c-.104.776-.6 1.158-.656 1.233a.34.34 0 0 0 .245.574h4.65a.34.34 0 0 0 .246-.574c-.053-.072-.553-.46-.656-1.233Z" fill="#D3DCFB"/><path d="m16.232 25.067.076-.758a.842.842 0 0 1 .838-.758h1.441l-.106-.79H15.06l-.204 1.516c-.104.776-.6 1.158-.656 1.233a.34.34 0 0 0 .245.574h1.448c.126-.198.29-.53.34-1.017Z" fill="#BEC8F7"/><path d="M7.742 20.415v1.168c0 .69.562 1.25 1.251 1.25h15.554c.69 0 1.251-.56 1.251-1.25v-1.168H7.742Z" fill="#E9EFFF"/><path d="M14.467 20.415H7.742v1.168c0 .69.562 1.25 1.251 1.25h5.338a.34.34 0 0 0-.045-.315c-.655-.896-.183-1.623.1-1.937a.333.333 0 0 0 .081-.166Zm11.331 5.805v-1.05a.773.773 0 0 0-.772-.772H23.57a.773.773 0 0 0-.771.771v1.052h3Z" fill="#D3DCFB"/><path d="M24.547 9.753H8.993c-.69 0-1.25.56-1.25 1.25v.427h18.055v-.426c0-.69-.56-1.251-1.25-1.251Z" fill="#E80054"/><path d="M14.683 11.292c-.488-.415-.408-.901-.274-1.215a.343.343 0 0 0-.03-.324H8.992c-.69 0-1.25.56-1.25 1.25v.427h7.034a.323.323 0 0 0-.094-.138Z" fill="#CC0053"/><path d="M30.711 8.094a2.692 2.692 0 0 0-2.32 2.839 2.704 2.704 0 0 0 2.513 2.514 2.692 2.692 0 0 0 2.838-2.321.325.325 0 0 0-.323-.365H31.4a.326.326 0 0 1-.325-.326V8.418a.325.325 0 0 0-.365-.324Z" fill="#FFDD40"/><path d="M32.42 7.072V9.09c0 .18.147.325.326.325h2.018c.194 0 .35-.17.324-.362a2.693 2.693 0 0 0-2.305-2.305.324.324 0 0 0-.362.324Z" fill="#FFE98D"/><path d="M24.803 7.185H20.59a1 1 0 0 1-.996-.996V2.686a1 1 0 0 1 .996-.996h4.213a1 1 0 0 1 .996.996v3.502a1 1 0 0 1-.996.997Z" fill="#FFDD40"/><path d="M19.594 2.686V6.19a1 1 0 0 0 .996.996h2.842a.38.38 0 0 0-.071-.213c-.39-.542-.18-1.016.003-1.273a.368.368 0 0 0 .003-.43c-1.02-1.418-.33-2.796.013-3.324a.374.374 0 0 0 .057-.255H20.59a1 1 0 0 0-.996.996Z" fill="#FFB332"/><path d="M26.496 5.495h-4.213a1 1 0 0 1-.996-.996V.996A1 1 0 0 1 22.283 0h4.213a1 1 0 0 1 .996.996V4.5a1 1 0 0 1-.996.996Z" fill="#FC90CE"/><path d="M23.443 0h-1.16a1 1 0 0 0-.996.996V4.5a1 1 0 0 0 .996.996h1.15a.362.362 0 0 0-.067-.226c-1.02-1.418-.331-2.796.013-3.324a.37.37 0 0 0-.014-.427C22.9.91 23.16.42 23.365.174A.354.354 0 0 0 23.444 0Z" fill="#F964B2"/><path d="M24.801 1.69h-3.514v2.809a1 1 0 0 0 .996.996h3.514V2.686a1 1 0 0 0-.996-.996Z" fill="#F964B2"/><path d="M23.366 5.27c-1.019-1.419-.33-2.797.014-3.325a.373.373 0 0 0 .057-.255h-2.149v2.809a1 1 0 0 0 .996.996h1.15a.363.363 0 0 0-.068-.226Z" fill="#EA349C"/><path d="M12.401 7.236a.586.586 0 0 1-.586-.586V5.231a.586.586 0 0 1 1.172 0V6.65a.586.586 0 0 1-.586.586Z" fill="#9BD8F9"/><path d="M14.396 7.236a.586.586 0 0 1-.586-.586V4.183a.586.586 0 1 1 1.171 0V6.65a.586.586 0 0 1-.585.586Z" fill="#73C3F9"/><path d="M16.39 7.236a.586.586 0 0 1-.585-.586V3.135a.586.586 0 1 1 1.172 0V6.65a.586.586 0 0 1-.586.586Z" fill="#4FABF7"/><path d="M16.77 19.177a3.218 3.218 0 1 0 0-6.436 3.218 3.218 0 0 0 0 6.436Zm19.2 12.236v-3.28h-9.531v3.994h9.034c.17-.234.337-.472.497-.714Z" fill="#E9EFFF"/><path d="M29.402 29.132a.94.94 0 0 1 .938-.938h5.63v-.06h-9.531v3.993h2.963v-2.995Zm-2.963 2.995v3.993h5.114a19.25 19.25 0 0 0 3.92-3.993H26.44Z" fill="#D3DCFB"/><path d="M26.439 32.127h2.963v3.993H26.44v-3.993Z" fill="#BEC8F7"/><path d="M31.553 36.12H26.44v2.769a19.092 19.092 0 0 0 5.114-2.769Z" fill="#E9EFFF"/><path d="M29.402 36.567v-.447H26.44v2.769a19.055 19.055 0 0 0 3.34-1.574.937.937 0 0 1-.377-.748Z" fill="#D3DCFB"/><path d="M36.777 26.064H5.12a1.065 1.065 0 1 0 0 2.13h31.658a1.065 1.065 0 0 0 0-2.13Z" fill="#3C58A0"/><path d="M14.062 27.13c0-.589.476-1.066 1.064-1.066H5.12a1.065 1.065 0 1 0 0 2.13h10.007a1.065 1.065 0 0 1-1.064-1.065Z" fill="#2A428C"/><path d="M17.31 21.625a.54.54 0 1 1-1.08 0 .54.54 0 0 1 1.08 0Z" fill="#BEC8F7"/><path d="M5.666 4.64h-1.79a2.95 2.95 0 0 0 2.95 2.948c-.64 0-1.16-1.32-1.16-2.949Z" fill="#73C3F9"/><path d="M7.984 4.64c0 1.628-.519 2.948-1.159 2.948a2.95 2.95 0 0 0 2.95-2.949H7.983Z" fill="#73C3F9"/><path d="M7.984 4.64H5.667c0 1.628.519 2.948 1.159 2.948s1.158-1.32 1.158-2.949Z" fill="#9BD8F9"/><path d="M6.825 1.69c.64 0 1.159 1.32 1.159 2.95h1.79a2.95 2.95 0 0 0-2.949-2.95Z" fill="#9BD8F9"/><path d="M5.666 4.64c0-1.63.52-2.95 1.16-2.95a2.95 2.95 0 0 0-2.95 2.95h1.79Z" fill="#9BD8F9"/><path d="M6.825 1.69c-.64 0-1.159 1.32-1.159 2.95h2.318c0-1.63-.52-2.95-1.16-2.95Z" fill="#73C3F9"/><path d="m17.135 16.756-1.075-2.079c-1.155-.32-.59-1.661-.59-1.662a3.218 3.218 0 1 0 2.783 5.8c-1.792-.342-1.118-2.06-1.118-2.06Z" fill="#D3DCFB"/><path d="m18.109 15.712-1.806-1.018a.284.284 0 0 0-.424.247v2.036c0 .218.234.354.424.248l1.806-1.018a.284.284 0 0 0 0-.495Z" fill="#FF4155"/><path d="M31.401 10.761a.326.326 0 0 1-.325-.326V8.418a.325.325 0 0 0-.365-.324 2.692 2.692 0 0 0-2.32 2.839 2.704 2.704 0 0 0 2.513 2.514c.163.01.323.005.48-.013-1.537-1.557.017-2.673.017-2.673Z" fill="#FFB332"/><path d="M35.15 19.016h-6.992a.904.904 0 0 0-.901.902v.902c0 .496.405.901.901.901h6.992v-2.705Z" fill="#E9EFFF"/><path d="M30.108 20.369c0-.744.61-1.353 1.353-1.353h-3.303a.904.904 0 0 0-.901.902v.902c0 .496.405.901.901.901h3.303a1.357 1.357 0 0 1-1.353-1.352Z" fill="#BEC8F7"/><path d="M35.15 22.307h-6.992a1.49 1.49 0 0 1-1.487-1.487v-.902c0-.82.667-1.488 1.487-1.488h6.992a.586.586 0 1 1 0 1.172h-6.992a.32.32 0 0 0-.315.316v.902a.32.32 0 0 0 .315.316h6.992a.586.586 0 1 1 0 1.171Z" fill="#FFC839"/><path d="M29.952 21.721c0-.323.262-.585.586-.585h-2.38a.32.32 0 0 1-.315-.316v-.902a.32.32 0 0 1 .316-.316h2.38a.586.586 0 0 1 0-1.172h-2.38a1.49 1.49 0 0 0-1.488 1.488v.902c0 .82.667 1.487 1.488 1.487h2.38a.586.586 0 0 1-.587-.585Z" fill="#FFB332"/></g><defs><clipPath id="a"><path fill="#fff" d="M0 0h40v40H0z"/></clipPath></defs></svg>