<svg width="36" height="36" fill="none" xmlns="http://www.w3.org/2000/svg"><path d="M17.227 1.546c-5.543 0-10.474 2.62-13.625 6.686L6.91 32.571A17.15 17.15 0 0 0 17.227 36c9.514 0 17.226-7.713 17.226-17.227S26.741 1.546 17.227 1.546Z" fill="#1C2E7A"/><path d="M27.087 16.227a8.987 8.987 0 0 1-.54.404v13.152a.645.645 0 0 1-.644.644H4.541a17.329 17.329 0 0 0 2.448 2.201h2.865c.395 0 .759.216.943.565a1.86 1.86 0 0 0 3.291 0c.185-.349.549-.565.943-.565h11.284a2.36 2.36 0 0 0 2.353-2.352V17.67l-1.505-1.505-.076.062Z" fill="#FFB332"/><path d="M6.99 32.628h2.864c.395 0 .759.216.943.565a1.86 1.86 0 0 0 3.292 0c-2.365-.36-1.646-2.702-1.646-2.702l-.94-.064H4.54a17.324 17.324 0 0 0 2.448 2.201Z" fill="#FF9100"/><path d="M25.9 28.282a16.598 16.598 0 0 0-13.458.337v1.872h13.46a.757.757 0 0 0 .758-.757v-1.963a.551.551 0 0 1-.76.511Z" fill="#D3DCFB"/><path d="M2.26 27.308A17.284 17.284 0 0 0 4.6 30.49h7.843v-1.872a16.598 16.598 0 0 0-10.183-1.31Z" fill="#BEC8F7"/><path d="m6.245 27.22-.134-.181a16.61 16.61 0 0 0-3.851.268 17.281 17.281 0 0 0 2.34 3.184h3.216c-2.601-1.01-1.57-3.271-1.57-3.271Z" fill="#A8B7EF"/><path d="M12.442 10.58v18.213a16.599 16.599 0 0 1 13.457-.337c.363.15.76-.12.76-.511V16.55c-5.45 3.896-13.185.683-14.217-5.972Z" fill="#E9EFFF"/><path d="M3.661 8.155A17.153 17.153 0 0 0 0 18.773c0 3.17.857 6.14 2.351 8.692a16.598 16.598 0 0 1 10.092 1.328V9.67A16.595 16.595 0 0 0 3.66 8.155Z" fill="#D3DCFB"/><path d="M4.952 24.38V11.855a3.794 3.794 0 0 1 2.703-3.622 16.615 16.615 0 0 0-3.994-.079A17.153 17.153 0 0 0 0 18.774c0 3.17.857 6.139 2.351 8.69a16.609 16.609 0 0 1 3.894-.244 3.773 3.773 0 0 1-1.293-2.84Z" fill="#BEC8F7"/><path d="M10.574 13.614a17.03 17.03 0 0 0-9.714-.227c-.133.405-.252.817-.355 1.235a15.96 15.96 0 0 1 9.737.025.543.543 0 0 0 .332-1.033Zm.001 2.193a17.038 17.038 0 0 0-10.31-.053c-.064.36-.116.723-.157 1.09.1.03.21.03.318-.004a15.962 15.962 0 0 1 9.817 0 .543.543 0 0 0 .332-1.033ZM10.574 18a17.04 17.04 0 0 0-10.48 0 .55.55 0 0 0-.077.032c-.01.246-.017.493-.017.741l.003.222a.541.541 0 0 0 .422.039 15.963 15.963 0 0 1 9.817 0 .542.542 0 1 0 .332-1.033Z" fill="#A8B7EF"/><path d="M13.96 18.683a.543.543 0 0 1 .35-.682 17.35 17.35 0 0 1 1.29-.36.543.543 0 0 1 .25 1.057c-.406.096-.812.209-1.208.336a.543.543 0 0 1-.682-.35Z" fill="#BEC8F7"/><path d="M10.575 20.195a17.04 17.04 0 0 0-10.48-.001l-.034.013c.028.35.068.696.117 1.04.08.012.165.007.248-.02a15.962 15.962 0 0 1 9.817 0 .543.543 0 0 0 .332-1.032Z" fill="#A8B7EF"/><path d="M13.96 20.877a.543.543 0 0 1 .35-.683 17.042 17.042 0 0 1 10.481 0 .543.543 0 0 1-.332 1.033 15.961 15.961 0 0 0-9.817 0 .543.543 0 0 1-.682-.35Z" fill="#BEC8F7"/><path d="M10.574 22.388a17.035 17.035 0 0 0-10.212-.084c.075.357.16.709.256 1.057 3.154-.97 6.477-.95 9.624.06a.543.543 0 1 0 .332-1.033Z" fill="#A8B7EF"/><path d="M13.96 23.07a.543.543 0 0 1 .35-.682 17.041 17.041 0 0 1 10.481 0 .543.543 0 0 1-.332 1.033 15.963 15.963 0 0 0-9.817 0 .543.543 0 0 1-.682-.35Z" fill="#BEC8F7"/><path d="M10.574 24.582a17.03 17.03 0 0 0-9.655-.243c.118.345.247.685.385 1.02a15.952 15.952 0 0 1 8.938.256.543.543 0 0 0 .332-1.033Z" fill="#A8B7EF"/><path d="M13.96 25.264a.543.543 0 0 1 .35-.682 17.042 17.042 0 0 1 10.481-.001.543.543 0 0 1-.332 1.033 15.963 15.963 0 0 0-9.817 0 .543.543 0 0 1-.682-.35Z" fill="#BEC8F7"/><path d="M21.397 18.343a9.172 9.172 0 1 0 0-18.343 9.172 9.172 0 1 0 0 18.343Z" fill="#9BD8F9"/><path d="M27.66 15.674c-.544-.135-.716-.566-.77-.827a.282.282 0 0 0-.223-.224c-.403-.071-.524-.36-.558-.558a.286.286 0 0 0-.232-.23c-3.551-.65-3.286-3.692-3.216-4.204.007-.05 0-.1-.018-.147l-.323-.794a.287.287 0 0 0-.204-.173c-2.235-.487-1.97-2.41-1.899-2.773a.284.284 0 0 0-.003-.125l-.224-.886a.285.285 0 0 0-.207-.208c-.816-.197-.843-.928-.798-1.31a.29.29 0 0 0-.18-.299c-.356-.153-.378-.456-.339-.675a.286.286 0 0 0-.187-.319c-.543-.191-.57-.683-.535-.97a.28.28 0 0 0-.039-.178 9.172 9.172 0 1 0 10.087 14.972.292.292 0 0 0-.131-.072Z" fill="#73C3F9"/><path d="M21.397 16.36a7.189 7.189 0 1 0 0-14.377 7.189 7.189 0 0 0 0 14.378Z" fill="#4FABF7"/><path d="M26.108 14.065a.286.286 0 0 0-.232-.23c-3.55-.65-3.286-3.692-3.215-4.204.007-.05 0-.1-.019-.147l-.322-.794a.287.287 0 0 0-.204-.173c-2.235-.486-1.97-2.41-1.9-2.773a.286.286 0 0 0-.003-.125l-.224-.886a.285.285 0 0 0-.207-.208c-.815-.197-.843-.928-.798-1.31a.291.291 0 0 0-.179-.299.544.544 0 0 1-.32-.319 7.189 7.189 0 1 0 7.806 11.84.694.694 0 0 1-.183-.372Z" fill="#1E9EF4"/><path d="M15.93 14.639a7.727 7.727 0 0 1 0-10.934c3.015-3.015 7.92-3.015 10.934 0 3.015 3.014 3.015 7.92 0 10.934-3.014 3.015-7.919 3.015-10.934 0Zm-1.179-5.467c0 5.907 7.187 8.858 11.346 4.7a6.654 6.654 0 0 0 0-9.4C21.945.32 14.751 3.254 14.751 9.172Z" fill="#73C3F9"/><path d="M26.667 14.623c-.403-.07-.524-.36-.558-.558a.277.277 0 0 0-.069-.138c-4.167 4.076-11.289 1.125-11.289-4.755 0-2.987 1.833-5.213 4.182-6.152a.302.302 0 0 0-.127-.104c-.357-.153-.38-.456-.34-.675a.28.28 0 0 0-.043-.205 7.728 7.728 0 0 0-2.493 12.603c2.996 2.996 7.858 3.014 10.877.056a.265.265 0 0 0-.14-.072Z" fill="#4FABF7"/><path d="M29.407 17.182c.265-.265.605-.408.952-.43l-1.854-1.854a.977.977 0 1 0-1.381 1.382l1.853 1.853c.023-.346.165-.687.43-.951Zm-7.461-3.654a.549.549 0 1 0-1.097 0 .549.549 0 0 0 1.097 0Zm-.549-1.258a.543.543 0 0 1-.543-.543V9.315c0-.3.243-.543.543-.543.488 0 .942-.195 1.279-.55.337-.354.508-.82.483-1.309a1.764 1.764 0 0 0-3.526.095.543.543 0 0 1-1.086 0 2.847 2.847 0 0 1 2.908-2.85 2.858 2.858 0 0 1 2.787 2.699c.041.79-.235 1.54-.779 2.112a2.822 2.822 0 0 1-1.524.838v1.92c0 .3-.243.543-.542.543Z" fill="#E9EFFF"/><path d="M29.305 17.079c-.58.58-.58 1.518 0 2.098l4.163 4.163a1.483 1.483 0 1 0 2.098-2.098l-4.164-4.163a1.483 1.483 0 0 0-2.098 0Z" fill="#FF4155"/><path d="M31.766 19.545a1.619 1.619 0 0 1 1.743-.359l-2.107-2.107a1.483 1.483 0 1 0-2.098 2.098l2.097 2.096a1.618 1.618 0 0 1 .365-1.728Z" fill="#E80054"/></svg>