<svg width="36" height="36" fill="none" xmlns="http://www.w3.org/2000/svg"><g clip-path="url(#a)"><path d="M34.432 23.96a17.23 17.23 0 0 0 .795-5.187C35.227 9.26 27.514 1.546 18 1.546S.773 9.26.773 18.773c0 1.807.28 3.55.796 5.186h32.863Z" fill="#FF4155"/><path d="M32.107 11.568v-8.66A2.907 2.907 0 0 0 29.2 0H6.8a2.908 2.908 0 0 0-2.907 2.907v8.66h28.214Z" fill="#167CC1"/><path d="M13.598 7.33c-2.106-.727-1.451-2.699-1.451-2.699-.305-.305 0-.603 0-.603V2.585c-.291-.291 0-.604 0-.604-1.191-1.049 0-1.981 0-1.981H6.8a2.907 2.907 0 0 0-2.907 2.907v8.66H13.3l.298-4.237Z" fill="#0E62A8"/><path d="M5.874 31.008A17.17 17.17 0 0 0 18 36a17.17 17.17 0 0 0 12.126-4.992V4.484H5.874v26.524Z" fill="#73C3F9"/><path d="M5.874 31.008a17.235 17.235 0 0 0 6.371 4.006V32c-1.397-1.087 0-2.167 0-2.167-2.03-1.614 0-3.28 0-3.28L13.598 7.33c-2.106-.727-1.451-2.7-1.451-2.7a.483.483 0 0 1-.103-.146h-6.17v26.524Z" fill="#4FABF7"/><path d="M31.262 29.769H4.74a17.4 17.4 0 0 0 2.227 2.233h8.422c.4 0 .769.218.955.572a1.886 1.886 0 0 0 3.339 0 1.08 1.08 0 0 1 .956-.572h8.397a17.333 17.333 0 0 0 2.226-2.233ZM3.71 10.295a2.394 2.394 0 0 0-2.176 2.376v11.177a17.152 17.152 0 0 0 2.175 4.547v-18.1Zm30.758 13.553V12.67a2.394 2.394 0 0 0-2.15-2.374v18.06a17.155 17.155 0 0 0 2.15-4.51Z" fill="#FFB332"/><path d="M32.43 28.183v-1.108a.56.56 0 0 1-.77.518 16.833 16.833 0 0 0-13.647.343v1.898h13.194c.44-.525.848-1.076 1.224-1.65Z" fill="#D3DCFB"/><path d="M4.365 27.594a.56.56 0 0 1-.771-.519v1.146c.369.561.77 1.1 1.2 1.613h13.218v-1.898a16.833 16.833 0 0 0-13.647-.342Z" fill="#BEC8F7"/><path d="M29.2 1.981H6.8a.93.93 0 0 0-.926.927V4.63h24.252V2.907a.929.929 0 0 0-.926-.926Z" fill="#2A428C"/><path d="M12.147 4.028V2.585c-.29-.291 0-.604 0-.604H6.8a.93.93 0 0 0-.926.927V4.63h6.273c-.305-.305 0-.603 0-.603Z" fill="#1C2E7A"/><path d="M8.666 3.817a.721.721 0 1 0-1.02-1.02.721.721 0 0 0 1.02 1.02Z" fill="#FF4155"/><path d="M10.874 3.306a.722.722 0 1 1-1.443 0 .722.722 0 0 1 1.443 0Z" fill="#FFDD40"/><path d="M12.425 3.97a.722.722 0 1 0-.552-1.334.722.722 0 0 0 .553 1.333Z" fill="#38C674"/><path d="M22.478 3.856h-7.24a.55.55 0 0 1 0-1.1h7.24a.55.55 0 1 1 0 1.1Zm5.882 0h-.628a.55.55 0 1 1 0-1.1h.627a.55.55 0 0 1 0 1.1Zm-2.181 0h-.628a.55.55 0 0 1 0-1.1h.628a.55.55 0 1 1 0 1.1Z" fill="#3C58A0"/><path d="M32.099 8.565a16.833 16.833 0 0 0-14.086.153v19.394a16.833 16.833 0 0 1 13.647-.342.56.56 0 0 0 .77-.518V9.077a.561.561 0 0 0-.331-.512Z" fill="#E9EFFF"/><path d="M3.926 8.565a16.833 16.833 0 0 1 14.086.153v19.394a16.833 16.833 0 0 0-13.647-.342.56.56 0 0 1-.771-.518V9.077a.56.56 0 0 1 .332-.512Z" fill="#D3DCFB"/><path d="M10.803 23.409V11.262a4.182 4.182 0 0 1 2.795-3.932 16.832 16.832 0 0 0-9.672 1.234.561.561 0 0 0-.332.512v18.176c0 .397.403.67.77.518a16.83 16.83 0 0 1 7.88-1.216 4.16 4.16 0 0 1-1.441-3.145Zm19.565-11.841a.55.55 0 0 1-.169-.027c-.47-.151-.954-.282-1.437-.39a.55.55 0 0 1 .24-1.074 17.42 17.42 0 0 1 1.534.416.55.55 0 0 1-.168 1.075Z" fill="#BEC8F7"/><path d="M5.657 11.568a.55.55 0 0 1-.168-1.075 17.388 17.388 0 0 1 1.534-.416.55.55 0 1 1 .24 1.074c-.483.108-.967.24-1.438.39a.55.55 0 0 1-.168.027Zm10.293 2.225a.549.549 0 0 1-.17-.026 16.189 16.189 0 0 0-9.955-.001.55.55 0 1 1-.336-1.048 17.282 17.282 0 0 1 10.628 0 .55.55 0 0 1-.168 1.075Z" fill="#A8B7EF"/><path d="M20.076 13.793a.55.55 0 0 1-.169-1.075 17.282 17.282 0 0 1 10.63 0 .55.55 0 0 1-.337 1.048 16.188 16.188 0 0 0-9.956 0 .548.548 0 0 1-.168.027Z" fill="#BEC8F7"/><path d="M15.95 16.017a.549.549 0 0 1-.17-.026 16.188 16.188 0 0 0-9.955-.001.55.55 0 1 1-.336-1.048 17.28 17.28 0 0 1 10.628 0 .55.55 0 0 1-.168 1.075Z" fill="#A8B7EF"/><path d="M20.076 16.017a.55.55 0 0 1-.169-1.074 17.28 17.28 0 0 1 10.63 0 .55.55 0 0 1-.337 1.047 16.188 16.188 0 0 0-9.956 0 .548.548 0 0 1-.168.027Z" fill="#BEC8F7"/><path d="M15.95 18.242a.549.549 0 0 1-.17-.027 16.189 16.189 0 0 0-9.955 0 .55.55 0 1 1-.336-1.048 17.283 17.283 0 0 1 10.628 0 .55.55 0 0 1-.168 1.075Z" fill="#A8B7EF"/><path d="M20.076 18.242a.55.55 0 0 1-.169-1.075 17.283 17.283 0 0 1 10.63 0 .55.55 0 0 1-.337 1.048 16.188 16.188 0 0 0-9.956 0 .549.549 0 0 1-.168.027Z" fill="#BEC8F7"/><path d="M15.95 20.466a.549.549 0 0 1-.17-.026 16.188 16.188 0 0 0-9.955 0 .55.55 0 0 1-.336-1.049 17.28 17.28 0 0 1 10.628.001.55.55 0 0 1-.168 1.074Z" fill="#A8B7EF"/><path d="M20.076 20.467a.55.55 0 0 1-.169-1.075 17.28 17.28 0 0 1 10.63 0 .55.55 0 0 1-.337 1.047 16.187 16.187 0 0 0-9.956.001.548.548 0 0 1-.168.027Z" fill="#BEC8F7"/><path d="M15.95 22.69a.549.549 0 0 1-.17-.026 16.189 16.189 0 0 0-9.955 0 .55.55 0 1 1-.336-1.048 17.282 17.282 0 0 1 10.628 0 .55.55 0 0 1-.168 1.075Z" fill="#A8B7EF"/><path d="M20.076 22.69a.55.55 0 0 1-.169-1.074 17.282 17.282 0 0 1 10.63 0 .55.55 0 0 1-.337 1.048 16.187 16.187 0 0 0-9.956 0 .549.549 0 0 1-.168.027Z" fill="#BEC8F7"/><path d="M15.95 24.916a.55.55 0 0 1-.17-.027 16.188 16.188 0 0 0-9.955 0 .55.55 0 1 1-.336-1.048 17.28 17.28 0 0 1 10.628 0 .55.55 0 0 1-.168 1.075Z" fill="#A8B7EF"/><path d="M20.076 24.915a.55.55 0 0 1-.169-1.074 17.28 17.28 0 0 1 10.63 0 .55.55 0 0 1-.337 1.047 16.188 16.188 0 0 0-9.956 0 .548.548 0 0 1-.168.027Z" fill="#BEC8F7"/></g><defs><clipPath id="a"><path fill="#fff" d="M0 0h36v36H0z"/></clipPath></defs></svg>