<svg width="36" height="36" fill="none" xmlns="http://www.w3.org/2000/svg"><g clip-path="url(#a)"><path d="M30.466 29.837A17.167 17.167 0 0 0 35.178 18c0-9.514-7.712-17.227-17.227-17.227C8.437.773.725 8.486.725 18c0 4.542 1.758 8.672 4.63 11.75l25.111.087Z" fill="#1C2E7A"/><path d="M26.746 27.02a3.624 3.624 0 0 0-.251-.168c-.537-.339-.597-.486-.354-1.157.1-.279.204-.566.145-.873-.104-.54-.59-.758-1.059-.97-.49-.22-.648-.303-.899-.611-.26-.32-.494-.514-1.04-.516-.72-.003-1.509.356-1.854-.095-.17-.22-.14-.54-.108-.878.103-1.085-.177-1.691-.245-2.63a4.692 4.692 0 0 1 1.15-3.393 12.75 12.75 0 0 0-4.26-.748c-1.116-.004-2.2.135-3.233.4a3.805 3.805 0 0 0-.313.705c-.242.765-.127 1.554.302 2.06.49.581 1.369.825 1.499 1.457.073.357-.124.708-.333 1.078-.212.375-.43.763-.401 1.207.037.574.454.961.858 1.335.967.898.683 1.02.861 1.502.207.56.864.756 1.074 1.184.45.917-1.282 2.859-4.146 3.152-.443.044-.901.079-1.242.371-.351.302-.222.46-1.1.714a3.043 3.043 0 0 0-.647.243c-.981.549-.988 2.191-.01 2.747.607.345 1.47.342 1.63.886.048.16.03.268.038.424 1.625.507 3.352.78 5.143.78 2.342 0 4.574-.468 6.609-1.314.017-.575-.226-1.119-.354-1.645-.12-.494-.105-1.17.333-1.448.27-.171.64-.157 1.002-.219.808-.138 1.507-.688 1.781-1.402.295-.77.047-1.705-.576-2.177Z" fill="#73C3F9"/><path d="M18.928 32.101c-1.854-.705-2-2.081-1.83-3.054a1.236 1.236 0 0 0-.197-.917c-.71.454-1.65.817-2.762.93-.443.045-.901.08-1.242.372-.351.302-.222.46-1.1.714a3.04 3.04 0 0 0-.647.243c-.981.549-.988 2.191-.01 2.747.607.345 1.47.342 1.63.886.048.16.03.268.038.424a17.33 17.33 0 0 0 7.75.584c-.01-1.085.098-2.272-1.63-2.929Z" fill="#4FABF7"/><path d="M17.376 24.664c-.058-.157-.063-.328-.104-.49-.233-.926-1.543-1.344-1.605-2.297-.054-.822.897-1.503.73-2.31-.148-.724-1.059-.969-1.536-1.534-.43-.508-.47-1.26-.268-1.894a3.74 3.74 0 0 1 .38-.816C9.36 16.648 5.17 21.678 5.145 27.7c-.003.673.047 1.334.145 1.98a17.228 17.228 0 0 0 7.7 4.82l-.001-.013c-.017-.172-.001-.349-.05-.515-.194-.657-1.117-.65-1.713-.989-.858-.488-.853-1.959.01-2.44.452-.253 1.037-.253 1.42-.602.128-.116.224-.263.355-.376.307-.263.744-.289 1.146-.33 1.513-.154 3.052-.765 3.969-1.979.309-.409.543-.964.317-1.424-.236-.479-.882-.668-1.067-1.168Z" fill="#4FABF7"/><path d="M16.302 27.669c-4.082-1.445-1.002-5.884-3.346-7.146-1.756-.946-1.632-2.8-1.39-3.851A12.766 12.766 0 0 0 5.29 29.68a17.228 17.228 0 0 0 7.7 4.82l-.001-.013c-.017-.172-.001-.349-.05-.514-.194-.657-1.117-.651-1.713-.99-.858-.487-.853-1.958.01-2.44.452-.253 1.037-.253 1.42-.601.128-.116.224-.264.355-.376.307-.264.744-.29 1.146-.33.997-.102 2.004-.404 2.838-.944a1.216 1.216 0 0 0-.693-.623Z" fill="#1E9EF4"/><path d="M22.055 15.666c-.807.952-1.24 2.222-1.149 3.469.059.802.319 1.592.264 2.394-.029.415-.128.879.125 1.208.567.74 1.908-.213 2.648.353.162.123.268.305.412.448.539.533 1.616.573 1.76 1.317.107.559-.458 1.132-.233 1.654.134.31.488.447.758.651.582.441.78 1.293.518 1.975-.26.681-.926 1.17-1.645 1.292-.363.062-.757.046-1.068.244-.508.323-.552 1.053-.41 1.637.136.558.39 1.11.346 1.678a17.255 17.255 0 0 0 6.151-4.22 12.85 12.85 0 0 0 .158-1.958c.024-5.625-3.592-10.416-8.635-12.142Z" fill="#4FABF7"/><path d="M28.333 22.597a1.88 1.88 0 1 0-3.658-.877 1.88 1.88 0 0 0 3.658.877Z" fill="#FFDD40"/><path d="M27.144 23.932c-.993-.453-.393-1.302-.393-1.302l-.324-.891c-.93-.189-.912-.873-.84-1.216a1.882 1.882 0 0 0 1.556 3.41Z" fill="#FFB332"/><path d="M26.047 22.386a.527.527 0 0 1 .244-.704l2.953-1.432.016-3.828a.527.527 0 0 1 1.054.005l-.018 4.156a.527.527 0 0 1-.297.472l-3.248 1.575a.527.527 0 0 1-.704-.244Z" fill="#E9EFFF"/><path d="M10.045 23.843a1.882 1.882 0 1 0-1.366-3.507 1.882 1.882 0 0 0 1.366 3.507Z" fill="#49D88B"/><path d="M10.133 23.8c-.928-.415-.464-1.29-.464-1.29l-.122-.604c-.973-.598-.394-1.693-.394-1.693a1.882 1.882 0 1 0 .98 3.586Z" fill="#38C674"/><path d="m9.127 22.555-3.234-1.602a.527.527 0 0 1-.293-.474l.017-4.157a.527.527 0 0 1 1.054.005l-.016 3.827 2.94 1.457a.527.527 0 0 1-.468.944Z" fill="#E9EFFF"/><path d="m14.558 11.758-.827-.004a.527.527 0 0 1 .004-1.054l.828.004a.527.527 0 0 1-.005 1.054Zm2.561.011-.828-.004a.527.527 0 0 1 .005-1.054l.827.004a.527.527 0 0 1-.004 1.054Zm2.559.011-.827-.004a.527.527 0 0 1 .004-1.054l.828.003a.527.527 0 1 1-.005 1.054Zm2.562.01-.828-.004a.527.527 0 1 1 .004-1.054l.827.004a.527.527 0 0 1-.004 1.054Z" fill="#3C58A0"/><path d="M33.817 15.284a5.637 5.637 0 1 0-7.972-7.973 5.637 5.637 0 0 0 7.972 7.973Z" fill="#FFC839"/><path d="M33.79 15.313a.587.587 0 0 1-.174-.423.152.152 0 0 0-.167-.145c-1.078.105-3.243-.409-3.768-.54a.153.153 0 0 1-.117-.15l.024-5.66a.156.156 0 0 0-.052-.116c-.598-.546-.391-1.084-.242-1.328a.155.155 0 0 0-.049-.208c-.168-.118-.146-.29-.106-.406a.153.153 0 0 0-.063-.183c-.196-.118-.274-.26-.29-.399a5.639 5.639 0 0 0 1.026 11.178 5.619 5.619 0 0 0 3.978-1.62Z" fill="#FFB332"/><path d="M33.417 14.66c-.012-.002.007.002-.039-.005h-.001c-.37-.055-.94.073-1.506-.26a3.78 3.78 0 0 1-.832.892 1.99 1.99 0 0 1-2.441-.01 3.815 3.815 0 0 1-.825-.9c-.551.321-1.092.197-1.476.244-.046.006-.051.006-.072.01l.004.002a1.588 1.588 0 0 0-.694.307 5.624 5.624 0 0 0 4.276 1.993 5.624 5.624 0 0 0 4.294-1.958 1.585 1.585 0 0 0-.69-.313l.002-.002Z" fill="#E9EFFF"/><path d="M28.598 15.277a3.815 3.815 0 0 1-.825-.9c-.551.321-1.092.197-1.476.244-.046.006-.051.006-.072.01l.004.002a1.588 1.588 0 0 0-.694.307c.363.428.789.8 1.263 1.104.247-.046.53-.09.853-.129.535-.062.94-.233 1.249-.444a1.977 1.977 0 0 1-.302-.194Z" fill="#BEC8F7"/><path d="M27.707 14.415c.265.432.59.767.89 1.003a1.99 1.99 0 0 0 2.442.01c.303-.234.63-.566.899-.996a1.77 1.77 0 0 1-.465-.36c-.257-.274-.322-.493-.51-.826a2.448 2.448 0 0 1-2.27-.01c-.202.348-.263.555-.52.822h.002a1.786 1.786 0 0 1-.468.357Z" fill="#FCAD6D"/><path d="M29.658 13.513a2.44 2.44 0 0 1-.966-.277c-.201.348-.262.555-.518.822a1.782 1.782 0 0 1-.467.357c.265.432.59.767.89 1.003.06.046.123.088.188.128.862-.52 1.038-1.368 1.038-1.368l-.165-.665Z" fill="#FD995B"/><path d="M29.393 6.815c-1.389.183-1.524.969-1.525 1.257a.16.16 0 0 1-.09.143c-.722.348-.34 2.042-.34 2.042.072.005.18.067.237.095a1.244 1.244 0 0 1 .163-.438.569.569 0 0 0 .089-.347c-.025-.353-.042-1.016.424-1.224.396-.176.88-.07 1.188.033a.98.98 0 0 0 .618.003c.31-.102.794-.202 1.188-.023.464.21.442.87.415 1.224a.571.571 0 0 0 .085.351 1.235 1.235 0 0 1 .16.44c.07-.035.206-.105.293-.092.012-.37.048-.769.048-.769.42-2.012-1.459-2.893-2.953-2.695Z" fill="#A05838"/><path d="M29.539 8.376c.016.006.032.01.049.015a.157.157 0 0 0-.052-.112c-.598-.546-.39-1.084-.242-1.328a.147.147 0 0 0 .014-.124c-1.308.204-1.439.963-1.44 1.245a.158.158 0 0 1-.09.143c-.722.348-.34 2.042-.34 2.042.072.005.18.067.237.095a1.245 1.245 0 0 1 .163-.438.569.569 0 0 0 .089-.347c-.025-.353-.042-1.016.424-1.224.396-.176.88-.07 1.188.033Z" fill="#823C26"/><path d="M32.42 10.328c-.107-.1-.323-.05-.416.01.02.127.02.257.003.385l-.114.8c0 .064-.002.127-.006.189.267.082.401-.158.424-.323.01-.07.026-.14.048-.209.073-.222.331-.603.062-.852Zm-5.16-.022c.108-.099.323-.048.415.014a1.304 1.304 0 0 0-.005.385l.106.8c0 .064.002.128.005.19-.268.08-.4-.162-.421-.327a1.234 1.234 0 0 0-.047-.21c-.07-.222-.326-.605-.054-.852Z" fill="#FD995B"/><path d="M31.972 10.09a1.075 1.075 0 0 0-.094-.191.575.575 0 0 1-.085-.352c.027-.353.016-1.046-.448-1.257-.394-.179-.878-.078-1.188.023a.98.98 0 0 1-.618-.002c-.308-.104-.792-.21-1.187-.033-.467.207-.483.903-.458 1.256a.57.57 0 0 1-.089.347c-.038.06-.069.123-.093.185a1.28 1.28 0 0 0-.075.638l.106.8a2.94 2.94 0 0 0 1.126 2.343 1.559 1.559 0 0 0 1.911.008 2.939 2.939 0 0 0 1.146-2.333l.113-.8c.03-.212.01-.43-.067-.632Z" fill="#F9BA8F"/><path d="M29.992 13.851c-.358-.407-.779-1.19-.774-2.34l-.072-.8a1.817 1.817 0 0 1 .052-.638c.017-.063.039-.126.065-.185a.776.776 0 0 0 .062-.348c-.016-.332-.006-.968.264-1.215l-.05-.014c-.308-.104-.792-.21-1.187-.033-.467.207-.483.903-.458 1.256a.569.569 0 0 1-.089.347 1.06 1.06 0 0 0-.093.185 1.28 1.28 0 0 0-.075.638l.106.8a2.94 2.94 0 0 0 1.126 2.343 1.559 1.559 0 0 0 1.444.253 1.024 1.024 0 0 1-.32-.249Z" fill="#FCAD6D"/><path d="M29.81 17.46a6.172 6.172 0 0 1-6.139-6.191 6.172 6.172 0 0 1 6.191-6.14 6.172 6.172 0 0 1 6.14 6.192 6.172 6.172 0 0 1-6.192 6.14Zm.048-11.276a5.117 5.117 0 0 0-5.133 5.09 5.117 5.117 0 0 0 5.09 5.132 5.117 5.117 0 0 0 5.132-5.09 5.117 5.117 0 0 0-5.09-5.132Z" fill="#FFE98D"/><path d="M34.345 15.469c-.617.024-.721-.35-.728-.58a.148.148 0 0 0-.05-.105 5.098 5.098 0 0 1-3.753 1.622 5.117 5.117 0 0 1-5.09-5.132 5.118 5.118 0 0 1 4.416-5.042.149.149 0 0 0-.064-.078c-.474-.285-.255-.714-.136-.889a.153.153 0 0 0 .025-.073 6.174 6.174 0 0 0-5.294 6.077 6.172 6.172 0 0 0 6.139 6.191 6.15 6.15 0 0 0 4.558-1.99.15.15 0 0 0-.023-.001Z" fill="#FFC839"/><path d="M10.15 15.18a5.637 5.637 0 1 0-7.973-7.972 5.637 5.637 0 0 0 7.973 7.973Z" fill="#38C674"/><path d="M10.12 15.213a.587.587 0 0 1-.174-.423.152.152 0 0 0-.167-.145c-1.078.105-3.243-.409-3.768-.54a.153.153 0 0 1-.117-.149l.024-5.66a.156.156 0 0 0-.052-.117c-.598-.546-.391-1.084-.242-1.328a.155.155 0 0 0-.049-.208c-.168-.118-.146-.29-.106-.406a.153.153 0 0 0-.063-.183c-.196-.117-.274-.26-.29-.398a5.64 5.64 0 0 0 1.026 11.177 5.62 5.62 0 0 0 3.978-1.62Z" fill="#24B55E"/><path d="M9.747 14.56c-.012-.002.007.002-.039-.005h-.001c-.37-.055-.94.073-1.506-.26a3.78 3.78 0 0 1-.832.892 1.99 1.99 0 0 1-2.441-.01 3.814 3.814 0 0 1-.825-.9c-.551.32-1.092.197-1.476.244l-.072.009.004.003a1.589 1.589 0 0 0-.694.307 5.624 5.624 0 0 0 4.276 1.993 5.624 5.624 0 0 0 4.294-1.958 1.585 1.585 0 0 0-.69-.313l.002-.002Z" fill="#E9EFFF"/><path d="M4.928 15.177a3.814 3.814 0 0 1-.825-.9c-.551.32-1.092.197-1.476.244l-.072.009.004.003a1.589 1.589 0 0 0-.694.307c.363.427.789.8 1.263 1.104.247-.046.53-.09.853-.129.535-.062.94-.233 1.25-.444a1.978 1.978 0 0 1-.303-.194Z" fill="#BEC8F7"/><path d="M4.037 14.315c.265.431.59.767.89 1.002a1.99 1.99 0 0 0 2.442.01c.303-.233.63-.565.9-.995a1.77 1.77 0 0 1-.466-.36h.001c-.258-.274-.323-.493-.512-.826a2.448 2.448 0 0 1-2.27-.01c-.201.348-.262.555-.518.822a1.787 1.787 0 0 1-.467.357Z" fill="#FCAD6D"/><path d="M5.988 13.413a2.44 2.44 0 0 1-.966-.277c-.201.348-.262.555-.518.822a1.78 1.78 0 0 1-.467.357c.265.432.59.767.89 1.003.06.046.123.088.188.128.862-.52 1.038-1.368 1.038-1.368l-.165-.665Z" fill="#FD995B"/><path d="M5.723 6.715c-1.388.183-1.524.969-1.525 1.258a.16.16 0 0 1-.09.142c-.722.348-.34 2.042-.34 2.042.072.005.18.068.237.095a1.238 1.238 0 0 1 .163-.438.57.57 0 0 0 .089-.347c-.025-.353-.042-1.016.425-1.224.395-.175.879-.07 1.187.033a.98.98 0 0 0 .618.003c.31-.101.794-.202 1.188-.023.464.211.442.87.415 1.224-.01.123.02.247.085.351.04.062.07.127.095.192.03.08.051.163.065.248.071-.035.206-.105.293-.092.012-.37.048-.769.048-.769.42-2.011-1.459-2.892-2.953-2.695Z" fill="#A05838"/><path d="M5.869 8.276c.016.006.033.01.049.015a.157.157 0 0 0-.052-.112c-.598-.546-.39-1.084-.242-1.328a.146.146 0 0 0 .014-.123c-1.308.203-1.439.962-1.44 1.245a.16.16 0 0 1-.09.142c-.722.348-.34 2.042-.34 2.042.072.005.18.068.237.095a1.24 1.24 0 0 1 .163-.438.57.57 0 0 0 .089-.347c-.025-.353-.042-1.016.425-1.223.395-.176.879-.072 1.187.032Z" fill="#823C26"/><path d="M8.752 10.228c-.108-.1-.323-.05-.417.01.02.127.02.257.003.385l-.114.8c0 .064-.002.127-.006.19.267.081.401-.159.424-.324.01-.07.026-.14.049-.209.072-.222.33-.603.06-.852Zm-5.162-.022c.108-.099.323-.048.416.013a1.314 1.314 0 0 0-.006.386l.106.8c0 .064.002.128.005.19-.268.08-.4-.162-.421-.327a1.228 1.228 0 0 0-.047-.21c-.07-.222-.326-.605-.054-.852Z" fill="#FD995B"/><path d="M8.302 9.99a1.068 1.068 0 0 0-.094-.191.575.575 0 0 1-.085-.351c.027-.354.016-1.046-.448-1.257-.394-.18-.878-.079-1.188.022a.981.981 0 0 1-.618-.002c-.308-.104-.792-.209-1.187-.033-.467.208-.482.903-.458 1.256a.57.57 0 0 1-.089.348 1.026 1.026 0 0 0-.093.184 1.28 1.28 0 0 0-.075.638l.106.8A2.94 2.94 0 0 0 5.2 13.748a1.558 1.558 0 0 0 1.911.008 2.94 2.94 0 0 0 1.146-2.333l.114-.799c.03-.213.009-.431-.068-.632Z" fill="#F9BA8F"/><path d="M6.322 13.751c-.358-.407-.779-1.19-.774-2.34l-.072-.8a1.82 1.82 0 0 1 .052-.639c.017-.062.039-.125.065-.185a.776.776 0 0 0 .062-.347c-.016-.332-.006-.968.264-1.215l-.05-.014c-.308-.104-.792-.21-1.187-.033-.467.207-.482.903-.458 1.256a.57.57 0 0 1-.089.347c-.038.06-.069.123-.093.185a1.28 1.28 0 0 0-.075.638l.106.8A2.94 2.94 0 0 0 5.2 13.748 1.558 1.558 0 0 0 6.643 14a1.026 1.026 0 0 1-.32-.249Z" fill="#FCAD6D"/><path d="M6.14 17.36a6.172 6.172 0 0 1-6.139-6.19 6.172 6.172 0 0 1 6.191-6.14 6.172 6.172 0 0 1 6.14 6.192A6.172 6.172 0 0 1 6.14 17.36Zm.048-11.276a5.117 5.117 0 0 0-5.133 5.09 5.117 5.117 0 0 0 5.09 5.133 5.117 5.117 0 0 0 5.132-5.09 5.117 5.117 0 0 0-5.09-5.133Z" fill="#49D88B"/><path d="M10.675 15.369c-.616.025-.721-.35-.728-.579a.147.147 0 0 0-.05-.106 5.097 5.097 0 0 1-3.752 1.622 5.117 5.117 0 0 1-5.09-5.132A5.118 5.118 0 0 1 5.47 6.132a.149.149 0 0 0-.064-.077c-.474-.286-.255-.715-.136-.89a.153.153 0 0 0 .025-.073 6.175 6.175 0 0 0-5.294 6.077A6.172 6.172 0 0 0 6.14 17.36a6.15 6.15 0 0 0 4.558-1.99l-.023-.001Z" fill="#38C674"/></g><defs><clipPath id="a"><path fill="#fff" d="M0 0h36v36H0z"/></clipPath></defs></svg>