<svg width="350" height="268" viewBox="0 0 350 268" fill="none" xmlns="http://www.w3.org/2000/svg">
<path d="M171.459 249.571C177.27 255.414 184.167 260.048 191.759 263.21C199.35 266.372 207.487 268 215.704 268C223.921 268 232.058 266.372 239.649 263.21C247.241 260.048 254.138 255.414 259.949 249.571C262.445 247.061 264.72 244.348 266.752 241.466L251.8 241.377C247.06 246.144 241.433 249.925 235.239 252.505C229.046 255.085 222.408 256.412 215.704 256.412C209 256.412 202.362 255.085 196.169 252.505C189.975 249.925 184.348 246.144 179.608 241.377H164.594C166.642 244.293 168.937 247.035 171.459 249.571Z" fill="#236967"/>
<path d="M71.2524 19.4866C76.9238 13.7836 83.6563 9.26019 91.0652 6.17422C98.4741 3.08825 106.415 1.50004 114.434 1.50004C122.452 1.50004 130.393 3.08825 137.802 6.17422C145.211 9.26019 151.943 13.7836 157.615 19.4866C159.362 21.244 160.999 23.1028 162.516 25.0518L151.145 25.1189C146.361 20.4223 140.727 16.6852 134.545 14.1104C128.169 11.4547 121.335 10.0877 114.434 10.0877C107.532 10.0877 100.698 11.4547 94.3215 14.1104C88.1383 16.6859 82.5036 20.4243 77.7187 25.1226H66.2958C67.8288 23.1478 69.4836 21.2653 71.2524 19.4866Z" stroke="#FFECA0" stroke-width="3"/>
<rect x="305.584" y="162.397" width="44.4165" height="44.3709" rx="22.1854" fill="#FE7167"/>
<rect x="305.584" y="115.364" width="44.4165" height="44.3709" rx="22.1854" fill="#FE7167"/>
<rect x="305.584" y="68.3311" width="44.4165" height="44.3709" rx="22.1854" fill="#FE7167"/>
<rect x="-1.9232" y="0.896805" width="174.645" height="5.87524" rx="2.93762" transform="matrix(-0.939806 -0.34171 -0.342331 0.939579 166.567 205.816)" stroke="black" stroke-width="3"/>
<rect x="-1.9232" y="0.896805" width="174.645" height="5.87524" rx="2.93762" transform="matrix(-0.939806 -0.34171 -0.342331 0.939579 166.567 225.163)" stroke="black" stroke-width="3"/>
<rect x="-1.9232" y="0.896805" width="174.645" height="5.87524" rx="2.93762" transform="matrix(-0.939806 -0.34171 -0.342331 0.939579 166.567 186.47)" stroke="black" stroke-width="3"/>
<rect x="-1.9232" y="0.896805" width="174.645" height="5.87524" rx="2.93762" transform="matrix(-0.939806 -0.34171 -0.342331 0.939579 166.567 147.777)" stroke="black" stroke-width="3"/>
<rect x="-1.9232" y="0.896805" width="174.645" height="5.87524" rx="2.93762" transform="matrix(-0.939806 -0.34171 -0.342331 0.939579 166.567 167.124)" stroke="black" stroke-width="3"/>
<rect x="-1.9232" y="0.896805" width="174.645" height="5.87524" rx="2.93762" transform="matrix(-0.939806 -0.34171 -0.342331 0.939579 166.567 128.431)" stroke="black" stroke-width="3"/>
</svg>
