<svg width="140" height="560" fill="none" xmlns="http://www.w3.org/2000/svg"><path fill="#236967" d="M0 140h140v140H0z"/><circle cx="70.5" cy="194.5" r="30.5" fill="#FFCC1A"/><circle cx="70.5" cy="225.5" r="30.5" fill="#FDE9D4"/><path d="M70.5 165.394A52.124 52.124 0 0 0 99.606 194.5 52.124 52.124 0 0 0 70.5 223.606 52.124 52.124 0 0 0 41.394 194.5 52.124 52.124 0 0 0 70.5 165.394Z" stroke="#FDE9D4"/><path d="M70.5 196.394A52.124 52.124 0 0 0 99.606 225.5 52.124 52.124 0 0 0 70.5 254.606 52.124 52.124 0 0 0 41.394 225.5 52.124 52.124 0 0 0 70.5 196.394Z" stroke="#FDD503"/><g clip-path="url(#a)"><path fill="#FFCC1A" d="M0 0h140v140H0z"/><path d="M0 140a70 70 0 0 1 140 0h-12.892a57.107 57.107 0 1 0-114.216 0H0Z" fill="#FDE9D4"/><circle cx="19.96" cy="144" r="19.96" fill="#FDE9D4"/><circle cx="53.694" cy="144" r="19.96" fill="#FDE9D4"/><circle cx="87.429" cy="144" r="19.96" fill="#FDE9D4"/><circle cx="120.04" cy="144" r="19.96" fill="#FDE9D4"/><circle cx="70" cy="34" r="20" fill="#FC8B4C"/></g><path fill="#FC8B4C" d="M0 420h140v140H0z"/><path fill="#FDE9D4" d="M65.834 465h8.333v50h-8.333z"/><path fill="#FDE9D4" d="m49.375 475.269 5.892-5.892 35.356 35.355-5.893 5.892z"/><path fill="#FDE9D4" d="m90.625 475.269-5.892-5.892-35.356 35.355 5.893 5.892z"/><path fill="#FDE9D4" d="M45 494.167v-8.333h50v8.333z"/><circle r="5" transform="matrix(-1 0 0 1 70 540)" fill="#FDE9D4"/><circle r="5" transform="matrix(-1 0 0 1 120 490)" fill="#FDE9D4"/><circle r="5" transform="matrix(-1 0 0 1 20 490)" fill="#FDE9D4"/><circle r="5" transform="matrix(-1 0 0 1 70 440)" fill="#FDE9D4"/><path fill="#FE7167" d="M0 280h140v140H0z"/><path d="m70 358 33 62H37l33-62Z" fill="#236967"/><path d="M70 346a33.852 33.852 0 0 0 20 20 33.852 33.852 0 0 0-20 20 33.852 33.852 0 0 0-20-20 33.852 33.852 0 0 0 20-20Z" fill="#FDE9D4"/><path d="M70 280a59.24 59.24 0 0 0 35 35 59.24 59.24 0 0 0-35 35 59.24 59.24 0 0 0-35-35 59.24 59.24 0 0 0 35-35Z" fill="#FDE9D4"/><defs><clipPath id="a"><path fill="#fff" d="M0 0h140v140H0z"/></clipPath></defs></svg>