<svg width="440" height="290" fill="none" xmlns="http://www.w3.org/2000/svg"><path fill="#236967" d="M150 150h140v140H150z"/><circle cx="220.5" cy="204.5" r="30.5" fill="#FFCC1A"/><circle cx="220.5" cy="235.5" r="30.5" fill="#FDE9D4"/><path d="M220.5 175.394a52.124 52.124 0 0 0 29.106 29.106 52.124 52.124 0 0 0-29.106 29.106 52.124 52.124 0 0 0-29.106-29.106 52.124 52.124 0 0 0 29.106-29.106Z" stroke="#FDE9D4"/><path d="M220.5 206.394a52.124 52.124 0 0 0 29.106 29.106 52.124 52.124 0 0 0-29.106 29.106 52.124 52.124 0 0 0-29.106-29.106 52.124 52.124 0 0 0 29.106-29.106Z" stroke="#FDD503"/><g clip-path="url(#a)"><path fill="#FFCC1A" d="M0 150h140v140H0z"/><path d="M0 290a69.998 69.998 0 0 1 119.497-49.497A69.997 69.997 0 0 1 140 290h-12.892a57.108 57.108 0 1 0-114.216 0H0Z" fill="#FDE9D4"/><circle cx="19.96" cy="294" r="19.96" fill="#FDE9D4"/><circle cx="53.695" cy="294" r="19.96" fill="#FDE9D4"/><circle cx="87.43" cy="294" r="19.96" fill="#FDE9D4"/><circle cx="120.041" cy="294" r="19.96" fill="#FDE9D4"/><circle cx="70" cy="184" r="20" fill="#FC8B4C"/></g><path fill="#FE7167" d="M300 150h140v140H300z"/><path d="m370 228 33 62h-66l33-62Z" fill="#236967"/><path d="M370 216a33.852 33.852 0 0 0 20 20 33.852 33.852 0 0 0-20 20 33.852 33.852 0 0 0-20-20 33.852 33.852 0 0 0 20-20Z" fill="#FDE9D4"/><path d="M370 150a59.24 59.24 0 0 0 35 35 59.24 59.24 0 0 0-35 35 59.24 59.24 0 0 0-35-35 59.24 59.24 0 0 0 35-35ZM150 0h140v140H150z" fill="#FDE9D4"/><path d="m220 95-30-50h60l-30 50Z" fill="#FE7167"/><path fill="#000" d="M207 0h26v45h-26z"/><circle cx="220" cy="120" r="10" fill="#000"/><circle cx="250" cy="120" r="10" fill="#000"/><circle cx="190" cy="120" r="10" fill="#000"/><path d="M140 0v140H0V0h140Z" fill="#FE7167"/><circle cx="96" cy="90" r="20" transform="rotate(90 96 90)" fill="#000"/><circle cx="76" cy="90" r="20" transform="rotate(90 76 90)" fill="#FDE9D4"/><path fill="#236967" d="M300 0h140v140H300z"/><path fill="#fff" d="M365.833 45h8.333v50h-8.333z"/><path fill="#fff" d="m349.376 55.269 5.892-5.892 35.356 35.355-5.893 5.892z"/><path fill="#fff" d="m390.624 55.269-5.892-5.893-35.356 35.356 5.893 5.892z"/><path fill="#fff" d="M345 74.166v-8.333h50v8.333z"/><circle r="5" transform="matrix(-1 0 0 1 370 120)" fill="#fff"/><circle r="5" transform="matrix(-1 0 0 1 420 70)" fill="#fff"/><circle r="5" transform="matrix(-1 0 0 1 320 70)" fill="#fff"/><circle r="5" transform="matrix(-1 0 0 1 370 20)" fill="#fff"/><defs><clipPath id="a"><path fill="#fff" transform="translate(0 150)" d="M0 0h140v140H0z"/></clipPath></defs></svg>