<svg width="140" height="560" fill="none" xmlns="http://www.w3.org/2000/svg"><path d="M0 420h140v140H0V420Z" fill="#FC8B4C"/><path d="M0 490c0-38.66 31.34-70 70-70v140c-38.66 0-70-31.34-70-70Z" fill="#FFCC1A"/><path fill="#FDE9D4" d="M35 490.355 70.355 455l35.356 35.355-35.356 35.355z"/><circle cx="70" cy="490" r="7" fill="#000"/><path fill="#FDE9D4" d="M0 140h140v140H0z"/><path d="m70 235-30-50h60l-30 50Z" fill="#FE7167"/><path fill="#000" d="M57 140h26v45H57z"/><circle cx="70" cy="260" r="10" fill="#000"/><circle cx="100" cy="260" r="10" fill="#000"/><circle cx="40" cy="260" r="10" fill="#000"/><path d="M140 0v140H0V0h140Z" fill="#FE7167"/><circle cx="96" cy="90" r="20" transform="rotate(90 96 90)" fill="#000"/><circle cx="76" cy="90" r="20" transform="rotate(90 76 90)" fill="#FDE9D4"/><path fill="#236967" d="M0 280h140v140H0z"/><path fill="#fff" d="M65.834 325h8.333v50h-8.333z"/><path fill="#fff" d="m49.375 335.269 5.892-5.892 35.356 35.355-5.893 5.892z"/><path fill="#fff" d="m90.625 335.269-5.892-5.892-35.356 35.355 5.893 5.892z"/><path fill="#fff" d="M45 354.167v-8.333h50v8.333z"/><circle r="5" transform="matrix(-1 0 0 1 70 400)" fill="#fff"/><circle r="5" transform="matrix(-1 0 0 1 120 350)" fill="#fff"/><circle r="5" transform="matrix(-1 0 0 1 20 350)" fill="#fff"/><circle r="5" transform="matrix(-1 0 0 1 70 300)" fill="#fff"/></svg>