<svg width="50" height="61" fill="none" xmlns="http://www.w3.org/2000/svg"><path d="M12.365 36.72c1.6 2.827 3.547 5.04 5.84 6.64 2.347 1.547 4.773 2.32 7.28 2.32 1.387 0 2.56-.267 3.52-.8.96-.587 1.44-1.493 1.44-2.72 0-.747-.267-1.387-.8-1.92-.48-.533-1.467-1.147-2.96-1.84-1.493-.693-3.76-1.627-6.8-2.8-1.333-.533-2.88-1.253-4.64-2.16-1.707-.907-3.36-2.08-4.96-3.52-1.547-1.44-2.853-3.2-3.92-5.28-1.013-2.08-1.52-4.533-1.52-7.36 0-3.68.987-6.773 2.96-9.28 1.973-2.507 4.587-4.4 7.84-5.68C18.898 1.04 22.472.4 26.365.4c4.213 0 7.813.64 10.8 1.92 3.04 1.28 5.52 2.88 7.44 4.8 1.973 1.92 3.467 3.84 4.48 5.76l-13.04 7.2c-1.333-1.973-2.8-3.36-4.4-4.16-1.6-.853-3.173-1.28-4.72-1.28-1.227 0-2.24.213-3.04.64-.747.427-1.12 1.093-1.12 2 0 1.12.533 2.053 1.6 2.8 1.12.693 2.587 1.36 4.4 2 1.813.587 3.813 1.28 6 2.08 4.48 1.547 7.973 3.76 10.48 6.64 2.56 2.88 3.84 6.48 3.84 10.8 0 3.093-.64 5.84-1.92 8.24a17.083 17.083 0 0 1-5.2 5.84c-2.133 1.547-4.56 2.72-7.28 3.52-2.72.8-5.52 1.2-8.4 1.2-4 0-7.733-.667-11.2-2-3.413-1.28-6.373-3.067-8.88-5.36-2.507-2.293-4.4-4.853-5.68-7.68l11.84-8.64Z" fill="#FFECA0"/></svg>