<svg width="375" height="140" fill="none" xmlns="http://www.w3.org/2000/svg"><path fill="#236967" d="M268 0h140v140H268z"/><path d="m338 78 33 62h-66l33-62Z" fill="#FC8B4C"/><path d="M338 66a33.852 33.852 0 0 0 20 20 33.852 33.852 0 0 0-20 20 33.852 33.852 0 0 0-20-20 33.852 33.852 0 0 0 20-20Z" fill="#FDE9D4"/><path d="M338 0a59.24 59.24 0 0 0 35 35 59.24 59.24 0 0 0-35 35 59.24 59.24 0 0 0-35-35 59.24 59.24 0 0 0 35-35Z" fill="#FDE9D4"/><path fill="#FE7167" d="M-32 140h140V0H-32z"/><path d="M38 45 8 95h60L38 45Z" fill="#FDE9D4"/><path fill="#000" d="M25 140h26V95H25z"/><circle r="10" transform="matrix(1 0 0 -1 38 20)" fill="#000"/><circle r="10" transform="matrix(1 0 0 -1 68 20)" fill="#000"/><circle r="10" transform="matrix(1 0 0 -1 8 20)" fill="#000"/><path d="M118 0h140v140H118V0Z" fill="#FDE9D4"/><path d="M118 70c0-38.66 31.34-70 70-70v140c-38.66 0-70-31.34-70-70Z" fill="#236967"/><path fill="#FE7167" d="M153 70.355 188.355 35l35.356 35.355-35.356 35.355z"/><circle cx="188" cy="70" r="7" fill="#000"/></svg>