<svg width="375" height="290" fill="none" xmlns="http://www.w3.org/2000/svg"><path fill="#FDE9D4" d="M-32 150h140v140H-32z"/><circle cx="38.711" cy="221" r="50" transform="rotate(-45 38.71 221)" fill="#236967"/><mask id="a" fill="#fff"><path d="M3.356 185.645a50 50 0 1 0 70.71 70.71L38.711 221 3.356 185.645Z"/></mask><path d="M3.356 185.645a50 50 0 1 0 70.71 70.71L38.711 221 3.356 185.645Z" fill="#FFCC1A" stroke="#000" stroke-width="20" mask="url(#a)"/><path fill="#236967" d="M268 0h140v140H268z"/><path d="m338 78 33 62h-66l33-62Z" fill="#FC8B4C"/><path d="M338 66a33.852 33.852 0 0 0 20 20 33.852 33.852 0 0 0-20 20 33.852 33.852 0 0 0-20-20 33.852 33.852 0 0 0 20-20Z" fill="#FDE9D4"/><path d="M338 0a59.24 59.24 0 0 0 35 35 59.24 59.24 0 0 0-35 35 59.24 59.24 0 0 0-35-35 59.24 59.24 0 0 0 35-35Z" fill="#FDE9D4"/><path fill="#FFCC1A" d="M118 150h140v140H118z"/><path fill="#FDE9D4" d="m123.91 166.517 10.607-10.607 42.426 42.427-10.607 10.606z"/><path fill="#FDE9D4" d="m134.517 208.943-10.607-10.607 42.427-42.426 10.606 10.607zm-10.607 32.426 10.607-10.607 42.426 42.427-10.607 10.606z"/><path fill="#FDE9D4" d="m134.517 283.795-10.607-10.607 42.427-42.426 10.606 10.607zm64.246-117.278 10.607-10.607 42.426 42.427-10.607 10.606z"/><path fill="#FDE9D4" d="m209.369 208.943-10.607-10.607 42.427-42.426 10.606 10.607zm-10.606 32.426 10.607-10.607 42.426 42.427-10.607 10.606z"/><path fill="#FDE9D4" d="m209.369 283.795-10.607-10.607 42.427-42.426 10.606 10.607z"/><path fill="#FE7167" d="M-32 140h140V0H-32z"/><path d="M38 45 8 95h60L38 45Z" fill="#FDE9D4"/><path fill="#000" d="M25 140h26V95H25z"/><circle r="10" transform="matrix(1 0 0 -1 38 20)" fill="#000"/><circle r="10" transform="matrix(1 0 0 -1 68 20)" fill="#000"/><circle r="10" transform="matrix(1 0 0 -1 8 20)" fill="#000"/><path d="M118 0h140v140H118V0Z" fill="#FDE9D4"/><path d="M118 70c0-38.66 31.34-70 70-70v140c-38.66 0-70-31.34-70-70Z" fill="#236967"/><path fill="#FE7167" d="M153 70.355 188.355 35l35.356 35.355-35.356 35.355z"/><circle cx="188" cy="70" r="7" fill="#000"/><g clip-path="url(#b)"><path fill="#FDE9D4" d="M408 150H268v140h140z"/><circle r="19.96" transform="matrix(-1 0 0 1 388.04 294)" fill="#FE7167"/><circle r="19.96" transform="matrix(-1 0 0 1 354.305 294)" fill="#FE7167"/><circle r="19.96" transform="matrix(-1 0 0 1 320.57 294)" fill="#FE7167"/><circle r="19.96" transform="matrix(-1 0 0 1 287.959 294)" fill="#FE7167"/><path d="M408 290a70 70 0 0 0-140 0h12.892a57.108 57.108 0 1 1 114.216 0H408Z" fill="#FE7167"/><circle r="20" transform="matrix(-1 0 0 1 338 184)" fill="#FC8B4C"/></g><defs><clipPath id="b"><path fill="#fff" transform="matrix(-1 0 0 1 408 150)" d="M0 0h140v140H0z"/></clipPath></defs></svg>