<svg width="290" height="590" fill="none" xmlns="http://www.w3.org/2000/svg"><path d="M0 300v140h140v-40c0-55.228-44.772-100-100-100H0Z" fill="#FC8B4C"/><circle r="20" transform="matrix(0 1 1 0 44 390)" fill="#000"/><circle r="20" transform="matrix(0 1 1 0 64 390)" fill="#FDE9D4"/><path fill="#FDE9D4" d="M0 150h140v140H0z"/><circle cx="70.711" cy="221" r="50" transform="rotate(-45 70.71 221)" fill="#236967"/><mask id="a" fill="#fff"><path d="M35.355 185.645a49.998 49.998 0 0 0 0 70.71 50 50 0 0 0 70.711 0L70.71 221l-35.355-35.355Z"/></mask><path d="M35.355 185.645a49.998 49.998 0 0 0 0 70.71 50 50 0 0 0 70.711 0L70.71 221l-35.355-35.355Z" fill="#FFCC1A" stroke="#000" stroke-width="20" mask="url(#a)"/><g clip-path="url(#b)"><path fill="#FDE9D4" d="M290 450H150v140h140z"/><circle r="19.96" transform="matrix(-1 0 0 1 270.04 594)" fill="#FE7167"/><circle r="19.96" transform="matrix(-1 0 0 1 236.305 594)" fill="#FE7167"/><circle r="19.96" transform="matrix(-1 0 0 1 202.57 594)" fill="#FE7167"/><circle r="19.96" transform="matrix(-1 0 0 1 169.96 594)" fill="#FE7167"/><path d="M290 590a70 70 0 0 0-140 0h12.892a57.108 57.108 0 1 1 114.216 0H290Z" fill="#FE7167"/><circle r="20" transform="matrix(-1 0 0 1 220 484)" fill="#FC8B4C"/></g><path fill="#236967" d="M150 300h140v140H150z"/><path d="m220 378 33 62h-66l33-62Z" fill="#FC8B4C"/><path d="M220 366a33.852 33.852 0 0 0 20 20 33.852 33.852 0 0 0-20 20 33.852 33.852 0 0 0-20-20 33.852 33.852 0 0 0 20-20Z" fill="#FDE9D4"/><path d="M220 300a59.24 59.24 0 0 0 35 35 59.24 59.24 0 0 0-35 35 59.24 59.24 0 0 0-35-35 59.24 59.24 0 0 0 35-35Z" fill="#FDE9D4"/><path fill="#236967" d="M0 450h140v140H0z"/><path d="M140 450a69.997 69.997 0 0 1-20.503 49.497 69.996 69.996 0 0 1-98.995 0A69.998 69.998 0 0 1 0 450h140Z" fill="#FFCC1A"/><path stroke="#FDE9D4" d="M67.334 532.5h7.333v49h-7.333z"/><path stroke="#FDE9D4" d="m51.083 542.27 5.185-5.186 34.648 34.648-5.185 5.185z"/><path stroke="#FDE9D4" d="m90.917 542.269-5.185-5.185-34.649 34.648 5.186 5.185z"/><path stroke="#FDE9D4" d="M46.5 560.667v-7.333h49v7.333z"/><path fill="#FFCC1A" d="M150 150h140v140H150z"/><path fill="#FDE9D4" d="m155.91 166.517 10.607-10.607 42.426 42.427-10.607 10.606z"/><path fill="#FDE9D4" d="m166.517 208.943-10.607-10.607 42.427-42.426 10.606 10.607zm-10.607 32.426 10.607-10.607 42.426 42.427-10.607 10.606z"/><path fill="#FDE9D4" d="m166.517 283.795-10.607-10.607 42.427-42.426 10.606 10.607zm64.246-117.278 10.607-10.607 42.426 42.427-10.607 10.606z"/><path fill="#FDE9D4" d="m241.369 208.943-10.607-10.607 42.427-42.426 10.606 10.607zm-10.606 32.426 10.607-10.607 42.426 42.427-10.607 10.606z"/><path fill="#FDE9D4" d="m241.369 283.795-10.607-10.607 42.427-42.426 10.606 10.607z"/><path fill="#FE7167" d="M0 140h140V0H0z"/><path d="M70 45 40 95h60L70 45Z" fill="#FDE9D4"/><path fill="#000" d="M57 140h26V95H57z"/><circle r="10" transform="matrix(1 0 0 -1 70 20)" fill="#000"/><circle r="10" transform="matrix(1 0 0 -1 100 20)" fill="#000"/><circle r="10" transform="matrix(1 0 0 -1 40 20)" fill="#000"/><path d="M150 0h140v140H150V0Z" fill="#FDE9D4"/><path d="M150 70c0-38.66 31.34-70 70-70v140c-38.66 0-70-31.34-70-70Z" fill="#236967"/><path fill="#FE7167" d="M185 70.355 220.355 35l35.356 35.355-35.356 35.355z"/><circle cx="220" cy="70" r="7" fill="#000"/><defs><clipPath id="b"><path fill="#fff" transform="matrix(-1 0 0 1 290 450)" d="M0 0h140v140H0z"/></clipPath></defs></svg>