<svg width="375" height="140" fill="none" xmlns="http://www.w3.org/2000/svg"><path fill="#FDE9D4" d="M-32 0h140v140H-32z"/><circle cx="38.711" cy="71" r="50" transform="rotate(-45 38.71 71)" fill="#236967"/><mask id="a" fill="#fff"><path d="M3.356 35.645a50 50 0 1 0 70.71 70.71L38.711 71 3.356 35.645Z"/></mask><path d="M3.356 35.645a50 50 0 1 0 70.71 70.71L38.711 71 3.356 35.645Z" fill="#FFCC1A" stroke="#000" stroke-width="20" mask="url(#a)"/><path fill="#FFCC1A" d="M118 0h140v140H118z"/><path fill="#FDE9D4" d="M123.91 16.517 134.517 5.91l42.426 42.427-10.606 10.606z"/><path fill="#FDE9D4" d="M134.517 58.943 123.91 48.336 166.337 5.91l10.606 10.606zM123.91 91.369l10.607-10.607 42.426 42.427-10.607 10.606z"/><path fill="#FDE9D4" d="m134.517 133.795-10.607-10.607 42.427-42.426 10.606 10.607zm64.246-117.278L209.37 5.91l42.426 42.427-10.606 10.606z"/><path fill="#FDE9D4" d="m209.37 58.943-10.608-10.607L241.19 5.91l10.606 10.606zm-10.607 32.426 10.607-10.607 42.426 42.427-10.607 10.606z"/><path fill="#FDE9D4" d="m209.369 133.795-10.607-10.607 42.427-42.426 10.606 10.607z"/><g clip-path="url(#b)"><path fill="#FDE9D4" d="M408 0H268v140h140z"/><circle r="19.96" transform="matrix(-1 0 0 1 388.04 144)" fill="#FE7167"/><circle r="19.96" transform="matrix(-1 0 0 1 354.305 144)" fill="#FE7167"/><circle r="19.96" transform="matrix(-1 0 0 1 320.57 144)" fill="#FE7167"/><circle r="19.96" transform="matrix(-1 0 0 1 287.959 144)" fill="#FE7167"/><path d="M408 140a70 70 0 0 0-140 0h12.892a57.108 57.108 0 1 1 114.216 0H408Z" fill="#FE7167"/><circle r="20" transform="matrix(-1 0 0 1 338 34)" fill="#FC8B4C"/></g><defs><clipPath id="b"><path fill="#fff" transform="matrix(-1 0 0 1 408 0)" d="M0 0h140v140H0z"/></clipPath></defs></svg>