<svg width="123" height="123" viewBox="0 0 123 123" fill="none" xmlns="http://www.w3.org/2000/svg">
<rect x="17.5" y="9.5" width="96" height="93" fill="white" stroke="#2473FB" stroke-width="3"/>
<rect x="9.5" y="17.5" width="96" height="93" fill="white" stroke="#2473FB" stroke-width="3"/>
<line x1="9" y1="30.5" x2="106" y2="30.5" stroke="#2473FB" stroke-width="3"/>
<line x1="20" y1="46.5" x2="31" y2="46.5" stroke="#2473FB" stroke-width="3"/>
<line x1="41" y1="46.5" x2="52" y2="46.5" stroke="#2473FB" stroke-width="3"/>
<line x1="63" y1="46.5" x2="74" y2="46.5" stroke="#2473FB" stroke-width="3"/>
<line x1="84" y1="46.5" x2="95" y2="46.5" stroke="#2473FB" stroke-width="3"/>
<line x1="20" y1="62.5" x2="31" y2="62.5" stroke="#2473FB" stroke-width="3"/>
<line x1="41" y1="62.5" x2="52" y2="62.5" stroke="#2473FB" stroke-width="3"/>
<line x1="63" y1="62.5" x2="74" y2="62.5" stroke="#2473FB" stroke-width="3"/>
<line x1="84" y1="62.5" x2="95" y2="62.5" stroke="#2473FB" stroke-width="3"/>
<line x1="20" y1="78.5" x2="31" y2="78.5" stroke="#2473FB" stroke-width="3"/>
<line x1="41" y1="78.5" x2="52" y2="78.5" stroke="#2473FB" stroke-width="3"/>
<line x1="84" y1="78.5" x2="95" y2="78.5" stroke="#2473FB" stroke-width="3"/>
<line x1="20" y1="94.5" x2="31" y2="94.5" stroke="#2473FB" stroke-width="3"/>
<line x1="41" y1="94.5" x2="52" y2="94.5" stroke="#2473FB" stroke-width="3"/>
<line x1="63" y1="94.5" x2="74" y2="94.5" stroke="#2473FB" stroke-width="3"/>
<line x1="84" y1="94.5" x2="95" y2="94.5" stroke="#2473FB" stroke-width="3"/>
<circle cx="68.5" cy="78.5" r="9" stroke="#2473FB" stroke-width="3"/>
<path d="M65 78L68 81L73 76" stroke="#2473FB" stroke-width="3"/>
</svg>
