<svg width="350" height="268" fill="none" xmlns="http://www.w3.org/2000/svg"><path d="M171.459 249.571a62.547 62.547 0 0 0 20.3 13.639 62.27 62.27 0 0 0 23.945 4.79 62.27 62.27 0 0 0 23.945-4.79 62.547 62.547 0 0 0 20.3-13.639 62.887 62.887 0 0 0 6.803-8.105l-14.952-.089a51.022 51.022 0 0 1-16.561 11.128 50.793 50.793 0 0 1-39.07 0 51.022 51.022 0 0 1-16.561-11.128h-15.014a62.826 62.826 0 0 0 6.865 8.194Z" fill="#236967"/><path d="M71.252 19.487A61.05 61.05 0 0 1 91.065 6.174 60.773 60.773 0 0 1 114.434 1.5a60.773 60.773 0 0 1 23.368 4.674 61.056 61.056 0 0 1 19.813 13.313 61.313 61.313 0 0 1 4.901 5.565l-11.371.067a52.524 52.524 0 0 0-16.6-11.009 52.302 52.302 0 0 0-40.223 0 52.526 52.526 0 0 0-16.603 11.013H66.296a61.308 61.308 0 0 1 4.956-5.636Z" stroke="#FFECA0" stroke-width="3"/><rect x="305.584" y="162.397" width="44.416" height="44.371" rx="22.185" fill="#FE7167"/><rect x="305.584" y="115.364" width="44.416" height="44.371" rx="22.185" fill="#FE7167"/><rect x="305.584" y="68.331" width="44.416" height="44.371" rx="22.185" fill="#FE7167"/><rect x="-1.923" y=".897" width="174.645" height="5.875" rx="2.938" transform="matrix(-.9398 -.34171 -.34233 .93958 166.567 205.816)" stroke="#000" stroke-width="3"/><rect x="-1.923" y=".897" width="174.645" height="5.875" rx="2.938" transform="matrix(-.9398 -.34171 -.34233 .93958 166.567 225.163)" stroke="#000" stroke-width="3"/><rect x="-1.923" y=".897" width="174.645" height="5.875" rx="2.938" transform="matrix(-.9398 -.34171 -.34233 .93958 166.567 186.47)" stroke="#000" stroke-width="3"/><rect x="-1.923" y=".897" width="174.645" height="5.875" rx="2.938" transform="matrix(-.9398 -.34171 -.34233 .93958 166.567 147.777)" stroke="#000" stroke-width="3"/><rect x="-1.923" y=".897" width="174.645" height="5.875" rx="2.938" transform="matrix(-.9398 -.34171 -.34233 .93958 166.567 167.124)" stroke="#000" stroke-width="3"/><rect x="-1.923" y=".897" width="174.645" height="5.875" rx="2.938" transform="matrix(-.9398 -.34171 -.34233 .93958 166.567 128.431)" stroke="#000" stroke-width="3"/></svg>