<svg width="36" height="36" fill="none" xmlns="http://www.w3.org/2000/svg"><g clip-path="url(#a)"><path d="M1.12 24.26C3.661 31.116 10.26 36 18 36c7.739 0 14.337-4.885 16.88-11.74L18 22.697 1.12 24.26Z" fill="#FFDA44"/><path d="M18 0C10.26 0 3.662 4.885 1.12 11.74L18 13.303l16.88-1.565C32.337 4.885 25.739 0 18 0Z" fill="#000"/><path d="M1.12 11.74A17.962 17.962 0 0 0 0 18c0 2.202.396 4.31 1.12 6.26h33.76C35.604 22.31 36 20.203 36 18s-.396-4.31-1.12-6.26H1.12Z" fill="#D80027"/></g><defs><clipPath id="a"><path fill="#fff" d="M0 0h36v36H0z"/></clipPath></defs></svg>