<svg width="36" height="36" fill="none" xmlns="http://www.w3.org/2000/svg"><path d="M18 36c9.941 0 18-8.059 18-18S27.941 0 18 0 0 8.059 0 18s8.059 18 18 18Z" fill="#F0F0F0"/><path d="M3.721 7.041a17.934 17.934 0 0 0-3.1 6.264h9.363L3.721 7.04Zm31.659 6.264a17.935 17.935 0 0 0-3.1-6.264l-6.263 6.264h9.363ZM.62 22.696a17.936 17.936 0 0 0 3.101 6.263l6.263-6.263H.62ZM28.959 3.721a17.936 17.936 0 0 0-6.264-3.1v9.363l6.264-6.263ZM7.041 32.28a17.935 17.935 0 0 0 6.263 3.1v-9.364L7.041 32.28ZM13.304.62a17.936 17.936 0 0 0-6.263 3.101l6.263 6.263V.62Zm9.391 34.76a17.936 17.936 0 0 0 6.263-3.1l-6.263-6.264v9.364Zm3.322-12.684 6.263 6.263a17.935 17.935 0 0 0 3.1-6.263h-9.363Z" fill="#0052B4"/><path d="M35.848 15.652h-15.5V.152a18.18 18.18 0 0 0-4.696 0v15.5H.152a18.18 18.18 0 0 0 0 4.696h15.5v15.5a18.17 18.17 0 0 0 4.696 0v-15.5h15.5a18.17 18.17 0 0 0 0-4.696Z" fill="#D80027"/><path d="m22.695 22.696 8.032 8.032c.37-.37.722-.755 1.059-1.156l-6.877-6.876h-2.214Zm-9.39 0-8.033 8.032c.37.37.756.722 1.156 1.058l6.877-6.877v-2.213Zm-.001-9.392L5.272 5.272a17.8 17.8 0 0 0-1.058 1.156l6.877 6.876h2.213Zm9.391.001 8.033-8.033c-.37-.37-.756-.722-1.156-1.058l-6.877 6.877v2.214Z" fill="#D80027"/></svg>