<svg width="440" height="290" viewBox="0 0 440 290" fill="none" xmlns="http://www.w3.org/2000/svg">
<rect x="150" y="150" width="140" height="140" fill="#236967"/>
<circle cx="220.5" cy="204.5" r="30.5" fill="#FFCC1A"/>
<circle cx="220.5" cy="235.5" r="30.5" fill="#FDE9D4"/>
<path d="M220.5 175.394C225.797 188.677 236.323 199.203 249.606 204.5C236.323 209.797 225.797 220.323 220.5 233.606C215.203 220.323 204.677 209.797 191.394 204.5C204.677 199.203 215.203 188.677 220.5 175.394Z" stroke="#FDE9D4"/>
<path d="M220.5 206.394C225.797 219.677 236.323 230.203 249.606 235.5C236.323 240.797 225.797 251.323 220.5 264.606C215.203 251.323 204.677 240.797 191.394 235.5C204.677 230.203 215.203 219.677 220.5 206.394Z" stroke="#FDD503"/>
<g clip-path="url(#clip0_4656_3531)">
<rect y="150" width="140" height="140" fill="#FFCC1A"/>
<path d="M0 290C0 271.435 7.37498 253.63 20.5025 240.503C33.6301 227.375 51.4348 220 70 220C88.5651 220 106.37 227.375 119.497 240.503C132.625 253.63 140 271.435 140 290L127.108 290C127.108 274.854 121.092 260.328 110.382 249.618C99.6719 238.908 85.1461 232.892 70 232.892C54.8539 232.892 40.3281 238.908 29.6182 249.618C18.9083 260.328 12.8916 274.854 12.8916 290H0Z" fill="#FDE9D4"/>
<circle cx="19.9598" cy="294" r="19.9598" fill="#FDE9D4"/>
<circle cx="53.6952" cy="294" r="19.9598" fill="#FDE9D4"/>
<circle cx="87.4296" cy="294" r="19.9598" fill="#FDE9D4"/>
<circle cx="120.041" cy="294" r="19.9598" fill="#FDE9D4"/>
<circle cx="70" cy="184" r="20" fill="#FC8B4C"/>
</g>
<rect x="300" y="150" width="140" height="140" fill="#FE7167"/>
<path d="M370 228L403 290H337L370 228Z" fill="#236967"/>
<path d="M370 216V216C373.429 225.266 380.734 232.571 390 236V236V236C380.734 239.429 373.429 246.734 370 256V256V256C366.571 246.734 359.266 239.429 350 236V236V236C359.266 232.571 366.571 225.266 370 216V216Z" fill="#FDE9D4"/>
<path d="M370 150V150C376 166.215 388.785 179 405 185V185V185C388.785 191 376 203.785 370 220V220V220C364 203.785 351.215 191 335 185V185V185C351.215 179 364 166.215 370 150V150Z" fill="#FDE9D4"/>
<rect x="150" width="140" height="140" fill="#FDE9D4"/>
<path d="M220 95L190 45H250L220 95Z" fill="#FE7167"/>
<rect x="207" width="26" height="45" fill="black"/>
<circle cx="220" cy="120" r="10" fill="black"/>
<circle cx="250" cy="120" r="10" fill="black"/>
<circle cx="190" cy="120" r="10" fill="black"/>
<path d="M140 0L140 140L0 140L0 0L140 0Z" fill="#FE7167"/>
<circle cx="96" cy="90" r="20" transform="rotate(90 96 90)" fill="black"/>
<circle cx="76" cy="90" r="20" transform="rotate(90 76 90)" fill="#FDE9D4"/>
<rect x="300" width="140" height="140" fill="#236967"/>
<rect x="365.833" y="45" width="8.33333" height="50" fill="white"/>
<rect x="349.376" y="55.2688" width="8.33333" height="50" transform="rotate(-45 349.376 55.2688)" fill="white"/>
<rect width="8.33333" height="50" transform="matrix(-0.707107 -0.707107 -0.707107 0.707107 390.624 55.2688)" fill="white"/>
<rect x="345" y="74.1665" width="8.33333" height="50" transform="rotate(-90 345 74.1665)" fill="white"/>
<circle r="5" transform="matrix(-1 0 0 1 370 120)" fill="white"/>
<circle r="5" transform="matrix(-1 0 0 1 420 70)" fill="white"/>
<circle r="5" transform="matrix(-1 0 0 1 320 70)" fill="white"/>
<circle r="5" transform="matrix(-1 0 0 1 370 20)" fill="white"/>
<defs>
<clipPath id="clip0_4656_3531">
<rect width="140" height="140" fill="white" transform="translate(0 150)"/>
</clipPath>
</defs>
</svg>
