<svg width="375" height="140" viewBox="0 0 375 140" fill="none" xmlns="http://www.w3.org/2000/svg">
<rect x="-32" width="140" height="140" fill="#FDE9D4"/>
<circle cx="38.7107" cy="71" r="50" transform="rotate(-45 38.7107 71)" fill="#236967"/>
<mask id="path-3-inside-1_4252_3586" fill="white">
<path d="M3.35559 35.6447C-6.02123 45.0215 -11.2891 57.7392 -11.2891 71C-11.2891 84.2608 -6.02122 96.9785 3.35559 106.355C12.7324 115.732 25.4501 121 38.7109 121C51.9718 121 64.6894 115.732 74.0663 106.355L38.7109 71L3.35559 35.6447Z"/>
</mask>
<path d="M3.35559 35.6447C-6.02123 45.0215 -11.2891 57.7392 -11.2891 71C-11.2891 84.2608 -6.02122 96.9785 3.35559 106.355C12.7324 115.732 25.4501 121 38.7109 121C51.9718 121 64.6894 115.732 74.0663 106.355L38.7109 71L3.35559 35.6447Z" fill="#FFCC1A" stroke="black" stroke-width="20" mask="url(#path-3-inside-1_4252_3586)"/>
<rect x="118" y="0.000244141" width="140" height="140" fill="#FFCC1A"/>
<rect x="123.91" y="16.5166" width="15" height="60" transform="rotate(-45 123.91 16.5166)" fill="#FDE9D4"/>
<rect x="134.517" y="58.9429" width="15" height="60" transform="rotate(-135 134.517 58.9429)" fill="#FDE9D4"/>
<rect x="123.91" y="91.3691" width="15" height="60" transform="rotate(-45 123.91 91.3691)" fill="#FDE9D4"/>
<rect x="134.517" y="133.795" width="15" height="60" transform="rotate(-135 134.517 133.795)" fill="#FDE9D4"/>
<rect x="198.763" y="16.5166" width="15" height="60" transform="rotate(-45 198.763 16.5166)" fill="#FDE9D4"/>
<rect x="209.369" y="58.9429" width="15" height="60" transform="rotate(-135 209.369 58.9429)" fill="#FDE9D4"/>
<rect x="198.763" y="91.3691" width="15" height="60" transform="rotate(-45 198.763 91.3691)" fill="#FDE9D4"/>
<rect x="209.369" y="133.795" width="15" height="60" transform="rotate(-135 209.369 133.795)" fill="#FDE9D4"/>
<g clip-path="url(#clip0_4252_3586)">
<rect width="140" height="140" transform="matrix(-1 0 0 1 408 0)" fill="#FDE9D4"/>
<circle r="19.9598" transform="matrix(-1 0 0 1 388.04 144)" fill="#FE7167"/>
<circle r="19.9598" transform="matrix(-1 0 0 1 354.305 144)" fill="#FE7167"/>
<circle r="19.9598" transform="matrix(-1 0 0 1 320.57 144)" fill="#FE7167"/>
<circle r="19.9598" transform="matrix(-1 0 0 1 287.959 144)" fill="#FE7167"/>
<path d="M408 140C408 121.435 400.625 103.63 387.497 90.5023C374.37 77.3747 356.565 69.9998 338 69.9998C319.435 69.9998 301.63 77.3747 288.503 90.5023C275.375 103.63 268 121.435 268 140L280.892 140C280.892 124.854 286.908 110.328 297.618 99.618C308.328 88.9081 322.854 82.8913 338 82.8913C353.146 82.8913 367.672 88.9081 378.382 99.618C389.092 110.328 395.108 124.854 395.108 140H408Z" fill="#FE7167"/>
<circle r="20" transform="matrix(-1 0 0 1 338 33.9998)" fill="#FC8B4C"/>
</g>
<defs>
<clipPath id="clip0_4252_3586">
<rect width="140" height="140" fill="white" transform="matrix(-1 0 0 1 408 0)"/>
</clipPath>
</defs>
</svg>
