<svg width="72" height="72" viewBox="0 0 72 72" fill="none" xmlns="http://www.w3.org/2000/svg">
<g clip-path="url(#clip0_480:101703)">
<path d="M61.4504 10.55C47.3848 -3.51543 24.6176 -3.51754 10.5501 10.55C-3.51531 24.6153 -3.51742 47.3828 10.5501 61.4502C24.6155 75.5156 47.3827 75.5177 61.4504 61.4502C75.5159 47.3846 75.5177 24.6174 61.4504 10.55ZM36.0002 69.7425C17.3946 69.7425 2.25773 54.6056 2.25773 36C2.25773 17.3945 17.3946 2.25761 36.0002 2.25761C54.6057 2.25761 69.7426 17.3945 69.7426 36C69.7426 54.6056 54.6057 69.7425 36.0002 69.7425Z" fill="#266BDF"/>
<path d="M36.0005 6.75659C19.8757 6.75659 6.75708 19.8752 6.75708 36C6.75708 52.1248 19.8757 65.2435 36.0005 65.2435C52.1253 65.2435 65.2439 52.1248 65.2439 36C65.2439 19.8752 52.1255 6.75659 36.0005 6.75659ZM36.0005 62.994C21.116 62.994 9.00658 50.8845 9.00658 36C9.00658 21.1155 21.116 9.00609 36.0005 9.00609C50.885 9.00609 62.9945 21.1155 62.9945 36C62.9945 50.8845 50.8851 62.994 36.0005 62.994Z" fill="#266BDF"/>
<path d="M37.1243 32.8193V21.3784C37.1243 20.7573 36.6207 20.2537 35.9995 20.2537C35.3784 20.2537 34.8748 20.7573 34.8748 21.3784V32.8193C32.9738 33.4936 32.0971 35.6647 32.955 37.454C32.1547 38.2542 28.1668 42.2422 27.331 43.078C26.6203 43.7886 27.1333 44.9981 28.1263 44.9981C28.4141 44.9981 28.702 44.8883 28.9216 44.6687L34.5454 39.0449C34.5638 39.0265 35.0772 39.3744 35.9995 39.3744C37.86 39.3744 39.3738 37.8607 39.3738 36.0001C39.3738 34.5337 38.4335 33.2836 37.1243 32.8193ZM35.9995 37.1247C35.3794 37.1247 34.8748 36.6201 34.8748 36C34.8748 35.3798 35.3794 34.8752 35.9995 34.8752C36.6197 34.8752 37.1243 35.3798 37.1243 36C37.1243 36.6203 36.6198 37.1247 35.9995 37.1247Z" fill="#266BDF"/>
<path d="M36.0002 15.7545C36.6214 15.7545 37.125 15.2509 37.125 14.6297V12.3802C37.125 11.7591 36.6214 11.2555 36.0002 11.2555C35.3791 11.2555 34.8755 11.7591 34.8755 12.3802V14.6297C34.8755 15.251 35.3791 15.7545 36.0002 15.7545Z" fill="#266BDF"/>
<path d="M51.9068 18.5032L50.3162 20.0938C49.877 20.533 49.877 21.2451 50.3162 21.6843C50.7557 22.1237 51.4675 22.1235 51.9069 21.6843L53.4974 20.0938C53.9366 19.6546 53.9366 18.9425 53.4974 18.5032C53.0582 18.064 52.3461 18.064 51.9068 18.5032Z" fill="#266BDF"/>
<path d="M59.6201 34.8752H57.3706C56.7495 34.8752 56.2458 35.3789 56.2458 36C56.2458 36.6211 56.7495 37.1248 57.3706 37.1248H59.6201C60.2412 37.1248 60.7448 36.6211 60.7448 36C60.7448 35.3789 60.2412 34.8752 59.6201 34.8752Z" fill="#266BDF"/>
<path d="M51.9069 50.3157C51.4675 49.8765 50.7556 49.8765 50.3162 50.3157C49.877 50.755 49.877 51.4671 50.3162 51.9063L51.9068 53.4968C52.1265 53.7164 52.4142 53.8262 52.7021 53.8262C53.6947 53.8262 54.2086 52.6173 53.4974 51.9061L51.9069 50.3157Z" fill="#266BDF"/>
<path d="M36.0002 56.2452C35.3791 56.2452 34.8755 56.7488 34.8755 57.37V59.6195C34.8755 60.2406 35.3791 60.7442 36.0002 60.7442C36.6214 60.7442 37.125 60.2406 37.125 59.6195V57.37C37.125 56.7488 36.6214 56.2452 36.0002 56.2452Z" fill="#266BDF"/>
<path d="M20.0936 50.3157L18.5031 51.9063C18.0637 52.3455 18.0637 53.0576 18.5031 53.4968C18.9425 53.9362 19.6544 53.936 20.0936 53.4968L21.6842 51.9063C22.1235 51.4671 22.1235 50.755 21.6842 50.3157C21.2451 49.8765 20.5328 49.8765 20.0936 50.3157Z" fill="#266BDF"/>
<path d="M14.6296 34.8752H12.3801C11.759 34.8752 11.2554 35.3789 11.2554 36C11.2554 36.6211 11.759 37.1248 12.3801 37.1248H14.6296C15.2508 37.1248 15.7544 36.6211 15.7544 36C15.7544 35.3789 15.2509 34.8752 14.6296 34.8752Z" fill="#266BDF"/>
<path d="M20.0936 18.5032C19.6544 18.064 18.9423 18.064 18.5031 18.5032C18.0637 18.9425 18.0637 19.6546 18.5031 20.0938L20.0936 21.6843C20.3132 21.9039 20.601 22.0137 20.889 22.0137C21.8818 22.0137 22.395 20.8043 21.6843 20.0936L20.0936 18.5032Z" fill="#266BDF"/>
</g>
<defs>
<clipPath id="clip0_480:101703">
<rect width="72" height="72" fill="white"/>
</clipPath>
</defs>
</svg>
