<svg width="72" height="72" viewBox="0 0 72 72" fill="none" xmlns="http://www.w3.org/2000/svg">
<path d="M63 0H16.3125V7.3125H9V72H55.6875V64.6875H63V0ZM10.6875 70.3125V9H42.75V20.25H54V70.3125H10.6875ZM44.4375 10.1932L52.8068 18.5625H44.4375V10.1932ZM61.3125 63H55.6875V19.0568L43.9432 7.3125H18V1.6875H61.3125V63Z" fill="#266BDF"/>
<path d="M16.5938 16.3125H30.0938V18H16.5938V16.3125Z" fill="#266BDF"/>
<path d="M16.5938 20.8125H25.5938V22.5H16.5938V20.8125Z" fill="#266BDF"/>
<path d="M16.5938 27.5625H48.0938V29.25H16.5938V27.5625Z" fill="#266BDF"/>
<path d="M16.5938 32.0625H48.0938V33.75H16.5938V32.0625Z" fill="#266BDF"/>
<path d="M16.5938 41.0625H48.0938V42.75H16.5938V41.0625Z" fill="#266BDF"/>
<path d="M16.5938 45.5625H39.0938V47.25H16.5938V45.5625Z" fill="#266BDF"/>
<path d="M16.5938 36.5625H48.0938V38.25H16.5938V36.5625Z" fill="#266BDF"/>
<path d="M36.8438 52.3125H48.0938V54H36.8438V52.3125Z" fill="#266BDF"/>
</svg>
