<svg width="72" height="72" viewBox="0 0 72 72" fill="none" xmlns="http://www.w3.org/2000/svg">
<path d="M65.25 1.125H6.75C3.64838 1.125 1.125 3.64838 1.125 6.75V51.75C1.125 54.8516 3.64838 57.375 6.75 57.375H41.625V58.4989C41.625 61.8041 42.912 64.9125 45.2497 67.2503C47.5864 69.5869 50.6948 70.875 54 70.875C60.8231 70.875 66.375 65.3231 66.375 58.5V57.2614C68.9389 56.7382 70.875 54.4669 70.875 51.75V6.75C70.875 3.64838 68.3516 1.125 65.25 1.125ZM64.125 58.5C64.125 64.0822 59.5822 68.625 54 68.625C51.2955 68.625 48.7519 67.5709 46.8394 65.6584C44.9269 63.7459 43.8739 61.2034 43.8739 58.4977V55.593C43.8739 54.3769 43.587 53.1596 43.0425 52.0718L41.6981 49.383C41.6509 49.2863 41.625 49.1782 41.625 49.0714C41.625 48.6877 41.9366 48.375 42.3203 48.375C44.4184 48.375 46.125 50.0827 46.125 52.1797V54V55.125H48.375V54V52.1797V36C48.375 35.3801 48.8801 34.875 49.5 34.875C50.1199 34.875 50.625 35.3801 50.625 36V46.125V55.125H52.875V46.125C52.875 45.5051 53.3801 45 54 45C54.6199 45 55.125 45.5051 55.125 46.125V47.25V55.125H57.375V47.25C57.375 46.6301 57.8801 46.125 58.5 46.125C59.1199 46.125 59.625 46.6301 59.625 47.25V48.375V54V55.125H61.875V54V48.375C61.875 47.7551 62.3801 47.25 63 47.25C63.621 47.25 64.125 47.7551 64.125 48.375V58.5ZM68.625 51.75C68.625 53.2147 67.6811 54.4523 66.375 54.918V48.375C66.375 46.5154 64.8607 45 63 45C62.3959 45 61.8368 45.1721 61.3451 45.4511C60.7466 44.5073 59.6981 43.875 58.5 43.875C57.8959 43.875 57.3368 44.0471 56.8451 44.3261C56.2466 43.3823 55.1981 42.75 54 42.75C53.604 42.75 53.2282 42.831 52.875 42.957V36C52.875 34.1393 51.3607 32.625 49.5 32.625C47.6393 32.625 46.125 34.1393 46.125 36V47.5088C45.0821 46.6582 43.7692 46.125 42.3203 46.125C40.6958 46.125 39.375 47.4469 39.375 49.0714C39.375 49.5247 39.483 49.9804 39.6855 50.3888L41.031 53.0786C41.3494 53.7165 41.5372 54.4162 41.5969 55.1261H6.75C4.88925 55.1261 3.375 53.6119 3.375 51.7511V6.75C3.375 4.88925 4.88925 3.375 6.75 3.375H65.25C67.1107 3.375 68.625 4.88925 68.625 6.75V51.75Z" fill="#266BDF"/>
<path d="M41.625 5.625H7.875C6.63412 5.625 5.625 6.63412 5.625 7.875V30.375C5.625 31.6159 6.63412 32.625 7.875 32.625H41.625C42.8659 32.625 43.875 31.6159 43.875 30.375V7.875C43.875 6.63412 42.8659 5.625 41.625 5.625ZM41.625 7.875L41.6261 23.625H40.5C39.8801 23.625 39.375 23.1199 39.375 22.5V13.5C39.375 11.6392 37.8607 10.125 36 10.125C34.1392 10.125 32.625 11.6392 32.625 13.5V22.5C32.625 23.1199 32.1199 23.625 31.5 23.625C30.8801 23.625 30.375 23.1199 30.375 22.5V16.875C30.375 15.0142 28.8608 13.5 27 13.5C25.1392 13.5 23.625 15.0142 23.625 16.875V20.25C23.625 20.8699 23.1199 21.375 22.5 21.375C21.8801 21.375 21.375 20.8699 21.375 20.25V13.5C21.375 11.6392 19.8608 10.125 18 10.125C16.1392 10.125 14.625 11.6392 14.625 13.5V24.75C14.625 25.3699 14.1199 25.875 13.5 25.875C12.8801 25.875 12.375 25.3699 12.375 24.75V23.625C12.375 21.7642 10.8608 20.25 9 20.25H7.875V7.875H41.625ZM7.875 30.375V22.5H9C9.61987 22.5 10.125 23.0051 10.125 23.625V24.75C10.125 26.6108 11.6392 28.125 13.5 28.125C15.3608 28.125 16.875 26.6108 16.875 24.75V13.5C16.875 12.8801 17.3801 12.375 18 12.375C18.6199 12.375 19.125 12.8801 19.125 13.5V20.25C19.125 22.1108 20.6392 23.625 22.5 23.625C24.3608 23.625 25.875 22.1108 25.875 20.25V16.875C25.875 16.2551 26.3801 15.75 27 15.75C27.6199 15.75 28.125 16.2551 28.125 16.875V22.5C28.125 24.3608 29.6392 25.875 31.5 25.875C33.3608 25.875 34.875 24.3608 34.875 22.5V13.5C34.875 12.8801 35.3801 12.375 36 12.375C36.6199 12.375 37.125 12.8801 37.125 13.5V22.5C37.125 24.3608 38.6393 25.875 40.5 25.875H41.6261V30.375H7.875Z" fill="#266BDF"/>
<path d="M10.125 43.875C7.64325 43.875 5.625 45.8932 5.625 48.375C5.625 50.8568 7.64325 52.875 10.125 52.875C12.6068 52.875 14.625 50.8568 14.625 48.375C14.625 45.8932 12.6068 43.875 10.125 43.875ZM10.125 50.625C8.88412 50.625 7.875 49.6159 7.875 48.375C7.875 47.1341 8.88412 46.125 10.125 46.125C11.3659 46.125 12.375 47.1341 12.375 48.375C12.375 49.6159 11.3659 50.625 10.125 50.625Z" fill="#266BDF"/>
<path d="M21.375 43.875C18.8932 43.875 16.875 45.8932 16.875 48.375C16.875 50.8568 18.8932 52.875 21.375 52.875C23.8568 52.875 25.875 50.8568 25.875 48.375C25.875 45.8932 23.8568 43.875 21.375 43.875ZM21.375 50.625C20.1341 50.625 19.125 49.6159 19.125 48.375C19.125 47.1341 20.1341 46.125 21.375 46.125C22.6159 46.125 23.625 47.1341 23.625 48.375C23.625 49.6159 22.6159 50.625 21.375 50.625Z" fill="#266BDF"/>
<path d="M32.625 43.875C30.1432 43.875 28.125 45.8932 28.125 48.375C28.125 50.8568 30.1432 52.875 32.625 52.875C35.1068 52.875 37.125 50.8568 37.125 48.375C37.125 45.8932 35.1068 43.875 32.625 43.875ZM32.625 50.625C31.3841 50.625 30.375 49.6159 30.375 48.375C30.375 47.1341 31.3841 46.125 32.625 46.125C33.8659 46.125 34.875 47.1341 34.875 48.375C34.875 49.6159 33.8659 50.625 32.625 50.625Z" fill="#266BDF"/>
<path d="M12.375 38.25C12.375 36.3892 10.8608 34.875 9 34.875C7.13925 34.875 5.625 36.3892 5.625 38.25C5.625 40.1108 7.13925 41.625 9 41.625C10.8608 41.625 12.375 40.1108 12.375 38.25ZM7.875 38.25C7.875 37.6301 8.38013 37.125 9 37.125C9.61987 37.125 10.125 37.6301 10.125 38.25C10.125 38.8699 9.61987 39.375 9 39.375C8.38013 39.375 7.875 38.8699 7.875 38.25Z" fill="#266BDF"/>
<path d="M21.375 38.25C21.375 36.3892 19.8608 34.875 18 34.875C16.1392 34.875 14.625 36.3892 14.625 38.25C14.625 40.1108 16.1392 41.625 18 41.625C19.8608 41.625 21.375 40.1108 21.375 38.25ZM16.875 38.25C16.875 37.6301 17.3801 37.125 18 37.125C18.6199 37.125 19.125 37.6301 19.125 38.25C19.125 38.8699 18.6199 39.375 18 39.375C17.3801 39.375 16.875 38.8699 16.875 38.25Z" fill="#266BDF"/>
<path d="M30.375 38.25C30.375 36.3892 28.8608 34.875 27 34.875C25.1392 34.875 23.625 36.3892 23.625 38.25C23.625 40.1108 25.1392 41.625 27 41.625C28.8608 41.625 30.375 40.1108 30.375 38.25ZM27 39.375C26.3801 39.375 25.875 38.8699 25.875 38.25C25.875 37.6301 26.3801 37.125 27 37.125C27.6199 37.125 28.125 37.6301 28.125 38.25C28.125 38.8699 27.6199 39.375 27 39.375Z" fill="#266BDF"/>
<path d="M36 34.875C34.1392 34.875 32.625 36.3892 32.625 38.25C32.625 40.1108 34.1392 41.625 36 41.625C37.8608 41.625 39.375 40.1108 39.375 38.25C39.375 36.3892 37.8608 34.875 36 34.875ZM36 39.375C35.3801 39.375 34.875 38.8699 34.875 38.25C34.875 37.6301 35.3801 37.125 36 37.125C36.6199 37.125 37.125 37.6301 37.125 38.25C37.125 38.8699 36.6199 39.375 36 39.375Z" fill="#266BDF"/>
<path d="M50.625 21.582V5.625H48.375V21.582C47.0689 22.0478 46.125 23.2852 46.125 24.75C46.125 26.2148 47.0689 27.4522 48.375 27.918V30.375H50.625V27.918C51.9311 27.4522 52.875 26.2148 52.875 24.75C52.875 23.2852 51.9311 22.0478 50.625 21.582ZM49.5 25.875C48.8801 25.875 48.375 25.3699 48.375 24.75C48.375 24.1301 48.8801 23.625 49.5 23.625C50.1199 23.625 50.625 24.1301 50.625 24.75C50.625 25.3699 50.1199 25.875 49.5 25.875Z" fill="#266BDF"/>
<path d="M57.375 10.332V5.625H55.125V10.332C53.8189 10.7977 52.875 12.0352 52.875 13.5C52.875 14.9648 53.8189 16.2022 55.125 16.668V30.375H57.375V16.668C58.6811 16.2022 59.625 14.9648 59.625 13.5C59.625 12.0352 58.6811 10.7977 57.375 10.332ZM56.25 14.625C55.6301 14.625 55.125 14.1199 55.125 13.5C55.125 12.8801 55.6301 12.375 56.25 12.375C56.8699 12.375 57.375 12.8801 57.375 13.5C57.375 14.1199 56.8699 14.625 56.25 14.625Z" fill="#266BDF"/>
<path d="M64.125 19.332V5.625H61.875V19.332C60.5689 19.7978 59.625 21.0352 59.625 22.5C59.625 23.9648 60.5689 25.2022 61.875 25.668V30.375H64.125V25.668C65.4311 25.2022 66.375 23.9648 66.375 22.5C66.375 21.0352 65.4311 19.7978 64.125 19.332ZM63 23.625C62.3801 23.625 61.875 23.1199 61.875 22.5C61.875 21.8801 62.3801 21.375 63 21.375C63.6199 21.375 64.125 21.8801 64.125 22.5C64.125 23.1199 63.6199 23.625 63 23.625Z" fill="#266BDF"/>
</svg>
