<svg width="72" height="72" viewBox="0 0 72 72" fill="none" xmlns="http://www.w3.org/2000/svg">
<g clip-path="url(#clip0_480:101716)">
<path d="M70.9453 50.5146H67.6322V16.6577C67.6322 13.649 65.1846 11.2015 62.1759 11.2015H55.7705C55.188 11.2015 54.7158 11.6735 54.7158 12.2561C54.7158 12.8388 55.188 13.3108 55.7705 13.3108H62.1759C64.0215 13.3108 65.5228 14.8123 65.5228 16.6577V50.5146H6.47719V16.6577C6.47719 14.8123 7.9785 13.3108 9.82406 13.3108H36.4328C36.4151 13.4702 36.4282 15.043 36.3527 15.5693H9.79172C9.20925 15.5693 8.73703 16.0413 8.73703 16.624V47.2015C8.73703 47.7841 9.20925 48.2561 9.79172 48.2561H16.2295C16.812 48.2561 17.2842 47.7841 17.2842 47.2015C17.2842 46.6188 16.812 46.1468 16.2295 46.1468H10.8464V17.6786H35.6238C34.9131 18.8572 33.7764 19.7072 32.379 20.75C31.6799 21.2718 30.9274 21.8338 30.1721 22.4921C29.9852 22.1968 29.6564 22.0001 29.2811 22.0001H25.886V20.8555C25.886 20.2729 25.4137 19.8008 24.8313 19.8008H18.5273C17.9449 19.8008 17.4727 20.2729 17.4727 20.8555V40.6488C17.4727 41.2314 17.9449 41.7034 18.5273 41.7034H29.2809C29.8634 41.7034 30.3356 41.2314 30.3356 40.6488V39.9896C31.3162 40.1194 32.0722 40.3683 32.7959 40.9233C33.4522 41.4263 34.2623 41.7034 35.0774 41.7034H48.9075C51.3255 41.7034 52.9103 38.6995 51.6611 36.7194C53.0422 35.7519 53.453 33.6598 52.5007 32.2429C53.9138 30.8766 54.1589 29.4132 53.2361 27.8527C54.0202 27.2582 54.5275 26.3168 54.5275 25.2593C54.5275 23.4655 53.0681 22.0061 51.2743 22.0061H42.6579C43.0453 20.607 43.2103 19.1766 43.156 17.6788H61.1536V46.1469H20.8252C20.2427 46.1469 19.7705 46.619 19.7705 47.2016C19.7705 47.7842 20.2427 48.2563 20.8252 48.2563H62.2083C62.7907 48.2563 63.263 47.7842 63.263 47.2016V16.6241C63.263 16.0415 62.7907 15.5694 62.2083 15.5694H42.9405C42.8205 14.8362 42.6537 14.085 42.4372 13.311H51.1748C51.7573 13.311 52.2295 12.8389 52.2295 12.2563C52.2295 11.6737 51.7573 11.2016 51.1748 11.2016H41.1647C39.9988 10.4535 38.8335 10.4535 37.6691 11.2016H9.82406C6.81539 11.2016 4.36781 13.6492 4.36781 16.6578V50.5147H1.05469C0.472219 50.5147 0 50.9868 0 51.5694V55.9035C0 58.9121 2.44758 61.3597 5.45625 61.3597H33.8555C34.4379 61.3597 34.9102 60.8876 34.9102 60.305C34.9102 59.7224 34.4379 59.2503 33.8555 59.2503H5.45625C3.61083 59.2503 2.10938 57.7489 2.10938 55.9035V52.6241H26.209V55.9374C26.209 56.52 26.6812 56.9921 27.2637 56.9921H44.7362C45.3187 56.9921 45.7909 56.52 45.7909 55.9374V52.6241H69.8906V55.9035C69.8906 57.7489 68.3892 59.2503 66.5438 59.2503H38.4511C37.8686 59.2503 37.3964 59.7224 37.3964 60.305C37.3964 60.8876 37.8686 61.3597 38.4511 61.3597H66.5438C69.5524 61.3597 72 58.9121 72 55.9035V51.5694C72 50.9867 71.5278 50.5146 70.9453 50.5146ZM19.582 21.9102H23.7765V39.5941H19.582V21.9102ZM28.2262 39.5941H25.8858V24.1093H28.2262V39.5941ZM40.2576 13.3686C41.3321 16.8909 41.318 19.8486 40.2133 22.6769C40.0344 23.5021 40.3619 23.9816 41.1957 24.1153H51.2743C51.905 24.1153 52.4181 24.6283 52.4181 25.2592C52.4181 25.89 51.905 26.403 51.2743 26.403H48.5392C47.9568 26.403 47.4846 26.8751 47.4846 27.4577C47.4846 28.0403 47.9568 28.5124 48.5392 28.5124H50.5298C51.1605 28.5124 51.6736 29.0254 51.6736 29.6562C51.6736 30.2871 51.1605 30.8001 50.5298 30.8001H48.5392C47.9568 30.8001 47.4846 31.2722 47.4846 31.8548C47.4846 32.4374 47.9568 32.9095 48.5392 32.9095H49.799C50.4297 32.9095 50.9428 33.4225 50.9428 34.0533C50.9428 34.6841 50.4297 35.1971 49.799 35.1971H47.8083C47.2258 35.1971 46.7536 35.6692 46.7536 36.2518C46.7536 36.8344 47.2258 37.3065 47.8083 37.3065H48.9075C49.5382 37.3065 50.0514 37.8195 50.0514 38.4504C50.0514 39.0812 49.5382 39.5942 48.9075 39.5942H35.0774C34.7238 39.5942 34.3693 39.4717 34.0795 39.2495C32.8607 38.3149 31.5817 37.9999 30.3356 37.8635V25.2613C31.3962 24.1158 32.5358 23.2654 33.6406 22.4408C36.2836 20.4684 38.78 18.6054 38.5244 13.6839C38.5525 13.1187 38.8479 12.8074 39.4107 12.7499C39.7981 12.7497 40.1463 13.0043 40.2576 13.3686ZM43.6816 54.8824H28.3184V52.6238H43.6815V54.8824H43.6816Z" fill="#266BDF"/>
</g>
<defs>
<clipPath id="clip0_480:101716">
<rect width="72" height="72" fill="white"/>
</clipPath>
</defs>
</svg>
