<svg width="20" height="20" viewBox="0 0 20 20" fill="none" xmlns="http://www.w3.org/2000/svg">
<path fill-rule="evenodd" clip-rule="evenodd" d="M0.166504 3.33317C0.166504 1.58427 1.58427 0.166504 3.33317 0.166504H6.29213C7.13339 0.166504 7.86669 0.739049 8.07073 1.55519L8.85211 4.68073C9.08446 5.61011 8.56209 6.56169 7.65327 6.86463L6.1751 7.35735C5.64281 7.53478 5.32593 8.08081 5.43597 8.631C6.03473 11.6248 8.37488 13.9649 11.3687 14.5637C11.9189 14.6737 12.4649 14.3569 12.6423 13.8246L13.0393 12.6335C13.3921 11.5751 14.6006 11.0745 15.5985 11.5735L18.8197 13.1841C19.4408 13.4947 19.8332 14.1295 19.8332 14.8239V16.6665C19.8332 18.4154 18.4154 19.8332 16.6665 19.8332H13.9998C6.3599 19.8332 0.166504 13.6398 0.166504 5.99984V3.33317ZM3.33317 1.1665C2.13655 1.1665 1.1665 2.13655 1.1665 3.33317V5.99984C1.1665 13.0875 6.91218 18.8332 13.9998 18.8332H16.6665C17.8631 18.8332 18.8332 17.8631 18.8332 16.6665V14.8239C18.8332 14.5082 18.6548 14.2197 18.3725 14.0785L15.1513 12.4679C14.6977 12.2411 14.1484 12.4686 13.988 12.9497L13.591 14.1408C13.2541 15.1515 12.2173 15.7532 11.1726 15.5443C7.7829 14.8664 5.13332 12.2168 4.45539 8.82711C4.24645 7.7824 4.84813 6.74558 5.85887 6.40867L7.33704 5.91594C7.75014 5.77824 7.98758 5.34571 7.88197 4.92326L7.10059 1.79772L7.55712 1.68359L7.10059 1.79772C7.00784 1.42675 6.67452 1.1665 6.29213 1.1665H3.33317Z" fill="black"/>
</svg>
