<svg width="345" height="250" fill="none" xmlns="http://www.w3.org/2000/svg"><path fill-rule="evenodd" clip-rule="evenodd" d="M324.166 0h-8.333v14.94L305.269 4.377l-5.893 5.893 10.564 10.564H295v8.334h14.941l-10.565 10.565L304.645 45l-5.269 5.269 10.564 10.564H295v8.334h14.941l-10.565 10.565L304.645 85l-5.269 5.269 10.564 10.564H295v8.334h14.941l-10.565 10.565 5.893 5.892 10.564-10.564V130h8.333v-14.941l10.565 10.565 5.893-5.892-10.565-10.565H345v-8.334h-14.94l10.564-10.564L335.355 85l5.269-5.268-10.565-10.566H345v-8.333h-14.94l10.564-10.564L335.355 45l5.269-5.268-10.565-10.566H345v-8.333h-14.94l10.564-10.564-5.893-5.893-10.565 10.565V0Zm9.941 85-9.941-9.94v19.88l9.941-9.94Zm-18.274-5v-4.94l-9.94 9.94 9.94 9.94V80Zm0-25.06-9.94-9.94 9.94-9.94v19.88Zm8.333-4.94V35.06l9.941 9.94-9.941 9.941V50Z" fill="#038192"/><rect y="200" width="107" height="50" rx="25" fill="#FE7167"/><rect x="2.5" y="152.5" width="102" height="45" rx="22.5" stroke="#FFCC1A" stroke-width="5"/><rect x="107" y="150" width="50" height="50" rx="25" fill="#FFCC1A"/><path d="M107 225a25.006 25.006 0 0 0 7.322 17.678A25.01 25.01 0 0 0 132 250a25.006 25.006 0 0 0 17.678-7.322A25.01 25.01 0 0 0 157 225h-15.799a9.199 9.199 0 0 1-17.701 3.521 9.19 9.19 0 0 1-.701-3.521H107Z" fill="#038192"/></svg>