<svg width="20" height="20" fill="none" xmlns="http://www.w3.org/2000/svg"><path fill-rule="evenodd" clip-rule="evenodd" d="M.167 6A5.833 5.833 0 0 1 6 .167h8A5.833 5.833 0 0 1 19.833 6v8A5.833 5.833 0 0 1 14 19.833H6A5.833 5.833 0 0 1 .167 14V6ZM6 1.167A4.833 4.833 0 0 0 1.167 6v8A4.833 4.833 0 0 0 6 18.833h8A4.833 4.833 0 0 0 18.833 14V6A4.833 4.833 0 0 0 14 1.167H6Zm10 4h-1.334v-1H16v1ZM5.5 10a4.5 4.5 0 1 1 9 0 4.5 4.5 0 0 1-9 0ZM10 6.5a3.5 3.5 0 1 0 0 7 3.5 3.5 0 0 0 0-7Z" fill="#000"/></svg>