<svg width="20" height="20" fill="none" xmlns="http://www.w3.org/2000/svg"><path fill-rule="evenodd" clip-rule="evenodd" d="M.167 3.333A3.167 3.167 0 0 1 3.333.167h2.96c.84 0 1.574.572 1.778 1.388l.781 3.126c.232.93-.29 1.88-1.199 2.184l-1.478.492c-.532.178-.85.724-.739 1.274a7.563 7.563 0 0 0 5.933 5.933c.55.11 1.096-.207 1.273-.74l.397-1.19a1.833 1.833 0 0 1 2.56-1.06l3.22 1.61c.622.31 1.014.946 1.014 1.64v1.842a3.167 3.167 0 0 1-3.166 3.167H14C6.36 19.833.167 13.64.167 6V3.333Zm3.166-2.167c-1.196 0-2.167.97-2.167 2.167V6c0 7.088 5.746 12.833 12.834 12.833h2.666c1.197 0 2.167-.97 2.167-2.166v-1.843a.833.833 0 0 0-.46-.745l-3.222-1.611a.833.833 0 0 0-1.163.482l-.397 1.19a2.113 2.113 0 0 1-2.418 1.404 8.563 8.563 0 0 1-6.718-6.717A2.113 2.113 0 0 1 5.86 6.41l1.478-.493a.833.833 0 0 0 .545-.993l-.781-3.125.456-.114-.456.114a.833.833 0 0 0-.809-.631h-2.96Z" fill="#000"/></svg>