<svg width="20" height="20" fill="none" xmlns="http://www.w3.org/2000/svg"><path fill-rule="evenodd" clip-rule="evenodd" d="M.167 10C.167 4.57 4.569.167 10 .167c5.43 0 9.833 4.402 9.833 9.833 0 5.43-4.402 9.833-9.833 9.833a9.79 9.79 0 0 1-5.65-1.783L.89 19.78a.5.5 0 0 1-.672-.67l1.73-3.461A9.79 9.79 0 0 1 .168 10ZM10 1.167A8.833 8.833 0 0 0 1.167 10a8.79 8.79 0 0 0 1.766 5.3l.185.248-1.333 2.667 2.667-1.334.248.186a8.792 8.792 0 0 0 5.3 1.766 8.833 8.833 0 1 0 0-17.666ZM7.846 6.783a.833.833 0 0 0-1.285-.556l-.061.04v1.066c0 .687.112 1.348.32 1.964l.852-.568a.833.833 0 0 0 .36-.83l-.186-1.116Zm-.624 3.448 1.005-.67c.6-.4.91-1.115.791-1.827L8.832 6.62a1.833 1.833 0 0 0-2.825-1.224l-.284.19A.5.5 0 0 0 5.5 6v1.333a7.167 7.167 0 0 0 7.166 7.167H14a.5.5 0 0 0 .416-.223l.19-.284a1.833 1.833 0 0 0-1.225-2.825l-1.115-.186a1.833 1.833 0 0 0-1.827.791l-.67 1.005a6.195 6.195 0 0 1-2.547-2.547Zm3.48 2.95c.617.207 1.278.32 1.964.32h1.066l.041-.063a.833.833 0 0 0-.556-1.284l-1.116-.186a.833.833 0 0 0-.83.36l-.568.853Z" fill="#000"/></svg>