<svg width="20" height="20" fill="none" xmlns="http://www.w3.org/2000/svg"><path d="M14.511 12.18c-.239-.28-.51-.532-.77-.775a24.935 24.935 0 0 1-.28-.262c-.122-.118-.183-.201-.189-.263-.006-.061.036-.151.133-.284.146-.2.3-.402.45-.596.134-.172.272-.35.404-.53l.03-.04c.257-.35.524-.713.667-1.154.04-.126.083-.314-.02-.478-.102-.164-.291-.213-.425-.235a1.092 1.092 0 0 0-.184-.012l-1.672-.002c-.289-.005-.49.13-.599.4-.087.216-.19.466-.31.703-.229.458-.52.985-.941 1.424l-.02.02a.556.556 0 0 1-.099.09c-.046-.028-.098-.189-.096-.273V8.01c0-.01 0-.02-.002-.029-.038-.27-.11-.542-.547-.626a.222.222 0 0 0-.042-.004h-1.74c-.326 0-.5.147-.638.306-.04.047-.147.17-.093.321.055.153.22.183.273.193.19.036.288.14.318.342.06.39.067.808.023 1.314-.012.136-.035.24-.072.325a.248.248 0 0 1-.026.047.258.258 0 0 1-.047-.026c-.133-.09-.233-.228-.33-.363a8.843 8.843 0 0 1-.997-1.814c-.117-.28-.336-.437-.617-.441a42.402 42.402 0 0 0-1.514 0c-.228.005-.387.075-.475.21-.087.135-.084.308.01.512.67 1.464 1.279 2.528 1.973 3.452.489.65.981 1.102 1.549 1.42.596.336 1.27.5 2.05.5.088 0 .179-.002.27-.006.482-.022.678-.21.699-.67.012-.244.04-.44.135-.612.027-.048.057-.08.081-.086.025-.006.07.009.12.04.091.059.17.138.235.207l.195.213c.137.15.277.305.425.453.334.334.719.487 1.145.455h1.544a.516.516 0 0 0 .419-.263.657.657 0 0 0-.005-.636 3.19 3.19 0 0 0-.397-.563Zm.02.988c-.02.037-.047.044-.06.045h-1.548c-.301.025-.557-.079-.805-.327-.14-.14-.278-.291-.411-.437l-.199-.217a1.66 1.66 0 0 0-.32-.277c-.198-.127-.362-.123-.465-.097a.567.567 0 0 0-.358.296c-.144.258-.176.536-.189.799-.007.16-.035.203-.046.213-.016.014-.066.04-.235.047-.812.037-1.493-.105-2.083-.437-.513-.288-.962-.702-1.413-1.302-.676-.899-1.27-1.939-1.926-3.373A.36.36 0 0 1 4.439 8a.38.38 0 0 1 .107-.013c.478-.01.968-.01 1.499 0 .073 0 .155.022.218.172a9.262 9.262 0 0 0 1.045 1.901c.108.15.243.336.44.47.182.121.33.115.42.089.092-.026.22-.1.305-.298a1.46 1.46 0 0 0 .105-.455 5.834 5.834 0 0 0-.027-1.416c-.046-.304-.205-.523-.457-.635a.348.348 0 0 1 .165-.033h1.716c.097.021.116.046.122.055a.5.5 0 0 1 .054.19l.001 1.878c-.004.18.085.58.389.69a.097.097 0 0 0 .008.002c.276.088.459-.103.557-.206l.017-.018c.462-.482.773-1.044 1.016-1.53.127-.25.234-.51.325-.734.045-.112.086-.13.185-.129h.004l1.674.002c.039 0 .08 0 .11.006.08.013.113.03.124.036a.338.338 0 0 1-.023.123c-.122.375-.356.694-.604 1.032l-.03.04c-.13.175-.265.352-.397.522-.152.197-.31.4-.458.605-.318.436-.29.726.107 1.106.094.09.19.18.283.266.264.246.513.477.736.739.116.138.248.303.344.486.05.095.038.182.012.226Z" fill="#000"/><path fill-rule="evenodd" clip-rule="evenodd" d="M10 19a9 9 0 1 0 0-18 9 9 0 0 0 0 18Zm0 1c5.523 0 10-4.477 10-10S15.523 0 10 0 0 4.477 0 10s4.477 10 10 10Z" fill="#000"/></svg>