<svg width="50" height="61" viewBox="0 0 50 61" fill="none" xmlns="http://www.w3.org/2000/svg">
<path d="M12.365 36.72C13.965 39.5467 15.9117 41.76 18.205 43.36C20.5517 44.9067 22.9783 45.68 25.485 45.68C26.8717 45.68 28.045 45.4133 29.005 44.88C29.965 44.2933 30.445 43.3867 30.445 42.16C30.445 41.4133 30.1783 40.7733 29.645 40.24C29.165 39.7067 28.1783 39.0933 26.685 38.4C25.1917 37.7067 22.925 36.7733 19.885 35.6C18.5517 35.0667 17.005 34.3467 15.245 33.44C13.5383 32.5333 11.885 31.36 10.285 29.92C8.73833 28.48 7.43167 26.72 6.365 24.64C5.35167 22.56 4.845 20.1067 4.845 17.28C4.845 13.6 5.83167 10.5067 7.805 8C9.77833 5.49333 12.3917 3.6 15.645 2.32C18.8983 1.04 22.4717 0.399998 26.365 0.399998C30.5783 0.399998 34.1783 1.04 37.165 2.32C40.205 3.6 42.685 5.2 44.605 7.12C46.5783 9.04 48.0717 10.96 49.085 12.88L36.045 20.08C34.7117 18.1067 33.245 16.72 31.645 15.92C30.045 15.0667 28.4717 14.64 26.925 14.64C25.6983 14.64 24.685 14.8533 23.885 15.28C23.1383 15.7067 22.765 16.3733 22.765 17.28C22.765 18.4 23.2983 19.3333 24.365 20.08C25.485 20.7733 26.9517 21.44 28.765 22.08C30.5783 22.6667 32.5783 23.36 34.765 24.16C39.245 25.7067 42.7383 27.92 45.245 30.8C47.805 33.68 49.085 37.28 49.085 41.6C49.085 44.6933 48.445 47.44 47.165 49.84C45.885 52.1867 44.1517 54.1333 41.965 55.68C39.8317 57.2267 37.405 58.4 34.685 59.2C31.965 60 29.165 60.4 26.285 60.4C22.285 60.4 18.5517 59.7333 15.085 58.4C11.6717 57.12 8.71167 55.3333 6.205 53.04C3.69833 50.7467 1.805 48.1867 0.525 45.36L12.365 36.72Z" fill="#FFECA0"/>
</svg>
