<svg width="272" height="270" fill="none" xmlns="http://www.w3.org/2000/svg"><g clip-path="url(#a)"><path fill="#FDE9D4" d="M90.965 90h90.517v90H90.965z"/><path d="M178.896 180c0-49.705-40.811-90-90.517-90v90h90.517Z" fill="#FE7167"/><path d="M133.637 135c0-24.853-20.406-45-45.259-45v90c24.853 0 45.259-20.147 45.259-45Z" fill="#000"/><path fill="#fff" d="m149.801 135-22.859-22.728L104.083 135l22.86 22.728z"/><ellipse rx="4.526" ry="4.5" transform="matrix(-1 0 0 1 114.24 135)" fill="#000"/></g><path d="M.45 90c0-49.706 40.81-90 90.516-90v90H.45Z" fill="#FE7167"/><path d="M16.454 74.143c1.536-31.441 27.083-56.698 58.582-58.214v58.214H16.454Z" fill="#FDE9D4" stroke="#000" stroke-width="6"/><path fill="#000" d="M90.965 180h90.517v90H90.965z"/><path fill="#fff" d="m91.553 187.404 6.858-6.819 27.43 27.274-6.858 6.819z"/><path fill="#fff" d="m98.41 214.678-6.858-6.819 27.43-27.274 6.859 6.82z"/><path d="M136.223 230.143 157.559 270h-42.672l21.336-39.857Z" fill="#FE7167"/><path d="M136.87 222.429c2.217 5.956 6.967 10.662 12.932 12.857-5.965 2.194-10.715 6.9-12.932 12.857-2.216-5.957-6.966-10.663-12.931-12.857 5.965-2.195 10.715-6.901 12.931-12.857ZM90.965 0h90.517v90H90.965z" fill="#FDE9D4"/><circle r="32.235" transform="scale(1.00286 .99713) rotate(-45 144.405 -150.52)" fill="#FFCC1A"/><path d="M126.295 35.129a32.052 32.052 0 0 0-9.468 22.728 32.05 32.05 0 0 0 9.468 22.728A32.422 32.422 0 0 0 149.154 90a32.42 32.42 0 0 0 22.859-9.415l-22.859-22.728-22.859-22.728Z" fill="#000"/><path d="m146.569 90 34.913-36.643V90h-34.913Z" fill="#236967"/><g clip-path="url(#b)"><path fill="#FDE9D4" d="M.45 180V90h90.516v90z"/><ellipse cx="93.553" cy="167.169" rx="12.831" ry="12.905" transform="rotate(-90 93.553 167.169)" fill="#FFCC1A"/><ellipse cx="93.553" cy="145.482" rx="12.831" ry="12.905" transform="rotate(-90 93.553 145.482)" fill="#FFCC1A"/><ellipse cx="93.553" cy="123.795" rx="12.831" ry="12.905" transform="rotate(-90 93.553 123.795)" fill="#FFCC1A"/><ellipse cx="93.553" cy="102.831" rx="12.831" ry="12.905" transform="rotate(-90 93.553 102.831)" fill="#FFCC1A"/><path d="M90.966 180a45.391 45.391 0 0 1-32.003-13.18A44.87 44.87 0 0 1 45.707 135a44.87 44.87 0 0 1 13.256-31.82A45.392 45.392 0 0 1 90.966 90v8.287a37.03 37.03 0 0 0-26.109 10.753A36.607 36.607 0 0 0 54.042 135c0 9.737 3.89 19.075 10.815 25.96a37.031 37.031 0 0 0 26.109 10.753V180Z" fill="#FFCC1A"/><ellipse cx="22.431" cy="135" rx="12.857" ry="12.931" transform="rotate(-90 22.431 135)" fill="#FC8B4C"/></g><path fill="#236967" d="M181.482 180h90.517v90h-90.517z"/><ellipse cx="227.064" cy="215.036" rx="19.72" ry="19.607" fill="#FFCC1A"/><ellipse cx="227.064" cy="234.964" rx="19.72" ry="19.607" fill="#fff"/><path d="M208.72 215.036c8.273-3.408 14.904-9.984 18.344-18.244 3.439 8.26 10.07 14.836 18.343 18.244-8.273 3.408-14.904 9.983-18.343 18.243-3.44-8.26-10.071-14.835-18.344-18.243Z" stroke="#fff"/><path d="M208.72 234.964c8.273-3.408 14.904-9.983 18.344-18.243 3.439 8.26 10.07 14.835 18.343 18.243-8.273 3.409-14.904 9.984-18.343 18.244-3.44-8.26-10.071-14.835-18.344-18.244Z" stroke="#FDD503"/><path d="M181.482 90c3.326 8.935 10.45 15.994 19.397 19.286-8.947 3.292-16.071 10.351-19.397 19.285-3.325-8.934-10.449-15.993-19.396-19.285 8.947-3.292 16.071-10.351 19.396-19.286Z" fill="#FFCC1A"/><g clip-path="url(#c)"><path fill="#FFCC1A" d="M181.482 90h90.517v90h-90.517z"/><ellipse cx="194.387" cy="179.974" rx="12.905" ry="12.831" fill="#FDE9D4"/><ellipse cx="216.2" cy="179.974" rx="12.905" ry="12.831" fill="#FDE9D4"/><ellipse cx="238.011" cy="179.974" rx="12.905" ry="12.831" fill="#FDE9D4"/><ellipse cx="259.095" cy="179.974" rx="12.905" ry="12.831" fill="#FDE9D4"/><path d="M181.483 180a44.868 44.868 0 0 1 13.256-31.82A45.39 45.39 0 0 1 226.741 135a45.391 45.391 0 0 1 32.003 13.18A44.868 44.868 0 0 1 272 180h-8.335c0-9.737-3.89-19.075-10.815-25.96a37.03 37.03 0 0 0-26.109-10.753 37.034 37.034 0 0 0-26.109 10.753A36.608 36.608 0 0 0 189.818 180h-8.335Z" fill="#FDE9D4"/><ellipse cx="226.742" cy="111.857" rx="12.931" ry="12.857" fill="#FC8B4C"/></g><path fill="#FC8B4C" d="M181.482 0h90.517v90h-90.517z"/><path fill="#fff" d="M224.047 28.929h5.388v32.143h-5.388z"/><path fill="#fff" d="m213.408 35.53 3.81-3.788 22.859 22.728-3.81 3.788z"/><path fill="#fff" d="m240.076 35.53-3.81-3.788-22.859 22.728 3.81 3.788z"/><path fill="#fff" d="M210.577 47.679v-5.357h32.329v5.357z"/><ellipse rx="3.233" ry="3.214" transform="matrix(-1 0 0 1 226.742 77.143)" fill="#fff"/><ellipse rx="3.233" ry="3.214" transform="matrix(-1 0 0 1 259.068 45)" fill="#fff"/><ellipse rx="3.233" ry="3.214" transform="matrix(-1 0 0 1 194.414 45)" fill="#fff"/><ellipse rx="3.233" ry="3.214" transform="matrix(-1 0 0 1 226.742 12.857)" fill="#fff"/><path d="m225.448 90-43.966-36.643V90h43.966Z" fill="#236967"/><defs><clipPath id="a"><path fill="#fff" transform="translate(90.965 90)" d="M0 0h90.517v90H0z"/></clipPath><clipPath id="b"><path fill="#fff" transform="matrix(0 -1 1 0 .45 180)" d="M0 0h90v90.517H0z"/></clipPath><clipPath id="c"><path fill="#fff" transform="translate(181.482 90)" d="M0 0h90.517v90H0z"/></clipPath></defs></svg>