<svg width="361" height="246" fill="none" xmlns="http://www.w3.org/2000/svg"><path fill-rule="evenodd" clip-rule="evenodd" d="M128.687 196.231a42.116 42.116 0 0 1-24.884 24.884A42.118 42.118 0 0 1 128.687 246a42.12 42.12 0 0 1 24.885-24.885 42.118 42.118 0 0 1-24.885-24.884Zm-24.884 24.884a42.117 42.117 0 0 1-24.884-24.884 42.117 42.117 0 0 1-24.885 24.884A42.119 42.119 0 0 1 78.92 246a42.119 42.119 0 0 1 24.884-24.885Zm74.653-24.884a42.118 42.118 0 0 1-24.884 24.885A42.116 42.116 0 0 1 178.456 246a42.118 42.118 0 0 1 24.885-24.884 42.12 42.12 0 0 1-24.885-24.885Z" fill="#FE7167"/><rect width="142.197" height="142.197" rx="50" transform="matrix(-1 0 0 1 142.196 49.058)" fill="#FDE9D4"/><path fill-rule="evenodd" clip-rule="evenodd" d="M221.826 135.243h135.087a.555.555 0 0 1 0 1.11H221.826a.556.556 0 0 1 0-1.11Zm135.087-3a3.555 3.555 0 1 1 0 7.11H221.826a3.555 3.555 0 0 1 0-7.11h135.087Zm-135.087 31.439h135.087a.556.556 0 0 1 0 1.11H221.826a.556.556 0 0 1 0-1.11Zm135.087-3a3.555 3.555 0 0 1 0 7.11H221.826a3.555 3.555 0 0 1 0-7.11h135.087Zm0-11.22H221.826a.556.556 0 0 0 0 1.11h135.087a.555.555 0 0 0 0-1.11Zm3.555.555a3.555 3.555 0 0 0-3.555-3.555H221.826a3.555 3.555 0 0 0 0 7.11h135.087a3.555 3.555 0 0 0 3.555-3.555Z" fill="#FFECA0"/><path fill-rule="evenodd" clip-rule="evenodd" d="M292.924 42.659c-11.78 0-21.329-9.55-21.329-21.33C271.595 9.55 281.144 0 292.924 0c11.78 0 21.33 9.55 21.33 21.33 0 11.78-9.55 21.329-21.33 21.329Zm-44.081 0c-11.779 0-21.329-9.55-21.329-21.33C227.514 9.55 237.064 0 248.843 0c11.78 0 21.33 9.55 21.33 21.33 0 11.78-9.55 21.329-21.33 21.329ZM227.514 65.41c0 11.78 9.55 21.33 21.329 21.33 11.78 0 21.33-9.55 21.33-21.33 0-11.78-9.55-21.33-21.33-21.33-11.779 0-21.329 9.55-21.329 21.33Zm65.41 21.33c-11.78 0-21.329-9.55-21.329-21.33 0-11.78 9.549-21.33 21.329-21.33 11.78 0 21.33 9.55 21.33 21.33 0 11.78-9.55 21.33-21.33 21.33ZM183.433 21.33c0 11.78 9.55 21.329 21.33 21.329 11.78 0 21.329-9.55 21.329-21.33C226.092 9.55 216.543 0 204.763 0c-11.78 0-21.33 9.55-21.33 21.33Zm-22.751 21.329c-11.78 0-21.33-9.55-21.33-21.33 0-11.78 9.55-21.329 21.33-21.329 11.78 0 21.329 9.55 21.329 21.33 0 11.78-9.549 21.329-21.329 21.329Zm22.751 22.751c0 11.78 9.55 21.33 21.33 21.33 11.78 0 21.329-9.55 21.329-21.33 0-11.78-9.549-21.33-21.329-21.33-11.78 0-21.33 9.55-21.33 21.33Zm-22.751 21.33c-11.78 0-21.33-9.55-21.33-21.33 0-11.78 9.55-21.33 21.33-21.33 11.78 0 21.329 9.55 21.329 21.33 0 11.78-9.549 21.33-21.329 21.33Z" fill="#236967"/></svg>