<svg width="355" height="246" viewBox="0 0 355 246" fill="none" xmlns="http://www.w3.org/2000/svg">
<path fill-rule="evenodd" clip-rule="evenodd" d="M251.844 196.231C256.112 207.76 265.213 216.851 276.744 221.115C265.213 225.379 256.112 234.471 251.844 246C247.575 234.471 238.474 225.379 226.944 221.115C238.474 216.851 247.575 207.76 251.844 196.231ZM202.044 196.231C206.313 207.76 215.414 216.851 226.944 221.115C215.414 225.379 206.313 234.471 202.044 246C197.776 234.471 188.675 225.379 177.145 221.115C188.675 216.851 197.776 207.76 202.044 196.231ZM326.543 221.115C315.013 216.851 305.912 207.76 301.644 196.231C297.375 207.76 288.274 216.851 276.744 221.115C288.274 225.379 297.375 234.471 301.644 246C305.912 234.471 315.013 225.379 326.543 221.115Z" fill="#236967"/>
<rect x="212.715" y="44.0811" width="142.285" height="142.197" rx="50" fill="#FE7167"/>
<path fill-rule="evenodd" clip-rule="evenodd" d="M138.73 170.081H3.55491C3.24844 170.081 3 170.329 3 170.636C3 170.942 3.24844 171.191 3.55491 171.191H138.73C139.036 171.191 139.285 170.942 139.285 170.636C139.285 170.329 139.036 170.081 138.73 170.081ZM3.55491 167.081C1.59159 167.081 0 168.672 0 170.636C0 172.599 1.59159 174.191 3.55491 174.191H138.73C140.693 174.191 142.285 172.599 142.285 170.636C142.285 168.672 140.693 167.081 138.73 167.081H3.55491ZM138.73 198.52H3.55491C3.24844 198.52 3 198.769 3 199.075C3 199.382 3.24844 199.63 3.55491 199.63H138.73C139.036 199.63 139.285 199.382 139.285 199.075C139.285 198.769 139.036 198.52 138.73 198.52ZM3.55491 195.52C1.59159 195.52 0 197.112 0 199.075C0 201.039 1.59159 202.63 3.55491 202.63H138.73C140.693 202.63 142.285 201.039 142.285 199.075C142.285 197.112 140.693 195.52 138.73 195.52H3.55491ZM3.55491 184.301H138.73C139.036 184.301 139.285 184.549 139.285 184.856C139.285 185.162 139.036 185.41 138.73 185.41H3.55491C3.24844 185.41 3 185.162 3 184.856C3 184.549 3.24844 184.301 3.55491 184.301ZM0 184.856C0 182.892 1.59159 181.301 3.55491 181.301H138.73C140.693 181.301 142.285 182.892 142.285 184.856C142.285 186.819 140.693 188.41 138.73 188.41H3.55491C1.59159 188.41 0 186.819 0 184.856Z" fill="#FFECA0"/>
<path fill-rule="evenodd" clip-rule="evenodd" d="M88.9276 21.3295C88.9276 33.1094 79.3721 42.659 67.5849 42.659C55.7976 42.659 46.2422 33.1094 46.2422 21.3295C46.2422 9.54953 55.7976 0 67.5849 0C79.3721 0 88.9276 9.54953 88.9276 21.3295ZM133.036 21.3295C133.036 33.1094 123.48 42.659 111.693 42.659C99.9057 42.659 90.3503 33.1094 90.3503 21.3295C90.3503 9.54953 99.9057 0 111.693 0C123.48 0 133.036 9.54953 133.036 21.3295ZM111.693 86.7401C123.481 86.7401 133.036 77.1905 133.036 65.4106C133.036 53.6306 123.481 44.0811 111.693 44.0811C99.906 44.0811 90.3506 53.6306 90.3506 65.4106C90.3506 77.1905 99.906 86.7401 111.693 86.7401ZM133.036 109.491C133.036 121.271 123.481 130.821 111.693 130.821C99.906 130.821 90.3506 121.271 90.3506 109.491C90.3506 97.7113 99.906 88.1617 111.693 88.1617C123.481 88.1617 133.036 97.7113 133.036 109.491ZM67.5849 86.7401C79.3721 86.7401 88.9276 77.1905 88.9276 65.4106C88.9276 53.6306 79.3721 44.0811 67.5849 44.0811C55.7976 44.0811 46.2422 53.6306 46.2422 65.4106C46.2422 77.1905 55.7976 86.7401 67.5849 86.7401ZM88.9276 109.491C88.9276 121.271 79.3721 130.821 67.5849 130.821C55.7976 130.821 46.2422 121.271 46.2422 109.491C46.2422 97.7113 55.7976 88.1617 67.5849 88.1617C79.3721 88.1617 88.9276 97.7113 88.9276 109.491ZM155.802 42.659C167.589 42.659 177.144 33.1094 177.144 21.3295C177.144 9.54953 167.589 0 155.802 0C144.014 0 134.459 9.54953 134.459 21.3295C134.459 33.1094 144.014 42.659 155.802 42.659ZM177.144 65.4106C177.144 77.1905 167.589 86.7401 155.802 86.7401C144.014 86.7401 134.459 77.1905 134.459 65.4106C134.459 53.6306 144.014 44.0811 155.802 44.0811C167.589 44.0811 177.144 53.6306 177.144 65.4106ZM155.802 130.821C167.589 130.821 177.144 121.271 177.144 109.491C177.144 97.7113 167.589 88.1617 155.802 88.1617C144.014 88.1617 134.459 97.7113 134.459 109.491C134.459 121.271 144.014 130.821 155.802 130.821Z" fill="#FFCC1A"/>
</svg>
