<svg width="80" height="276" fill="none" xmlns="http://www.w3.org/2000/svg"><mask id="a" fill="#fff"><path d="M80 236a40.002 40.002 0 0 0-47.804-39.231 39.997 39.997 0 0 0-29.151 54.538A40 40 0 0 0 40 276v-40h40Z"/></mask><path d="M80 236a40.002 40.002 0 0 0-47.804-39.231 39.997 39.997 0 0 0-29.151 54.538A40 40 0 0 0 40 276v-40h40Z" stroke="#FE7167" stroke-width="20" mask="url(#a)"/><circle cx="60" cy="256" r="20" transform="rotate(90 60 256)" fill="#FDD503"/><path d="M80 256.001a19.997 19.997 0 0 0-20-20 19.999 19.999 0 0 0-20 20h40Z" fill="#FDD503"/><path fill-rule="evenodd" clip-rule="evenodd" d="M58.667 44h-7.334V30.852l-9.297 9.297-5.185-5.186 9.297-9.296H33v-7.333h13.148l-9.297-9.298 5.185-5.185 9.297 9.297V0h7.334v13.148l9.297-9.297 5.185 5.185-9.297 9.298H77v7.333H63.852l9.297 9.296-5.186 5.186-9.296-9.297V44Z" fill="#236967"/></svg>