<svg width="290" height="264" fill="none" xmlns="http://www.w3.org/2000/svg"><path fill-rule="evenodd" clip-rule="evenodd" d="M35 4a42.314 42.314 0 0 0 25 25 42.314 42.314 0 0 0-25 25 42.314 42.314 0 0 0-25-25A42.314 42.314 0 0 0 35 4Zm75 25a42.314 42.314 0 0 0-25 25 42.314 42.314 0 0 0-25-25A42.314 42.314 0 0 0 85 4a42.314 42.314 0 0 0 25 25Zm0 0a42.315 42.315 0 0 0 25-25 42.315 42.315 0 0 0 25 25 42.315 42.315 0 0 0-25 25 42.315 42.315 0 0 0-25-25Z" fill="#FDD503"/><circle cx="281" cy="124" r="7" transform="rotate(-180 281 124)" fill="#038192"/><circle cx="286" cy="166" r="4" transform="rotate(-180 286 166)" fill="#FC8B4C"/><circle cx="55" cy="259" r="5" fill="#FDD503"/><circle cx="32" cy="246" r="2" fill="#236967"/><circle cx="2" cy="79" r="2" fill="#FDD503"/><circle cx="182" cy="2" r="2" fill="#FDD503"/><circle cx="30" cy="166" r="30" fill="#FC8B4C"/></svg>