<svg width="40" height="40" fill="none" xmlns="http://www.w3.org/2000/svg"><g clip-path="url(#a)"><path d="M12.534 37.24a19.063 19.063 0 0 0 8.325 1.9c7.679 0 14.3-4.52 17.35-11.046l1.206-3.38c.382-1.51.585-3.088.585-4.714C40 9.429 31.43.86 20.86.86 10.288.86 1.719 9.428 1.719 20c0 1.767.24 3.477.688 5.101L12.534 37.24Z" fill="#1C2E7A"/><path d="M19.806 21.317H4.613c-.776 0-1.412.635-1.412 1.412v3.733l1.521 2.622H29.24v-6.455c-2.966.926-6.839.595-9.433-1.312Z" fill="#E9EFFF"/><path d="M9.89 25.2a3.895 3.895 0 0 1 3.883-3.883h-9.16c-.776 0-1.412.635-1.412 1.412v3.733l1.521 2.622h9.051A3.895 3.895 0 0 1 9.89 25.2Z" fill="#BEC8F7"/><path d="M15.92 15.132H2.8v4.59h15.3a9.895 9.895 0 0 1-2.18-4.59Z" fill="#E9EFFF"/><path d="M9.015 17.426a2.295 2.295 0 0 1 2.295-2.294H2.8v4.59h8.51a2.295 2.295 0 0 1-2.295-2.296Z" fill="#BEC8F7"/><path d="M30.68 30.64H4.947a19.24 19.24 0 0 0 6.115 5.805h19.596c.454-.271.897-.56 1.326-.867.07-.168.11-.352.11-.545v-2.98c0-.778-.636-1.413-1.412-1.413Z" fill="#E9EFFF"/><path d="M13.971 35.928c-2.372-1.584-1.234-5.288 1.618-5.288H4.946a19.24 19.24 0 0 0 6.115 5.805h4.56a2.863 2.863 0 0 1-1.65-.517Z" fill="#BEC8F7"/><path d="M29.328 28.29H4.614a.618.618 0 0 1-.617-.618v-4.943c0-.34.277-.617.617-.617h16.13a.795.795 0 0 0 0-1.59H4.615a2.21 2.21 0 0 0-2.207 2.207V25.1a19.032 19.032 0 0 0 2.052 4.771c.051.004.103.007.155.007h24.714a.795.795 0 0 0 0-1.59Z" fill="#FC90CE"/><path d="M10.435 29.084c0-.44.356-.795.795-.795H4.614a.618.618 0 0 1-.617-.617v-4.943c0-.34.277-.617.617-.617h6.694a.795.795 0 0 1 0-1.59H4.614a2.21 2.21 0 0 0-2.207 2.207V25.1a19.032 19.032 0 0 0 2.052 4.771c.051.004.103.007.155.007h6.616a.795.795 0 0 1-.795-.795Z" fill="#EA349C"/><path d="M30.681 29.845H4.442c.33.548.685 1.079 1.066 1.59h25.173c.34 0 .618.277.618.617v2.98c0 .34-.277.618-.618.618H9.838c.85.6 1.75 1.132 2.695 1.59h16.652a19.153 19.153 0 0 0 3.703-2.352v-2.836a2.21 2.21 0 0 0-2.207-2.207Z" fill="#4FABF7"/><path d="M12.764 30.64c0-.44.355-.795.794-.795H4.441c.33.548.685 1.079 1.066 1.59h8.051a.795.795 0 0 1-.794-.795Zm.794 6.6a.795.795 0 0 1 0-1.59H9.837c.85.6 1.751 1.132 2.696 1.59h1.025Z" fill="#1E9EF4"/><path d="M17.318 8.98H2.263c-.807 0-1.468.635-1.468 1.412v1.765c0 .777.66 1.412 1.468 1.412h14.042a9.662 9.662 0 0 1 1.013-4.59Z" fill="#E9EFFF"/><path d="M8.161 11.274a2.295 2.295 0 0 1 2.295-2.295H2.263c-.807 0-1.468.636-1.468 1.413v1.765c0 .777.66 1.412 1.468 1.412h8.193a2.295 2.295 0 0 1-2.295-2.295Z" fill="#BEC8F7"/><path d="M16.728 15.926H2.641a.795.795 0 0 1 0-1.59h14.087a.795.795 0 0 1 0 1.59Z" fill="#FF4155"/><path d="M8.888 15.131c0-.438.356-.794.795-.794H2.64a.795.795 0 1 0 0 1.59h7.042a.795.795 0 0 1-.795-.796Z" fill="#E80054"/><path d="M19.102 20.516H2.642a.795.795 0 0 1 0-1.59h16.46a.795.795 0 1 1 0 1.59Z" fill="#FF4155"/><path d="M8.888 19.721c0-.439.356-.795.795-.795H2.64a.795.795 0 1 0 0 1.59h7.042a.795.795 0 0 1-.795-.795Z" fill="#E80054"/><path d="M16.413 14.364H2.207A2.21 2.21 0 0 1 0 12.157v-1.765a2.21 2.21 0 0 1 2.207-2.207h15.027a.795.795 0 1 1 0 1.59H2.207a.618.618 0 0 0-.617.617v1.765c0 .34.277.617.617.617h14.206a.795.795 0 0 1 0 1.59Z" fill="#FFDD40"/><path d="M8.02 13.57c0-.44.356-.796.795-.796H2.207a.618.618 0 0 1-.617-.617v-1.765c0-.34.277-.618.617-.618h6.568a.795.795 0 1 1 0-1.59H2.207A2.21 2.21 0 0 0 0 10.393v1.765a2.21 2.21 0 0 0 2.207 2.207h6.608a.795.795 0 0 1-.794-.795Z" fill="#FFB332"/><path d="M25.774 23.394c5.538 0 10.028-4.49 10.028-10.029 0-5.538-4.49-10.028-10.028-10.028-5.539 0-10.029 4.49-10.029 10.028 0 5.539 4.49 10.029 10.029 10.029Z" fill="#9BD8F9"/><path d="M32.622 20.475c-.595-.148-.784-.619-.843-.904a.308.308 0 0 0-.243-.245c-.441-.078-.573-.393-.61-.61a.313.313 0 0 0-.254-.252c-3.883-.711-3.593-4.037-3.516-4.596a.313.313 0 0 0-.02-.161l-.353-.868a.314.314 0 0 0-.223-.189c-2.444-.532-2.155-2.635-2.077-3.032a.31.31 0 0 0-.004-.137l-.244-.969a.311.311 0 0 0-.227-.228c-.892-.214-.921-1.014-.872-1.43a.318.318 0 0 0-.196-.328c-.39-.168-.415-.5-.371-.739a.312.312 0 0 0-.205-.348c-.594-.21-.623-.747-.585-1.06a.306.306 0 0 0-.043-.196 10.003 10.003 0 0 0-3.054 2.091c-3.916 3.917-3.916 10.266 0 14.183 3.884 3.883 10.16 3.915 14.083.097a.32.32 0 0 0-.143-.079Z" fill="#73C3F9"/><path d="M25.774 21.226a7.86 7.86 0 1 0 0-15.72 7.86 7.86 0 0 0 0 15.72Z" fill="#4FABF7"/><path d="M28.491 16.169c-1.922-.375-1.155-2.138-1.155-2.138-1.173-.256-.667-1.417-.667-1.417l-1.031-1.568c-1.329.137-1.198-1.095-1.198-1.095-2.23-.419-1.36-3.313-1.36-3.313l-.583-.42a7.86 7.86 0 1 0 8.352 13.149v-.803c-2.65 0-2.358-2.395-2.358-2.395Z" fill="#1E9EF4"/><path d="M34.531 22.123c.29-.29.662-.445 1.04-.47l-2.026-2.026a1.068 1.068 0 0 0-1.51 1.51l2.026 2.027a1.61 1.61 0 0 1 .47-1.04Z" fill="#E9EFFF"/><path d="M36.714 22.011a1.622 1.622 0 1 0-2.294 2.294l3.79 3.788a19.116 19.116 0 0 0 1.206-3.38l-2.702-2.702Z" fill="#FF4155"/><path d="M36.755 24.352a1.74 1.74 0 0 1 1.945-.355l-1.986-1.986a1.622 1.622 0 1 0-2.294 2.294l1.97 1.969a1.74 1.74 0 0 1 .365-1.922Z" fill="#E80054"/><path d="M31.19 12.535a6.797 6.797 0 0 0-3.419-2.386c.351.447.561 1.01.561 1.621a2.635 2.635 0 0 1-2.632 2.633 2.635 2.635 0 0 1-2.632-2.633c0-.612.21-1.175.563-1.623a6.785 6.785 0 0 0-3.421 2.388 1.252 1.252 0 0 0 0 1.514c2.744 3.604 8.243 3.591 10.98 0 .34-.446.34-1.068 0-1.514Z" fill="#E9EFFF"/><path d="M28.49 16.169c-1.921-.375-1.154-2.138-1.154-2.138a1.459 1.459 0 0 1-.199-.057c-.413.27-.907.428-1.437.428a2.635 2.635 0 0 1-2.632-2.632c0-.612.21-1.175.563-1.623a6.784 6.784 0 0 0-3.421 2.388 1.252 1.252 0 0 0 0 1.514c2.006 2.635 5.485 3.336 8.28 2.12Z" fill="#BEC8F7"/><path d="M23.371 10.233a2.791 2.791 0 1 0 4.66.002 7.044 7.044 0 0 0-4.66-.002Z" fill="#3C58A0"/><path d="M25.7 14.561a2.78 2.78 0 0 0 1.635-.53c-1.173-.256-.668-1.417-.668-1.417l-1.03-1.568c-1.318.136-1.2-1.075-1.199-1.095a6.96 6.96 0 0 0-1.068.282 2.79 2.79 0 0 0 2.329 4.329Z" fill="#1C2E7A"/><path d="M27.77 11.672a1.122 1.122 0 1 0-2.215-.36 1.122 1.122 0 0 0 2.216.36Z" fill="#4B6BB2"/><path d="M19.796 19.343a8.45 8.45 0 0 1 0-11.955c3.297-3.296 8.66-3.296 11.956 0 3.296 3.296 3.296 8.659 0 11.955-3.296 3.296-8.66 3.296-11.956 0Zm-1.289-5.978c0 6.459 7.858 9.686 12.406 5.14 2.833-2.834 2.833-7.445 0-10.278-4.54-4.54-12.406-1.333-12.406 5.138Z" fill="#73C3F9"/><path d="M31.536 19.326c-.441-.078-.573-.393-.61-.61a.304.304 0 0 0-.076-.152c-4.556 4.457-12.343 1.23-12.343-5.199 0-3.266 2.004-5.7 4.573-6.726a.33.33 0 0 0-.14-.114c-.39-.167-.414-.499-.37-.738a.307.307 0 0 0-.048-.224 8.45 8.45 0 0 0-2.725 13.78c3.275 3.276 8.59 3.296 11.892.062a.292.292 0 0 0-.153-.08Z" fill="#4FABF7"/></g><defs><clipPath id="a"><path fill="#fff" d="M0 0h40v40H0z"/></clipPath></defs></svg>