<svg width="40" height="40" fill="none" xmlns="http://www.w3.org/2000/svg"><path d="M33.973 33.939a19.073 19.073 0 0 0 5.168-13.08c0-10.571-8.57-19.14-19.14-19.14C9.428 1.718.858 10.287.858 20.858c0 2.893.643 5.635 1.792 8.094l31.322 4.986Z" fill="#73C3F9"/><path d="M31.74 35.974a19.258 19.258 0 0 0 2.297-2.103V23.616h-6.895a.749.749 0 0 1-.748-.748v-9.956c0-.413.336-.748.748-.748h6.895V3.238A3.238 3.238 0 0 0 30.799 0H5.85a3.238 3.238 0 0 0-3.239 3.238v25.63a19.145 19.145 0 0 0 2.273 3.734l26.856 3.373Z" fill="#167CC1"/><path d="M15.477 31.307a.217.217 0 0 0 .005-.08l-2.055-16.91a.223.223 0 0 0-.065-.13c-.572-.578-.26-1.213-.113-1.443a.216.216 0 0 0 .02-.198L12.01 9.44a.207.207 0 0 0-.031-.052c-1.551-1.945-.583-3.65-.265-4.109a.222.222 0 0 0 .008-.232c-.109-.205-.004-.423.052-.516a.213.213 0 0 0 .03-.11V2.96a.219.219 0 0 0-.046-.134c-.147-.189-.09-.385-.029-.505a.217.217 0 0 0-.017-.23c-.682-.91-.275-1.644-.04-1.944A.213.213 0 0 0 11.719 0H5.851a3.238 3.238 0 0 0-3.239 3.238v25.63a19.148 19.148 0 0 0 2.273 3.734l10.313 1.295a10.215 10.215 0 0 1 .279-2.59Z" fill="#0E62A8"/><path d="M31.83 23.617h-4.688a.749.749 0 0 1-.748-.748v-9.957c0-.413.335-.748.748-.748h4.688v-7.17H4.818v27.522C8.318 37.066 13.816 40 20 40c4.465 0 8.574-1.529 11.83-4.092V23.617Z" fill="#E9EFFF"/><path d="M4.818 32.516c3.24 4.212 8.191 7.037 13.814 7.434-4.624-2.486-3.291-8.119-3.156-8.643a.217.217 0 0 0 .006-.08l-2.056-16.91a.223.223 0 0 0-.065-.13c-.572-.578-.26-1.213-.112-1.443a.216.216 0 0 0 .019-.198L12.01 9.44a.21.21 0 0 0-.03-.052c-1.552-1.945-.583-3.65-.265-4.109a.222.222 0 0 0 .007-.232.396.396 0 0 1-.023-.052H4.82v27.52Z" fill="#D3DCFB"/><path d="M16.43 29.865a1.84 1.84 0 0 0-.966.2c-.547.277-1.512.676-2.528.657l-.884 2.04c-.187.43-.051.933.327 1.21.408.3.989.166 1.22-.285 1.285-2.492 3.718-3.752 3.718-3.752l-.091-.077c-.298.03-.575.024-.796.007Z" fill="#FF7186"/><path d="M18.91 28.395c-4.343 0-3.077-2.342-8.56-.5l-.022.05s-.312 1.704 1.189 2.508c1.444.775 3.145.106 3.948-.302.298-.151.631-.223.965-.198.835.061 2.473-.028 2.983-1.573-.162.01-.33.015-.503.015Z" fill="#E80054"/><path d="m10.35 27.894-.022.051s-.312 1.704 1.188 2.508c1.145.614 2.45.322 3.34-.029-2.156-.904-.629-3.152-.629-3.152l-.011-.045c-.8-.115-1.898.007-3.865.667Z" fill="#CC0053"/><path d="M28.565 7.43h-4.156v1.985h4.156a.992.992 0 1 0 0-1.984Z" fill="#D3DCFB"/><path d="M24.49 7.43h-1.398a.992.992 0 1 0 0 1.985h1.399V7.431Z" fill="#3C58A0"/><path d="M30.799 2.207H5.85c-.567 0-1.032.464-1.032 1.032v1.919H31.83v-1.92c0-.567-.465-1.031-1.032-1.031Z" fill="#2A428C"/><path d="M11.775 4.531a.214.214 0 0 0 .03-.11V2.958a.218.218 0 0 0-.047-.133c-.146-.189-.09-.385-.028-.505a.223.223 0 0 0 .024-.114H5.85c-.567 0-1.032.464-1.032 1.031v1.92h6.933a.243.243 0 0 0-.029-.11c-.108-.206-.003-.425.053-.517Z" fill="#1C2E7A"/><path d="M8.165 3.682a.804.804 0 1 1-1.607 0 .804.804 0 0 1 1.607 0Z" fill="#FF4155"/><path d="M9.583 4.486a.804.804 0 1 0 0-1.607.804.804 0 0 0 0 1.607Z" fill="#FFDD40"/><path d="M11.805 4.486a.804.804 0 1 0 0-1.607.804.804 0 0 0 0 1.607Z" fill="#38C674"/><path d="M23.311 4.295h-8.063a.613.613 0 0 1 0-1.226h8.063a.613.613 0 0 1 0 1.226Zm6.55 0h-.698a.613.613 0 0 1 0-1.226h.698a.613.613 0 0 1 0 1.226Zm-2.428 0h-.699a.613.613 0 1 1 0-1.226h.699a.613.613 0 0 1 0 1.226Z" fill="#3C58A0"/><path d="M27.142 23.616a.748.748 0 0 1-.748-.748v-7.014c-.525-.264-1.084-.291-1.457-.268a.64.64 0 0 1-.602-.325c-.254-.461-.868-1.235-2.272-1.726-1.63-.57-2.904-.068-3.476.247a.632.632 0 0 1-.645-.022 3.544 3.544 0 0 0-2.554-.485c-1.476.274-2.134 1.063-2.396 1.509a.637.637 0 0 1-.534.317c-.73.017-2.059.19-3.117 1.565-.978 1.272-.832 2.74-.697 3.395a.63.63 0 0 1-.174.573c-.51.505-1.533 1.866-.955 4.267.552 2.293 2.812 3.044 2.812 3.044 5.51-1.855 4.233.493 8.583.493 3.15 0 4.338-1.636 4.753-2.537a.635.635 0 0 1 .79-.329c1.833.646 2.617-.468 2.876-.996a.639.639 0 0 1 .36-.324 2.24 2.24 0 0 0 .93-.636h-1.477Z" fill="#FF7186"/><path d="m19.666 23.128-.241-1.202c-4.047.26-4.092-3.37-4.092-3.37l-2.408-3.68a.633.633 0 0 1-.466.225c-.731.018-2.06.19-3.118 1.565-.978 1.273-.832 2.74-.697 3.395a.63.63 0 0 1-.174.573c-.51.505-1.533 1.866-.955 4.267.552 2.293 2.812 3.044 2.812 3.044 5.51-1.855 4.233.493 8.583.493.877 0 1.602-.127 2.201-.33-3.1-1.541-1.445-4.98-1.445-4.98Z" fill="#FF4155"/><path d="M23.734 25.785a.637.637 0 0 1 .72-.212c.177.062.345.108.503.14-.029-.496-.222-1.916-1.445-2.894-1.692-1.355-3.99-.912-4.087-.893a.613.613 0 1 0 .242 1.202c.018-.004 1.828-.353 3.08.648.845.676.968 1.712.987 2.01Zm-13.346-.955c.19-.21.406-.584.351-1.182a2.228 2.228 0 0 0-.596-1.307c-.427-.458-1.19-1.363-1.496-2.29l-.01-.026.007.036a.63.63 0 0 1-.174.573c-.16.16-.372.404-.569.738.398.716.92 1.349 1.346 1.806a.997.997 0 0 1 .272.582c.01.116-.003.207-.036.243-.045.05-.199.107-.483.107a.613.613 0 1 0 0 1.226c.615 0 1.082-.17 1.388-.507Zm4.516-6.099a.613.613 0 0 0 .613-.613c0-2.111-1.54-3.458-2.1-3.878a2.66 2.66 0 0 0-.424.544.636.636 0 0 1-.484.313.662.662 0 0 0 .05.036c.018.011 1.732 1.142 1.732 2.985 0 .339.275.613.613.613Zm9.814-3.109a.62.62 0 0 0 .121-.037.635.635 0 0 1-.504-.324 2.992 2.992 0 0 0-.468-.627c-.428.2-1.001.573-1.466 1.245a.613.613 0 1 0 1.008.697c.54-.78 1.267-.945 1.31-.954Zm-5.103.626a.613.613 0 0 0 .61-.679 4.22 4.22 0 0 0-.863-2.112 4.08 4.08 0 0 0-.775.325.63.63 0 0 1-.57.02.604.604 0 0 0 .05.047c.008.007.815.702.94 1.851a.612.612 0 0 0 .608.548Z" fill="#E80054"/><path d="M16.443 17.527c-1.397 0-2.237-.643-2.28-.677a.613.613 0 0 1 .753-.968c.046.034.921.666 2.387.314a.613.613 0 0 1 .286 1.192c-.414.1-.797.14-1.146.14Zm5.08 5.569a.612.612 0 0 1-.52-.288c-.959-1.537-.022-2.9.018-2.956a.613.613 0 0 1 1.005.701 1.49 1.49 0 0 0 .016 1.606.613.613 0 0 1-.52.937Z" fill="#E80054"/><path d="m12.826 12.38-1.157-1.742H9.583a.613.613 0 1 1 0-1.226h2.415c.206 0 .397.103.511.274l1.338 2.016a.613.613 0 1 1-1.021.678Zm12.702 19.825h-2.416a.613.613 0 0 1-.51-.274l-1.339-2.016a.613.613 0 0 1 1.022-.678l1.156 1.742h2.087a.613.613 0 1 1 0 1.226Z" fill="#BEC8F7"/><path d="M36.518 23.74h-9.376a.873.873 0 0 1-.87-.871v-9.957c0-.479.391-.87.87-.87h9.376c.48 0 .87.391.87.87v9.957c0 .478-.39.87-.87.87Z" fill="#FFDD40"/><path d="M30.32 21.784v-7.788a1.96 1.96 0 0 1 1.955-1.955h-5.133a.873.873 0 0 0-.87.87v9.958c0 .478.391.87.87.87h5.133a1.96 1.96 0 0 1-1.955-1.955Z" fill="#FFB332"/><path d="M32.702 16.11h-4.281a.613.613 0 0 1 0-1.225h4.281a.613.613 0 1 1 0 1.226Z" fill="#FCF2C8"/><path d="M35.265 18.503h-6.844a.613.613 0 1 1 0-1.226h6.844a.613.613 0 0 1 0 1.226Zm0 2.392h-6.844a.613.613 0 0 1 0-1.226h6.844a.613.613 0 0 1 0 1.226Z" fill="#FF9100"/></svg>