<svg width="40" height="40" fill="none" xmlns="http://www.w3.org/2000/svg"><g clip-path="url(#a)"><path d="M20 1.718C9.43 1.718.86 10.288.86 20.86c0 3.543.963 6.86 2.641 9.706l23.995 7.91C34.342 35.56 39.14 28.77 39.14 20.86c0-10.571-8.57-19.14-19.14-19.14Z" fill="#FF4155"/><path d="M19.839 4.165c0-.777.095-1.532.274-2.255H7.07a3.63 3.63 0 0 0-3.625 3.625v24.934a19.216 19.216 0 0 0 2.987 3.889l18.135 5.092a19.02 19.02 0 0 0 3.032-1.019V13.543c-5.171 0-7.76-4.207-7.76-9.378Z" fill="#167CC1"/><path d="m12.442 36.046-.184-29.33a.184.184 0 0 0-.041-.114c-.447-.564-.168-.952.007-1.116a.177.177 0 0 0 .034-.21c-.205-.4.069-.654.184-.737a.176.176 0 0 0 .065-.095l.315-1.09a.178.178 0 0 0-.038-.169c-.54-.598-.166-1.025.042-1.195a.177.177 0 0 0 .055-.08H7.07a3.63 3.63 0 0 0-3.625 3.625v24.934a19.208 19.208 0 0 0 2.988 3.89l6.01 1.687Z" fill="#024788"/><path d="M5.7 33.58A19.09 19.09 0 0 0 20 40c1.854 0 3.646-.265 5.342-.757V13.268c-1.57-.39-1.365-1.174-2.513-2.243H5.7V33.58Z" fill="#E9EFFF"/><path d="M5.7 11.025V33.58a19.19 19.19 0 0 0 6.557 4.789V11.025H5.699Z" fill="#D3DCFB"/><path d="M12.85 4.508h-.361a.626.626 0 1 1 0-1.253h.362a.626.626 0 1 1 0 1.253Zm7.235 0H14.99a.626.626 0 1 1 0-1.253h5.096a.626.626 0 1 1 0 1.253Z" fill="#1E92D3"/><path d="M20.025 6.025H11.47a1.005 1.005 0 0 1-1.002-1.002.857.857 0 0 0-.858-.857H7.07a1.37 1.37 0 0 0-1.37 1.37v5.712h17.376a9.383 9.383 0 0 1-3.051-5.223Z" fill="#9BD8F9"/><path d="M11.47 6.025a1.005 1.005 0 0 1-1.002-1.002.857.857 0 0 0-.858-.857H7.07a1.37 1.37 0 0 0-1.37 1.37v5.711h6.558V6.025h-.788Z" fill="#73C3F9"/><path d="M6.326 34.25V5.535c0-.41.333-.743.743-.743h2.54c.128 0 .232.103.232.23 0 .899.73 1.63 1.629 1.63h8.972a.626.626 0 0 0 0-1.254H11.47a.38.38 0 0 1-.376-.375c0-.819-.666-1.484-1.484-1.484H7.07a1.999 1.999 0 0 0-1.997 1.996v27.304c.395.49.813.962 1.253 1.411Zm19.643-21.4a.627.627 0 0 0-1.253 0v26.564c.423-.108.841-.23 1.253-.364v-26.2Z" fill="#1E92D3"/><path d="M6.326 34.25V5.535c0-.41.333-.743.743-.743h2.54c.128 0 .232.103.232.23 0 .899.73 1.63 1.629 1.63h.775a.197.197 0 0 0-.028-.05c-.447-.564-.168-.952.007-1.116a.17.17 0 0 0 .048-.087h-.802a.38.38 0 0 1-.376-.376c0-.818-.666-1.484-1.484-1.484H7.07a1.999 1.999 0 0 0-1.997 1.996v27.304a19.3 19.3 0 0 0 1.253 1.411Z" fill="#167CC1"/><path d="M20.717 7.786h-8.434v2.196h9.495c.048 0 .094-.005.14-.01a9.375 9.375 0 0 1-1.201-2.186Z" fill="#E9EFFF"/><path d="M12.366 7.786h-1.232a1.098 1.098 0 1 0 0 2.196h1.232V7.786Z" fill="#3C58A0"/><path d="M8.623 6.51H7.76a.626.626 0 1 1 0-1.253h.863a.626.626 0 1 1 0 1.253Z" fill="#E9EFFF"/><path d="M34.096 4.578h-1.432a.687.687 0 0 1-.686-.686V2.46c0-1.702-1.202-2.27-1.969-2.46H19.42a.78.78 0 0 0-.78.78v24.061c0 .432.35.781.78.781h16.355a.78.78 0 0 0 .781-.78V6.263c-.459-1.648-2.437-1.686-2.46-1.686Z" fill="#FFDD40"/><path d="M18.64.78v24.061c0 .432.35.781.78.781h10a.72.72 0 0 0-.13-.199c-2.358-2.53-1.173-4.746-.36-5.76a.704.704 0 0 0-.057-.948c-.586-.568-.339-1.404-.262-1.619a.686.686 0 0 1 .037-.084l.551-1.069c.052-.1.078-.21.078-.322v-.465a.674.674 0 0 0-.326-.565c-.18-.113-.235-.303-.248-.456a.688.688 0 0 0-.206-.443l-.19-.181a.702.702 0 0 1-.208-.396l-.445-2.736a.71.71 0 0 0-.319-.482c-.515-.333-.568-.826-.514-1.195a.7.7 0 0 0-.377-.73c-3.379-1.7-1.875-6.399-1.398-7.658A.701.701 0 0 0 25.09 0h-5.67a.78.78 0 0 0-.781.78Z" fill="#FFB332"/><path d="M35.75 3.867 32.688.806A2.75 2.75 0 0 0 30.744 0h-1.36s2.499.038 2.499 2.46v1.432c0 .431.35.78.78.78h1.433s2.46.021 2.46 2.327V5.812c0-.73-.29-1.429-.806-1.945Z" fill="#FFC839"/><path d="M17.735 33.947h-4.426c-.781 0-1.42.64-1.42 1.42 0 .781.639 1.42 1.42 1.42h4.426c.78 0 1.42-.639 1.42-1.42 0-.78-.64-1.42-1.42-1.42Z" fill="#38C674"/><path d="M15.35 35.367c0-.78.64-1.42 1.42-1.42h-3.46c-.781 0-1.42.64-1.42 1.42 0 .782.639 1.42 1.42 1.42h3.461c-.78 0-1.42-.639-1.42-1.42Z" fill="#24B55E"/><path d="M16.093 15.947h-3.705a1.128 1.128 0 0 1 0-2.256h3.705a1.128 1.128 0 1 1 0 2.255Z" fill="#FF4155"/><path d="M16.596 18.645H8.702a.626.626 0 1 1 0-1.252h7.894a.626.626 0 1 1 0 1.252Zm0 2.56H8.702a.626.626 0 1 1 0-1.253h7.894a.626.626 0 1 1 0 1.253Zm0 2.559H8.702a.626.626 0 1 1 0-1.253h7.894a.627.627 0 0 1 0 1.253Zm0 2.559H8.702a.626.626 0 1 1 0-1.253h7.894a.626.626 0 1 1 0 1.253Zm5.746 2.558H8.702a.626.626 0 1 1 0-1.253h13.64a.627.627 0 0 1 0 1.253Zm0 2.559H8.702a.626.626 0 1 1 0-1.252h13.64a.627.627 0 0 1 0 1.253Z" fill="#BEC8F7"/><path d="M31.566 17.756A5.618 5.618 0 1 0 23.62 9.81a5.618 5.618 0 0 0 7.946 7.946Z" fill="#E9EFFF"/><path d="M28.95 14.591c-.179-.113-.234-.303-.247-.456a.688.688 0 0 0-.206-.442l-.19-.182a.703.703 0 0 1-.209-.396l-.444-2.736a.71.71 0 0 0-.32-.482c-.515-.332-.567-.825-.513-1.195a.706.706 0 0 0-.096-.472 5.62 5.62 0 1 0 2.36 10.97.7.7 0 0 0-.213-.485c-.585-.568-.338-1.404-.26-1.619a.69.69 0 0 1 .036-.084l.55-1.069c.052-.1.08-.21.08-.322v-.465a.677.677 0 0 0-.327-.565Z" fill="#BEC8F7"/><path d="M27.597 14.31a.627.627 0 0 1-.626-.627v-3.022a.626.626 0 1 1 1.253 0v3.022c0 .346-.28.627-.627.627Z" fill="#4FABF7"/><path d="M27.598 14.753a.625.625 0 0 1-.443-.183l-1.8-1.8a.626.626 0 1 1 .886-.885l1.357 1.356 1.356-1.356a.627.627 0 0 1 .886.886l-1.8 1.799a.624.624 0 0 1-.442.183Z" fill="#4FABF7"/><path d="M29.599 17.045h-4.004a.626.626 0 0 1-.626-.627v-1.194a.626.626 0 1 1 1.253 0v.568h2.75v-.568a.626.626 0 0 1 1.253 0v1.194c0 .346-.28.627-.627.627Z" fill="#4FABF7"/><path d="M34.47 2.587 32.689.806A2.75 2.75 0 0 0 30.744 0h-1.36s2.499.038 2.499 2.46v1.432c0 .431.35.781.78.781h.903c-.834-1.97.904-2.086.904-2.086Z" fill="#FFB332"/></g><defs><clipPath id="a"><path fill="#fff" d="M0 0h40v40H0z"/></clipPath></defs></svg>