<svg width="40" height="40" fill="none" xmlns="http://www.w3.org/2000/svg"><g clip-path="url(#a)"><path d="M2.23 27.982A19.198 19.198 0 0 0 13.482 38.86h13.037a19.198 19.198 0 0 0 11.252-10.88l.711-12.115C36.286 7.716 28.844 1.718 20 1.718s-16.286 6-18.481 14.15l.711 12.114Z" fill="#1C2E7A"/><path d="M20 16.99a.591.591 0 0 1-.59-.59v-3.15a.591.591 0 1 1 1.182 0v3.15a.591.591 0 0 1-.591.59Zm8.478 5.33h-3.15a.592.592 0 1 1 0-1.183h3.15a.592.592 0 1 1 0 1.183ZM20 30.8a.591.591 0 0 1-.59-.592v-3.15a.591.591 0 0 1 1.182 0v3.15a.591.591 0 0 1-.591.591Zm-5.33-8.48h-3.15a.591.591 0 1 1 0-1.183h3.15a.591.591 0 1 1 0 1.183Z" fill="#E9EFFF"/><path d="M20 13.25A6.329 6.329 0 1 0 20 .59a6.329 6.329 0 0 0 0 12.658Z" fill="#F76EBB"/><path d="M24.458 11.412a.659.659 0 0 1-.197-.474.17.17 0 0 0-.188-.162c-1.21.123-3.643-.444-4.233-.587a.172.172 0 0 1-.131-.168V3.666a.176.176 0 0 0-.06-.13c-.674-.61-.444-1.215-.277-1.49a.174.174 0 0 0-.056-.232c-.19-.132-.166-.326-.121-.455a.172.172 0 0 0-.073-.205c-.22-.131-.308-.29-.325-.446A6.33 6.33 0 0 0 20 13.25c1.74 0 3.314-.702 4.458-1.838Z" fill="#F24CA7"/><path d="M20 27.058A5.33 5.33 0 1 0 20 16.4a5.33 5.33 0 0 0 0 10.66Z" fill="#4FABF7"/><path d="M31.082 5.484h-2.448a.591.591 0 1 1 0-1.182h2.448a.592.592 0 1 1 0 1.182Z" fill="#F76EBB"/><path d="M32.89 7.512h-4.256a.591.591 0 1 1 0-1.183h4.256a.592.592 0 1 1 0 1.183Zm0 2.028h-4.256a.591.591 0 1 1 0-1.184h4.256a.592.592 0 1 1 0 1.183Z" fill="#3C58A0"/><path d="M35.128 31.016H32.68a.591.591 0 1 1 0-1.183h2.448a.591.591 0 0 1 0 1.183Z" fill="#73C3F9"/><path d="M35.664 31.86H32.68a.592.592 0 0 0 0 1.184h2.082c.316-.382.616-.777.902-1.183Zm-2.984 2.029a.592.592 0 0 0 0 1.183h.14c.417-.377.817-.772 1.2-1.183h-1.34Z" fill="#3C58A0"/><path d="M5.512 9.568H3.064a.591.591 0 1 1 0-1.182h2.448a.591.591 0 0 1 0 1.182Z" fill="#38C674"/><path d="M7.32 11.596H3.063a.592.592 0 0 1 0-1.183H7.32a.592.592 0 0 1 0 1.183Zm0 2.028H3.063a.591.591 0 1 1 0-1.183H7.32a.592.592 0 1 1 0 1.183Z" fill="#3C58A0"/><path d="M9.558 34.856H7.11a.591.591 0 1 1 0-1.183h2.448a.591.591 0 0 1 0 1.183Z" fill="#FFC839"/><path d="M11.366 35.7H7.914a18.98 18.98 0 0 0 1.617 1.184h1.835a.592.592 0 0 0 0-1.183Z" fill="#3C58A0"/><path d="m24.037 10.681-.044-.006h-.002c-.415-.06-1.053.086-1.69-.285a4.288 4.288 0 0 1-.93 1.006 2.235 2.235 0 0 1-2.741 0 4.284 4.284 0 0 1-.93-1.005c-.617.361-1.225.225-1.656.28-.051.007-.058.006-.08.01l.003.004c-.29.051-.553.174-.777.347A6.313 6.313 0 0 0 20 13.249c1.926 0 3.65-.86 4.81-2.218a1.779 1.779 0 0 0-.776-.348l.003-.002Z" fill="#E9EFFF"/><path d="M18.63 11.396a4.282 4.282 0 0 1-.93-1.005c-.617.361-1.225.225-1.656.28-.051.006-.058.006-.08.01l.003.004c-.29.051-.553.174-.777.347.41.478.89.895 1.423 1.234.277-.054.594-.105.957-.149.6-.073 1.055-.266 1.4-.505a2.206 2.206 0 0 1-.34-.216Z" fill="#BEC8F7"/><path d="M17.626 10.432c.3.484.665.858 1.004 1.122a2.234 2.234 0 0 0 2.74 0c.34-.264.706-.639 1.005-1.123a1.988 1.988 0 0 1-.523-.4v-.002c-.29-.306-.364-.552-.578-.925a2.748 2.748 0 0 1-2.547 0c-.225.392-.293.625-.579.925l.001.001a2 2 0 0 1-.523.402Z" fill="#FCAD6D"/><path d="M19.812 9.41a2.74 2.74 0 0 1-1.086-.306c-.224.392-.292.625-.578.925v.001c-.172.182-.348.31-.522.402.3.484.665.858 1.004 1.122.068.052.139.099.211.143a2.576 2.576 0 0 0 1.16-1.54s-.082-.318-.19-.747Z" fill="#FD995B"/><path d="M19.482 1.893c-1.557.212-1.705 1.095-1.706 1.42 0 .067-.038.13-.099.16-.81.394-.373 2.293-.373 2.293.081.006.204.075.267.106a1.385 1.385 0 0 1 .18-.492.64.64 0 0 0 .099-.39c-.03-.397-.052-1.14.47-1.376.444-.2.987-.084 1.334.032a1.1 1.1 0 0 0 .694 0c.347-.116.89-.231 1.333-.032.521.235.5.975.471 1.372a.645.645 0 0 0 .098.394c.044.07.079.142.107.215a1.4 1.4 0 0 1 .074.277c.08-.039.231-.118.329-.104.012-.415.05-.863.05-.863.462-2.26-1.651-3.24-3.328-3.012Z" fill="#A05838"/><path d="m19.653 3.645.055.016a.176.176 0 0 0-.059-.125c-.674-.61-.444-1.215-.277-1.49a.164.164 0 0 0 .014-.138c-1.467.235-1.61 1.087-1.61 1.404a.176.176 0 0 1-.1.16c-.81.395-.373 2.294-.373 2.294.081.005.203.075.267.106a1.385 1.385 0 0 1 .18-.492.64.64 0 0 0 .099-.39c-.03-.397-.052-1.14.47-1.376.444-.2.987-.084 1.334.031Z" fill="#823C26"/><path d="M22.897 5.822c-.12-.111-.362-.055-.467.013.023.143.024.289.005.433l-.124.897c0 .073-.002.144-.006.214.3.09.45-.18.475-.365.01-.08.028-.158.053-.235.08-.25.368-.678.064-.957Zm-5.794 0c.121-.111.363-.055.467.013a1.47 1.47 0 0 0-.004.433l.123.897a3 3 0 0 0 .007.214c-.301.09-.45-.18-.476-.365a1.383 1.383 0 0 0-.053-.235c-.08-.25-.368-.678-.064-.957Z" fill="#FD995B"/><path d="M22.393 5.558a1.204 1.204 0 0 0-.106-.215.645.645 0 0 1-.098-.394c.029-.397.013-1.174-.508-1.409-.443-.199-.986-.083-1.333.032a1.1 1.1 0 0 1-.694 0c-.347-.115-.89-.23-1.333-.032-.523.236-.538 1.017-.508 1.413a.64.64 0 0 1-.098.39 1.196 1.196 0 0 0-.104.208 1.436 1.436 0 0 0-.082.716l.124.898a3.3 3.3 0 0 0 1.275 2.624 1.749 1.749 0 0 0 2.145 0 3.3 3.3 0 0 0 1.276-2.624l.123-.897a1.43 1.43 0 0 0-.079-.71Z" fill="#F9BA8F"/><path d="M20.189 9.79c-.405-.456-.88-1.333-.88-2.625l-.085-.898a2.041 2.041 0 0 1 .056-.716c.018-.07.042-.141.071-.208a.872.872 0 0 0 .068-.39c-.02-.373-.011-1.086.29-1.365l-.055-.016c-.347-.115-.89-.23-1.333-.032-.523.236-.538 1.017-.508 1.413a.64.64 0 0 1-.098.39 1.19 1.19 0 0 0-.104.208 1.436 1.436 0 0 0-.082.716l.124.898a3.3 3.3 0 0 0 1.275 2.624 1.749 1.749 0 0 0 1.622.278 1.153 1.153 0 0 1-.361-.278Z" fill="#FCAD6D"/><path d="M20 13.84a6.928 6.928 0 0 1-6.92-6.92A6.928 6.928 0 0 1 20 0a6.928 6.928 0 0 1 6.92 6.92A6.928 6.928 0 0 1 20 13.84Zm0-12.657a5.744 5.744 0 0 0-5.737 5.737A5.744 5.744 0 0 0 20 12.658a5.744 5.744 0 0 0 5.738-5.738A5.744 5.744 0 0 0 20 1.183Z" fill="#FC90CE"/><path d="M25.082 11.584c-.692.03-.812-.39-.82-.646a.165.165 0 0 0-.057-.12 5.722 5.722 0 0 1-4.204 1.84 5.744 5.744 0 0 1-5.738-5.737 5.745 5.745 0 0 1 4.932-5.68.167.167 0 0 0-.072-.087c-.534-.318-.29-.8-.157-.998a.173.173 0 0 0 .028-.083c-3.34.49-5.914 3.373-5.914 6.848A6.928 6.928 0 0 0 20 13.84c2.02 0 3.841-.87 5.108-2.255l-.026-.002Z" fill="#F76EBB"/><path d="M20 30.208a6.329 6.329 0 0 0-5.782 8.902c1.824.578 3.767.89 5.782.89a19.13 19.13 0 0 0 5.782-.89A6.329 6.329 0 0 0 20 30.207Z" fill="#FFC839"/><path d="M19.708 39.637v-6.355a.176.176 0 0 0-.059-.13c-.674-.61-.444-1.215-.278-1.49a.174.174 0 0 0-.055-.232c-.19-.132-.166-.326-.121-.456a.172.172 0 0 0-.073-.204c-.22-.132-.308-.291-.325-.447a6.33 6.33 0 0 0-4.579 8.787 19.136 19.136 0 0 0 6.426.878c-.36-.077-.647-.145-.804-.184a.172.172 0 0 1-.132-.167Z" fill="#FFB332"/><path d="M17.886 39.883a19.362 19.362 0 0 0 4.23 0 2.14 2.14 0 0 1-.264-.237h.001c-.291-.307-.365-.553-.578-.925a2.748 2.748 0 0 1-2.548 0c-.225.391-.293.624-.578.924v.001c-.087.092-.175.17-.263.237Z" fill="#FCAD6D"/><path d="M17.886 39.883c.672.074 1.354.113 2.045.116.052-.139.07-.227.07-.227s-.082-.317-.189-.746a2.74 2.74 0 0 1-1.085-.306c-.224.392-.293.624-.578.925v.001c-.087.092-.175.17-.263.237Z" fill="#FD995B"/><path d="M19.482 31.51c-1.557.212-1.705 1.095-1.706 1.418a.18.18 0 0 1-.099.161c-.81.394-.373 2.293-.373 2.293.081.006.204.076.267.106a1.385 1.385 0 0 1 .18-.492.64.64 0 0 0 .099-.39c-.03-.397-.052-1.14.47-1.376.444-.199.987-.083 1.334.032a1.1 1.1 0 0 0 .694 0c.347-.115.89-.231 1.333-.032.521.235.5.975.471 1.372a.645.645 0 0 0 .098.394c.044.07.079.143.107.215a1.4 1.4 0 0 1 .074.277c.08-.038.231-.117.329-.104.012-.415.05-.863.05-.863.462-2.26-1.651-3.24-3.328-3.012Z" fill="#A05838"/><path d="m19.653 33.261.055.016a.176.176 0 0 0-.059-.125c-.674-.61-.444-1.215-.277-1.49a.164.164 0 0 0 .014-.138c-1.467.235-1.61 1.087-1.61 1.404a.176.176 0 0 1-.1.16c-.81.395-.373 2.294-.373 2.294.081.006.203.075.267.106a1.384 1.384 0 0 1 .18-.492.64.64 0 0 0 .099-.39c-.03-.397-.052-1.14.47-1.376.444-.2.987-.084 1.334.032Z" fill="#823C26"/><path d="M22.897 35.438c-.12-.11-.362-.055-.467.014.023.142.024.288.005.432l-.124.898c0 .072-.002.143-.006.213.3.09.45-.18.475-.365.01-.08.028-.158.053-.235.08-.25.368-.678.064-.957Zm-5.794 0c.121-.11.363-.055.467.014a1.47 1.47 0 0 0-.004.432l.123.898c0 .072.002.143.007.213-.301.09-.45-.18-.476-.365a1.382 1.382 0 0 0-.053-.235c-.08-.25-.368-.678-.064-.957Z" fill="#FD995B"/><path d="M22.393 35.174a1.208 1.208 0 0 0-.106-.215.645.645 0 0 1-.098-.394c.029-.397.013-1.174-.508-1.408-.443-.2-.986-.084-1.333.031a1.102 1.102 0 0 1-.694 0c-.347-.115-.89-.23-1.333-.031-.523.235-.538 1.016-.508 1.412a.64.64 0 0 1-.098.39 1.197 1.197 0 0 0-.104.208 1.435 1.435 0 0 0-.082.717l.124.898a3.3 3.3 0 0 0 1.275 2.624 1.749 1.749 0 0 0 2.145 0 3.299 3.299 0 0 0 1.276-2.624l.123-.898a1.43 1.43 0 0 0-.079-.71Z" fill="#F9BA8F"/><path d="M20.189 39.406c-.405-.456-.88-1.333-.88-2.624l-.085-.898a2.041 2.041 0 0 1 .056-.717c.018-.07.042-.14.071-.208a.872.872 0 0 0 .068-.39c-.02-.373-.011-1.086.29-1.365l-.055-.016c-.347-.115-.89-.23-1.333-.031-.523.235-.538 1.016-.508 1.412a.64.64 0 0 1-.098.39 1.19 1.19 0 0 0-.104.208 1.435 1.435 0 0 0-.082.717l.124.898a3.3 3.3 0 0 0 1.275 2.624 1.749 1.749 0 0 0 1.622.277 1.153 1.153 0 0 1-.361-.277Z" fill="#FCAD6D"/><path d="M20 29.616a6.928 6.928 0 0 0-6.92 6.92c0 .816.142 1.598.402 2.325.495.18 1 .338 1.514.477a5.7 5.7 0 0 1-.733-2.801A5.744 5.744 0 0 1 20 30.799a5.744 5.744 0 0 1 5.738 5.738 5.702 5.702 0 0 1-.733 2.8 19.04 19.04 0 0 0 1.514-.476c.26-.727.402-1.51.402-2.324a6.928 6.928 0 0 0-6.92-6.92Z" fill="#FFE98D"/><path d="M14.263 36.537a5.745 5.745 0 0 1 4.932-5.68.167.167 0 0 0-.072-.087c-.534-.318-.29-.8-.157-.998a.172.172 0 0 0 .028-.082c-3.34.489-5.914 3.373-5.914 6.847 0 .815.142 1.597.402 2.324.495.18 1 .338 1.514.477a5.7 5.7 0 0 1-.733-2.801Z" fill="#FFC839"/><path d="M28.48 21.729a6.329 6.329 0 0 0 9.604 5.416 19.111 19.111 0 0 0 1.057-6.286c0-1.416-.155-2.796-.447-4.124a6.329 6.329 0 0 0-10.215 4.994Z" fill="#73C3F9"/><path d="M36.213 25.333a30.74 30.74 0 0 1-1.565-.336.172.172 0 0 1-.13-.168v-6.355a.176.176 0 0 0-.06-.13c-.674-.61-.444-1.215-.278-1.49a.174.174 0 0 0-.056-.232c-.189-.132-.166-.326-.12-.455a.172.172 0 0 0-.073-.205c-.22-.131-.308-.29-.326-.447a6.33 6.33 0 0 0 1.203 12.543c.483 0 .953-.056 1.405-.159v-2.566Z" fill="#4FABF7"/><path d="M37.108 25.198a4.288 4.288 0 0 1-.93 1.006 2.234 2.234 0 0 1-2.74 0 4.284 4.284 0 0 1-.93-1.005c-.618.362-1.226.225-1.656.28-.052.007-.058.006-.08.01l.003.004c-.29.051-.553.174-.777.347a6.313 6.313 0 0 0 4.81 2.218c1.2 0 2.32-.335 3.276-.915.19-.547.356-1.106.497-1.675-.404-.01-.939.041-1.473-.27Z" fill="#E9EFFF"/><path d="M33.438 26.204a4.282 4.282 0 0 1-.93-1.005c-.618.362-1.226.225-1.656.28-.052.007-.058.006-.08.01l.003.004c-.29.051-.553.174-.777.347.41.479.89.895 1.423 1.234.277-.054.594-.105.957-.149.6-.073 1.055-.266 1.4-.505a2.216 2.216 0 0 1-.34-.216Z" fill="#BEC8F7"/><path d="M32.434 25.24c.299.483.665.858 1.004 1.121a2.234 2.234 0 0 0 2.74 0c.34-.263.706-.638 1.005-1.122a1.988 1.988 0 0 1-.524-.401l.001-.001c-.291-.306-.365-.552-.578-.925a2.748 2.748 0 0 1-2.548 0c-.224.392-.292.624-.578.925a2.002 2.002 0 0 1-.522.403Z" fill="#FCAD6D"/><path d="M34.62 24.218a2.742 2.742 0 0 1-1.086-.306c-.224.392-.292.625-.578.925v.001c-.173.182-.348.31-.522.402.299.484.665.858 1.004 1.122.067.052.138.099.21.143.966-.588 1.16-1.54 1.16-1.54l-.188-.747Z" fill="#FD995B"/><path d="M34.29 16.701c-1.557.212-1.705 1.095-1.706 1.42 0 .067-.038.13-.099.16-.81.394-.373 2.293-.373 2.293.081.006.203.075.267.106a1.391 1.391 0 0 1 .18-.492.639.639 0 0 0 .098-.39c-.029-.397-.052-1.14.471-1.376.443-.2.987-.084 1.334.032a1.1 1.1 0 0 0 .694 0c.346-.116.89-.231 1.333-.032.521.235.5.975.47 1.372a.646.646 0 0 0 .098.394 1.386 1.386 0 0 1 .181.492c.08-.038.232-.117.33-.104.012-.415.05-.863.05-.863.462-2.26-1.651-3.24-3.328-3.012Z" fill="#A05838"/><path d="m34.461 18.453.056.016a.176.176 0 0 0-.06-.125c-.673-.61-.443-1.215-.277-1.49a.164.164 0 0 0 .014-.138c-1.467.235-1.61 1.087-1.61 1.404a.177.177 0 0 1-.099.16c-.81.395-.373 2.294-.373 2.294.081.006.203.075.267.106a1.39 1.39 0 0 1 .18-.492.638.638 0 0 0 .098-.39c-.029-.397-.052-1.14.471-1.376.443-.2.987-.084 1.333.031Z" fill="#823C26"/><path d="M37.706 20.63c-.121-.111-.363-.055-.467.013.023.143.024.289.004.433l-.123.898c0 .072-.002.143-.007.213.3.09.45-.18.475-.365.011-.08.029-.158.053-.235.08-.25.369-.678.065-.957Zm-5.796 0c.122-.111.363-.055.468.013a1.467 1.467 0 0 0-.005.433l.124.898c0 .072.002.143.006.213-.3.09-.45-.18-.475-.365a1.387 1.387 0 0 0-.053-.235c-.08-.25-.368-.678-.065-.957Z" fill="#FD995B"/><path d="M37.201 20.366a1.19 1.19 0 0 0-.107-.215.645.645 0 0 1-.097-.393c.029-.398.013-1.175-.508-1.41-.444-.199-.987-.083-1.334.032a1.1 1.1 0 0 1-.694 0c-.346-.115-.89-.23-1.333-.031-.523.235-.537 1.016-.508 1.412a.64.64 0 0 1-.097.39 1.19 1.19 0 0 0-.105.209 1.435 1.435 0 0 0-.08.716l.122.898a3.3 3.3 0 0 0 1.276 2.624 1.749 1.749 0 0 0 2.145 0 3.299 3.299 0 0 0 1.275-2.624l.123-.898c.033-.24.008-.484-.078-.71Z" fill="#F9BA8F"/><path d="M34.997 24.597c-.404-.455-.88-1.332-.88-2.623l-.085-.898a2.046 2.046 0 0 1 .056-.717 1.6 1.6 0 0 1 .072-.208.871.871 0 0 0 .067-.39c-.018-.373-.01-1.086.291-1.365l-.056-.016c-.346-.115-.89-.23-1.333-.031-.523.235-.537 1.015-.508 1.412a.64.64 0 0 1-.098.39 1.196 1.196 0 0 0-.104.208 1.436 1.436 0 0 0-.08.716l.122.899a3.3 3.3 0 0 0 1.276 2.623 1.748 1.748 0 0 0 1.621.278 1.149 1.149 0 0 1-.36-.278Z" fill="#FCAD6D"/><path d="M34.808 27.466a5.744 5.744 0 0 1-5.737-5.737 5.744 5.744 0 0 1 5.737-5.738c1.59 0 3.03.65 4.07 1.698a19.043 19.043 0 0 0-.396-1.823 6.88 6.88 0 0 0-3.674-1.058 6.928 6.928 0 0 0-6.92 6.92 6.928 6.928 0 0 0 6.92 6.921 6.88 6.88 0 0 0 2.963-.667c.23-.576.435-1.167.61-1.77a5.708 5.708 0 0 1-3.573 1.254Z" fill="#9BD8F9"/><path d="M34.808 27.466a5.744 5.744 0 0 1-5.737-5.737 5.745 5.745 0 0 1 4.931-5.68.167.167 0 0 0-.071-.087c-.534-.318-.29-.8-.157-.998a.172.172 0 0 0 .028-.082c-3.34.489-5.914 3.373-5.914 6.847a6.928 6.928 0 0 0 6.92 6.92c1.06 0 2.064-.24 2.963-.667a18.6 18.6 0 0 0 .168-.434v-.001a18.949 18.949 0 0 0 .441-1.332v-.002a5.707 5.707 0 0 1-3.572 1.253Z" fill="#73C3F9"/><path d="M5.192 15.4a6.3 6.3 0 0 0-3.886 1.335 19.207 19.207 0 0 0-.447 4.124c0 2.202.373 4.317 1.058 6.286A6.329 6.329 0 1 0 5.192 15.4Z" fill="#38C674"/><path d="M9.453 25.746a.17.17 0 0 0-.188-.162c-1.21.123-3.643-.444-4.233-.587a.172.172 0 0 1-.131-.168v-6.355a.176.176 0 0 0-.06-.13c-.673-.61-.444-1.215-.277-1.49a.174.174 0 0 0-.056-.232c-.189-.132-.166-.326-.121-.455a.172.172 0 0 0-.072-.205c-.22-.131-.308-.29-.326-.447a6.303 6.303 0 0 0-2.683 1.22 19.208 19.208 0 0 0-.447 4.124c0 2.202.373 4.317 1.058 6.286.955.58 2.076.913 3.275.913 1.74 0 3.314-.702 4.458-1.838a.66.66 0 0 1-.197-.474Z" fill="#24B55E"/><path d="M9.228 25.49c-.013-.003.008 0-.044-.007h-.001c-.416-.06-1.054.087-1.691-.285a4.287 4.287 0 0 1-.93 1.006 2.234 2.234 0 0 1-2.74 0 4.285 4.285 0 0 1-.93-1.005c-.535.313-1.063.253-1.474.267.14.57.307 1.13.497 1.677.956.58 2.077.915 3.276.915 1.926 0 3.65-.862 4.81-2.219a1.779 1.779 0 0 0-.775-.348l.002-.002Z" fill="#E9EFFF"/><path d="M2.892 25.199c-.535.313-1.063.253-1.474.267.133.54.29 1.072.468 1.593.258-.048.547-.094.875-.134.6-.073 1.055-.266 1.4-.505a2.22 2.22 0 0 1-.34-.216 4.283 4.283 0 0 1-.93-1.005Z" fill="#BEC8F7"/><path d="M2.817 25.24c.3.483.665.858 1.005 1.121a2.235 2.235 0 0 0 2.74 0 4.29 4.29 0 0 0 1.005-1.122 1.989 1.989 0 0 1-.524-.401l.001-.001c-.291-.306-.365-.552-.578-.925a2.748 2.748 0 0 1-2.548 0c-.225.392-.293.624-.578.925a2 2 0 0 1-.523.403Z" fill="#FCAD6D"/><path d="M5.003 24.218a2.741 2.741 0 0 1-1.085-.306c-.225.392-.293.625-.579.925l.001.001a2 2 0 0 1-.523.402c.3.484.665.858 1.005 1.122.067.052.138.099.21.143a2.577 2.577 0 0 0 1.16-1.54s-.082-.318-.189-.747Z" fill="#FD995B"/><path d="M4.674 16.701c-1.558.212-1.706 1.095-1.706 1.42 0 .067-.038.13-.1.16-.81.394-.372 2.293-.372 2.293.08.006.203.075.266.106a1.39 1.39 0 0 1 .181-.492.64.64 0 0 0 .098-.39c-.03-.397-.052-1.14.471-1.376.443-.2.987-.084 1.333.032a1.1 1.1 0 0 0 .694 0c.347-.116.89-.231 1.333-.032.522.235.5.975.472 1.372a.645.645 0 0 0 .097.394c.044.07.08.143.107.215.034.09.059.183.074.277.08-.038.231-.117.33-.104.011-.415.05-.863.05-.863.461-2.26-1.651-3.24-3.328-3.012Z" fill="#A05838"/><path d="m4.845 18.453.055.016a.176.176 0 0 0-.058-.125c-.674-.61-.444-1.215-.278-1.49a.164.164 0 0 0 .014-.138c-1.467.235-1.61 1.087-1.61 1.404a.176.176 0 0 1-.1.16c-.81.395-.373 2.294-.373 2.294.082.006.204.075.267.106a1.39 1.39 0 0 1 .181-.492.639.639 0 0 0 .098-.39c-.03-.397-.052-1.14.471-1.376.443-.2.987-.084 1.333.031Z" fill="#823C26"/><path d="M8.089 20.63c-.122-.111-.363-.055-.468.013.023.143.025.289.005.433l-.123.898c0 .072-.003.143-.007.213.3.09.45-.18.475-.365.011-.08.029-.158.053-.235.08-.25.369-.678.065-.957Zm-5.794 0c.122-.111.363-.055.468.013a1.468 1.468 0 0 0-.005.433l.123.898c0 .072.003.143.007.213-.3.09-.45-.18-.475-.365a1.39 1.39 0 0 0-.053-.235c-.08-.25-.369-.678-.065-.957Z" fill="#FD995B"/><path d="M7.585 20.366a1.195 1.195 0 0 0-.107-.215.645.645 0 0 1-.098-.393c.03-.398.014-1.175-.508-1.41-.443-.199-.986-.083-1.333.032a1.1 1.1 0 0 1-.694 0c-.346-.115-.89-.23-1.333-.031-.523.235-.537 1.016-.508 1.412a.639.639 0 0 1-.098.39 1.19 1.19 0 0 0-.104.209 1.436 1.436 0 0 0-.081.716l.123.898a3.3 3.3 0 0 0 1.276 2.624 1.748 1.748 0 0 0 2.145 0 3.3 3.3 0 0 0 1.275-2.624l.123-.898c.033-.24.008-.484-.078-.71Z" fill="#F9BA8F"/><path d="M5.38 24.597c-.404-.455-.88-1.332-.88-2.623l-.085-.898a2.042 2.042 0 0 1 .056-.717c.019-.07.042-.14.072-.208a.872.872 0 0 0 .067-.39c-.019-.373-.011-1.086.29-1.365l-.055-.016c-.346-.115-.89-.23-1.333-.031-.523.235-.537 1.015-.508 1.412a.64.64 0 0 1-.098.39 1.19 1.19 0 0 0-.104.208 1.436 1.436 0 0 0-.081.716l.123.899a3.3 3.3 0 0 0 1.276 2.623 1.748 1.748 0 0 0 1.621.278 1.15 1.15 0 0 1-.36-.278Z" fill="#FCAD6D"/><path d="M5.192 14.808a6.88 6.88 0 0 0-3.673 1.058 18.99 18.99 0 0 0-.397 1.823 5.72 5.72 0 0 1 4.07-1.698 5.744 5.744 0 0 1 5.737 5.738 5.744 5.744 0 0 1-5.737 5.737 5.71 5.71 0 0 1-3.573-1.253c.175.602.38 1.192.61 1.769a6.878 6.878 0 0 0 2.963.667 6.928 6.928 0 0 0 6.92-6.92 6.928 6.928 0 0 0-6.92-6.92Z" fill="#49D88B"/><path d="M9.452 25.746a.165.165 0 0 0-.056-.119 5.722 5.722 0 0 1-7.778.586c.175.602.38 1.192.61 1.769a6.904 6.904 0 0 0 8.07-1.588l-.026-.002c-.692.03-.81-.39-.82-.646Zm-5.066-9.697a.167.167 0 0 0-.072-.087c-.534-.318-.29-.8-.157-.998a.172.172 0 0 0 .028-.083 6.875 6.875 0 0 0-2.667.987 19.02 19.02 0 0 0-.397 1.824 5.727 5.727 0 0 1 3.265-1.643Z" fill="#38C674"/><path d="M22.121 26.618c-1.981-.243-1.53-2.017-1.53-2.017l-1.63-5.36c-1.747-.677-.78-2.518-.776-2.525a5.331 5.331 0 1 0 3.936 9.902Z" fill="#1E9EF4"/><path d="M22.387 21.294A3.355 3.355 0 0 0 20 20.305c-.902 0-1.75.352-2.388.99a.592.592 0 0 1-.836-.837A4.53 4.53 0 0 1 20 19.123a4.53 4.53 0 0 1 3.224 1.335.591.591 0 0 1-.837.836Z" fill="#E9EFFF"/><path d="M20.96 22.733a1.358 1.358 0 0 0-1.919 0 .592.592 0 1 1-.837-.836c.99-.99 2.602-.99 3.592 0a.591.591 0 1 1-.836.837ZM20 24.857a.814.814 0 1 0 0-1.627.814.814 0 0 0 0 1.627Z" fill="#E9EFFF"/></g><defs><clipPath id="a"><path fill="#fff" d="M0 0h40v40H0z"/></clipPath></defs></svg>