<svg width="420" height="420" viewBox="0 0 420 420" fill="none" xmlns="http://www.w3.org/2000/svg">
<path d="M35 70V70C41.0002 86.2152 53.7848 98.9998 70 105V105V105C53.7848 111 41.0002 123.785 35 140V140V140C28.9998 123.785 16.2152 111 0 105V105V105C16.2152 98.9998 28.9998 86.2152 35 70V70Z" fill="#FE7167"/>
<path d="M105 70V70C111 86.2152 123.785 98.9998 140 105V105V105C123.785 111 111 123.785 105 140V140V140C98.9998 123.785 86.2152 111 70 105V105V105C86.2152 98.9998 98.9998 86.2152 105 70V70Z" fill="#236967"/>
<path d="M105 0V0C111 16.2152 123.785 28.9998 140 35V35V35C123.785 41.0002 111 53.7848 105 70V70V70C98.9998 53.7848 86.2152 41.0002 70 35V35V35C86.2152 28.9998 98.9998 16.2152 105 0V0Z" fill="#FFCC1A"/>
<path fill-rule="evenodd" clip-rule="evenodd" d="M320.833 350H309.166V329.084L294.377 343.873L286.127 335.624L300.917 320.834L280 320.834V309.167L300.917 309.167L286.125 294.376L294.375 286.126L309.166 300.917V280H320.833V300.918L335.625 286.126L343.875 294.376L329.083 309.167H350V320.834H329.083L343.873 335.624L335.623 343.873L320.833 329.083V350Z" fill="#236967"/>
<path fill-rule="evenodd" clip-rule="evenodd" d="M320.833 420H309.166V399.084L294.377 413.873L286.127 405.624L300.917 390.834L280 390.834V379.167L300.917 379.167L286.125 364.376L294.375 356.126L309.166 370.917V350H320.833V370.918L335.625 356.126L343.875 364.376L329.083 379.167H350V390.834H329.083L343.873 405.624L335.623 413.873L320.833 399.083V420Z" fill="#FE7167"/>
<g clip-path="url(#clip0_4398_3592)">
<rect width="140" height="140" transform="matrix(-1 0 0 1 280 0)" fill="#FDE9D4"/>
<circle r="19.9598" transform="matrix(-1 0 0 1 260.04 144)" fill="#FE7167"/>
<circle r="19.9598" transform="matrix(-1 0 0 1 226.305 144)" fill="#FE7167"/>
<circle r="19.9598" transform="matrix(-1 0 0 1 192.57 144)" fill="#FE7167"/>
<circle r="19.9598" transform="matrix(-1 0 0 1 159.959 144)" fill="#FE7167"/>
<path d="M280 140C280 121.435 272.625 103.63 259.497 90.5023C246.37 77.3747 228.565 69.9998 210 69.9998C191.435 69.9998 173.63 77.3747 160.503 90.5023C147.375 103.63 140 121.435 140 140L152.892 140C152.892 124.854 158.908 110.328 169.618 99.618C180.328 88.9081 194.854 82.8913 210 82.8913C225.146 82.8913 239.672 88.9081 250.382 99.618C261.092 110.328 267.108 124.854 267.108 140H280Z" fill="#FE7167"/>
<circle r="20" transform="matrix(-1 0 0 1 210 33.9998)" fill="#FC8B4C"/>
</g>
<rect x="280" y="0.000244141" width="140" height="140" fill="#236967"/>
<path d="M350 78L383 140H317L350 78Z" fill="#FC8B4C"/>
<path d="M350 66V66C353.429 75.2658 360.734 82.5713 370 86V86V86C360.734 89.4287 353.429 96.7342 350 106V106V106C346.571 96.7342 339.266 89.4287 330 86V86V86C339.266 82.5713 346.571 75.2658 350 66V66Z" fill="#FDE9D4"/>
<path d="M350 0V0C356 16.2152 368.785 28.9998 385 35V35V35C368.785 41.0002 356 53.7848 350 70V70V70C344 53.7848 331.215 41.0002 315 35V35V35C331.215 28.9998 344 16.2152 350 0V0Z" fill="#FDE9D4"/>
<rect width="140" height="140" transform="matrix(1 0 0 -1 280 280)" fill="#FE7167"/>
<path d="M350 185L320 235H380L350 185Z" fill="#FDE9D4"/>
<rect width="26" height="45" transform="matrix(1 0 0 -1 337 280)" fill="black"/>
<circle r="10" transform="matrix(1 0 0 -1 350 160)" fill="black"/>
<circle r="10" transform="matrix(1 0 0 -1 380 160)" fill="black"/>
<circle r="10" transform="matrix(1 0 0 -1 320 160)" fill="black"/>
<rect x="140" y="140" width="140" height="140" fill="#FFCC1A"/>
<rect x="145.91" y="156.516" width="15" height="60" transform="rotate(-45 145.91 156.516)" fill="#FDE9D4"/>
<rect x="156.517" y="198.943" width="15" height="60" transform="rotate(-135 156.517 198.943)" fill="#FDE9D4"/>
<rect x="145.91" y="231.369" width="15" height="60" transform="rotate(-45 145.91 231.369)" fill="#FDE9D4"/>
<rect x="156.517" y="273.796" width="15" height="60" transform="rotate(-135 156.517 273.796)" fill="#FDE9D4"/>
<rect x="220.763" y="156.516" width="15" height="60" transform="rotate(-45 220.763 156.516)" fill="#FDE9D4"/>
<rect x="231.369" y="198.943" width="15" height="60" transform="rotate(-135 231.369 198.943)" fill="#FDE9D4"/>
<rect x="220.763" y="231.369" width="15" height="60" transform="rotate(-45 220.763 231.369)" fill="#FDE9D4"/>
<rect x="231.369" y="273.796" width="15" height="60" transform="rotate(-135 231.369 273.796)" fill="#FDE9D4"/>
<circle cx="385" cy="315" r="35" fill="#FFCC1A"/>
<circle cx="385" cy="385" r="30" stroke="#038192" stroke-width="10"/>
<defs>
<clipPath id="clip0_4398_3592">
<rect width="140" height="140" fill="white" transform="matrix(-1 0 0 1 280 0)"/>
</clipPath>
</defs>
</svg>
