<svg width="355" height="246" fill="none" xmlns="http://www.w3.org/2000/svg"><path fill-rule="evenodd" clip-rule="evenodd" d="M251.844 196.231a42.136 42.136 0 0 0 24.9 24.884 42.138 42.138 0 0 0-24.9 24.885 42.143 42.143 0 0 0-24.9-24.885 42.142 42.142 0 0 0 24.9-24.884Zm-49.8 0a42.142 42.142 0 0 0 24.9 24.884 42.143 42.143 0 0 0-24.9 24.885 42.14 42.14 0 0 0-24.899-24.885 42.137 42.137 0 0 0 24.899-24.884Zm124.499 24.884a42.137 42.137 0 0 1-24.899-24.884 42.142 42.142 0 0 1-24.9 24.884 42.143 42.143 0 0 1 24.9 24.885 42.14 42.14 0 0 1 24.899-24.885Z" fill="#236967"/><rect x="212.715" y="44.081" width="142.285" height="142.197" rx="50" fill="#FE7167"/><path fill-rule="evenodd" clip-rule="evenodd" d="M138.73 170.081H3.555a.555.555 0 1 0 0 1.11H138.73a.556.556 0 0 0 0-1.11Zm-135.175-3a3.555 3.555 0 1 0 0 7.11H138.73a3.555 3.555 0 0 0 0-7.11H3.555ZM138.73 198.52H3.555a.555.555 0 0 0 0 1.11H138.73a.555.555 0 0 0 0-1.11Zm-135.175-3a3.555 3.555 0 0 0 0 7.11H138.73a3.555 3.555 0 1 0 0-7.11H3.555Zm0-11.219H138.73a.555.555 0 0 1 0 1.109H3.555a.554.554 0 1 1 0-1.109ZM0 184.856a3.555 3.555 0 0 1 3.555-3.555H138.73a3.555 3.555 0 1 1 0 7.109H3.555A3.554 3.554 0 0 1 0 184.856Z" fill="#FFECA0"/><path fill-rule="evenodd" clip-rule="evenodd" d="M88.928 21.33c0 11.78-9.556 21.329-21.343 21.329s-21.343-9.55-21.343-21.33C46.242 9.55 55.798 0 67.585 0s21.343 9.55 21.343 21.33Zm44.108 0c0 11.78-9.556 21.329-21.343 21.329s-21.343-9.55-21.343-21.33C90.35 9.55 99.906 0 111.693 0s21.343 9.55 21.343 21.33Zm-21.343 65.41c11.788 0 21.343-9.55 21.343-21.33 0-11.78-9.555-21.329-21.343-21.329-11.787 0-21.342 9.55-21.342 21.33 0 11.78 9.555 21.33 21.342 21.33Zm21.343 22.751c0 11.78-9.555 21.33-21.343 21.33-11.787 0-21.342-9.55-21.342-21.33 0-11.78 9.555-21.33 21.342-21.33 11.788 0 21.343 9.55 21.343 21.33Zm-65.451-22.75c11.787 0 21.343-9.55 21.343-21.33 0-11.78-9.556-21.33-21.343-21.33s-21.343 9.55-21.343 21.33c0 11.78 9.556 21.33 21.343 21.33Zm21.343 22.75c0 11.78-9.556 21.33-21.343 21.33s-21.343-9.55-21.343-21.33c0-11.78 9.556-21.33 21.343-21.33s21.343 9.55 21.343 21.33Zm66.874-66.832c11.787 0 21.342-9.55 21.342-21.33C177.144 9.55 167.589 0 155.802 0c-11.788 0-21.343 9.55-21.343 21.33 0 11.78 9.555 21.329 21.343 21.329Zm21.342 22.752c0 11.78-9.555 21.33-21.342 21.33-11.788 0-21.343-9.55-21.343-21.33 0-11.78 9.555-21.33 21.343-21.33 11.787 0 21.342 9.55 21.342 21.33Zm-21.342 65.41c11.787 0 21.342-9.55 21.342-21.33 0-11.78-9.555-21.33-21.342-21.33-11.788 0-21.343 9.55-21.343 21.33 0 11.78 9.555 21.33 21.343 21.33Z" fill="#FFCC1A"/></svg>