<svg width="390" height="352" fill="none" xmlns="http://www.w3.org/2000/svg"><path fill="#FFCC1A" d="M155.679 0H272.84v117.333H155.679z"/><path fill="#FDE9D4" d="m160.624 13.842 8.876-8.889 35.505 35.558-8.876 8.889z"/><path fill="#FDE9D4" d="m169.501 49.4-8.876-8.89L196.13 4.954l8.876 8.89zm-8.877 27.176 8.876-8.89 35.505 35.558-8.876 8.89z"/><path fill="#FDE9D4" d="m169.501 112.133-8.876-8.89 35.505-35.557 8.876 8.89zm53.765-98.291 8.876-8.889 35.505 35.558-8.876 8.889z"/><path fill="#FDE9D4" d="m232.143 49.4-8.876-8.89 35.505-35.557 8.876 8.89zm-8.877 27.176 8.876-8.89 35.505 35.558-8.876 8.89z"/><path fill="#FDE9D4" d="m232.143 112.133-8.876-8.89 35.505-35.557 8.876 8.89z"/><path fill="#236967" d="M272.84 234.667h117.161V352H272.84z"/><path d="M390.001 234.667a58.71 58.71 0 0 1-17.158 41.483 58.533 58.533 0 0 1-41.423 17.183 58.533 58.533 0 0 1-41.422-17.183 58.71 58.71 0 0 1-17.158-41.483h117.161Z" fill="#FFCC1A"/><path stroke="#FDE9D4" d="M329.271 303.891h5.974v40.905h-5.974z"/><path stroke="#FDE9D4" d="m315.703 311.996 4.225-4.231 28.923 28.88-4.225 4.232z"/><path transform="scale(-.99926 1.00074) rotate(-45 201.45 576.393)" stroke="#FDE9D4" d="M-.707 0h5.979v40.874H-.707z"/><path stroke="#FDE9D4" d="M311.836 327.335v-5.984h40.843v5.984z"/><path d="M390.001 117.333v117.334H272.84V117.333h117.161Z" fill="#FDE9D4"/><path d="M331.421 117.333c32.353 0 58.58 26.314 58.58 58.667H272.84c0-32.353 26.227-58.667 58.581-58.667Z" fill="#FE7167"/><path fill="#FFCC1A" d="m331.122 146.667 29.61 29.61-29.61 29.609-29.61-29.61z"/><ellipse cx="331.419" cy="176" rx="5.867" ry="5.858" transform="rotate(90 331.419 176)" fill="#000"/><path d="M272.84 0v117.333h117.161V100c0-55.228-44.772-100-100-100H272.84Z" fill="#FC8B4C"/><ellipse rx="16.762" ry="16.737" transform="matrix(0 1 1 0 309.663 75.429)" fill="#000"/><ellipse rx="16.762" ry="16.737" transform="matrix(0 1 1 0 326.4 75.429)" fill="#FDE9D4"/><ellipse rx="3.352" ry="3.348" transform="rotate(-109.566 149.024 143.502) skewX(.053)" fill="#FE7167"/><ellipse rx="6.559" ry="6.551" transform="rotate(-109.566 176.02 -20.654) skewX(.053)" fill="#FE7167"/><ellipse rx="8.38" ry="8.37" transform="rotate(-109.566 168.646 133.418) skewX(.053)" fill="#FFCC1A"/><path fill-rule="evenodd" clip-rule="evenodd" d="M41.028 301.714a42.545 42.545 0 0 1-25.106 25.143A42.547 42.547 0 0 1 41.028 352a42.547 42.547 0 0 1 25.106-25.143 42.545 42.545 0 0 1-25.106-25.143 42.55 42.55 0 0 1 25.106-25.143 42.546 42.546 0 0 1-25.106-25.142 42.546 42.546 0 0 1-25.106 25.142 42.55 42.55 0 0 1 25.106 25.143Z" fill="#236967"/><path d="M250.244 352a50.358 50.358 0 0 0-3.822-19.244 50.281 50.281 0 0 0-10.885-16.313 50.192 50.192 0 0 0-16.29-10.901 50.148 50.148 0 0 0-19.215-3.828V352h50.212Z" fill="#FC8B4C"/><path d="M223.431 161.361c8.118 0 14.704-6.591 14.704-14.728s-6.586-14.728-14.704-14.728-14.703 6.591-14.703 14.728 6.585 14.728 14.703 14.728Z" stroke="#038192" stroke-width="4"/><ellipse cx="126.388" cy="29.333" rx="29.29" ry="29.333" fill="#FDE9D4"/><ellipse cx="126.388" cy="88" rx="29.29" ry="29.333" fill="#038192"/><path d="M52.944 235.893a58.636 58.636 0 0 1-30.094-33.284 58.747 58.747 0 0 1 2.221-44.847 58.613 58.613 0 0 1 33.235-30.138 58.502 58.502 0 0 1 44.781 2.224l-5.443 11.511a45.8 45.8 0 0 0-35.059-1.741 45.887 45.887 0 0 0-26.02 23.595 45.994 45.994 0 0 0-1.739 35.111 45.908 45.908 0 0 0 23.561 26.058l-5.443 11.511Z" fill="#FE7167"/></svg>