<svg width="560" height="560" fill="none" xmlns="http://www.w3.org/2000/svg"><g clip-path="url(#a)"><path d="M140 140h140v140H140V140Z" fill="#FDE9D4"/><path d="M265.355 194.645c19.526 19.526 19.526 51.184 0 70.711-19.526 19.526-51.184 19.526-70.711 0-19.526-19.527-19.526-51.185 0-70.711 19.527-19.526 51.185-19.526 70.711 0Z" fill="#FFCC1A"/><path d="M194.644 194.645a49.998 49.998 0 0 0 0 70.711 50.004 50.004 0 0 0 70.711 0L230 230l-35.356-35.355Z" fill="#000"/><path d="M280 173.5V280h-84.5L280 173.5Z" fill="#236967"/><path d="M420 0h140v140H420V0Z" fill="#FFCC1A"/><path d="M485.833 45h8.333v50h-8.333V45Z" fill="#fff"/><path d="m469.376 55.269 5.893-5.893 35.355 35.356-5.893 5.892-35.355-35.355Z" fill="#fff"/><path d="m510.624 55.269-5.893-5.893-35.355 35.356 5.893 5.892 35.355-35.355Z" fill="#fff"/><path d="M465 74.167v-8.334h50v8.334h-50ZM485 120a5 5 0 1 0 10 0 5 5 0 0 0-10 0Zm50-50a5 5 0 1 0 10 0 5 5 0 0 0-10 0Zm-100 0a5 5 0 1 0 10 0 5 5 0 0 0-10 0Zm50-50a5 5 0 1 0 10 0 5 5 0 0 0-10 0Z" fill="#fff"/><path d="M420 140V90.5L521 140H420ZM280 280h140v140H280V280Z" fill="#236967"/><path d="M420 280a69.997 69.997 0 0 1-20.503 49.497 69.997 69.997 0 0 1-98.994 0A69.997 69.997 0 0 1 280 280h140Z" fill="#FFCC1A"/><path fill-rule="evenodd" clip-rule="evenodd" d="M354.167 363h-6.334v48h6.334v-48Zm-7.334-1v50h8.334v-50h-8.334Z" fill="#fff"/><path fill-rule="evenodd" clip-rule="evenodd" d="m336.269 367.79-4.479 4.479 33.941 33.941 4.479-4.478-33.941-33.942Zm-5.893 4.479 35.355 35.355 5.893-5.892-35.355-35.356-5.893 5.893Z" fill="#fff"/><path fill-rule="evenodd" clip-rule="evenodd" d="m365.731 367.79 4.479 4.479-33.941 33.941-4.479-4.478 33.941-33.942Zm5.893 4.479-35.355 35.355-5.893-5.892 35.355-35.356 5.893 5.893Z" fill="#fff"/><path fill-rule="evenodd" clip-rule="evenodd" d="M327 383.833v6.334h48v-6.334h-48Zm-1 7.334h50v-8.334h-50v8.334Z" fill="#fff"/><path d="M280 20c0-11.046 8.954-20 20-20h120v140H280V20Z" fill="#FDE9D4"/><path d="M280 100C280 44.772 324.772 0 380 0h40v140H280v-40Z" fill="#FDE9D4"/><path d="M350 70c0-38.66 31.34-70 70-70v140c-38.66 0-70-31.34-70-70Z" fill="#FE7167"/><path d="M296 70.355 331.355 35l35.356 35.355-35.356 35.356L296 70.355Z" fill="#FFCC1A"/><path d="M338 70a7 7 0 1 1-14 0 7 7 0 0 1 14 0Z" fill="#000"/><path d="M420 140V90.5L363 140h57Z" fill="#236967"/><path d="M140 140v140H0v-40c0-55.228 44.772-100 100-100h40Z" fill="#FE7167"/><path d="M96 250c-11.046 0-20-8.954-20-20 0-11.045 8.954-20 20-20s20 8.955 20 20c0 11.046-8.954 20-20 20Z" fill="#000"/><path d="M76 250c-11.046 0-20-8.954-20-20 0-11.045 8.954-20 20-20s20 8.955 20 20c0 11.046-8.954 20-20 20Z" fill="#FDE9D4"/><path d="M420 140h140v140H420V140Z" fill="#FE7167"/><path d="m521 140 39 140H420V140h101Z" fill="#236967"/><path d="M420 280a69.997 69.997 0 0 1 20.503-49.497 69.997 69.997 0 0 1 98.994 0A69.997 69.997 0 0 1 560 280h-12.892a57.108 57.108 0 1 0-114.216 0H420Z" fill="#FDE9D4"/><path d="M459.92 284c0 11.023-8.937 19.96-19.96 19.96-11.024 0-19.96-8.937-19.96-19.96 0-11.024 8.936-19.96 19.96-19.96 11.023 0 19.96 8.936 19.96 19.96Z" fill="#FDE9D4"/><path d="M493.655 284c0 11.023-8.936 19.96-19.96 19.96-11.023 0-19.96-8.937-19.96-19.96 0-11.024 8.937-19.96 19.96-19.96 11.024 0 19.96 8.936 19.96 19.96Z" fill="#FDE9D4"/><path d="M527.389 284c0 11.023-8.936 19.96-19.959 19.96-11.024 0-19.96-8.937-19.96-19.96 0-11.024 8.936-19.96 19.96-19.96 11.023 0 19.959 8.936 19.959 19.96Z" fill="#FDE9D4"/><path d="M560.001 284c0 11.023-8.937 19.96-19.96 19.96-11.024 0-19.96-8.937-19.96-19.96 0-11.024 8.936-19.96 19.96-19.96 11.023 0 19.96 8.936 19.96 19.96Z" fill="#FDE9D4"/><path d="M510 174c0 11.046-8.954 20-20 20s-20-8.954-20-20 8.954-20 20-20 20 8.954 20 20Z" fill="#FC8B4C"/><path d="M280 140h140v140H280V140Z" fill="#FFCC1A"/><path d="m280.91 151.517 10.606-10.607 42.427 42.427-10.607 10.606-42.426-42.426Z" fill="#fff"/><path d="m291.517 193.943-10.607-10.606 42.426-42.427 10.607 10.607-42.426 42.426Z" fill="#fff"/><path d="m363 140-83 33.5V280h140V140h-57Z" fill="#236967"/><path d="m350 218 33 62h-66l33-62Z" fill="#FE7167"/><path d="M351 206a33.852 33.852 0 0 0 20 20 33.852 33.852 0 0 0-20 20 33.852 33.852 0 0 0-20-20 33.852 33.852 0 0 0 20-20Z" fill="#FDE9D4"/><path d="M420 280h140v140H420V280Z" fill="#236967"/><path d="M521 334.5c0 16.845-13.655 30.5-30.5 30.5S460 351.345 460 334.5s13.655-30.5 30.5-30.5 30.5 13.655 30.5 30.5Z" fill="#FFCC1A"/><path d="M521 365.5c0 16.845-13.655 30.5-30.5 30.5S460 382.345 460 365.5s13.655-30.5 30.5-30.5 30.5 13.655 30.5 30.5Z" fill="#fff"/><path fill-rule="evenodd" clip-rule="evenodd" d="M461.393 333.962c-.461.186-.925.365-1.393.538a51.627 51.627 0 0 1 30.5 30.5 51.627 51.627 0 0 1 30.5-30.5 51.627 51.627 0 0 1-30.5-30.5 51.627 51.627 0 0 1-29.107 29.962Zm1.312.538a52.62 52.62 0 0 1 27.795 27.795 52.62 52.62 0 0 1 27.795-27.795 52.62 52.62 0 0 1-27.795-27.795 52.62 52.62 0 0 1-27.795 27.795Z" fill="#fff"/><path fill-rule="evenodd" clip-rule="evenodd" d="M461.393 364.962c-.461.186-.925.365-1.393.538a51.627 51.627 0 0 1 30.5 30.5 51.627 51.627 0 0 1 30.5-30.5 51.627 51.627 0 0 1-30.5-30.5 51.627 51.627 0 0 1-29.107 29.962Zm1.312.538a52.62 52.62 0 0 1 27.795 27.795 52.62 52.62 0 0 1 27.795-27.795 52.62 52.62 0 0 1-27.795-27.795 52.62 52.62 0 0 1-27.795 27.795Z" fill="#FDD503"/><path d="M140 280h140v140H140V280Z" fill="#000"/><path d="M140 420v-74.5l55.5-65.5H280v140H140Z" fill="#236967"/><path d="M140.135 345.661a69.999 69.999 0 0 0 123.22 49.652 70.004 70.004 0 0 0 6.478-81.645 69.996 69.996 0 0 0-75.429-31.908l1.09 4.767a65.107 65.107 0 0 1 70.159 29.68 65.102 65.102 0 0 1 9.252 38.943 65.11 65.11 0 0 1-129.889-9.186l-4.881-.303Z" fill="#FDE9D4"/><path d="M155.106 346.591a54.997 54.997 0 0 0 68.066 56.808 54.999 54.999 0 0 0-25.426-107.016l.856 3.746a51.152 51.152 0 0 1 55.125 23.319 51.157 51.157 0 1 1-94.786 23.381l-3.835-.238Z" fill="#FE7167"/><path d="M170.077 347.521a39.991 39.991 0 0 0 6.094 23.823 39.997 39.997 0 0 0 64.318 4.549 40.003 40.003 0 0 0-39.401-64.888l.623 2.725a37.207 37.207 0 0 1 45.378 39.213 37.206 37.206 0 0 1-74.223-5.249l-2.789-.173Z" fill="#FDE9D4"/><path d="M0 280h140v140H0V280Z" fill="#FFCC1A"/><path d="M60 383c0 13.807-11.193 25-25 25s-25-11.193-25-25 11.193-25 25-25 25 11.193 25 25Z" fill="#FC8B4C"/><path d="M140 345.5V420H0l140-74.5Z" fill="#236967"/><path d="M35 280a59.24 59.24 0 0 0 35 35 59.24 59.24 0 0 0-35 35 59.24 59.24 0 0 0-35-35 59.24 59.24 0 0 0 35-35Zm70 0a59.24 59.24 0 0 0 35 35 59.24 59.24 0 0 0-35 35 59.24 59.24 0 0 0-35-35 59.24 59.24 0 0 0 35-35Z" fill="#fff"/><path d="M35 300a25.386 25.386 0 0 0 15 15 25.39 25.39 0 0 0-15 15 25.39 25.39 0 0 0-15-15 25.386 25.386 0 0 0 15-15Z" fill="#236967"/><path d="M420 560h140V420H420v140Z" fill="#FE7167"/><path d="m490 465-30 50h60l-30-50Z" fill="#fff"/><path d="M477 560h26v-45h-26v45Zm23-120c0-5.523-4.477-10-10-10s-10 4.477-10 10 4.477 10 10 10 10-4.477 10-10Zm30 0c0-5.523-4.477-10-10-10s-10 4.477-10 10 4.477 10 10 10 10-4.477 10-10Zm-60 0c0-5.523-4.477-10-10-10s-10 4.477-10 10 4.477 10 10 10 10-4.477 10-10Z" fill="#000"/><path d="M280 420h140v140H280V420Z" fill="#FDD503"/><path d="m285.91 436.516 10.607-10.606 42.426 42.426-10.606 10.607-42.427-42.427Z" fill="#fff"/><path d="m296.517 478.943-10.607-10.607 42.426-42.426 10.607 10.606-42.426 42.427Zm-10.607 32.426 10.607-10.606 42.426 42.426-10.606 10.607-42.427-42.427Z" fill="#fff"/><path d="m296.517 553.796-10.607-10.607 42.426-42.426 10.607 10.606-42.426 42.427Zm64.246-117.28 10.606-10.606 42.427 42.426-10.607 10.607-42.426-42.427Z" fill="#fff"/><path d="m371.369 478.943-10.606-10.607 42.426-42.426 10.607 10.606-42.427 42.427Zm-10.606 32.426 10.606-10.606 42.427 42.426-10.607 10.607-42.426-42.427Z" fill="#fff"/><path d="m371.369 553.796-10.606-10.607 42.426-42.426 10.607 10.606-42.427 42.427Z" fill="#fff"/><path d="M280 490a69.997 69.997 0 0 1-20.503 49.497 69.997 69.997 0 0 1-98.994 0A69.997 69.997 0 0 1 140 490h140Z" fill="#FC8B4C"/><path d="M210 455c0 19.33-15.67 35-35 35s-35-15.67-35-35 15.67-35 35-35 35 15.67 35 35Z" fill="#FFCC1A"/><path d="M280 455c0 19.33-15.67 35-35 35s-35-15.67-35-35 15.67-35 35-35 35 15.67 35 35Z" fill="#236967"/><path d="M280 35c0 19.33-15.67 35-35 35s-35-15.67-35-35 15.67-35 35-35 35 15.67 35 35Z" fill="#FFCC1A"/><path d="M280 105c0 19.33-15.67 35-35 35s-35-15.67-35-35 15.67-35 35-35 35 15.67 35 35Z" fill="#236967"/><path d="M210 105c0 19.33-15.67 35-35 35s-35-15.67-35-35 15.67-35 35-35 35 15.67 35 35Z" fill="#FC8B4C"/><path fill-rule="evenodd" clip-rule="evenodd" d="M175 132c14.912 0 27-12.088 27-27s-12.088-27-27-27-27 12.088-27 27 12.088 27 27 27Zm0 8c19.33 0 35-15.67 35-35s-15.67-35-35-35-35 15.67-35 35 15.67 35 35 35Z" fill="#000"/><path fill-rule="evenodd" clip-rule="evenodd" d="M53 457c9.941 0 18-8.059 18-18s-8.059-18-18-18-18 8.059-18 18 8.059 18 18 18Zm0 1c10.493 0 19-8.507 19-19s-8.507-19-19-19-19 8.507-19 19 8.507 19 19 19Z" fill="#236967"/><path fill-rule="evenodd" clip-rule="evenodd" d="M87 457c9.941 0 18-8.059 18-18s-8.059-18-18-18-18 8.059-18 18 8.059 18 18 18Zm0 1c10.493 0 19-8.507 19-19s-8.507-19-19-19-19 8.507-19 19 8.507 19 19 19Z" fill="#236967"/><path fill-rule="evenodd" clip-rule="evenodd" d="M121 457c9.941 0 18-8.059 18-18s-8.059-18-18-18-18 8.059-18 18 8.059 18 18 18Zm0 1c10.493 0 19-8.507 19-19s-8.507-19-19-19-19 8.507-19 19 8.507 19 19 19Z" fill="#236967"/><path fill-rule="evenodd" clip-rule="evenodd" d="M121 491c9.941 0 18-8.059 18-18s-8.059-18-18-18-18 8.059-18 18 8.059 18 18 18Zm0 1c10.493 0 19-8.507 19-19s-8.507-19-19-19-19 8.507-19 19 8.507 19 19 19Z" fill="#236967"/><path fill-rule="evenodd" clip-rule="evenodd" d="M87 491c9.941 0 18-8.059 18-18s-8.059-18-18-18-18 8.059-18 18 8.059 18 18 18Zm0 1c10.493 0 19-8.507 19-19s-8.507-19-19-19-19 8.507-19 19 8.507 19 19 19Zm34 34c9.941 0 18-8.059 18-18s-8.059-18-18-18-18 8.059-18 18 8.059 18 18 18Zm0 1c10.493 0 19-8.507 19-19s-8.507-19-19-19-19 8.507-19 19 8.507 19 19 19Z" fill="#236967"/><path fill-rule="evenodd" clip-rule="evenodd" d="m419.379 85.741 104.993 51.457 39.481 141.729-7.706 2.146-38.519-138.271-97.007-47.543-55.503 48.2-82.641 33.355-83.884 105.723-56.018 66.111L13.93 419.504A4.006 4.006 0 0 1 12 420H0v-8h10.971l126.454-69.648 54.981-64.889 85.117-107.277 83.359-33.645 58.497-50.8Z" fill="#000"/></g><defs><clipPath id="a"><path fill="#fff" d="M0 0h560v560H0z"/></clipPath></defs></svg>