<svg width="196" height="40" fill="none" xmlns="http://www.w3.org/2000/svg"><path d="M56.004 19.154c-2.167-.51-2.467-1.204-2.467-1.869 0-1.112.692-1.65 2.12-1.65 1.05 0 1.974.24 2.916.756l.227.126.142-.218c.249-.378.397-.848.397-1.266 0-.55-.29-.871-.936-1.049-.902-.27-1.69-.384-2.728-.384-3.255 0-4.412 2.006-4.412 3.88 0 1.903 1.259 3.158 3.737 3.731 2.251.539 2.71 1.255 2.71 2.166 0 1.479-1.332 1.794-2.45 1.794-1.11 0-2.16-.31-3.288-.968l-.227-.132-.148.218c-.25.366-.397.842-.397 1.272 0 .556.261.877.896 1.112.896.344 1.974.527 3.12.527 2.87 0 4.797-1.616 4.797-4.017-.005-2.121-1.242-3.365-4.01-4.03ZM66.377 13.6h-4.31v13.256h2.223V22.61h2.087c3.04 0 4.78-1.639 4.78-4.493 0-2.871-1.74-4.516-4.78-4.516Zm-2.082 1.949h2.087c1.696 0 2.524.836 2.524 2.567 0 1.702-.85 2.568-2.524 2.568h-2.087v-5.135Zm10.871 5.41h4.674V19.01h-4.674v-3.46h5.853V13.6h-8.076v13.256h8.184v-1.949h-5.96V20.96ZM88.5 13.697l-.085-.097h-1.758l-.085.097c-2.286 2.665-3.908 7.588-4.237 12.85l-.017.303h2.297l.012-.275c.045-1.003.141-1.983.272-2.917h5.263c.124.883.22 1.84.295 2.917l.017.27h2.274l-.017-.304c-.278-5.112-1.94-10.156-4.231-12.844Zm1.322 8.018h-4.566c.505-2.35 1.27-4.35 2.28-5.954 1.032 1.633 1.798 3.633 2.285 5.954Zm10.287-1.988c1.985-1.49 3.385-3.577 3.873-5.777l.08-.35h-2.377l-.051.223c-.584 2.522-2.28 4.545-4.565 5.48V13.6h-2.223v13.256h2.223v-5.502a10.24 10.24 0 0 0 1.145-.464c1.929 1.244 3.137 3.17 3.59 5.731l.04.235h2.382l-.051-.327c-.397-2.716-1.94-5.278-4.066-6.802Zm12.8-6.127-.023.258c-.266 2.866-1.185 5.09-2.733 6.625-1.594-1.53-2.535-3.76-2.802-6.625l-.023-.258h-2.291l.028.315c.307 3.341 1.742 6.373 3.953 8.328v4.613h2.206v-4.613c2.252-1.995 3.692-5.02 3.953-8.333l.023-.31h-2.291Z" fill="#236967"/><path d="m127.923 15.998.254.195.178-.267.182-.275.153-.23-.216-.171c-.894-.707-2.226-1.15-3.513-1.15-1.395 0-2.432.37-3.124.984-.695.616-1.011 1.45-1.011 2.31 0 1.201.511 1.968 1.273 2.48.735.493 1.701.746 2.603.974l.107.027c.888.224 1.708.43 2.321.798.312.187.557.408.725.684.167.273.27.618.27 1.07 0 .65-.245 1.224-.759 1.642-.52.424-1.347.71-2.548.71-1.53 0-2.9-.669-3.558-1.471l-.207-.253-.234.228-.228.222-.193.188.165.212c.841 1.078 2.532 1.795 4.274 1.795 1.409 0 2.466-.36 3.175-.965.713-.608 1.045-1.438 1.045-2.309-.002-.583-.127-1.07-.356-1.478a2.812 2.812 0 0 0-.926-.966c-.736-.487-1.702-.739-2.604-.97-.025-.005-.05-.012-.074-.018-.901-.23-1.734-.442-2.355-.819-.312-.19-.558-.414-.726-.692-.168-.276-.27-.623-.27-1.076 0-.659.246-1.243.752-1.668.511-.428 1.317-.719 2.476-.719.972 0 2.094.323 2.949.978Zm12.944.361.233.229.208-.251.196-.235.172-.207-.187-.194c-1.053-1.09-2.547-1.601-4.123-1.601-3.529 0-6.189 2.708-6.189 6.3 0 3.592 2.653 6.3 6.189 6.3 1.572 0 3.071-.532 4.123-1.621l.187-.193-.172-.207-.196-.235-.209-.252-.232.23c-.984.974-2.169 1.358-3.494 1.358-2.991 0-5.257-2.323-5.257-5.373v-.001c-.006-3.063 2.259-5.386 5.257-5.386 1.334 0 2.511.372 3.494 1.339Zm12.702-1.913v5.393h-7.762v-5.693h-.926V26.64h.926v-5.875h7.762v5.876h.932V14.146h-.932v.3Zm10.488-.346c-3.53 0-6.19 2.708-6.19 6.3 0 3.592 2.653 6.3 6.19 6.3 3.536 0 6.19-2.708 6.19-6.3 0-3.599-2.654-6.3-6.19-6.3Zm0 11.673c-2.993 0-5.257-2.291-5.257-5.373 0-3.082 2.264-5.373 5.257-5.373s5.263 2.292 5.263 5.373c0 3.081-2.27 5.373-5.263 5.373ZM178.589 14.1c-3.53 0-6.19 2.708-6.19 6.3 0 3.592 2.654 6.3 6.19 6.3 3.536 0 6.19-2.708 6.19-6.3 0-3.599-2.654-6.3-6.19-6.3Zm0 11.673c-2.992 0-5.257-2.291-5.257-5.373 0-3.082 2.265-5.373 5.257-5.373 2.993 0 5.264 2.292 5.264 5.373-.007 3.082-2.272 5.373-5.264 5.373Zm15.485-11.627h-.3V25.72h-6.843v.921h7.769V14.146h-.626Z" fill="#216D6B" stroke="#236967" stroke-width=".6" stroke-miterlimit="10"/><path d="M20 0C8.956 0 0 8.956 0 20c0 2.295.39 4.497 1.1 6.547a9.734 9.734 0 0 1 2.33-3.757c1.007-1.006 3.246-3.429 4.497-3.904 1.33-2.079 2.37-2.963 4.957-5.55 5.221-5.221 10.39-8.514 11.553-7.352 1.161 1.162-2.131 6.331-7.352 11.552A55.58 55.58 0 0 1 13.8 20.57a9.698 9.698 0 0 1 5.644 5.65 55.72 55.72 0 0 1 3.038-3.284c5.222-5.221 10.396-8.513 11.553-7.352 1.162 1.162-2.131 6.331-7.352 11.553-2.587 2.587-3.43 3.664-5.513 4.995-.475 1.246-2.94 3.452-3.941 4.454a9.7 9.7 0 0 1-3.73 2.319c2.036.7 4.223 1.087 6.495 1.087C31.045 40 40 31.044 40 20S31.044 0 20 0Z" fill="#236967"/><path d="M8.829 28.194a.71.71 0 0 0 .498-.207.71.71 0 0 0 0-.997.719.719 0 0 0-.997 0 .705.705 0 0 0 .499 1.204Zm4.214 2.521a.719.719 0 0 0-.997 0 .705.705 0 1 0 1.204.498.686.686 0 0 0-.207-.498Zm-6.157-.381c-.522.517.127 1.844.339 2.239l.033.06.06.034c.208.108 1.036.531 1.67.531.226 0 .429-.051.57-.193.494-.493.291-1.288-.546-2.126-.837-.832-1.632-1.034-2.126-.545Z" fill="#236967"/></svg>