<svg width="375" height="375" fill="none" xmlns="http://www.w3.org/2000/svg"><g clip-path="url(#a)"><path d="M93.75 93.75h93.75v93.75H93.75V93.75Z" fill="#FDE9D4"/><path d="M177.693 130.342c13.076 13.076 13.076 34.276 0 47.351-13.075 13.076-34.275 13.076-47.351 0-13.075-13.075-13.075-34.275 0-47.351 13.076-13.075 34.276-13.075 47.351 0Z" fill="#FFCC1A"/><path d="M130.342 130.342a33.486 33.486 0 0 0 0 47.351 33.484 33.484 0 0 0 47.351 0l-23.675-23.675-23.676-23.676Z" fill="#000"/><path d="M187.5 116.183V187.5h-56.585l56.585-71.317Z" fill="#236967"/><path d="M281.25 0H375v93.75h-93.75V0Z" fill="#FFCC1A"/><path d="M325.335 30.134h5.58v33.482h-5.58V30.134Z" fill="#fff"/><path d="m314.313 37.01 3.946-3.945 23.676 23.675-3.946 3.946-23.676-23.675Z" fill="#fff"/><path d="m341.936 37.01-3.946-3.945-23.676 23.675 3.946 3.946 23.676-23.675Z" fill="#fff"/><path d="M311.384 49.665v-5.58h33.482v5.58h-33.482Zm13.392 30.692a3.348 3.348 0 1 0 6.696 0 3.348 3.348 0 0 0-6.696 0Zm33.483-33.482a3.348 3.348 0 1 0 6.696 0 3.348 3.348 0 0 0-6.696 0Zm-66.964 0a3.348 3.348 0 1 0 6.696 0 3.348 3.348 0 0 0-6.696 0Zm33.481-33.482a3.348 3.348 0 1 0 6.696 0 3.348 3.348 0 0 0-6.696 0Z" fill="#fff"/><path d="M281.25 93.75V60.603l67.634 33.147H281.25ZM187.5 187.5h93.75v93.75H187.5V187.5Z" fill="#236967"/><path d="M281.25 187.5a46.88 46.88 0 0 1-13.729 33.146 46.88 46.88 0 0 1-66.292 0A46.88 46.88 0 0 1 187.5 187.5h93.75Z" fill="#FFCC1A"/><path fill-rule="evenodd" clip-rule="evenodd" d="M237.166 243.08h-4.241v32.143h4.241V243.08Zm-4.911-.669v33.482h5.58v-33.482h-5.58Z" fill="#fff"/><path fill-rule="evenodd" clip-rule="evenodd" d="m225.179 246.288-2.999 2.999 22.729 22.729 2.999-2.999-22.729-22.729Zm-3.946 2.999 23.676 23.676 3.946-3.946-23.676-23.676-3.946 3.946Z" fill="#fff"/><path fill-rule="evenodd" clip-rule="evenodd" d="m244.91 246.288 2.998 2.999-22.728 22.729-2.999-2.999 22.729-22.729Zm3.945 2.999-23.675 23.676-3.946-3.946 23.676-23.676 3.945 3.946Z" fill="#fff"/><path fill-rule="evenodd" clip-rule="evenodd" d="M218.973 257.031v4.241h32.143v-4.241h-32.143Zm-.669 4.911h33.482v-5.58h-33.482v5.58Z" fill="#fff"/><path d="M187.5 13.393C187.5 5.996 193.496 0 200.893 0h80.357v93.75H187.5V13.393Z" fill="#FDE9D4"/><path d="M187.5 66.965C187.5 29.98 217.481 0 254.464 0h26.786v93.75H187.5V66.965Z" fill="#FDE9D4"/><path d="M234.375 46.875C234.375 20.987 255.362 0 281.25 0v93.75c-25.888 0-46.875-20.987-46.875-46.875Z" fill="#FE7167"/><path d="m198.214 47.113 23.675-23.675 23.676 23.675-23.676 23.675-23.675-23.675Z" fill="#FFCC1A"/><path d="M226.34 46.875a4.688 4.688 0 1 1-9.376 0 4.688 4.688 0 0 1 9.376 0Z" fill="#000"/><path d="M281.25 93.75V60.603L243.08 93.75h38.17Z" fill="#236967"/><path d="M93.75 93.75v93.75H0v-26.786C0 123.731 29.98 93.75 66.964 93.75H93.75Z" fill="#FE7167"/><path d="M64.286 167.411c-7.397 0-13.393-5.996-13.393-13.393s5.996-13.393 13.393-13.393 13.393 5.996 13.393 13.393-5.996 13.393-13.393 13.393Z" fill="#000"/><path d="M50.893 167.411c-7.396 0-13.393-5.996-13.393-13.393s5.997-13.393 13.393-13.393c7.397 0 13.393 5.996 13.393 13.393s-5.996 13.393-13.393 13.393Z" fill="#FDE9D4"/><path d="M281.25 93.75H375v93.75h-93.75V93.75Z" fill="#FE7167"/><path d="M348.884 93.75 375 187.5h-93.75V93.75h67.634Z" fill="#236967"/><path d="M281.25 187.5a46.88 46.88 0 0 1 13.729-33.146 46.88 46.88 0 0 1 66.292 0A46.88 46.88 0 0 1 375 187.5h-8.633a38.24 38.24 0 0 0-38.242-38.242 38.24 38.24 0 0 0-38.242 38.242h-8.633Z" fill="#FDE9D4"/><path d="M307.982 190.179c0 7.381-5.984 13.365-13.366 13.365s-13.366-5.984-13.366-13.365c0-7.382 5.984-13.366 13.366-13.366s13.366 5.984 13.366 13.366Z" fill="#FDE9D4"/><path d="M330.573 190.179c0 7.381-5.984 13.365-13.366 13.365s-13.366-5.984-13.366-13.365c0-7.382 5.984-13.366 13.366-13.366s13.366 5.984 13.366 13.366Z" fill="#FDE9D4"/><path d="M353.163 190.179c0 7.381-5.985 13.365-13.366 13.365-7.382 0-13.366-5.984-13.366-13.365 0-7.382 5.984-13.366 13.366-13.366 7.381 0 13.366 5.984 13.366 13.366Z" fill="#FDE9D4"/><path d="M375 190.179c0 7.381-5.984 13.365-13.365 13.365-7.382 0-13.366-5.984-13.366-13.365 0-7.382 5.984-13.366 13.366-13.366 7.381 0 13.365 5.984 13.365 13.366Z" fill="#FDE9D4"/><path d="M341.518 116.518c0 7.397-5.996 13.393-13.393 13.393-7.396 0-13.393-5.996-13.393-13.393s5.997-13.393 13.393-13.393c7.397 0 13.393 5.996 13.393 13.393Z" fill="#FC8B4C"/><path d="M187.5 93.75h93.75v93.75H187.5V93.75Z" fill="#FFCC1A"/><path d="m188.109 101.462 7.103-7.102 28.411 28.41-7.103 7.103-28.411-28.411Z" fill="#fff"/><path d="m195.212 129.873-7.103-7.103 28.411-28.41 7.102 7.102-28.41 28.411Z" fill="#fff"/><path d="m243.08 93.75-55.58 22.433V187.5h93.75V93.75h-38.17Z" fill="#236967"/><path d="m234.375 145.982 22.098 41.518h-44.197l22.099-41.518Z" fill="#FE7167"/><path d="M235.044 137.946a22.668 22.668 0 0 0 13.393 13.393 22.668 22.668 0 0 0-13.393 13.393 22.668 22.668 0 0 0-13.393-13.393 22.668 22.668 0 0 0 13.393-13.393Z" fill="#FDE9D4"/><path d="M281.25 187.5H375v93.75h-93.75V187.5Z" fill="#236967"/><path d="M348.884 223.996c0 11.279-9.144 20.424-20.424 20.424s-20.424-9.145-20.424-20.424c0-11.28 9.144-20.425 20.424-20.425s20.424 9.145 20.424 20.425Z" fill="#FFCC1A"/><path d="M348.884 244.754c0 11.28-9.144 20.425-20.424 20.425s-20.424-9.145-20.424-20.425c0-11.279 9.144-20.424 20.424-20.424s20.424 9.145 20.424 20.424Z" fill="#fff"/><path fill-rule="evenodd" clip-rule="evenodd" d="M308.969 223.635c-.309.124-.62.245-.933.361a34.573 34.573 0 0 1 20.424 20.424 34.567 34.567 0 0 1 20.424-20.424 34.567 34.567 0 0 1-20.424-20.425 34.573 34.573 0 0 1-19.491 20.064Zm.879.361a35.239 35.239 0 0 1 18.612 18.612 35.24 35.24 0 0 1 18.613-18.612 35.246 35.246 0 0 1-18.613-18.613 35.244 35.244 0 0 1-18.612 18.613Z" fill="#fff"/><path fill-rule="evenodd" clip-rule="evenodd" d="M308.969 244.394c-.309.124-.62.245-.933.36a34.573 34.573 0 0 1 20.424 20.425 34.567 34.567 0 0 1 20.424-20.425 34.567 34.567 0 0 1-20.424-20.424 34.573 34.573 0 0 1-19.491 20.064Zm.879.36a35.244 35.244 0 0 1 18.612 18.613 35.246 35.246 0 0 1 18.613-18.613 35.24 35.24 0 0 1-18.613-18.612 35.239 35.239 0 0 1-18.612 18.612Z" fill="#FDD503"/><path d="M93.75 187.5h93.75v93.75H93.75V187.5Z" fill="#000"/><path d="M93.75 281.25v-49.888l37.165-43.862H187.5v93.75H93.75Z" fill="#236967"/><path d="M93.84 231.47a46.875 46.875 0 1 0 36.341-42.792l.73 3.193a43.603 43.603 0 0 1 46.982 19.875 43.598 43.598 0 0 1-53.563 63.069 43.599 43.599 0 0 1-27.221-43.142l-3.269-.203Z" fill="#FDE9D4"/><path d="M103.866 232.092a36.832 36.832 0 0 0 64.832 26.124 36.827 36.827 0 0 0 3.408-42.957 36.827 36.827 0 0 0-39.687-16.789l.574 2.509a34.255 34.255 0 0 1 41.782 36.106 34.254 34.254 0 0 1-46.953 29.064 34.254 34.254 0 0 1-21.388-33.897l-2.568-.16Z" fill="#FE7167"/><path d="M113.89 232.715a26.787 26.787 0 0 0 53.436 3.779 26.78 26.78 0 0 0-16.266-26.788 26.775 26.775 0 0 0-16.403-1.443l.417 1.824a24.914 24.914 0 1 1-19.316 22.744l-1.868-.116Z" fill="#FDE9D4"/><path d="M0 187.5h93.75v93.75H0V187.5Z" fill="#FFCC1A"/><path d="M40.178 256.473c0 9.246-7.495 16.741-16.74 16.741-9.246 0-16.742-7.495-16.742-16.741 0-9.246 7.495-16.741 16.741-16.741 9.246 0 16.741 7.495 16.741 16.741Z" fill="#FC8B4C"/><path d="M93.75 231.362v49.888H0l93.75-49.888Z" fill="#236967"/><path d="M23.438 187.5a39.67 39.67 0 0 0 23.437 23.438 39.67 39.67 0 0 0-23.438 23.437A39.67 39.67 0 0 0 0 210.938 39.67 39.67 0 0 0 23.438 187.5Zm46.875 0a39.67 39.67 0 0 0 23.437 23.438 39.67 39.67 0 0 0-23.438 23.437 39.67 39.67 0 0 0-23.437-23.437A39.67 39.67 0 0 0 70.313 187.5Z" fill="#fff"/><path d="M23.437 200.893a17.001 17.001 0 0 0 10.045 10.045 17.002 17.002 0 0 0-10.045 10.044 17.002 17.002 0 0 0-10.044-10.044 17 17 0 0 0 10.044-10.045Z" fill="#236967"/><path d="M281.25 375H375v-93.75h-93.75V375Z" fill="#FE7167"/><path d="m328.126 311.384-20.09 33.482h40.179l-20.089-33.482Z" fill="#fff"/><path d="M319.42 375h17.411v-30.134H319.42V375Zm15.402-80.357a6.697 6.697 0 1 0-13.394 0 6.697 6.697 0 0 0 13.394 0Zm20.088 0a6.696 6.696 0 1 0-13.393-.001 6.696 6.696 0 0 0 13.393.001Zm-40.178 0a6.697 6.697 0 1 0-13.393 0 6.697 6.697 0 0 0 13.393 0Z" fill="#000"/><path d="M187.5 281.25h93.75V375H187.5v-93.75Z" fill="#FDD503"/><path d="m191.458 292.31 7.103-7.103 28.41 28.411-7.102 7.103-28.411-28.411Z" fill="#fff"/><path d="m198.561 320.721-7.103-7.103 28.41-28.411 7.103 7.103-28.41 28.411Zm-7.103 21.714 7.103-7.103 28.41 28.411-7.102 7.102-28.411-28.41Z" fill="#fff"/><path d="m198.561 370.845-7.103-7.102 28.41-28.411 7.103 7.103-28.41 28.41Zm43.021-78.535 7.103-7.103 28.41 28.411-7.102 7.103-28.411-28.411Z" fill="#fff"/><path d="m248.685 320.721-7.103-7.103 28.41-28.411 7.103 7.103-28.41 28.411Zm-7.103 21.714 7.103-7.103 28.41 28.411-7.102 7.102-28.411-28.41Z" fill="#fff"/><path d="m248.685 370.845-7.103-7.102 28.41-28.411 7.103 7.103-28.41 28.41Z" fill="#fff"/><path d="M187.5 328.125a46.88 46.88 0 0 1-13.729 33.146 46.88 46.88 0 0 1-66.292 0 46.877 46.877 0 0 1-13.729-33.146h93.75Z" fill="#FC8B4C"/><path d="M140.625 304.688c0 12.944-10.493 23.437-23.437 23.437-12.945 0-23.438-10.493-23.438-23.437 0-12.945 10.493-23.438 23.438-23.438 12.944 0 23.437 10.493 23.437 23.438Z" fill="#FFCC1A"/><path d="M187.5 304.688c0 12.944-10.493 23.437-23.438 23.437-12.944 0-23.437-10.493-23.437-23.437 0-12.945 10.493-23.438 23.437-23.438 12.945 0 23.438 10.493 23.438 23.438Z" fill="#236967"/><path d="M187.5 23.438c0 12.944-10.493 23.437-23.438 23.437-12.944 0-23.437-10.493-23.437-23.438C140.625 10.493 151.118 0 164.062 0 177.007 0 187.5 10.493 187.5 23.438Z" fill="#FFCC1A"/><path d="M187.5 70.313c0 12.944-10.493 23.437-23.438 23.437-12.944 0-23.437-10.493-23.437-23.438 0-12.944 10.493-23.437 23.437-23.437 12.945 0 23.438 10.493 23.438 23.438Z" fill="#236967"/><path d="M140.625 70.313c0 12.944-10.493 23.437-23.437 23.437-12.945 0-23.438-10.493-23.438-23.438 0-12.944 10.493-23.437 23.438-23.437 12.944 0 23.437 10.493 23.437 23.438Z" fill="#FC8B4C"/><path fill-rule="evenodd" clip-rule="evenodd" d="M117.188 88.393c9.985 0 18.08-8.095 18.08-18.08 0-9.986-8.095-18.08-18.08-18.08-9.986 0-18.08 8.094-18.08 18.08 0 9.985 8.094 18.08 18.08 18.08Zm0 5.357c12.944 0 23.437-10.493 23.437-23.438 0-12.944-10.493-23.437-23.437-23.437-12.945 0-23.438 10.493-23.438 23.438 0 12.944 10.493 23.437 23.438 23.437Z" fill="#000"/><path fill-rule="evenodd" clip-rule="evenodd" d="M35.49 306.027c6.658 0 12.054-5.397 12.054-12.054s-5.396-12.053-12.053-12.053c-6.657 0-12.054 5.396-12.054 12.053 0 6.657 5.397 12.054 12.054 12.054Zm0 .669c7.028 0 12.724-5.696 12.724-12.723 0-7.027-5.696-12.723-12.723-12.723-7.027 0-12.723 5.696-12.723 12.723 0 7.027 5.696 12.723 12.723 12.723Z" fill="#236967"/><path fill-rule="evenodd" clip-rule="evenodd" d="M58.258 306.027c6.657 0 12.054-5.397 12.054-12.054s-5.397-12.053-12.054-12.053-12.053 5.396-12.053 12.053c0 6.657 5.396 12.054 12.053 12.054Zm0 .669c7.027 0 12.724-5.696 12.724-12.723 0-7.027-5.697-12.723-12.724-12.723s-12.723 5.696-12.723 12.723c0 7.027 5.697 12.723 12.723 12.723Z" fill="#236967"/><path fill-rule="evenodd" clip-rule="evenodd" d="M81.027 306.027c6.657 0 12.053-5.397 12.053-12.054s-5.396-12.053-12.053-12.053c-6.657 0-12.054 5.396-12.054 12.053 0 6.657 5.397 12.054 12.054 12.054Zm0 .669c7.027 0 12.723-5.696 12.723-12.723 0-7.027-5.696-12.723-12.723-12.723-7.027 0-12.723 5.696-12.723 12.723 0 7.027 5.696 12.723 12.723 12.723Z" fill="#236967"/><path fill-rule="evenodd" clip-rule="evenodd" d="M81.027 328.795c6.657 0 12.053-5.397 12.053-12.054s-5.396-12.054-12.053-12.054c-6.657 0-12.054 5.397-12.054 12.054s5.397 12.054 12.054 12.054Zm0 .669c7.027 0 12.723-5.696 12.723-12.723 0-7.027-5.696-12.723-12.723-12.723-7.027 0-12.723 5.696-12.723 12.723 0 7.027 5.696 12.723 12.723 12.723Z" fill="#236967"/><path fill-rule="evenodd" clip-rule="evenodd" d="M58.258 328.795c6.657 0 12.054-5.397 12.054-12.054s-5.397-12.054-12.054-12.054-12.053 5.397-12.053 12.054 5.396 12.054 12.053 12.054Zm0 .669c7.027 0 12.724-5.696 12.724-12.723 0-7.027-5.697-12.723-12.724-12.723s-12.723 5.696-12.723 12.723c0 7.027 5.697 12.723 12.723 12.723Zm22.769 22.768c6.657 0 12.053-5.396 12.053-12.053 0-6.657-5.396-12.054-12.053-12.054-6.657 0-12.054 5.397-12.054 12.054s5.397 12.053 12.054 12.053Zm0 .67c7.027 0 12.723-5.697 12.723-12.723 0-7.027-5.696-12.724-12.723-12.724-7.027 0-12.723 5.697-12.723 12.724 0 7.026 5.696 12.723 12.723 12.723Z" fill="#236967"/><path fill-rule="evenodd" clip-rule="evenodd" d="m280.834 57.416 70.308 34.458 26.438 94.907-5.16 1.438-25.794-92.593-64.96-31.837-37.168 32.277-55.339 22.336-56.172 70.797-37.512 44.271-86.147 47.448c-.396.218-.84.332-1.292.332H0v-5.357h7.347l84.678-46.64 36.819-43.452 56.997-71.837 55.821-22.53 39.172-34.018Z" fill="#000"/></g><defs><clipPath id="a"><path fill="#fff" d="M0 0h375v375H0z"/></clipPath></defs></svg>