<svg width="103" height="89" viewBox="0 0 103 89" fill="none" xmlns="http://www.w3.org/2000/svg">
<path d="M98.7854 88.4751C98.9822 88.6689 99.2988 88.6664 99.4925 88.4696L102.649 85.2628C102.843 85.066 102.841 84.7494 102.644 84.5557C102.447 84.3619 102.13 84.3644 101.937 84.5612L99.1306 87.4117L96.2801 84.6056C96.0833 84.4119 95.7667 84.4144 95.573 84.6111C95.3793 84.8079 95.3818 85.1245 95.5785 85.3182L98.7854 88.4751ZM0.65777 1.23063C46.9235 1.59494 98.2104 33.8465 98.6362 88.1228L99.6361 88.1149C99.2045 33.0955 47.2567 0.597529 0.665644 0.230661L0.65777 1.23063Z" fill="#676767"/>
</svg>
