<svg width="20" height="20" viewBox="0 0 20 20" fill="none" xmlns="http://www.w3.org/2000/svg">
<path fill-rule="evenodd" clip-rule="evenodd" d="M0.166504 10.0001C0.166504 4.56928 4.56904 0.166748 9.99984 0.166748C15.4306 0.166748 19.8332 4.56928 19.8332 10.0001C19.8332 15.4309 15.4306 19.8334 9.99984 19.8334C4.56904 19.8334 0.166504 15.4309 0.166504 10.0001ZM9.99984 1.16675C5.12132 1.16675 1.1665 5.12157 1.1665 10.0001C1.1665 14.7108 4.85394 18.5603 9.49984 18.8195V11.8334H6.6665V10.8334H9.49984V8.66675C9.49984 6.91785 10.9176 5.50008 12.6665 5.50008H13.3332V6.50008H12.6665C11.4699 6.50008 10.4998 7.47013 10.4998 8.66675V10.8334H13.3332V11.8334H10.4998V18.8195C15.1457 18.5603 18.8332 14.7108 18.8332 10.0001C18.8332 5.12157 14.8784 1.16675 9.99984 1.16675Z" fill="black"/>
</svg>
