<svg width="20" height="20" viewBox="0 0 20 20" fill="none" xmlns="http://www.w3.org/2000/svg">
<path fill-rule="evenodd" clip-rule="evenodd" d="M0.166504 6.00008C0.166504 2.77842 2.77818 0.166748 5.99984 0.166748H13.9998C17.2215 0.166748 19.8332 2.77842 19.8332 6.00008V14.0001C19.8332 17.2217 17.2215 19.8334 13.9998 19.8334H5.99984C2.77818 19.8334 0.166504 17.2217 0.166504 14.0001V6.00008ZM5.99984 1.16675C3.33046 1.16675 1.1665 3.3307 1.1665 6.00008V14.0001C1.1665 16.6695 3.33046 18.8334 5.99984 18.8334H13.9998C16.6692 18.8334 18.8332 16.6695 18.8332 14.0001V6.00008C18.8332 3.33071 16.6692 1.16675 13.9998 1.16675H5.99984ZM15.9998 5.16675H14.6665V4.16675H15.9998V5.16675ZM5.49984 10.0001C5.49984 7.5148 7.51456 5.50008 9.99984 5.50008C12.4851 5.50008 14.4998 7.5148 14.4998 10.0001C14.4998 12.4854 12.4851 14.5001 9.99984 14.5001C7.51456 14.5001 5.49984 12.4854 5.49984 10.0001ZM9.99984 6.50008C8.06684 6.50008 6.49984 8.06708 6.49984 10.0001C6.49984 11.9331 8.06684 13.5001 9.99984 13.5001C11.9328 13.5001 13.4998 11.9331 13.4998 10.0001C13.4998 8.06708 11.9328 6.50008 9.99984 6.50008Z" fill="black"/>
</svg>
