<svg width="20" height="20" viewBox="0 0 20 20" fill="none" xmlns="http://www.w3.org/2000/svg">
<path fill-rule="evenodd" clip-rule="evenodd" d="M0.166518 10.0001C0.166518 4.56928 4.56905 0.166748 9.99985 0.166748C15.4306 0.166748 19.8332 4.56928 19.8332 10.0001C19.8332 15.4309 15.4306 19.8334 9.99985 19.8334C7.89833 19.8334 5.9496 19.1736 4.3512 18.0501L0.890125 19.7806C0.69763 19.8769 0.465144 19.8391 0.312964 19.687C0.160784 19.5348 0.123057 19.3023 0.219304 19.1098L1.94984 15.6487C0.826298 14.0503 0.166518 12.1016 0.166518 10.0001ZM9.99985 1.16675C5.12134 1.16675 1.16652 5.12157 1.16652 10.0001C1.16652 11.9895 1.82356 13.8239 2.93267 15.3003L3.11844 15.5476L1.78455 18.2154L4.45234 16.8815L4.69962 17.0673C6.176 18.1764 8.01047 18.8334 9.99985 18.8334C14.8784 18.8334 18.8332 14.8786 18.8332 10.0001C18.8332 5.12157 14.8784 1.16675 9.99985 1.16675ZM7.84566 6.783C7.74625 6.18652 7.06457 5.89119 6.56142 6.22663L6.49985 6.26767V7.33341C6.49985 8.02006 6.61208 8.6805 6.81919 9.29738L7.67184 8.72894C7.9447 8.54704 8.0855 8.22203 8.03159 7.89856L7.84566 6.783ZM7.2216 10.231L8.22655 9.56099C8.82682 9.16081 9.13659 8.44578 9.01798 7.73416L8.83206 6.6186C8.61334 5.30633 7.11365 4.65662 6.00672 5.39458L5.7225 5.58406C5.5834 5.67679 5.49985 5.8329 5.49985 6.00008V7.33341C5.49985 11.2915 8.70848 14.5001 12.6665 14.5001H13.9998C14.167 14.5001 14.3231 14.4165 14.4159 14.2774L14.6054 13.9932C15.3433 12.8863 14.6936 11.3866 13.3813 11.1679L12.2658 10.9819C11.5541 10.8633 10.8391 11.1731 10.4389 11.7734L9.76898 12.7783C8.68762 12.2017 7.79825 11.3123 7.2216 10.231ZM10.7026 13.1807C11.3194 13.3879 11.9799 13.5001 12.6665 13.5001H13.7323L13.7733 13.4385C14.1087 12.9354 13.8134 12.2537 13.2169 12.1543L12.1014 11.9683C11.7779 11.9144 11.4529 12.0552 11.271 12.3281L10.7026 13.1807Z" fill="black"/>
</svg>
