<svg width="120" height="33" viewBox="0 0 120 33" fill="none" xmlns="http://www.w3.org/2000/svg">
<path d="M15.9566 13.2137H7.54406V0.175903H0.124924V32.4393H7.54406V19.4429H15.9359L13.9388 16.349L15.9566 13.2137Z" fill="#1E468A" fill-opacity="0.4"/>
<path d="M38.9073 32.4393V0.175903H31.4881V32.4393H38.9073Z" fill="#1E468A" fill-opacity="0.4"/>
<path d="M53.3523 0.175903V32.4393H60.7301V0.175903H53.3523Z" fill="#1E468A" fill-opacity="0.4"/>
<path d="M73.2506 16.349L83.7119 0.175903H92.0933L81.6838 16.349L92.0933 32.4393H83.6084L73.2506 16.349Z" fill="#1E468A" fill-opacity="0.4"/>
<path d="M39.9731 32.4393H31.4881L52.359 0.175903H60.7301L39.9731 32.4393Z" fill="#1E468A"/>
<path d="M10.5345 16.349L20.9958 0.175903H29.3669L18.9573 16.349L29.3669 32.4393H27.2457H25.1244H23.0032H20.882L10.5345 16.349Z" fill="#1E468A"/>
<path d="M81.6837 16.349L71.2224 0.175903H62.8513L73.2505 16.349L62.8513 32.4393H64.9726H67.0938H69.2047H71.3259L81.6837 16.349Z" fill="#1E468A"/>
<path d="M105.617 0C102.906 0 100.827 1.69699 100.351 4.17003H98.9847V0.175907H96.6462V10.3371H98.9847V6.19814H100.32C100.744 8.74362 102.865 10.513 105.617 10.513C108.711 10.513 110.988 8.28833 110.988 5.25652C110.988 2.22471 108.711 0 105.617 0ZM105.617 8.50563C103.931 8.50563 102.627 7.20184 102.627 5.25652C102.627 3.31119 103.931 2.00741 105.617 2.00741C107.304 2.00741 108.608 3.31119 108.608 5.25652C108.608 7.20184 107.304 8.50563 105.617 8.50563ZM120 0.175907H112.83V10.3371H115.168L115.158 2.09019H119.99L120 0.175907Z" fill="#1E468A"/>
</svg>
