<svg width="322" height="282" viewBox="0 0 322 282" fill="none" xmlns="http://www.w3.org/2000/svg">
<path d="M322 242C322 234.089 319.654 226.355 315.259 219.777C310.864 213.199 304.616 208.072 297.307 205.045C289.998 202.017 281.956 201.225 274.196 202.769C266.437 204.312 259.31 208.122 253.716 213.716C248.122 219.31 244.312 226.437 242.769 234.196C241.225 241.956 242.017 249.998 245.045 257.307C248.072 264.616 253.199 270.864 259.777 275.259C266.355 279.654 274.089 282 282 282V242H322Z" fill="#FFCC1A"/>
<circle cx="24.5" cy="54.5" r="24.5" transform="rotate(-90 24.5 54.5)" fill="#FC8B4C"/>
<circle cx="54" cy="18" r="5" fill="#236967"/>
<circle cx="90.5" cy="21.5" r="3.5" fill="#FFCC1A"/>
<circle cx="109" cy="2" r="2" fill="#038192"/>
</svg>
