<svg width="83" height="38" fill="none" xmlns="http://www.w3.org/2000/svg"><path fill-rule="evenodd" clip-rule="evenodd" d="M61.063.463h6.26V11.68l7.936-7.932 4.425 4.424-7.935 7.931h11.222v6.256H71.75l7.935 7.932-4.426 4.423-7.935-7.931v11.216h-6.26V26.783l-7.935 7.931-4.426-4.423 7.936-7.932H45.415v-6.256h11.222l-7.935-7.93 4.426-4.425 7.935 7.932V.463Zm-45.067 0h6.26v11.218l7.935-7.932 4.426 4.424-7.935 7.93h11.222v6.257H26.68l7.936 7.931-4.426 4.424-7.936-7.932V38h-6.26V26.784l-7.934 7.93-4.426-4.423 7.935-7.931H.348v-6.256H11.57L3.635 8.173 8.06 3.749l7.935 7.931V.464Z" fill="#FFCC1A"/></svg>