<svg width="335" height="254" fill="none" xmlns="http://www.w3.org/2000/svg"><path fill-rule="evenodd" clip-rule="evenodd" d="M146.471 184.675H3.754a.753.753 0 1 0 0 1.507H146.47a.753.753 0 1 0 0-1.507Zm-142.717-3a3.754 3.754 0 0 0 0 7.507H146.47a3.753 3.753 0 1 0 0-7.507H3.754Zm142.717 33.029H3.754a.753.753 0 1 0 0 1.507H146.47a.753.753 0 1 0 0-1.507Zm-142.717-3a3.754 3.754 0 0 0 0 7.507H146.47a3.753 3.753 0 1 0 0-7.507H3.754Zm0-12.015H146.47a.754.754 0 0 1 0 1.508H3.754a.754.754 0 0 1 0-1.508ZM0 200.443a3.754 3.754 0 0 1 3.754-3.754H146.47a3.754 3.754 0 0 1 0 7.508H3.754A3.754 3.754 0 0 1 0 200.443Z" fill="#000"/><rect x="-1.5" y="1.5" width="147.224" height="147.145" rx="58.5" transform="matrix(-1 0 0 1 332 53.301)" fill="#FFCC1A" stroke="#FFCC1A" stroke-width="3"/><rect x="-2.5" y="2.5" width="127.197" height="127.127" rx="47.5" transform="matrix(-1 0 0 1 320.986 62.31)" fill="#fff" stroke="#236967" stroke-width="5"/><path d="M87.882 49.923c0 20.109-16.31 36.41-36.43 36.41-20.119 0-36.429-16.301-36.429-36.41 0-20.109 16.31-36.41 36.43-36.41s36.43 16.301 36.43 36.41Zm-64.54 0c0 15.517 12.586 28.096 28.11 28.096 15.526 0 28.112-12.579 28.112-28.096S66.978 21.827 51.453 21.827 23.342 34.406 23.342 49.923Z" fill="#FC8B4C"/><ellipse cx="266.647" cy="227.469" rx="26.289" ry="26.275" fill="#FE7167"/><path fill-rule="evenodd" clip-rule="evenodd" d="M266.773 206.449h-6.26v11.216l-7.935-7.931-4.426 4.424 7.935 7.931h-11.222v6.256h11.223l-7.936 7.931 4.426 4.424 7.935-7.931v11.216h6.26v-11.217l7.935 7.932 4.426-4.424-7.935-7.931h11.222v-6.256h-11.222l7.935-7.931-4.426-4.424-7.935 7.932v-11.217Z" fill="#fff"/><path fill-rule="evenodd" clip-rule="evenodd" d="M150.976 37.536c10.37 0 18.778-8.403 18.778-18.768S161.346 0 150.976 0c-10.323 0-18.7 8.325-18.778 18.623C132.12 8.325 123.743 0 113.421 0 103.05 0 94.643 8.403 94.643 18.768c0 10.366 8.407 18.768 18.778 18.768 10.322 0 18.699-8.324 18.777-18.623.078 10.299 8.455 18.623 18.778 18.623Z" fill="#038192"/></svg>