<svg width="272" height="270" viewBox="0 0 272 270" fill="none" xmlns="http://www.w3.org/2000/svg">
<g clip-path="url(#clip0_4415_3799)">
<rect x="90.9648" y="90" width="90.5172" height="90" fill="#FDE9D4"/>
<path d="M178.896 180C178.896 130.295 138.085 90.0002 88.3792 90.0002V180H178.896Z" fill="#FE7167"/>
<path d="M133.637 135C133.637 110.147 113.231 90.0002 88.3781 90.0002V180C113.231 180 133.637 159.853 133.637 135Z" fill="black"/>
<rect width="32.2354" height="32.2354" transform="matrix(-0.70913 -0.705078 -0.70913 0.705078 149.801 135)" fill="white"/>
<ellipse rx="4.52586" ry="4.5" transform="matrix(-1 0 0 1 114.24 135)" fill="black"/>
</g>
<path d="M0.449219 90C0.449219 40.2944 41.2608 0 90.9665 0V90H0.449219Z" fill="#FE7167"/>
<path d="M16.454 74.1428C17.9902 42.7015 43.5369 17.4454 75.036 15.9292V74.1428H16.454Z" fill="#FDE9D4" stroke="black" stroke-width="6"/>
<rect x="90.9648" y="180" width="90.5172" height="90" fill="black"/>
<rect width="9.67061" height="38.6824" transform="matrix(0.70913 -0.705078 0.70913 0.705078 91.5527 187.404)" fill="white"/>
<rect width="9.67061" height="38.6824" transform="matrix(-0.70913 -0.705078 0.70913 -0.705078 98.4102 214.678)" fill="white"/>
<path d="M136.223 230.143L157.559 270H114.887L136.223 230.143Z" fill="#FE7167"/>
<path d="M136.87 222.429C139.087 228.385 143.837 233.091 149.802 235.286C143.837 237.48 139.087 242.186 136.87 248.143C134.654 242.186 129.904 237.48 123.939 235.286C129.904 233.091 134.654 228.385 136.87 222.429Z" fill="#FDE9D4"/>
<rect x="90.9648" width="90.5172" height="90" fill="#FDE9D4"/>
<circle r="32.2354" transform="matrix(0.70913 -0.705078 0.70913 0.705078 149.154 57.8571)" fill="#FFCC1A"/>
<path d="M126.295 35.1287C120.233 41.1566 116.827 49.3323 116.827 57.8571C116.827 66.3819 120.233 74.5576 126.295 80.5855C132.358 86.6135 140.58 90 149.154 90C157.728 90 165.951 86.6135 172.013 80.5855L149.154 57.8571L126.295 35.1287Z" fill="black"/>
<path d="M146.569 90L181.482 53.3571V90H146.569Z" fill="#236967"/>
<g clip-path="url(#clip1_4415_3799)">
<rect x="0.449219" y="180" width="90" height="90.5172" transform="rotate(-90 0.449219 180)" fill="#FDE9D4"/>
<ellipse cx="93.5535" cy="167.169" rx="12.8313" ry="12.9051" transform="rotate(-90 93.5535 167.169)" fill="#FFCC1A"/>
<ellipse cx="93.5535" cy="145.482" rx="12.8313" ry="12.9051" transform="rotate(-90 93.5535 145.482)" fill="#FFCC1A"/>
<ellipse cx="93.5535" cy="123.795" rx="12.8313" ry="12.9051" transform="rotate(-90 93.5535 123.795)" fill="#FFCC1A"/>
<ellipse cx="93.5535" cy="102.831" rx="12.8313" ry="12.9051" transform="rotate(-90 93.5535 102.831)" fill="#FFCC1A"/>
<path d="M90.966 180C78.9627 180 67.451 175.259 58.9633 166.82C50.4757 158.381 45.7074 146.935 45.7074 135C45.7074 123.065 50.4757 111.619 58.9633 103.18C67.4509 94.7411 78.9627 90 90.966 90L90.966 98.2874C81.1732 98.2874 71.7816 102.155 64.8571 109.04C57.9326 115.925 54.0424 125.263 54.0424 135C54.0424 144.737 57.9326 154.075 64.8571 160.96C71.7816 167.845 81.1733 171.713 90.966 171.713V180Z" fill="#FFCC1A"/>
<ellipse cx="22.431" cy="135" rx="12.8571" ry="12.931" transform="rotate(-90 22.431 135)" fill="#FC8B4C"/>
</g>
<rect x="181.482" y="180" width="90.5172" height="90" fill="#236967"/>
<ellipse cx="227.064" cy="215.036" rx="19.7198" ry="19.6071" fill="#FFCC1A"/>
<ellipse cx="227.064" cy="234.964" rx="19.7198" ry="19.6071" fill="white"/>
<path d="M208.72 215.036C216.993 211.628 223.624 205.052 227.064 196.792C230.503 205.052 237.134 211.628 245.407 215.036C237.134 218.444 230.503 225.019 227.064 233.279C223.624 225.019 216.993 218.444 208.72 215.036Z" stroke="white"/>
<path d="M208.72 234.964C216.993 231.556 223.624 224.981 227.064 216.721C230.503 224.981 237.134 231.556 245.407 234.964C237.134 238.373 230.503 244.948 227.064 253.208C223.624 244.948 216.993 238.373 208.72 234.964Z" stroke="#FDD503"/>
<path d="M181.482 90C184.808 98.9349 191.932 105.994 200.879 109.286C191.932 112.578 184.808 119.637 181.482 128.571C178.157 119.637 171.033 112.578 162.086 109.286C171.033 105.994 178.157 98.9349 181.482 90Z" fill="#FFCC1A"/>
<g clip-path="url(#clip2_4415_3799)">
<rect x="181.482" y="90.0002" width="90.5172" height="90" fill="#FFCC1A"/>
<ellipse cx="194.387" cy="179.974" rx="12.9051" ry="12.8313" fill="#FDE9D4"/>
<ellipse cx="216.2" cy="179.974" rx="12.9051" ry="12.8313" fill="#FDE9D4"/>
<ellipse cx="238.011" cy="179.974" rx="12.9051" ry="12.8313" fill="#FDE9D4"/>
<ellipse cx="259.095" cy="179.974" rx="12.9051" ry="12.8313" fill="#FDE9D4"/>
<path d="M181.483 180C181.483 168.065 186.251 156.619 194.739 148.18C203.226 139.741 214.738 135 226.741 135C238.745 135 250.256 139.741 258.744 148.18C267.232 156.619 272 168.065 272 180L263.665 180C263.665 170.263 259.775 160.925 252.85 154.04C245.926 147.155 236.534 143.287 226.741 143.287C216.949 143.287 207.557 147.155 200.632 154.04C193.708 160.925 189.818 170.263 189.818 180H181.483Z" fill="#FDE9D4"/>
<ellipse cx="226.742" cy="111.857" rx="12.931" ry="12.8571" fill="#FC8B4C"/>
</g>
<rect x="181.482" width="90.5172" height="90" fill="#FC8B4C"/>
<rect x="224.047" y="28.9286" width="5.38794" height="32.1429" fill="white"/>
<rect width="5.37256" height="32.2354" transform="matrix(0.70913 -0.705077 0.70913 0.705077 213.408 35.5299)" fill="white"/>
<rect width="5.37256" height="32.2353" transform="matrix(-0.70913 -0.705078 -0.70913 0.705078 240.076 35.5299)" fill="white"/>
<rect x="210.578" y="47.6785" width="5.35714" height="32.3275" transform="rotate(-90 210.578 47.6785)" fill="white"/>
<ellipse rx="3.23277" ry="3.21428" transform="matrix(-1 0 0 1 226.742 77.1429)" fill="white"/>
<ellipse rx="3.23276" ry="3.21429" transform="matrix(-1 0 0 1 259.068 45)" fill="white"/>
<ellipse rx="3.23276" ry="3.21429" transform="matrix(-1 0 0 1 194.414 45)" fill="white"/>
<ellipse rx="3.23277" ry="3.21429" transform="matrix(-1 0 0 1 226.742 12.8572)" fill="white"/>
<path d="M225.448 90L181.482 53.3571V90H225.448Z" fill="#236967"/>
<defs>
<clipPath id="clip0_4415_3799">
<rect width="90.5172" height="90" fill="white" transform="translate(90.9648 90)"/>
</clipPath>
<clipPath id="clip1_4415_3799">
<rect width="90" height="90.5172" fill="white" transform="translate(0.449219 180) rotate(-90)"/>
</clipPath>
<clipPath id="clip2_4415_3799">
<rect width="90.5172" height="90" fill="white" transform="translate(181.482 90)"/>
</clipPath>
</defs>
</svg>
