<svg width="361" height="246" viewBox="0 0 361 246" fill="none" xmlns="http://www.w3.org/2000/svg">
<path fill-rule="evenodd" clip-rule="evenodd" d="M128.687 196.231C124.421 207.76 115.332 216.849 103.803 221.115C115.332 225.381 124.421 234.471 128.687 246C132.953 234.471 142.043 225.381 153.572 221.115C142.043 216.849 132.953 207.76 128.687 196.231ZM103.803 221.115C92.2743 216.849 83.1846 207.76 78.9186 196.231C74.6526 207.76 65.563 216.849 54.0342 221.115C65.563 225.381 74.6526 234.471 78.9186 246C83.1846 234.471 92.2743 225.381 103.803 221.115ZM178.456 196.231C174.19 207.76 165.101 216.85 153.572 221.116C165.101 225.382 174.19 234.471 178.456 246C182.722 234.471 191.812 225.382 203.341 221.116C191.812 216.85 182.722 207.76 178.456 196.231Z" fill="#FE7167"/>
<rect width="142.197" height="142.197" rx="50" transform="matrix(-1 0 0 1 142.196 49.0576)" fill="#FDE9D4"/>
<path fill-rule="evenodd" clip-rule="evenodd" d="M221.826 135.243H356.913C357.219 135.243 357.468 135.491 357.468 135.798C357.468 136.104 357.219 136.353 356.913 136.353H221.826C221.52 136.353 221.271 136.104 221.271 135.798C221.271 135.491 221.52 135.243 221.826 135.243ZM356.913 132.243C358.876 132.243 360.468 133.834 360.468 135.798C360.468 137.761 358.876 139.353 356.913 139.353H221.826C219.863 139.353 218.271 137.761 218.271 135.798C218.271 133.834 219.863 132.243 221.826 132.243H356.913ZM221.826 163.682H356.913C357.219 163.682 357.468 163.931 357.468 164.237C357.468 164.543 357.219 164.792 356.913 164.792H221.826C221.52 164.792 221.271 164.543 221.271 164.237C221.271 163.931 221.52 163.682 221.826 163.682ZM356.913 160.682C358.876 160.682 360.468 162.274 360.468 164.237C360.468 166.2 358.876 167.792 356.913 167.792H221.826C219.863 167.792 218.271 166.2 218.271 164.237C218.271 162.274 219.863 160.682 221.826 160.682H356.913ZM356.913 149.462H221.826C221.52 149.462 221.271 149.711 221.271 150.017C221.271 150.324 221.52 150.572 221.826 150.572H356.913C357.219 150.572 357.468 150.324 357.468 150.017C357.468 149.711 357.219 149.462 356.913 149.462ZM360.468 150.017C360.468 148.054 358.876 146.462 356.913 146.462H221.826C219.863 146.462 218.271 148.054 218.271 150.017C218.271 151.981 219.863 153.572 221.826 153.572H356.913C358.876 153.572 360.468 151.981 360.468 150.017Z" fill="#FFECA0"/>
<path fill-rule="evenodd" clip-rule="evenodd" d="M292.924 42.659C281.144 42.659 271.595 33.1094 271.595 21.3295C271.595 9.54953 281.144 0 292.924 0C304.704 0 314.254 9.54953 314.254 21.3295C314.254 33.1094 304.704 42.659 292.924 42.659ZM248.843 42.659C237.064 42.659 227.514 33.1094 227.514 21.3295C227.514 9.54953 237.064 0 248.843 0C260.623 0 270.173 9.54953 270.173 21.3295C270.173 33.1094 260.623 42.659 248.843 42.659ZM227.514 65.4104C227.514 77.1904 237.064 86.7399 248.843 86.7399C260.623 86.7399 270.173 77.1904 270.173 65.4104C270.173 53.6305 260.623 44.0809 248.843 44.0809C237.064 44.0809 227.514 53.6305 227.514 65.4104ZM292.924 86.7399C281.144 86.7399 271.595 77.1904 271.595 65.4104C271.595 53.6305 281.144 44.0809 292.924 44.0809C304.704 44.0809 314.254 53.6305 314.254 65.4104C314.254 77.1904 304.704 86.7399 292.924 86.7399ZM183.433 21.3295C183.433 33.1094 192.983 42.659 204.763 42.659C216.543 42.659 226.092 33.1094 226.092 21.3295C226.092 9.54953 216.543 0 204.763 0C192.983 0 183.433 9.54953 183.433 21.3295ZM160.682 42.659C148.902 42.659 139.352 33.1094 139.352 21.3295C139.352 9.54953 148.902 0 160.682 0C172.462 0 182.011 9.54953 182.011 21.3295C182.011 33.1094 172.462 42.659 160.682 42.659ZM183.433 65.4104C183.433 77.1904 192.983 86.7399 204.763 86.7399C216.543 86.7399 226.092 77.1904 226.092 65.4104C226.092 53.6305 216.543 44.0809 204.763 44.0809C192.983 44.0809 183.433 53.6305 183.433 65.4104ZM160.682 86.7399C148.902 86.7399 139.352 77.1904 139.352 65.4104C139.352 53.6305 148.902 44.0809 160.682 44.0809C172.462 44.0809 182.011 53.6305 182.011 65.4104C182.011 77.1904 172.462 86.7399 160.682 86.7399Z" fill="#236967"/>
</svg>
