<svg width="36" height="36" viewBox="0 0 36 36" fill="none" xmlns="http://www.w3.org/2000/svg">
<path d="M2.0293 23.6926C4.58635 30.0024 10.7729 34.4535 18.0001 34.4535C25.2272 34.4535 31.4137 30.0025 33.9709 23.6926H2.0293Z" fill="#1C2E7A"/>
<path d="M34.1965 22.0604H1.80505C1.68383 22.0604 1.56584 22.0468 1.45215 22.0215C1.63011 22.6362 1.84027 23.2374 2.08264 23.8218C2.16709 23.8289 2.25223 23.8334 2.33851 23.8334H33.6629C33.7491 23.8334 33.8343 23.8289 33.9187 23.8218C34.1612 23.2374 34.3713 22.6363 34.5492 22.0215C34.4357 22.0468 34.3176 22.0604 34.1965 22.0604Z" fill="#E9EFFF"/>
<path d="M19.0758 22.0604H1.80505C1.68383 22.0604 1.56584 22.0468 1.45215 22.0215C1.63011 22.6362 1.84027 23.2374 2.08264 23.8218C2.16709 23.8289 2.25223 23.8334 2.33851 23.8334H19.0758V22.0604Z" fill="#BEC8F7"/>
<path d="M33.6619 21.7484C34.2029 21.7484 34.6431 21.3083 34.6431 20.7674V12.7697C34.6121 12.6539 34.5797 12.5378 34.5465 12.4215C32.4662 5.24595 25.846 0 17.9998 0C10.1532 0 3.53269 5.24644 1.45277 12.4225C1.41959 12.5383 1.38731 12.6541 1.35645 12.7697V12.7697V20.7675C1.35645 21.3085 1.7966 21.7485 2.33752 21.7485H33.6619V21.7484Z" fill="#FF4155"/>
<path d="M19.1275 21.5689L19.909 19.574C19.9843 19.3818 19.9797 19.1667 19.8933 18.9793C19.5539 18.2434 19.6934 17.6419 19.9047 17.2346C20.0793 16.8982 19.9724 16.4853 19.6637 16.2654C18.0895 15.1442 18.5017 13.3166 18.7276 12.6345C18.7882 12.4517 18.7757 12.2525 18.6951 12.0775L16.8684 8.1112C16.8138 7.99265 16.7284 7.89154 16.6241 7.81321C15.5139 6.97987 15.7267 5.8008 15.9909 5.10892C16.1153 4.78295 16.0099 4.41381 15.7269 4.20984C14.1695 3.08737 14.5099 1.56039 14.8392 0.767971C14.9048 0.610049 14.9152 0.440455 14.8767 0.283447C8.43755 1.46273 3.24996 6.2219 1.45277 12.4225C1.41959 12.5384 1.38731 12.6542 1.35645 12.7698V12.7698V20.7676C1.35645 21.3086 1.7966 21.7486 2.33752 21.7486H19.0821C19.0902 21.6871 19.1049 21.6267 19.1275 21.5689Z" fill="#E80054"/>
<path d="M34.0503 10.9583V20.7674C34.0503 20.9813 33.8763 21.1552 33.6624 21.1552H2.33796C2.124 21.1552 1.94998 20.9812 1.94998 20.7674V10.9583C1.19067 12.901 0.773438 15.0151 0.773438 17.2267C0.773438 18.9114 1.01637 20.5391 1.46721 22.0779C1.71682 22.2443 2.01621 22.3415 2.33796 22.3415H33.6623C33.9841 22.3415 34.2835 22.2442 34.5331 22.0779C34.9839 20.539 35.2268 18.9113 35.2268 17.2266C35.2268 15.015 34.8096 12.9009 34.0503 10.9583Z" fill="#FF7186"/>
<path d="M2.33796 21.1551C2.12407 21.1551 1.94998 20.9811 1.94998 20.7673V10.9583C1.19067 12.9009 0.773438 15.0149 0.773438 17.2266C0.773438 18.9113 1.01637 20.539 1.46721 22.0779C1.71682 22.2443 2.01621 22.3414 2.33796 22.3414H19.0752V21.8478C19.0752 21.7523 19.0931 21.6576 19.128 21.5686L19.29 21.1552H2.33796V21.1551Z" fill="#FF4155"/>
<path d="M18.0008 17.0972C21.5339 17.0972 24.398 14.2331 24.398 10.7C24.398 7.16688 21.5339 4.30273 18.0008 4.30273C14.4677 4.30273 11.6035 7.16688 11.6035 10.7C11.6035 14.2331 14.4677 17.0972 18.0008 17.0972Z" fill="#E9EFFF"/>
<path d="M19.6647 16.2652C18.0905 15.1439 18.5027 13.3163 18.7286 12.6343C18.7892 12.4514 18.7767 12.2523 18.6961 12.0773L16.8694 8.11094C16.8148 7.99239 16.7294 7.89129 16.6251 7.81296C15.5149 6.97961 15.7277 5.80054 15.9919 5.10867C16.0536 4.94709 16.0587 4.77504 16.0138 4.61768C13.4536 5.45355 11.6035 7.86042 11.6035 10.6998C11.6035 14.2329 14.4676 17.0971 18.0008 17.0971C18.6921 17.0971 19.3576 16.987 19.9814 16.7841C19.9523 16.5813 19.842 16.3914 19.6647 16.2652Z" fill="#D3DCFB"/>
<path d="M20.4041 11.3589L17.2799 13.3563C16.7592 13.6892 16.0762 13.3152 16.0762 12.6971V8.70235C16.0762 8.08423 16.7592 7.71024 17.2799 8.04317L20.4041 10.0405C20.8854 10.3482 20.8854 11.0512 20.4041 11.3589Z" fill="#FF4155"/>
<path d="M17.6358 8.93638V10.2012C17.6358 10.8192 18.3189 11.1933 18.8397 10.8603L20.2629 9.95043L20.4042 10.0408C20.8855 10.3485 20.8855 11.0515 20.4042 11.3591L17.28 13.3565C16.7593 13.6894 16.0762 13.3154 16.0762 12.6973V8.7026C16.0762 8.08448 16.7592 7.71049 17.28 8.04342L17.7178 8.32333C17.665 8.51606 17.6358 8.72095 17.6358 8.93638Z" fill="#E80054"/>
<path d="M21.567 26.2347L21.569 26.233C21.5574 26.2311 21.5762 26.2344 21.5302 26.2273L21.5291 26.2279C21.1613 26.1748 20.5968 26.3039 20.0332 25.9753C19.7818 26.354 19.4861 26.651 19.2104 26.8651C18.8646 27.1336 18.4379 27.2794 17.9984 27.2794C17.559 27.2794 17.1322 27.1336 16.7865 26.8651C16.511 26.6511 16.2155 26.3543 15.9641 25.976C15.4179 26.2961 14.88 26.1755 14.4993 26.224C14.4993 26.224 14.4991 26.2238 14.499 26.2237C14.4537 26.2298 14.4483 26.2297 14.428 26.233L14.4314 26.236C13.6664 26.3726 13.0996 27.0604 13.0996 27.8575V30.0194C13.0996 30.3408 13.3602 30.6014 13.6817 30.6014H22.3152C22.6367 30.6014 22.8973 30.3408 22.8973 30.0194V27.8575C22.8973 27.0606 22.3314 26.3718 21.567 26.2347Z" fill="#73C3F9"/>
<path d="M14.9026 28.7823C14.9026 28.2046 15.2643 27.6949 15.8028 27.4858C16.2219 27.323 16.5619 27.1199 16.8382 26.9017C16.821 26.8893 16.8032 26.8779 16.7864 26.8649C16.511 26.6509 16.2154 26.3541 15.9641 25.9758C15.4179 26.2959 14.88 26.1752 14.4992 26.2238C14.4992 26.2238 14.499 26.2235 14.499 26.2235C14.4537 26.2296 14.4483 26.2294 14.428 26.2328L14.4314 26.2358C13.6664 26.3724 13.0996 27.0601 13.0996 27.8573V30.0192C13.0996 30.3406 13.3602 30.6012 13.6817 30.6012H14.9027V28.7823H14.9026Z" fill="#4FABF7"/>
<path d="M15.8984 26.0123C16.163 26.4401 16.4867 26.7713 16.7867 27.0043C17.1325 27.2728 17.5592 27.4186 17.9987 27.4186C18.4381 27.4186 18.8649 27.2728 19.2107 27.0043C19.5109 26.7711 19.8348 26.4397 20.0995 26.0115C19.9442 25.9305 19.7885 25.8169 19.6363 25.6568L19.6371 25.6559C19.3796 25.3851 19.3145 25.1677 19.1255 24.8379C18.4303 25.202 17.5866 25.2122 16.8719 24.8379C16.6733 25.1845 16.6132 25.3901 16.3603 25.6559L16.3611 25.6568C16.208 25.8179 16.0526 25.9315 15.8984 26.0123Z" fill="#FCAD6D"/>
<path d="M16.3603 25.6559L16.3611 25.6568C16.208 25.8179 16.0526 25.9316 15.8984 26.0123C16.1514 26.4213 16.458 26.7408 16.7466 26.9718C17.8327 26.1688 17.9987 25.1148 17.9987 25.1148L17.9984 25.1146C17.6137 25.1147 17.2269 25.0239 16.8719 24.8379C16.6733 25.1845 16.6132 25.3901 16.3603 25.6559Z" fill="#FD995B"/>
<path d="M17.5395 18.4595C16.162 18.6472 16.0311 19.4282 16.0305 19.7147C16.0303 19.7748 15.9971 19.8305 15.943 19.8568C15.2264 20.2054 15.6128 21.8853 15.6128 21.8853C15.6847 21.89 15.7927 21.9518 15.8488 21.979C15.8626 21.8934 15.8851 21.8091 15.9168 21.7276C15.941 21.6655 15.9711 21.6028 16.0089 21.5436C16.0744 21.4408 16.1042 21.3195 16.0954 21.1983C16.0696 20.8479 16.0494 20.1899 16.512 19.9817C16.904 19.8054 17.3847 19.9074 17.6913 20.0094C17.8904 20.0756 18.1061 20.0756 18.3052 20.0094C18.6118 19.9074 19.0926 19.8054 19.4845 19.9817C19.9458 20.1893 19.9268 20.8439 19.9014 21.1953C19.8925 21.3175 19.9215 21.44 19.9876 21.5435C20.0265 21.6047 20.0575 21.6695 20.082 21.7336C20.1125 21.8132 20.1342 21.8955 20.1476 21.979C20.2184 21.9447 20.3522 21.8747 20.4388 21.8869C20.4494 21.5196 20.4833 21.1236 20.4833 21.1236C20.8915 19.1244 19.0227 18.2574 17.5395 18.4595Z" fill="#A05838"/>
<path d="M18.0063 18.4316C17.8486 18.4297 17.692 18.4386 17.5395 18.4593C16.162 18.647 16.0311 19.428 16.0305 19.7146C16.0303 19.7747 15.9971 19.8304 15.943 19.8566C15.2264 20.2051 15.6128 21.8851 15.6128 21.8851C15.6847 21.8899 15.7927 21.9517 15.8488 21.9788C15.8626 21.8933 15.8851 21.809 15.9168 21.7275C15.941 21.6654 15.9711 21.6027 16.0089 21.5435C16.0744 21.4407 16.1042 21.3194 16.0954 21.1982C16.0696 20.8477 16.0494 20.1897 16.512 19.9815C16.9039 19.8052 17.3847 19.9073 17.6913 20.0092C17.7323 20.0229 17.7741 20.033 17.8162 20.041C17.8054 20.0168 17.7939 19.9927 17.7807 19.9686C17.301 19.0995 17.7595 18.6142 18.0063 18.4316Z" fill="#823C26"/>
<path d="M20.5614 21.9348C20.4541 21.8365 20.2404 21.8864 20.1479 21.9466C20.1682 22.0727 20.1693 22.2016 20.1519 22.3289L20.0428 23.1231C20.0428 23.1871 20.0408 23.25 20.0371 23.3116C20.303 23.3919 20.4351 23.1531 20.4574 22.9893C20.4669 22.9188 20.4826 22.8493 20.5043 22.7815C20.575 22.5606 20.8302 22.1812 20.5614 21.9348Z" fill="#FD995B"/>
<path d="M15.4358 21.9348C15.5431 21.8365 15.7568 21.8864 15.8492 21.9466C15.8289 22.0727 15.8278 22.2016 15.8453 22.3289L15.9543 23.1231C15.9543 23.1871 15.9564 23.25 15.96 23.3116C15.6941 23.3919 15.562 23.1531 15.5398 22.9893C15.5302 22.9188 15.5145 22.8493 15.4928 22.7815C15.4222 22.5606 15.167 22.1812 15.4358 21.9348Z" fill="#FD995B"/>
<path d="M20.1154 21.7011C20.0908 21.6371 20.0599 21.5723 20.0209 21.5111C19.9549 21.4075 19.9259 21.285 19.9347 21.1628C19.9602 20.8114 19.9466 20.1242 19.4852 19.9166C19.0933 19.7403 18.6126 19.8424 18.306 19.9443C18.1069 20.0105 17.8912 20.0105 17.6921 19.9443C17.3855 19.8424 16.9048 19.7403 16.5129 19.9166C16.0503 20.1247 16.0378 20.8153 16.0636 21.1659C16.0725 21.2871 16.0426 21.4084 15.9771 21.5112C15.9393 21.5704 15.9091 21.6331 15.885 21.6952C15.8066 21.8965 15.7837 22.1149 15.8131 22.3287L15.9222 23.1231C15.9222 24.2651 16.5318 25.0413 17.0503 25.4439C17.321 25.6541 17.655 25.7683 17.999 25.7683C18.3431 25.7683 18.6771 25.6541 18.9477 25.4439C19.4663 25.0413 20.0759 24.265 20.0759 23.1231L20.1849 22.3289C20.214 22.1171 20.1919 21.9009 20.1154 21.7011Z" fill="#F9BA8F"/>
<path d="M18.4108 25.444C17.8922 25.0414 17.2826 24.2651 17.2826 23.1232L17.1736 22.3289C17.1442 22.115 17.167 21.8966 17.2454 21.6953C17.2696 21.6333 17.2998 21.5705 17.3376 21.5113C17.4031 21.4085 17.433 21.2872 17.424 21.166C17.4001 20.8405 17.4097 20.2224 17.7815 19.9691C17.7514 19.9622 17.7215 19.9543 17.6921 19.9446C17.3855 19.8426 16.9048 19.7405 16.5129 19.9169C16.0503 20.125 16.0378 20.8156 16.0636 21.1661C16.0725 21.2873 16.0426 21.4086 15.9771 21.5114C15.9393 21.5707 15.9091 21.6334 15.885 21.6954C15.8066 21.8968 15.7837 22.1151 15.8131 22.3289L15.9222 23.1232C15.9222 24.2653 16.5318 25.0415 17.0503 25.4441C17.321 25.6543 17.655 25.7685 17.9991 25.7685C18.2366 25.7685 18.4688 25.7129 18.6793 25.61C18.585 25.5638 18.4945 25.5091 18.4108 25.444Z" fill="#FCAD6D"/>
<path d="M20.5078 28.8219V30.6012H21.6938C21.6938 30.6012 21.5909 29.0756 20.9315 28.6011C20.7547 28.4739 20.5078 28.6041 20.5078 28.8219Z" fill="#4FABF7"/>
<path d="M31.3621 26.2323L31.364 26.2305C31.3524 26.2286 31.3713 26.2319 31.3253 26.2248L31.3242 26.2255C30.9564 26.1724 30.392 26.3015 29.8283 25.9729C29.5768 26.3515 29.2812 26.6485 29.0055 26.8626C28.6597 27.1312 28.2329 27.277 27.7935 27.277C27.354 27.277 26.9273 27.1312 26.5815 26.8626C26.306 26.6487 26.0105 26.3519 25.7591 25.9736C25.2129 26.2937 24.6751 26.173 24.2942 26.2215L24.294 26.2212C24.2487 26.2274 24.2433 26.2272 24.223 26.2305L24.2263 26.2335C23.4613 26.3702 22.8945 27.0579 22.8945 27.8551V30.0169C22.8945 30.3384 23.1551 30.599 23.4766 30.599H32.1101C32.4316 30.599 32.6922 30.3384 32.6922 30.0169V27.8551C32.6924 27.0582 32.1264 26.3694 31.3621 26.2323Z" fill="#73C3F9"/>
<path d="M24.6977 28.7801C24.6977 28.2024 25.0593 27.6928 25.5978 27.4836C26.017 27.3208 26.357 27.1178 26.6333 26.8995C26.6161 26.8871 26.5982 26.8757 26.5815 26.8627C26.306 26.6487 26.0105 26.3519 25.7591 25.9736C25.2129 26.2937 24.675 26.173 24.2942 26.2216L24.294 26.2213C24.2487 26.2274 24.2433 26.2272 24.223 26.2306L24.2263 26.2336C23.4613 26.3703 22.8945 27.058 22.8945 27.8552V30.017C22.8945 30.3385 23.1551 30.5991 23.4766 30.5991H24.6976V28.7801H24.6977Z" fill="#4FABF7"/>
<path d="M25.6934 26.0101C25.9579 26.4379 26.2817 26.7691 26.5817 27.0021C26.9275 27.2706 27.3542 27.4164 27.7937 27.4164C28.2331 27.4164 28.6598 27.2706 29.0056 27.0021C29.3059 26.7689 29.6297 26.4375 29.8945 26.0092C29.7392 25.9283 29.5835 25.8147 29.4313 25.6546L29.4321 25.6537C29.1745 25.3829 29.1095 25.1655 28.9205 24.8357C28.2253 25.1998 27.3816 25.21 26.6669 24.8357C26.4683 25.1823 26.4082 25.3879 26.1553 25.6537L26.1561 25.6546C26.0029 25.8157 25.8476 25.9293 25.6934 26.0101Z" fill="#FCAD6D"/>
<path d="M26.1552 25.6538L26.156 25.6547C26.0029 25.8158 25.8476 25.9295 25.6934 26.0101C25.9463 26.4191 26.2529 26.7386 26.5415 26.9696C27.6276 26.1666 27.7936 25.1126 27.7936 25.1126L27.7933 25.1124C27.4086 25.1125 27.0218 25.0217 26.6668 24.8357C26.4682 25.1823 26.4081 25.3879 26.1552 25.6538Z" fill="#FD995B"/>
<path d="M27.3354 18.4573C25.9579 18.645 25.827 19.426 25.8264 19.7125C25.8262 19.7726 25.793 19.8283 25.7389 19.8546C25.0223 20.2032 25.4087 21.8831 25.4087 21.8831C25.4806 21.8879 25.5886 21.9497 25.6447 21.9769C25.6585 21.8913 25.681 21.8071 25.7127 21.7256C25.7369 21.6635 25.767 21.6008 25.8048 21.5416C25.8703 21.4388 25.9002 21.3175 25.8913 21.1962C25.8655 20.8458 25.8453 20.1878 26.3079 19.9796C26.6998 19.8033 27.1806 19.9054 27.4872 20.0073C27.6863 20.0736 27.902 20.0736 28.1011 20.0073C28.4077 19.9054 28.8885 19.8033 29.2804 19.9796C29.7417 20.1872 29.7227 20.8418 29.6973 21.1932C29.6884 21.3154 29.7174 21.4379 29.7835 21.5415C29.8224 21.6027 29.8534 21.6675 29.8779 21.7315C29.9084 21.8111 29.9301 21.8934 29.9435 21.9769C30.0143 21.9426 30.1481 21.8727 30.2347 21.8849C30.2453 21.5175 30.2792 21.1215 30.2792 21.1215C30.6874 19.1222 28.8186 18.2552 27.3354 18.4573Z" fill="#A05838"/>
<path d="M27.8012 18.4297C27.6435 18.4278 27.4869 18.4367 27.3344 18.4574C25.9569 18.6451 25.826 19.4261 25.8254 19.7126C25.8252 19.7727 25.792 19.8284 25.7379 19.8547C25.0214 20.2033 25.4077 21.8832 25.4077 21.8832C25.4797 21.888 25.5876 21.9498 25.6438 21.977C25.6576 21.8915 25.68 21.8071 25.7117 21.7257C25.7359 21.6636 25.766 21.6009 25.8038 21.5416C25.8693 21.4389 25.8991 21.3176 25.8903 21.1963C25.8645 20.8459 25.8443 20.1879 26.307 19.9797C26.6989 19.8034 27.1796 19.9055 27.4862 20.0074C27.5272 20.0211 27.569 20.0312 27.6111 20.0392C27.6004 20.015 27.5888 19.9908 27.5756 19.9668C27.096 19.0975 27.5545 18.6122 27.8012 18.4297Z" fill="#823C26"/>
<path d="M30.3563 21.9326C30.249 21.8343 30.0353 21.8842 29.9428 21.9444C29.9631 22.0705 29.9642 22.1994 29.9468 22.3267L29.8377 23.1209C29.8377 23.1849 29.8357 23.2478 29.832 23.3094C30.0979 23.3897 30.23 23.1509 30.2523 22.9871C30.2618 22.9166 30.2775 22.8471 30.2993 22.7793C30.3699 22.5584 30.6251 22.179 30.3563 21.9326Z" fill="#FD995B"/>
<path d="M25.2307 21.9326C25.338 21.8343 25.5517 21.8842 25.6442 21.9444C25.6239 22.0705 25.6228 22.1994 25.6402 22.3267L25.7493 23.1209C25.7493 23.1849 25.7513 23.2478 25.755 23.3094C25.4891 23.3897 25.357 23.1509 25.3347 22.9871C25.3252 22.9166 25.3095 22.8471 25.2878 22.7793C25.2171 22.5584 24.9619 22.179 25.2307 21.9326Z" fill="#FD995B"/>
<path d="M29.9094 21.6989C29.8849 21.6349 29.8539 21.5701 29.8149 21.5089C29.7489 21.4053 29.7198 21.2828 29.7287 21.1606C29.7542 20.8092 29.7405 20.122 29.2792 19.9144C28.8873 19.7381 28.4065 19.8402 28.1 19.9421C27.9009 20.0083 27.6851 20.0083 27.486 19.9421C27.1795 19.8402 26.6987 19.7381 26.3068 19.9144C25.8442 20.1225 25.8318 20.8131 25.8575 21.1637C25.8664 21.2849 25.8366 21.4062 25.771 21.509C25.7333 21.5682 25.703 21.6309 25.6789 21.693C25.6005 21.8943 25.5777 22.1127 25.6071 22.3265L25.7161 23.1209C25.7161 24.2629 26.3257 25.0391 26.8443 25.4418C27.1149 25.6519 27.449 25.7661 27.793 25.7661C28.137 25.7661 28.471 25.6519 28.7417 25.4418C29.2603 25.0391 29.8699 24.2628 29.8699 23.1209L29.9789 22.3267C30.008 22.1149 29.986 21.8987 29.9094 21.6989Z" fill="#F9BA8F"/>
<path d="M28.2047 25.4419C27.6862 25.0392 27.0766 24.263 27.0766 23.121L26.9675 22.3267C26.9381 22.1128 26.961 21.8944 27.0394 21.6931C27.0636 21.6311 27.0937 21.5683 27.1315 21.5091C27.197 21.4063 27.2269 21.285 27.218 21.1638C27.1941 20.8384 27.2036 20.2202 27.5754 19.9669C27.5454 19.96 27.5155 19.9521 27.486 19.9424C27.1794 19.8404 26.6987 19.7383 26.3068 19.9147C25.8442 20.1228 25.8318 20.8134 25.8575 21.1639C25.8664 21.2851 25.8366 21.4064 25.771 21.5092C25.7333 21.5685 25.703 21.6312 25.6789 21.6932C25.6005 21.8946 25.5777 22.113 25.6071 22.3267L25.7161 23.1211C25.7161 24.2631 26.3257 25.0393 26.8443 25.442C27.115 25.6522 27.449 25.7663 27.793 25.7663C28.0305 25.7663 28.2627 25.7107 28.4732 25.6079C28.3789 25.5617 28.2885 25.507 28.2047 25.4419Z" fill="#FCAD6D"/>
<path d="M30.3027 28.8198V30.599H31.4887C31.4887 30.599 31.3858 29.0734 30.7264 28.5989C30.5497 28.4717 30.3027 28.6019 30.3027 28.8198Z" fill="#4FABF7"/>
<path d="M11.7751 26.2347L11.777 26.233C11.7654 26.2311 11.7843 26.2344 11.7383 26.2273L11.7372 26.2279C11.3694 26.1748 10.805 26.3039 10.2413 25.9753C9.98991 26.354 9.69424 26.651 9.41855 26.8651C9.07275 27.1336 8.64602 27.2794 8.20657 27.2794C7.76712 27.2794 7.34039 27.1336 6.99459 26.8651C6.71911 26.6511 6.42359 26.3543 6.17222 25.976C5.62596 26.2961 5.08807 26.1755 4.70733 26.224C4.70733 26.224 4.70719 26.2238 4.70712 26.2237C4.66177 26.2298 4.65635 26.2297 4.6361 26.233L4.63941 26.236C3.87441 26.3726 3.30762 27.0604 3.30762 27.8575V30.0194C3.30762 30.3408 3.5682 30.6014 3.88966 30.6014H12.5232C12.8447 30.6014 13.1052 30.3408 13.1052 30.0194V27.8575C13.1054 27.0606 12.5395 26.3718 11.7751 26.2347Z" fill="#73C3F9"/>
<path d="M5.11078 28.7823C5.11078 28.2046 5.4724 27.6949 6.01092 27.4858C6.43005 27.323 6.77009 27.1199 7.04634 26.9017C7.02919 26.8893 7.01133 26.8779 6.99459 26.8649C6.71911 26.6509 6.42359 26.3541 6.17222 25.9758C5.62596 26.2959 5.08807 26.1752 4.70733 26.2238C4.70733 26.2238 4.70719 26.2235 4.70712 26.2235C4.66177 26.2296 4.65635 26.2294 4.6361 26.2328L4.63941 26.2358C3.87441 26.3724 3.30762 27.0601 3.30762 27.8573V30.0192C3.30762 30.3406 3.5682 30.6012 3.88966 30.6012H5.11071V28.7823H5.11078Z" fill="#4FABF7"/>
<path d="M6.10645 26.0123C6.37103 26.4401 6.69468 26.7713 6.9947 27.0043C7.3405 27.2728 7.76723 27.4186 8.20668 27.4186C8.64613 27.4186 9.07286 27.2728 9.41866 27.0043C9.71889 26.7711 10.0428 26.4397 10.3075 26.0115C10.1522 25.9305 9.99648 25.8169 9.84433 25.6568L9.8451 25.6559C9.58755 25.3851 9.52251 25.1677 9.33351 24.8379C8.63833 25.202 7.79458 25.2122 7.07992 24.8379C6.88129 25.1845 6.82117 25.3901 6.56833 25.6559L6.5691 25.6568C6.41596 25.8179 6.26057 25.9315 6.10645 26.0123Z" fill="#FCAD6D"/>
<path d="M6.56833 25.6559L6.5691 25.6568C6.41596 25.8179 6.26064 25.9316 6.10645 26.0123C6.35936 26.4213 6.66599 26.7408 6.95462 26.9718C8.04067 26.1688 8.20668 25.1148 8.20668 25.1148L8.2064 25.1146C7.82172 25.1147 7.43486 25.0239 7.07992 24.8379C6.88129 25.1845 6.82117 25.3901 6.56833 25.6559Z" fill="#FD995B"/>
<path d="M7.74752 18.4595C6.37003 18.6472 6.2391 19.4282 6.23847 19.7147C6.23833 19.7748 6.20507 19.8305 6.151 19.8568C5.43445 20.2054 5.82081 21.8853 5.82081 21.8853C5.89274 21.89 6.00067 21.9518 6.05685 21.979C6.07063 21.8934 6.09306 21.8091 6.12477 21.7276C6.14896 21.6655 6.17913 21.6028 6.21688 21.5436C6.28242 21.4408 6.31223 21.3195 6.30337 21.1983C6.27763 20.8479 6.25738 20.1899 6.72004 19.9817C7.11196 19.8054 7.59269 19.9074 7.89932 20.0094C8.09845 20.0756 8.3141 20.0756 8.51322 20.0094C8.81979 19.9074 9.30059 19.8054 9.69244 19.9817C10.1538 20.1893 10.1348 20.8439 10.1093 21.1953C10.1005 21.3175 10.1295 21.44 10.1955 21.5435C10.2345 21.6047 10.2654 21.6695 10.29 21.7336C10.3205 21.8132 10.3423 21.8955 10.3556 21.979C10.4264 21.9447 10.5602 21.8747 10.6468 21.8869C10.6574 21.5196 10.6913 21.1236 10.6913 21.1236C11.0996 19.1244 9.23069 18.2574 7.74752 18.4595Z" fill="#A05838"/>
<path d="M8.21429 18.4316C8.05658 18.4297 7.89993 18.4386 7.74749 18.4593C6.37 18.647 6.23908 19.428 6.23844 19.7146C6.2383 19.7747 6.20504 19.8304 6.15097 19.8566C5.43449 20.2051 5.82079 21.8851 5.82079 21.8851C5.89272 21.8899 6.00065 21.9517 6.05683 21.9788C6.07061 21.8933 6.09304 21.809 6.12475 21.7275C6.14893 21.6654 6.1791 21.6027 6.21686 21.5435C6.28239 21.4407 6.3122 21.3194 6.30334 21.1982C6.27761 20.8477 6.25736 20.1897 6.72001 19.9815C7.11194 19.8052 7.59266 19.9073 7.89929 20.0092C7.94029 20.0229 7.98205 20.033 8.02417 20.041C8.01341 20.0168 8.00188 19.9927 7.98859 19.9686C7.50899 19.0995 7.9675 18.6142 8.21429 18.4316Z" fill="#823C26"/>
<path d="M10.7694 21.9348C10.6621 21.8365 10.4485 21.8864 10.356 21.9466C10.3763 22.0727 10.3774 22.2016 10.3599 22.3289L10.2508 23.1231C10.2508 23.1871 10.2488 23.25 10.2451 23.3116C10.511 23.3919 10.6431 23.1531 10.6654 22.9893C10.6749 22.9188 10.6906 22.8493 10.7123 22.7815C10.7831 22.5606 11.0382 22.1812 10.7694 21.9348Z" fill="#FD995B"/>
<path d="M5.64388 21.9348C5.75118 21.8365 5.96486 21.8864 6.05732 21.9466C6.03707 22.0727 6.03594 22.2016 6.05338 22.3289L6.16243 23.1231C6.16243 23.1871 6.16447 23.25 6.16813 23.3116C5.90221 23.3919 5.77016 23.1531 5.74787 22.9893C5.73831 22.9188 5.72263 22.8493 5.7009 22.7815C5.63017 22.5606 5.37501 22.1812 5.64388 21.9348Z" fill="#FD995B"/>
<path d="M10.3235 21.7011C10.2989 21.6371 10.268 21.5723 10.229 21.5111C10.1629 21.4075 10.1339 21.285 10.1428 21.1628C10.1682 20.8114 10.1546 20.1242 9.69325 19.9166C9.30133 19.7403 8.82061 19.8424 8.51404 19.9443C8.31492 20.0105 8.0992 20.0105 7.90008 19.9443C7.59351 19.8424 7.11279 19.7403 6.72087 19.9166C6.25828 20.1247 6.24584 20.8153 6.27157 21.1659C6.2805 21.2871 6.25062 21.4084 6.18509 21.5112C6.14733 21.5704 6.11709 21.6331 6.09298 21.6952C6.01458 21.8965 5.99173 22.1149 6.02112 22.3287L6.13017 23.1231C6.13017 24.2651 6.73978 25.0413 7.25833 25.4439C7.52897 25.6541 7.86302 25.7683 8.20706 25.7683C8.5511 25.7683 8.88508 25.6541 9.15571 25.4439C9.67427 25.0413 10.2839 24.265 10.2839 23.1231L10.3929 22.3289C10.422 22.1171 10.4 21.9009 10.3235 21.7011Z" fill="#F9BA8F"/>
<path d="M8.61881 25.444C8.10026 25.0414 7.49065 24.2651 7.49065 23.1232L7.38159 22.3289C7.3522 22.115 7.37513 21.8966 7.45345 21.6953C7.47764 21.6333 7.5078 21.5705 7.54556 21.5113C7.61109 21.4085 7.64091 21.2872 7.63205 21.166C7.60814 20.8405 7.6177 20.2224 7.98952 19.9691C7.95942 19.9622 7.92954 19.9543 7.90008 19.9446C7.59352 19.8426 7.11279 19.7405 6.72087 19.9169C6.25828 20.125 6.24584 20.8156 6.27157 21.1661C6.2805 21.2873 6.25062 21.4086 6.18509 21.5114C6.14733 21.5707 6.11709 21.6334 6.09298 21.6954C6.01458 21.8968 5.99173 22.1151 6.02112 22.3289L6.13017 23.1232C6.13017 24.2653 6.73978 25.0415 7.25834 25.4441C7.52897 25.6543 7.86302 25.7685 8.20706 25.7685C8.44458 25.7685 8.67682 25.7129 8.88727 25.61C8.79305 25.5638 8.70263 25.5091 8.61881 25.444Z" fill="#FCAD6D"/>
<path d="M10.7158 28.8219V30.6012H11.9018C11.9018 30.6012 11.7989 29.0756 11.1395 28.6011C10.9628 28.4739 10.7158 28.6041 10.7158 28.8219Z" fill="#4FABF7"/>
<path d="M16.6012 31.6334L16.6031 31.6317C16.5915 31.6298 16.6104 31.6331 16.5644 31.626L16.5633 31.6266C16.1955 31.5735 15.6311 31.7026 15.0674 31.374C14.816 31.7527 14.5203 32.0497 14.2446 32.2638C13.8988 32.5323 13.4721 32.6781 13.0327 32.6781C12.5931 32.6781 12.1665 32.5323 11.8207 32.2638C11.5452 32.0498 11.2497 31.753 10.9983 31.3747C10.4521 31.6948 9.91424 31.5741 9.53343 31.6227C9.53343 31.6227 9.53329 31.6224 9.53322 31.6224C9.48787 31.6285 9.48245 31.6283 9.4622 31.6317L9.46558 31.6347C8.70058 31.7713 8.13379 32.459 8.13379 33.2562V35.4181C8.13379 35.7395 8.39437 36.0001 8.71584 36.0001H17.3494C17.6709 36.0001 17.9315 35.7395 17.9315 35.4181V33.2562C17.9315 32.4594 17.3656 31.7705 16.6012 31.6334Z" fill="#73C3F9"/>
<path d="M9.93689 34.181C9.93689 33.6033 10.2985 33.0936 10.837 32.8845C11.2562 32.7217 11.5962 32.5186 11.8725 32.3004C11.8553 32.2879 11.8374 32.2766 11.8207 32.2635C11.5452 32.0496 11.2497 31.7528 10.9983 31.3745C10.4521 31.6946 9.91418 31.5739 9.53343 31.6224C9.53343 31.6224 9.53329 31.6222 9.53322 31.6222C9.48787 31.6283 9.48246 31.6281 9.46221 31.6314L9.46558 31.6345C8.70058 31.7711 8.13379 32.4588 8.13379 33.256V35.4179C8.13379 35.7393 8.39437 35.9999 8.71584 35.9999H9.93689V34.181Z" fill="#4FABF7"/>
<path d="M10.9326 31.4109C11.1972 31.8388 11.5209 32.17 11.8209 32.403C12.1667 32.6715 12.5933 32.8173 13.0329 32.8173C13.4723 32.8173 13.899 32.6715 14.2448 32.403C14.5451 32.1698 14.8689 31.8384 15.1336 31.4102C14.9784 31.3292 14.8227 31.2156 14.6705 31.0555L14.6713 31.0546C14.4137 30.7838 14.3486 30.5663 14.1597 30.2366C13.4645 30.6007 12.6208 30.6109 11.9061 30.2366C11.7075 30.5832 11.6473 30.7887 11.3945 31.0546L11.3953 31.0555C11.2421 31.2165 11.0867 31.3302 10.9326 31.4109Z" fill="#FCAD6D"/>
<path d="M11.3945 31.0546L11.3953 31.0555C11.2421 31.2166 11.0868 31.3303 10.9326 31.411C11.1855 31.8199 11.4922 32.1395 11.7808 32.3705C12.8668 31.5675 13.0329 30.5135 13.0329 30.5135L13.0326 30.5133C12.6479 30.5134 12.2611 30.4225 11.9061 30.2366C11.7075 30.5832 11.6474 30.7887 11.3945 31.0546Z" fill="#FD995B"/>
<path d="M12.5737 23.8582C11.1962 24.0459 11.0653 24.8269 11.0646 25.1134C11.0645 25.1735 11.0312 25.2292 10.9772 25.2555C10.2606 25.6041 10.647 27.284 10.647 27.284C10.7189 27.2888 10.8268 27.3506 10.883 27.3778C10.8968 27.2922 10.9192 27.2079 10.9509 27.1264C10.9751 27.0643 11.0053 27.0016 11.0431 26.9424C11.1086 26.8396 11.1384 26.7183 11.1295 26.5971C11.1038 26.2466 11.0836 25.5887 11.5462 25.3805C11.9381 25.2041 12.4189 25.3062 12.7255 25.4082C12.9246 25.4744 13.1403 25.4744 13.3394 25.4082C13.646 25.3062 14.1268 25.2041 14.5186 25.3805C14.9799 25.588 14.9609 26.2427 14.9355 26.5941C14.9266 26.7163 14.9557 26.8388 15.0217 26.9424C15.0606 27.0036 15.0916 27.0684 15.1161 27.1324C15.1466 27.212 15.1684 27.2943 15.1817 27.3778C15.2525 27.3435 15.3863 27.2736 15.4729 27.2858C15.4835 26.9185 15.5174 26.5225 15.5174 26.5225C15.9257 24.523 14.0569 23.6561 12.5737 23.8582Z" fill="#A05838"/>
<path d="M13.0405 23.8306C12.8828 23.8287 12.7262 23.8375 12.5737 23.8583C11.1962 24.0459 11.0653 24.827 11.0646 25.1135C11.0645 25.1736 11.0312 25.2293 10.9772 25.2556C10.2606 25.6041 10.647 27.2841 10.647 27.2841C10.7189 27.2889 10.8268 27.3507 10.883 27.3778C10.8968 27.2923 10.9192 27.208 10.9509 27.1265C10.9751 27.0644 11.0053 27.0017 11.0431 26.9425C11.1086 26.8397 11.1384 26.7184 11.1295 26.5971C11.1038 26.2467 11.0836 25.5887 11.5462 25.3805C11.9381 25.2042 12.4189 25.3063 12.7255 25.4082C12.7665 25.4219 12.8082 25.432 12.8504 25.44C12.8396 25.4158 12.8281 25.3916 12.8149 25.3676C12.3352 24.4985 12.7937 24.0131 13.0405 23.8306Z" fill="#823C26"/>
<path d="M15.5955 27.3333C15.4882 27.235 15.2746 27.2848 15.1822 27.345C15.2024 27.4711 15.2035 27.6 15.186 27.7274L15.077 28.5216C15.077 28.5855 15.0749 28.6484 15.0713 28.7101C15.3372 28.7903 15.4693 28.5516 15.4916 28.3878C15.5011 28.3172 15.5168 28.2478 15.5385 28.1799C15.6092 27.9591 15.8644 27.5797 15.5955 27.3333Z" fill="#FD995B"/>
<path d="M10.47 27.3333C10.5773 27.235 10.791 27.2848 10.8834 27.345C10.8632 27.4711 10.8621 27.6 10.8795 27.7274L10.9886 28.5216C10.9886 28.5855 10.9906 28.6484 10.9943 28.7101C10.7284 28.7903 10.5963 28.5516 10.574 28.3878C10.5644 28.3172 10.5488 28.2478 10.527 28.1799C10.4564 27.9591 10.2012 27.5797 10.47 27.3333Z" fill="#FD995B"/>
<path d="M15.1496 27.0998C15.1251 27.0358 15.0942 26.9709 15.0551 26.9098C14.9891 26.8062 14.9601 26.6836 14.9689 26.5615C14.9944 26.2101 14.9807 25.5229 14.5194 25.3153C14.1275 25.1389 13.6468 25.241 13.3402 25.343C13.1411 25.4092 12.9254 25.4092 12.7262 25.343C12.4197 25.241 11.939 25.1389 11.547 25.3153C11.0845 25.5234 11.072 26.214 11.0977 26.5645C11.1067 26.6858 11.0768 26.807 11.0113 26.9098C10.9735 26.9691 10.9433 27.0318 10.9191 27.0938C10.8408 27.2952 10.8179 27.5135 10.8473 27.7274L10.9563 28.5218C10.9563 29.6638 11.566 30.44 12.0845 30.8426C12.3552 31.0528 12.6892 31.167 13.0332 31.167C13.3773 31.167 13.7113 31.0528 13.982 30.8426C14.5005 30.44 15.1101 29.6637 15.1101 28.5218L15.2192 27.7276C15.2482 27.5159 15.2262 27.2997 15.1496 27.0998Z" fill="#F9BA8F"/>
<path d="M13.445 30.8426C12.9264 30.4399 12.3168 29.6637 12.3168 28.5217L12.2078 27.7273C12.1784 27.5135 12.2013 27.2951 12.2796 27.0938C12.3038 27.0317 12.334 26.969 12.3717 26.9098C12.4373 26.807 12.4671 26.6857 12.4582 26.5645C12.4343 26.239 12.4439 25.6209 12.8157 25.3675C12.7856 25.3606 12.7557 25.3528 12.7263 25.343C12.4197 25.241 11.939 25.1389 11.547 25.3153C11.0845 25.5234 11.072 26.214 11.0977 26.5645C11.1067 26.6858 11.0768 26.807 11.0113 26.9098C10.9735 26.9691 10.9433 27.0318 10.9191 27.0938C10.8408 27.2952 10.8179 27.5135 10.8473 27.7274L10.9563 28.5218C10.9563 29.6638 11.566 30.44 12.0845 30.8427C12.3552 31.0529 12.6892 31.167 13.0332 31.167C13.2708 31.167 13.503 31.1114 13.7134 31.0086C13.6191 30.9623 13.5288 30.9077 13.445 30.8426Z" fill="#FCAD6D"/>
<path d="M15.542 34.2206V35.9999H16.728C16.728 35.9999 16.6251 34.4743 15.9657 33.9998C15.7889 33.8726 15.542 34.0028 15.542 34.2206Z" fill="#4FABF7"/>
<path d="M26.3962 31.631L26.3981 31.6292C26.3865 31.6273 26.4054 31.6306 26.3594 31.6235L26.3583 31.6241C25.9905 31.5711 25.4261 31.7002 24.8624 31.3716C24.6109 31.7502 24.3153 32.0472 24.0396 32.2613C23.6938 32.5298 23.267 32.6757 22.8276 32.6757C22.3881 32.6757 21.9614 32.5298 21.6156 32.2613C21.3401 32.0474 21.0446 31.7506 20.7932 31.3723C20.247 31.6923 19.7092 31.5717 19.3284 31.6202C19.3284 31.6202 19.3282 31.62 19.3281 31.6199C19.2828 31.626 19.2774 31.6259 19.2571 31.6292L19.2605 31.6322C18.4955 31.7688 17.9287 32.4566 17.9287 33.2538V35.4156C17.9287 35.7371 18.1893 35.9977 18.5108 35.9977H27.1443C27.4658 35.9977 27.7263 35.7371 27.7263 35.4156V33.2538C27.7265 32.457 27.1606 31.7681 26.3962 31.631Z" fill="#73C3F9"/>
<path d="M19.7318 34.179C19.7318 33.6013 20.0934 33.0916 20.6319 32.8825C21.0511 32.7197 21.3911 32.5167 21.6674 32.2984C21.6502 32.286 21.6324 32.2746 21.6156 32.2616C21.3401 32.0476 21.0446 31.7508 20.7932 31.3726C20.247 31.6926 19.7091 31.572 19.3284 31.6205C19.3284 31.6205 19.3281 31.6203 19.3281 31.6202C19.2828 31.6263 19.2774 31.6262 19.2571 31.6295L19.2605 31.6325C18.4955 31.7691 17.9287 32.4568 17.9287 33.2541V35.4159C17.9287 35.7374 18.1893 35.9979 18.5108 35.9979H19.7318V34.179Z" fill="#4FABF7"/>
<path d="M20.7275 31.4088C20.9921 31.8367 21.3158 32.1678 21.6159 32.4008C21.9617 32.6693 22.3884 32.8151 22.8278 32.8151C23.2673 32.8151 23.694 32.6693 24.0398 32.4008C24.3401 32.1676 24.6639 31.8362 24.9286 31.4079C24.7734 31.327 24.6176 31.2133 24.4655 31.0533L24.4663 31.0524C24.2087 30.7816 24.1437 30.5641 23.9547 30.2344C23.2595 30.5985 22.4157 30.6087 21.7011 30.2344C21.5025 30.5809 21.4423 30.7865 21.1895 31.0524L21.1903 31.0533C21.0371 31.2144 20.8817 31.3281 20.7275 31.4088Z" fill="#FCAD6D"/>
<path d="M21.1894 31.0526L21.1902 31.0536C21.0371 31.2146 20.8817 31.3283 20.7275 31.4091C20.9805 31.8179 21.2871 32.1376 21.5757 32.3685C22.6618 31.5656 22.8278 30.5115 22.8278 30.5115L22.8275 30.5114C22.4428 30.5114 22.056 30.4206 21.701 30.2346C21.5024 30.5812 21.4423 30.7867 21.1894 31.0526Z" fill="#FD995B"/>
<path d="M22.3686 23.856C20.9911 24.0437 20.8602 24.8247 20.8596 25.1112C20.8594 25.1713 20.8262 25.227 20.7721 25.2533C20.0555 25.6018 20.4419 27.2818 20.4419 27.2818C20.5138 27.2866 20.6218 27.3484 20.6779 27.3755C20.6917 27.29 20.7142 27.2057 20.7459 27.1242C20.7701 27.0621 20.8002 26.9994 20.838 26.9402C20.9035 26.8374 20.9333 26.7161 20.9245 26.5949C20.8987 26.2444 20.8785 25.5864 21.3411 25.3782C21.7331 25.2019 22.2138 25.304 22.5204 25.406C22.7195 25.4722 22.9352 25.4722 23.1343 25.406C23.4409 25.304 23.9217 25.2019 24.3136 25.3782C24.7749 25.5858 24.7559 26.2405 24.7305 26.5918C24.7216 26.714 24.7507 26.8365 24.8167 26.9401C24.8557 27.0013 24.8866 27.0661 24.9112 27.1301C24.9417 27.2097 24.9634 27.292 24.9768 27.3755C25.0476 27.3412 25.1814 27.2713 25.2679 27.2835C25.2786 26.9161 25.3124 26.5201 25.3124 26.5201C25.7206 24.5209 23.8518 23.6539 22.3686 23.856Z" fill="#A05838"/>
<path d="M22.8354 23.8284C22.6777 23.8265 22.5211 23.8353 22.3686 23.8561C20.9911 24.0437 20.8602 24.8248 20.8596 25.1113C20.8594 25.1714 20.8262 25.2271 20.7721 25.2534C20.0555 25.6019 20.4419 27.2819 20.4419 27.2819C20.5138 27.2867 20.6218 27.3485 20.6779 27.3757C20.6917 27.2901 20.7142 27.2058 20.7459 27.1243C20.7701 27.0623 20.8002 26.9995 20.838 26.9403C20.9035 26.8375 20.9333 26.7162 20.9245 26.595C20.8987 26.2446 20.8785 25.5866 21.3411 25.3784C21.7331 25.2021 22.2138 25.3042 22.5204 25.4061C22.5614 25.4198 22.6033 25.4299 22.6453 25.4379C22.6345 25.4137 22.623 25.3895 22.6097 25.3655C22.1301 24.4963 22.5886 24.0109 22.8354 23.8284Z" fill="#823C26"/>
<path d="M25.3905 27.3313C25.2832 27.233 25.0696 27.2829 24.9771 27.3431C24.9973 27.4691 24.9985 27.5981 24.981 27.7254L24.872 28.5196C24.872 28.5836 24.8699 28.6464 24.8662 28.7081C25.1321 28.7883 25.2642 28.5496 25.2865 28.3858C25.296 28.3153 25.3117 28.2458 25.3334 28.178C25.4042 27.9571 25.6593 27.5777 25.3905 27.3313Z" fill="#FD995B"/>
<path d="M20.2649 27.3313C20.3722 27.233 20.5859 27.2829 20.6783 27.3431C20.658 27.4691 20.6569 27.5981 20.6743 27.7254L20.7834 28.5196C20.7834 28.5836 20.7854 28.6464 20.7892 28.7081C20.5233 28.7883 20.3912 28.5496 20.3689 28.3858C20.3594 28.3153 20.3437 28.2458 20.3219 28.178C20.2513 27.9571 19.9961 27.5777 20.2649 27.3313Z" fill="#FD995B"/>
<path d="M24.9446 27.0977C24.92 27.0336 24.8891 26.9688 24.8501 26.9076C24.784 26.8041 24.755 26.6815 24.7639 26.5593C24.7893 26.2079 24.7757 25.5207 24.3144 25.3131C23.9224 25.1367 23.4417 25.2388 23.1351 25.3408C22.936 25.407 22.7202 25.407 22.5212 25.3408C22.2146 25.2388 21.7339 25.1367 21.342 25.3131C20.8794 25.5212 20.8669 26.2118 20.8927 26.5623C20.9016 26.6836 20.8717 26.8048 20.8062 26.9076C20.7684 26.9669 20.7382 27.0296 20.7141 27.0916C20.6357 27.293 20.6128 27.5114 20.6422 27.7252L20.7513 28.5196C20.7513 29.6616 21.3609 30.4377 21.8794 30.8404C22.1501 31.0506 22.4841 31.1648 22.8281 31.1648C23.1721 31.1648 23.5061 31.0506 23.7768 30.8404C24.2954 30.4377 24.905 29.6615 24.905 28.5196L25.014 27.7254C25.0432 27.5137 25.0211 27.2975 24.9446 27.0977Z" fill="#F9BA8F"/>
<path d="M23.2399 30.8406C22.7213 30.4379 22.1117 29.6617 22.1117 28.5197L22.0027 27.7253C21.9733 27.5115 21.9961 27.2931 22.0745 27.0918C22.0987 27.0297 22.1289 26.967 22.1666 26.9078C22.2322 26.805 22.262 26.6837 22.2531 26.5625C22.2292 26.2371 22.2388 25.6189 22.6106 25.3656C22.5805 25.3587 22.5506 25.3508 22.5212 25.341C22.2146 25.2391 21.7339 25.137 21.342 25.3133C20.8794 25.5215 20.8669 26.2121 20.8927 26.5626C20.9016 26.6838 20.8717 26.8051 20.8062 26.9079C20.7684 26.9672 20.7382 27.0299 20.7141 27.0919C20.6357 27.2933 20.6128 27.5117 20.6422 27.7254L20.7513 28.5198C20.7513 29.6618 21.3609 30.438 21.8794 30.8407C22.1501 31.0508 22.4841 31.165 22.8281 31.165C23.0657 31.165 23.2979 31.1094 23.5083 31.0065C23.4141 30.9603 23.3237 30.9056 23.2399 30.8406Z" fill="#FCAD6D"/>
<path d="M25.3369 34.2184V35.9977H26.5229C26.5229 35.9977 26.42 34.4721 25.7606 33.9976C25.5839 33.8704 25.3369 34.0006 25.3369 34.2184Z" fill="#4FABF7"/>
</svg>
