<svg width="36" height="36" viewBox="0 0 36 36" fill="none" xmlns="http://www.w3.org/2000/svg">
<g clip-path="url(#clip0_527_2057)">
<path d="M30.4664 29.8369C33.3868 26.7503 35.1782 22.5844 35.1782 17.9998C35.1782 8.48571 27.4655 0.772949 17.9514 0.772949C8.4373 0.772949 0.724609 8.48564 0.724609 17.9998C0.724609 22.5418 2.48321 26.6723 5.35556 29.75L30.4664 29.8369Z" fill="#1C2E7A"/>
<path d="M26.7457 27.0206C26.6645 26.9592 26.5782 26.9046 26.4947 26.8518C25.9585 26.5132 25.8983 26.3655 26.1407 25.6948C26.2413 25.4165 26.3452 25.1287 26.2863 24.8224C26.1825 24.2828 25.6969 24.0642 25.2272 23.8528C24.7371 23.6323 24.5788 23.5493 24.3281 23.2408C24.0676 22.9203 23.8338 22.7271 23.288 22.7247C22.5689 22.7217 21.7795 23.0807 21.4337 22.6303C21.2641 22.4094 21.2943 22.09 21.3263 21.7517C21.4286 20.6667 21.1491 20.0607 21.081 19.1219C20.9919 17.8935 21.4236 16.6511 22.2314 15.7291C20.9 15.2514 19.4664 14.9876 17.9712 14.9813C16.8547 14.9766 15.7713 15.1157 14.738 15.3805C14.6128 15.6044 14.5035 15.8388 14.4253 16.0856C14.183 16.8505 14.2985 17.6403 14.7267 18.1468C15.2176 18.7273 16.0957 18.9711 16.2258 19.603C16.2993 19.9605 16.1018 20.3106 15.8927 20.6814C15.6812 21.0562 15.4626 21.4437 15.4917 21.8882C15.5291 22.462 15.9463 22.8492 16.3497 23.2235C17.3166 24.1209 17.0331 24.2436 17.2112 24.725C17.4183 25.2843 18.0746 25.481 18.2851 25.9094C18.7353 26.8263 17.0034 28.7677 14.139 29.0608C13.6961 29.1047 13.2378 29.1395 12.8968 29.4323C12.5457 29.7335 12.6752 29.8916 11.7977 30.1461C11.5805 30.2091 11.3559 30.2743 11.1497 30.3894C10.1687 30.9376 10.1619 32.5803 11.1398 33.1359C11.7469 33.4809 12.6105 33.4783 12.7705 34.0221C12.8177 34.1824 12.8001 34.2899 12.8084 34.4455C14.4327 34.9529 16.1601 35.2265 17.9515 35.2265C20.2929 35.2265 22.5249 34.7585 24.5599 33.9124C24.5774 33.3371 24.3336 32.7933 24.2055 32.2666C24.0855 31.7729 24.1008 31.0976 24.5388 30.8192C24.8082 30.6478 25.1781 30.6622 25.5415 30.6001C26.3495 30.4622 27.0484 29.9116 27.322 29.1975C27.6166 28.4284 27.3689 27.4926 26.7457 27.0206Z" fill="#73C3F9"/>
<path d="M18.9279 32.1011C17.0742 31.3964 16.9278 30.0196 17.0985 29.0472C17.1565 28.7168 17.079 28.3897 16.9013 28.1296C16.1919 28.5841 15.2514 28.947 14.139 29.0609C13.6961 29.1047 13.2378 29.1395 12.8967 29.4323C12.5457 29.7335 12.6752 29.8916 11.7977 30.1461C11.5804 30.2091 11.3558 30.2743 11.1497 30.3894C10.1687 30.9376 10.1619 32.5803 11.1398 33.1359C11.7469 33.4809 12.6105 33.4782 12.7705 34.0221C12.8176 34.1824 12.8 34.29 12.8084 34.4455C14.4327 34.9529 16.16 35.2266 17.9515 35.2266C18.8377 35.2266 19.7082 35.1593 20.5584 35.03C20.5489 33.9452 20.6563 32.7582 18.9279 32.1011Z" fill="#4FABF7"/>
<path d="M17.3758 24.6639C17.3178 24.5073 17.313 24.3365 17.2723 24.1746C17.0393 23.2483 15.729 22.8298 15.6668 21.8767C15.6131 21.0546 16.5638 20.3744 16.3977 19.5675C16.2487 18.8432 15.3383 18.598 14.8608 18.0333C14.4307 17.5248 14.3915 16.7735 14.5927 16.1386C14.6839 15.8508 14.8174 15.5814 14.9731 15.323C9.35927 16.6478 5.1701 21.6779 5.14465 27.6998C5.14177 28.373 5.19218 29.0339 5.28984 29.6793C7.3531 31.9149 10.0007 33.6025 12.9906 34.5001C12.9901 34.4956 12.9891 34.4912 12.9887 34.4867C12.9723 34.3149 12.9878 34.138 12.939 33.9724C12.7455 33.3152 11.8221 33.3216 11.2264 32.9831C10.3678 32.4952 10.3731 31.0243 11.2353 30.5427C11.6877 30.2899 12.2733 30.2897 12.6568 29.9413C12.7843 29.8254 12.8803 29.6777 13.011 29.5654C13.3177 29.3021 13.7546 29.2765 14.1566 29.2354C15.6699 29.0806 17.2085 28.4697 18.1256 27.2561C18.4347 26.8471 18.6685 26.292 18.4426 25.8318C18.2075 25.3531 17.561 25.1642 17.3758 24.6639Z" fill="#4FABF7"/>
<path d="M16.3022 27.6687C12.2202 26.2239 15.3002 21.7854 12.9561 20.5229C11.1997 19.5769 11.3237 17.7222 11.5657 16.6716C7.74545 18.8655 5.16462 22.9777 5.14465 27.7002C5.14177 28.3734 5.19218 29.0343 5.28984 29.6797C7.35311 31.9153 10.0007 33.6029 12.9905 34.5005C12.99 34.496 12.989 34.4916 12.9886 34.4871C12.9722 34.3153 12.9877 34.1384 12.9389 33.9728C12.7455 33.3156 11.8221 33.322 11.2264 32.9835C10.3678 32.4956 10.3731 31.0247 11.2353 30.543C11.6876 30.2903 12.2733 30.2901 12.6568 29.9417C12.7844 29.8258 12.8803 29.6781 13.011 29.5658C13.3178 29.3025 13.7545 29.2769 14.1567 29.2358C15.1538 29.1338 16.1606 28.8321 16.9947 28.2923C16.8589 28.0092 16.617 27.7801 16.3022 27.6687Z" fill="#1E9EF4"/>
<path d="M22.0553 15.6663C21.2484 16.6177 20.8159 17.8881 20.9064 19.1346C20.9646 19.9371 21.2247 20.7267 21.1696 21.5294C21.1412 21.9436 21.0421 22.4079 21.2949 22.7372C21.8623 23.4761 23.2029 22.5237 23.943 23.0895C24.1046 23.213 24.2107 23.3948 24.3553 23.5379C24.894 24.0708 25.9712 24.1113 26.1144 24.8555C26.2217 25.4136 25.6573 25.9867 25.8819 26.5088C26.0156 26.8196 26.3704 26.9563 26.6402 27.1605C27.222 27.6011 27.4196 28.453 27.1585 29.1346C26.8975 29.8161 26.2319 30.3041 25.5126 30.4269C25.1497 30.4889 24.7558 30.4733 24.4451 30.6708C23.9375 30.9936 23.8933 31.7235 24.0355 32.3081C24.1712 32.8659 24.4247 33.4179 24.3809 33.9857C26.7332 33.0388 28.828 31.588 30.5323 29.7666C30.6335 29.1282 30.6876 28.4741 30.6904 27.8078C30.7142 22.1827 27.0981 17.3917 22.0553 15.6663Z" fill="#4FABF7"/>
<path d="M28.3328 22.5971C28.5749 21.5869 27.9524 20.5717 26.9422 20.3296C25.9321 20.0875 24.9169 20.7101 24.6748 21.7202C24.4326 22.7304 25.0552 23.7456 26.0653 23.9878C27.0755 24.2299 28.0906 23.6073 28.3328 22.5971Z" fill="#FFDD40"/>
<path d="M27.1437 23.9319C26.1505 23.479 26.7513 22.63 26.7513 22.63L26.4268 21.7388C25.4964 21.55 25.5149 20.8656 25.5873 20.5227C25.0236 20.8457 24.6425 21.4517 24.6397 22.148C24.6352 23.1872 25.4742 24.0333 26.5134 24.0376C26.7344 24.0385 26.9465 24.0011 27.1437 23.9319Z" fill="#FFB332"/>
<path d="M26.0471 22.3858C25.9201 22.124 26.0294 21.8088 26.2913 21.6818L29.2435 20.2502L29.2596 16.4222C29.2608 16.1312 29.4978 15.8963 29.7888 15.8975C30.0798 15.8987 30.3148 16.1356 30.3136 16.4266L30.296 20.5832C30.2951 20.7843 30.1799 20.9673 29.999 21.0551L26.7512 22.6301C26.4893 22.757 26.1741 22.6477 26.0471 22.3858Z" fill="#E9EFFF"/>
<path d="M10.0448 23.8431C11.0134 23.4658 11.4928 22.3748 11.1155 21.4062C10.7383 20.4376 9.64722 19.9582 8.67862 20.3355C7.71001 20.7127 7.23063 21.8038 7.60789 22.7724C7.98515 23.741 9.07618 24.2204 10.0448 23.8431Z" fill="#49D88B"/>
<path d="M10.1329 23.7995C9.2054 23.3849 9.66947 22.5106 9.66947 22.5106L9.54663 21.9057C8.57393 21.308 9.15337 20.2134 9.15337 20.2134C8.21533 20.3165 7.48359 21.1092 7.47951 22.0754C7.47508 23.1146 8.31405 23.9607 9.35327 23.9651C9.63115 23.9662 9.89503 23.9066 10.1329 23.7995Z" fill="#38C674"/>
<path d="M9.12705 22.5554L5.89268 20.953C5.71247 20.8637 5.59877 20.6797 5.59961 20.4786L5.61719 16.3221C5.61846 16.0311 5.85534 15.7962 6.14636 15.7974C6.43739 15.7986 6.6723 16.0355 6.67111 16.3265L6.65493 20.1545L9.59491 21.611C9.8557 21.7402 9.96236 22.0564 9.8332 22.3171C9.70418 22.5774 9.3884 22.6848 9.12705 22.5554Z" fill="#E9EFFF"/>
<path d="M14.5583 11.7576L13.7308 11.7541C13.4398 11.7529 13.2049 11.516 13.2061 11.2249C13.2073 10.9339 13.4442 10.699 13.7352 10.7002L14.5627 10.7037C14.8538 10.7049 15.0887 10.9419 15.0875 11.2329C15.0863 11.5239 14.8493 11.7588 14.5583 11.7576Z" fill="#3C58A0"/>
<path d="M17.1189 11.7686L16.2914 11.7651C16.0003 11.7638 15.7654 11.527 15.7666 11.2359C15.7678 10.9449 16.0048 10.71 16.2958 10.7112L17.1233 10.7147C17.4143 10.716 17.6492 10.9529 17.648 11.2439C17.6468 11.5349 17.4099 11.7698 17.1189 11.7686Z" fill="#3C58A0"/>
<path d="M19.6784 11.7791L18.8509 11.7756C18.5599 11.7743 18.325 11.5375 18.3262 11.2464C18.3274 10.9553 18.5643 10.7205 18.8554 10.7217L19.6829 10.7252C19.974 10.7265 20.2089 10.9633 20.2077 11.2544C20.2063 11.5455 19.9695 11.7804 19.6784 11.7791Z" fill="#3C58A0"/>
<path d="M22.2391 11.7899L21.4115 11.7863C21.1204 11.7851 20.8855 11.5482 20.8867 11.2572C20.8879 10.9661 21.1249 10.7312 21.4159 10.7324L22.2434 10.7359C22.5344 10.7371 22.7694 10.9741 22.7682 11.2651C22.767 11.5562 22.5301 11.7911 22.2391 11.7899Z" fill="#3C58A0"/>
<path d="M33.8169 15.2835C36.0184 13.082 36.0184 9.51269 33.8169 7.31119C31.6154 5.10969 28.0461 5.10969 25.8446 7.31119C23.6431 9.51269 23.6431 13.082 25.8446 15.2835C28.0461 17.485 31.6154 17.485 33.8169 15.2835Z" fill="#FFC839"/>
<path d="M33.7902 15.3129C33.6546 15.1891 33.6202 15.0168 33.6163 14.8897C33.6136 14.8026 33.5359 14.7367 33.4491 14.7451C32.3705 14.8497 30.2058 14.336 29.6806 14.2057C29.6118 14.1886 29.564 14.1268 29.5643 14.0559L29.5882 8.3949C29.5884 8.35046 29.5688 8.30877 29.5359 8.27882C28.9379 7.73305 29.1449 7.19481 29.2941 6.95061C29.3372 6.88002 29.3128 6.79086 29.2451 6.74326C29.0775 6.62514 29.0986 6.4521 29.1392 6.33707C29.1633 6.26844 29.1379 6.1918 29.0755 6.15432C28.8796 6.03648 28.8022 5.89417 28.7869 5.75537C26.1838 6.24517 24.2089 8.52393 24.1973 11.2711C24.1842 14.385 26.6978 16.9199 29.8116 16.933C31.361 16.9397 32.7668 16.3203 33.7902 15.3129Z" fill="#FFB332"/>
<path d="M33.417 14.6605C33.4053 14.6585 33.4243 14.662 33.378 14.6546L33.3769 14.6552C33.0068 14.6003 32.4377 14.7278 31.8714 14.3945C31.6166 14.7748 31.3175 15.0727 31.039 15.2871C30.6896 15.556 30.2592 15.7011 29.8166 15.6992C29.374 15.6973 28.9449 15.5487 28.5978 15.2768C28.3212 15.0602 28.0249 14.76 27.7733 14.3779C27.2218 14.698 26.6807 14.5742 26.297 14.6214C26.2969 14.6213 26.2969 14.6211 26.2968 14.6211C26.2511 14.627 26.2456 14.6268 26.2252 14.6301L26.2286 14.6332C25.9703 14.6782 25.7351 14.7867 25.5352 14.9397C26.5641 16.1526 28.0961 16.926 29.8114 16.9333C31.527 16.9405 33.0658 16.1798 34.105 14.9751C33.9066 14.8202 33.6726 14.7096 33.4149 14.6623L33.417 14.6605Z" fill="#E9EFFF"/>
<path d="M28.5978 15.2768C28.3212 15.0602 28.0249 14.76 27.7733 14.3779C27.2218 14.698 26.6807 14.5742 26.297 14.6214C26.2969 14.6213 26.2969 14.6211 26.2968 14.6211C26.2511 14.627 26.2456 14.6268 26.2252 14.6301L26.2286 14.6332C25.9703 14.6782 25.7351 14.7867 25.5352 14.9397C25.8981 15.3675 26.3238 15.7403 26.7979 16.0445C27.045 15.9976 27.3275 15.9535 27.651 15.9155C28.1856 15.8529 28.5918 15.682 28.9 15.4709C28.7942 15.4154 28.6927 15.3512 28.5978 15.2768Z" fill="#BEC8F7"/>
<path d="M27.707 14.4147C27.9717 14.8467 28.2963 15.1816 28.5974 15.4175C28.9445 15.6894 29.3737 15.8381 29.8163 15.84C30.2589 15.8419 30.6893 15.6967 31.0387 15.4278C31.342 15.1943 31.6696 14.8619 31.938 14.4317C31.782 14.3495 31.6256 14.2345 31.4731 14.0726L31.4739 14.0717C31.2156 13.7979 31.151 13.5786 30.9621 13.2456C30.2604 13.6094 29.4106 13.6161 28.6925 13.2361C28.4909 13.5843 28.4296 13.7911 28.1738 14.0578L28.1745 14.0587C28.0195 14.2202 27.8626 14.334 27.707 14.4147Z" fill="#FCAD6D"/>
<path d="M29.6583 13.5127C29.3269 13.4886 28.9978 13.3977 28.6924 13.2361C28.4909 13.5843 28.4295 13.7911 28.1737 14.0578L28.1745 14.0587C28.0196 14.2202 27.8626 14.3341 27.707 14.4147C27.9717 14.8467 28.2963 15.1816 28.5974 15.4175C28.6572 15.4644 28.7203 15.5062 28.7846 15.5456C29.6472 15.0256 29.8232 14.1777 29.8232 14.1777C29.8232 14.1777 29.7519 13.895 29.6583 13.5127Z" fill="#FD995B"/>
<path d="M29.3926 6.81461C28.0045 6.99778 27.8694 7.7838 27.8676 8.07236C27.8672 8.1329 27.8334 8.1888 27.7789 8.21509C27.0558 8.56307 27.4377 10.2566 27.4377 10.2566C27.5101 10.2617 27.6185 10.3244 27.675 10.352C27.6892 10.2659 27.7122 10.1811 27.7444 10.0992C27.7691 10.0367 27.7997 9.97375 27.838 9.91426C27.9045 9.81097 27.9351 9.68898 27.9266 9.56685C27.9021 9.21374 27.8846 8.55105 28.3514 8.34334C28.7468 8.16742 29.2306 8.27233 29.5389 8.37625C29.7391 8.44375 29.9563 8.44473 30.1571 8.37885C30.4663 8.27746 30.951 8.1767 31.3449 8.35593C31.8086 8.56694 31.7867 9.22612 31.7596 9.57993C31.7501 9.7029 31.7788 9.82644 31.8449 9.93107C31.884 9.9928 31.9148 10.0583 31.9393 10.1229C31.9697 10.2032 31.9912 10.2861 32.0043 10.3702C32.0758 10.336 32.2108 10.2661 32.298 10.2788C32.3102 9.90885 32.346 9.51018 32.346 9.51018C32.7657 7.49847 30.8873 6.61739 29.3926 6.81461Z" fill="#A05838"/>
<path d="M29.5389 8.3763C29.5551 8.38179 29.5715 8.38608 29.5879 8.39065C29.5868 8.3479 29.5679 8.30789 29.5362 8.27892C28.9381 7.73316 29.1451 7.19492 29.2943 6.95072C29.318 6.91184 29.3206 6.86747 29.3075 6.82739C27.9998 7.03109 27.8693 7.7899 27.8676 8.07241C27.8672 8.13295 27.8334 8.18885 27.7789 8.21515C27.0558 8.56312 27.4377 10.2567 27.4377 10.2567C27.5101 10.2618 27.6186 10.3244 27.675 10.3521C27.6892 10.2659 27.7122 10.1812 27.7444 10.0992C27.7691 10.0368 27.7997 9.9738 27.838 9.91432C27.9045 9.81103 27.9351 9.68903 27.9266 9.5669C27.9021 9.21379 27.8846 8.5511 28.3514 8.3434C28.7468 8.16741 29.2306 8.27231 29.5389 8.3763Z" fill="#823C26"/>
<path d="M32.4206 10.3276C32.313 10.2281 32.0975 10.2774 32.0042 10.3377C32.024 10.4647 32.0247 10.5946 32.0065 10.7228L31.8933 11.5221C31.893 11.5866 31.8907 11.6499 31.8867 11.712C32.1542 11.7939 32.2882 11.5541 32.3113 11.3892C32.3212 11.3182 32.3373 11.2483 32.3595 11.1801C32.4317 10.9579 32.6903 10.5769 32.4206 10.3276Z" fill="#FD995B"/>
<path d="M27.2591 10.3059C27.3676 10.2073 27.5827 10.2584 27.6755 10.3195C27.6545 10.4463 27.6528 10.5762 27.6699 10.7046L27.7764 11.5048C27.7761 11.5693 27.7778 11.6326 27.7814 11.6948C27.5133 11.7744 27.3812 11.5335 27.3595 11.3684C27.3501 11.2973 27.3347 11.2273 27.3131 11.1588C27.2428 10.936 26.9874 10.5528 27.2591 10.3059Z" fill="#FD995B"/>
<path d="M31.9722 10.0904C31.9477 10.0257 31.9168 9.96035 31.8779 9.89854C31.8118 9.79392 31.7831 9.67038 31.7925 9.5474C31.8197 9.19359 31.8088 8.50144 31.3451 8.29043C30.9512 8.1112 30.4666 8.21196 30.1574 8.31328C29.9566 8.37909 29.7393 8.37818 29.5391 8.31068C29.2308 8.20669 28.7471 8.10185 28.3516 8.27777C27.8848 8.48548 27.8694 9.18094 27.8938 9.53397C27.9023 9.65611 27.8717 9.7781 27.8053 9.88139C27.7671 9.94087 27.7363 10.0039 27.7117 10.0663C27.6319 10.2687 27.608 10.4886 27.6366 10.704L27.7431 11.5045C27.7382 12.6546 28.3489 13.439 28.8694 13.8468C29.1411 14.0596 29.4771 14.176 29.8235 14.1775C30.1699 14.179 30.5069 14.0654 30.7803 13.8549C31.3043 13.4516 31.9215 12.6724 31.9263 11.5223L32.0395 10.7229C32.0697 10.5098 32.0485 10.2919 31.9722 10.0904Z" fill="#F9BA8F"/>
<path d="M29.9922 13.8514C29.6335 13.4444 29.2132 12.6608 29.218 11.5107L29.1456 10.7104C29.1261 10.495 29.1429 10.2751 29.1983 10.0726C29.2153 10.0101 29.2366 9.94706 29.2631 9.88751C29.3091 9.78415 29.3303 9.66209 29.3246 9.53995C29.3092 9.20773 29.3187 8.57245 29.5886 8.32516C29.572 8.32052 29.5554 8.31616 29.5391 8.31068C29.2308 8.20669 28.747 8.10185 28.3516 8.27777C27.8848 8.48548 27.8694 9.18094 27.8938 9.53398C27.9023 9.65611 27.8718 9.7781 27.8053 9.88139C27.767 9.94088 27.7363 10.0039 27.7117 10.0663C27.6319 10.2687 27.608 10.4886 27.6366 10.704L27.7431 11.5046C27.7382 12.6547 28.3489 13.439 28.8694 13.8468C29.1411 14.0596 29.4771 14.176 29.8235 14.1775C29.991 14.1782 30.156 14.1515 30.3129 14.1004C30.1976 14.0447 30.0889 13.9612 29.9922 13.8514Z" fill="#FCAD6D"/>
<path d="M29.81 17.4601C26.4106 17.4457 23.6566 14.6684 23.671 11.269C23.6853 7.86954 26.4627 5.11559 29.8621 5.12994C33.2615 5.14428 36.0154 7.92164 36.0011 11.3211C35.9867 14.7205 33.2094 17.4744 29.81 17.4601ZM29.8576 6.18379C27.0393 6.17191 24.7367 8.45504 24.7248 11.2734C24.7129 14.0917 26.996 16.3943 29.8144 16.4062C32.6327 16.418 34.9352 14.1349 34.9471 11.3166C34.959 8.49828 32.6758 6.19574 29.8576 6.18379Z" fill="#FFE98D"/>
<path d="M34.3449 15.4689C33.7284 15.4935 33.6238 15.1183 33.6169 14.8898C33.6156 14.8473 33.5962 14.81 33.5669 14.7838C32.6285 15.7866 31.2928 16.4125 29.8144 16.4063C26.9961 16.3944 24.7129 14.0918 24.7248 11.2735C24.7357 8.69886 26.6586 6.57196 29.1395 6.23228C29.1282 6.20064 29.1066 6.1728 29.0761 6.15444C28.6019 5.86919 28.8206 5.44035 28.94 5.26527C28.9553 5.24291 28.9629 5.21746 28.9652 5.19165C25.9873 5.61458 23.684 8.17411 23.671 11.2691C23.6566 14.6685 26.4106 17.4459 29.81 17.4602C31.6096 17.4678 33.2348 16.6994 34.3682 15.4703C34.3605 15.4694 34.3528 15.4686 34.3449 15.4689Z" fill="#FFC839"/>
<path d="M10.1499 15.1808C12.3514 12.9793 12.3514 9.40991 10.1499 7.20841C7.94842 5.0069 4.37908 5.0069 2.17758 7.20841C-0.0239245 9.40991 -0.0239242 12.9793 2.17758 15.1808C4.37908 17.3823 7.94842 17.3823 10.1499 15.1808Z" fill="#38C674"/>
<path d="M10.1202 15.2131C9.98464 15.0893 9.95018 14.9169 9.94632 14.7899C9.94365 14.7027 9.86595 14.6369 9.77911 14.6453C8.70052 14.7498 6.53581 14.2361 6.0105 14.1058C5.94174 14.0887 5.89393 14.0269 5.89421 13.956L5.91811 8.29512C5.91832 8.25068 5.89871 8.20899 5.86587 8.17903C5.26786 7.63327 5.47479 7.09503 5.624 6.85083C5.6671 6.78024 5.6427 6.69108 5.57513 6.64348C5.4075 6.52535 5.4286 6.35231 5.46917 6.23728C5.49336 6.16866 5.4679 6.09202 5.40554 6.05447C5.20965 5.93663 5.13216 5.79431 5.1169 5.65552C2.51386 6.14553 0.538997 8.42421 0.527395 11.1714C0.514247 14.2852 3.02785 16.8202 6.14164 16.8333C7.69104 16.8398 9.0968 16.2205 10.1202 15.2131Z" fill="#24B55E"/>
<path d="M9.74698 14.5605C9.7353 14.5585 9.75429 14.562 9.70802 14.5546L9.7069 14.5552C9.3367 14.5002 8.76774 14.6278 8.20144 14.2945C7.94656 14.6747 7.64752 14.9727 7.36901 15.187C7.01963 15.456 6.58925 15.601 6.14663 15.5992C5.70401 15.5973 5.2749 15.4486 4.92783 15.1767C4.65129 14.9601 4.35493 14.6599 4.10342 14.2778C3.55189 14.5979 3.01076 14.4741 2.62707 14.5213C2.627 14.5212 2.62686 14.521 2.62686 14.521C2.58116 14.5269 2.57567 14.5267 2.55528 14.53L2.55866 14.5331C2.3004 14.5781 2.0652 14.6866 1.86523 14.8396C2.89419 16.0525 4.42622 16.826 6.14143 16.8332C7.85705 16.8404 9.39584 16.0797 10.435 14.875C10.2366 14.7201 10.0026 14.6095 9.74494 14.5622L9.74698 14.5605Z" fill="#E9EFFF"/>
<path d="M4.92784 15.1767C4.6513 14.9601 4.35493 14.6599 4.10342 14.2778C3.55189 14.5979 3.01077 14.4741 2.62707 14.5213C2.627 14.5212 2.62686 14.521 2.62686 14.521C2.58116 14.5269 2.57567 14.5267 2.55528 14.53L2.55866 14.5331C2.3004 14.5781 2.0652 14.6866 1.86523 14.8396C2.22819 15.2674 2.65393 15.6402 3.12798 15.9444C3.37513 15.8975 3.65757 15.8534 3.98108 15.8154C4.51566 15.7528 4.92186 15.5819 5.23011 15.3708C5.12429 15.3153 5.02276 15.2511 4.92784 15.1767Z" fill="#BEC8F7"/>
<path d="M4.03711 14.3145C4.30177 14.7465 4.62633 15.0815 4.92748 15.3174C5.27461 15.5893 5.70373 15.738 6.14635 15.7399C6.58896 15.7418 7.01935 15.5966 7.36873 15.3277C7.67206 15.0942 7.99964 14.7618 8.2681 14.3316C8.11207 14.2494 7.9557 14.1344 7.80319 13.9725L7.80397 13.9716C7.54571 13.6978 7.48109 13.4785 7.29216 13.1455C6.59051 13.5093 5.74071 13.516 5.02254 13.136C4.82102 13.4842 4.75957 13.691 4.50384 13.9577L4.50462 13.9586C4.34965 14.12 4.19271 14.2338 4.03711 14.3145Z" fill="#FCAD6D"/>
<path d="M5.98836 13.4126C5.65697 13.3885 5.32784 13.2976 5.02247 13.136C4.82096 13.4842 4.75957 13.691 4.50377 13.9577L4.50455 13.9586C4.34965 14.1202 4.19271 14.234 4.03711 14.3146C4.30177 14.7466 4.62633 15.0816 4.92748 15.3175C4.98731 15.3644 5.05038 15.4062 5.11472 15.4456C5.97732 14.9256 6.15331 14.0777 6.15331 14.0777C6.15331 14.0777 6.08201 13.7949 5.98836 13.4126Z" fill="#FD995B"/>
<path d="M5.72268 6.71476C4.33457 6.89792 4.19943 7.68395 4.19761 7.97251C4.19718 8.03305 4.16343 8.08895 4.10894 8.11524C3.38585 8.46322 3.76779 10.1568 3.76779 10.1568C3.84021 10.1619 3.94863 10.2245 4.00509 10.2522C4.01929 10.166 4.04229 10.0812 4.07456 9.99933C4.09917 9.9369 4.12982 9.8739 4.16815 9.81441C4.23459 9.71112 4.26518 9.58913 4.25674 9.467C4.23227 9.11389 4.21476 8.4512 4.68157 8.24349C5.077 8.06757 5.56075 8.17248 5.86907 8.2764C6.06932 8.3439 6.28652 8.34488 6.48733 8.279C6.7965 8.17761 7.28116 8.07685 7.67512 8.25608C8.13883 8.46709 8.11697 9.12626 8.08982 9.48008C8.0804 9.60305 8.10909 9.72659 8.17518 9.83122C8.21421 9.89295 8.24507 9.95841 8.26954 10.023C8.29992 10.1033 8.32143 10.1862 8.33458 10.2705C8.40602 10.2362 8.54109 10.1663 8.62821 10.179C8.64044 9.80907 8.6763 9.4104 8.6763 9.4104C9.09579 7.39862 7.21732 6.51753 5.72268 6.71476Z" fill="#A05838"/>
<path d="M5.86894 8.27645C5.88511 8.28194 5.90156 8.28623 5.91795 8.2908C5.91682 8.24805 5.89791 8.20804 5.8662 8.17907C5.26819 7.63331 5.47512 7.09506 5.62432 6.85087C5.64809 6.81198 5.65069 6.76762 5.63754 6.72754C4.32972 6.93123 4.19936 7.69005 4.19761 7.97256C4.19719 8.0331 4.16344 8.089 4.10894 8.1153C3.38585 8.46327 3.76779 10.1568 3.76779 10.1568C3.84021 10.162 3.94863 10.2246 4.00509 10.2522C4.01929 10.1661 4.04229 10.0813 4.07456 9.99939C4.09917 9.93695 4.12983 9.87395 4.16815 9.81447C4.23459 9.71118 4.26518 9.58919 4.25674 9.46706C4.23227 9.11395 4.21476 8.45125 4.68157 8.24355C5.07687 8.06756 5.56055 8.17246 5.86894 8.27645Z" fill="#823C26"/>
<path d="M8.75165 10.2277C8.644 10.1283 8.42857 10.1775 8.33526 10.2378C8.35509 10.3649 8.35573 10.4947 8.33758 10.6229L8.22438 11.4223C8.2241 11.4868 8.22178 11.55 8.21777 11.6121C8.48524 11.694 8.61925 11.4542 8.64239 11.2893C8.6523 11.2183 8.6684 11.1484 8.69055 11.0802C8.76276 10.858 9.02137 10.477 8.75165 10.2277Z" fill="#FD995B"/>
<path d="M3.58927 10.2058C3.69776 10.1072 3.91278 10.1583 4.00559 10.2194C3.98464 10.3462 3.98295 10.4761 4.00003 10.6045L4.10649 11.4048C4.10621 11.4692 4.10796 11.5325 4.11148 11.5947C3.84338 11.6743 3.71133 11.4334 3.6896 11.2683C3.68025 11.1972 3.66478 11.1272 3.6432 11.0588C3.57282 10.8359 3.31744 10.4527 3.58927 10.2058Z" fill="#FD995B"/>
<path d="M8.30231 9.9905C8.27785 9.92589 8.24698 9.8605 8.20796 9.79869C8.14193 9.69407 8.11317 9.57053 8.1226 9.44755C8.14974 9.09374 8.13891 8.40158 7.6752 8.19058C7.28124 8.01135 6.79671 8.11211 6.48748 8.21343C6.28667 8.27924 6.06933 8.27833 5.86915 8.21083C5.56083 8.10683 5.07715 8.002 4.68171 8.17792C4.21491 8.38555 4.19951 9.08101 4.22391 9.43412C4.23235 9.55625 4.20183 9.67825 4.13538 9.78153C4.09713 9.84102 4.06641 9.90409 4.0418 9.96646C3.96199 10.1689 3.93809 10.3888 3.9667 10.6042L4.07316 11.4047C4.06831 12.5548 4.67897 13.3391 5.19949 13.7469C5.47118 13.9598 5.80713 14.0761 6.15356 14.0776C6.50006 14.0791 6.83693 13.9655 7.11038 13.755C7.63435 13.3517 8.25162 12.5725 8.25647 11.4224L8.36967 10.623C8.39991 10.4099 8.3786 10.192 8.30231 9.9905Z" fill="#F9BA8F"/>
<path d="M6.32224 13.7514C5.96358 13.3443 5.54325 12.5608 5.5481 11.4106L5.47568 10.6104C5.4562 10.3949 5.47301 10.175 5.52834 9.97248C5.54543 9.91004 5.56667 9.84697 5.59317 9.78741C5.63916 9.68405 5.66039 9.56199 5.6547 9.43993C5.6393 9.1077 5.64879 8.47236 5.91872 8.22507C5.90213 8.22043 5.88553 8.21607 5.86915 8.21058C5.56083 8.10659 5.07715 8.00175 4.68171 8.17768C4.21491 8.38531 4.19951 9.08077 4.22391 9.43388C4.23235 9.55601 4.20183 9.67801 4.13538 9.7813C4.09713 9.84078 4.06641 9.90385 4.0418 9.96622C3.96199 10.1686 3.93809 10.3885 3.9667 10.604L4.07316 11.4045C4.06831 12.5546 4.67897 13.3389 5.19949 13.7467C5.47118 13.9596 5.80713 14.0759 6.15356 14.0774C6.32105 14.0781 6.48614 14.0514 6.64301 14.0003C6.5277 13.9446 6.41899 13.8611 6.32224 13.7514Z" fill="#FCAD6D"/>
<path d="M6.14005 17.3605C2.74063 17.3461 -0.0133115 14.5688 0.00103234 11.1693C0.0153762 7.76993 2.79274 5.01592 6.19215 5.03033C9.59157 5.04467 12.3455 7.82203 12.3312 11.2215C12.3168 14.6209 9.53947 17.3748 6.14005 17.3605ZM6.18765 6.08418C3.36937 6.0723 1.06684 8.35543 1.05488 11.1738C1.04293 13.9921 3.32613 16.2947 6.14448 16.3066C8.96276 16.3184 11.2653 14.0353 11.2772 11.217C11.2891 8.39867 9.00601 6.09606 6.18765 6.08418Z" fill="#49D88B"/>
<path d="M10.6751 15.369C10.0586 15.3936 9.95404 15.0184 9.947 14.79C9.94574 14.7474 9.92633 14.7102 9.89701 14.684C8.95869 15.6867 7.62295 16.3127 6.14455 16.3064C3.32627 16.2945 1.04307 13.9919 1.05495 11.1737C1.06585 8.59907 2.9887 6.47211 5.46969 6.13243C5.45837 6.10079 5.43678 6.07294 5.40627 6.05459C4.93201 5.76933 5.15075 5.34049 5.27007 5.16541C5.28533 5.14305 5.29299 5.1176 5.29524 5.0918C2.31742 5.51473 0.0141105 8.07433 0.00103234 11.1692C-0.0133115 14.5686 2.74063 17.346 6.14005 17.3603C7.93971 17.3679 9.56492 16.5996 10.6982 15.3704C10.6906 15.3696 10.683 15.3687 10.6751 15.369Z" fill="#38C674"/>
</g>
<defs>
<clipPath id="clip0_527_2057">
<rect width="36" height="36" fill="white"/>
</clipPath>
</defs>
</svg>
