<svg width="196" height="40" viewBox="0 0 196 40" fill="none" xmlns="http://www.w3.org/2000/svg">
<path d="M56.0038 19.1535C53.8373 18.6434 53.5368 17.9499 53.5368 17.2851C53.5368 16.1733 54.2287 15.6346 55.6578 15.6346C56.707 15.6346 57.6314 15.8753 58.5728 16.3911L58.7997 16.5172L58.9415 16.2994C59.191 15.9211 59.3385 15.4512 59.3385 15.0328C59.3385 14.4826 59.0492 14.1617 58.4027 13.984C57.501 13.7146 56.7127 13.6 55.6748 13.6C52.4195 13.6 51.2626 15.6059 51.2626 17.48C51.2626 19.3827 52.5216 20.6378 54.9999 21.211C57.2514 21.7497 57.7108 22.4661 57.7108 23.3773C57.7108 24.856 56.3781 25.1712 55.2608 25.1712C54.1493 25.1712 53.1001 24.8617 51.9715 24.2026L51.7446 24.0708L51.5972 24.2886C51.3476 24.6554 51.2002 25.1311 51.2002 25.5609C51.2002 26.1168 51.4611 26.4378 52.0963 26.6727C52.9923 27.0166 54.0699 27.2 55.2155 27.2C58.0851 27.2 60.0133 25.5838 60.0133 23.1825C60.0077 21.062 58.7713 19.8183 56.0038 19.1535Z" fill="#236967"/>
<path d="M66.3766 13.6H62.0664V26.8561H64.2895V22.6094H66.3766C69.4164 22.6094 71.1575 20.9703 71.1575 18.1161C71.1575 15.2448 69.4164 13.6 66.3766 13.6ZM64.2952 15.5486H66.3822C68.078 15.5486 68.906 16.3853 68.906 18.1161C68.906 19.8183 68.0553 20.6837 66.3822 20.6837H64.2952V15.5486Z" fill="#236967"/>
<path d="M75.1665 20.9588H79.8396V19.0102H75.1665V15.5486H81.0193V13.6H72.9434V26.8561H81.127V24.9075H75.1665V20.9588Z" fill="#236967"/>
<path d="M88.5 13.6974L88.415 13.6H86.6569L86.5718 13.6974C84.2863 16.3624 82.6643 21.2854 82.3354 26.5466L82.3184 26.8504H84.6152L84.6266 26.5753C84.6719 25.5723 84.7683 24.5923 84.8988 23.6581H90.1617C90.2865 24.5407 90.3829 25.4978 90.4566 26.5753L90.4736 26.8446H92.7478L92.7308 26.5409C92.4529 21.4287 90.7912 16.3853 88.5 13.6974ZM89.8215 21.7153H85.2561C85.7608 19.3655 86.5264 17.3653 87.5359 15.7606C88.5681 17.394 89.3337 19.3942 89.8215 21.7153Z" fill="#236967"/>
<path d="M100.109 19.7266C102.094 18.2365 103.494 16.1504 103.982 13.9496L104.062 13.6H101.685L101.634 13.8235C101.05 16.3452 99.3544 18.3683 97.0689 19.3025V13.6H94.8457V26.8561H97.0689V21.3542C97.4715 21.2167 97.8572 21.062 98.2144 20.89C100.143 22.1337 101.351 24.0593 101.804 26.6212L101.844 26.8561H104.226L104.175 26.5295C103.778 23.8129 102.235 21.2511 100.109 19.7266Z" fill="#236967"/>
<path d="M112.909 13.6L112.886 13.8579C112.62 16.7235 111.701 18.9472 110.153 20.4831C108.559 18.9529 107.618 16.7235 107.351 13.8579L107.328 13.6H105.037L105.065 13.9152C105.372 17.2565 106.807 20.2882 109.018 22.2426V26.8561H111.224V22.2426C113.476 20.2481 114.916 17.2221 115.177 13.9095L115.2 13.6H112.909Z" fill="#236967"/>
<path d="M127.923 15.9976L128.177 16.1926L128.355 15.9256L128.537 15.6511L128.69 15.421L128.474 15.2496C127.58 14.5433 126.248 14.1 124.961 14.1C123.566 14.1 122.529 14.4703 121.837 15.084C121.142 15.6998 120.826 16.5337 120.826 17.3935C120.826 18.5954 121.337 19.3621 122.099 19.8738C122.834 20.367 123.8 20.6199 124.702 20.8477C124.738 20.8568 124.774 20.8658 124.809 20.8748C125.697 21.0987 126.517 21.3054 127.13 21.6728C127.442 21.8598 127.687 22.0814 127.855 22.3567C128.022 22.6303 128.125 22.9748 128.125 23.4261C128.125 24.0766 127.88 24.6511 127.366 25.0693C126.846 25.4927 126.019 25.7797 124.818 25.7797C123.288 25.7797 121.918 25.1101 121.26 24.3077L121.053 24.0553L120.819 24.2831L120.591 24.5053L120.398 24.6928L120.563 24.9047C121.404 25.9829 123.095 26.7 124.837 26.7C126.246 26.7 127.303 26.3392 128.012 25.7345C128.725 25.1265 129.057 24.2965 129.057 23.4261L129.057 23.4252C129.055 22.8429 128.93 22.356 128.701 21.9482C128.472 21.541 128.149 21.2287 127.775 20.9816C127.039 20.4954 126.073 20.243 125.171 20.0129C125.146 20.0066 125.121 20.0003 125.097 19.9941C124.196 19.7645 123.363 19.5522 122.742 19.1752C122.43 18.9857 122.184 18.7614 122.016 18.4833C121.848 18.2068 121.746 17.8596 121.746 17.4065C121.746 16.748 121.992 16.1639 122.498 15.7393C123.009 15.3106 123.815 15.0203 124.974 15.0203C125.946 15.0203 127.068 15.3428 127.923 15.9976Z" fill="#216D6B" stroke="#236967" stroke-width="0.6" stroke-miterlimit="10"/>
<path d="M140.867 16.359L141.1 16.5876L141.308 16.3369L141.504 16.1016L141.676 15.8948L141.489 15.7014C140.436 14.6109 138.942 14.1 137.366 14.1C133.837 14.1 131.177 16.8079 131.177 20.4C131.177 23.9919 133.83 26.7 137.366 26.7C138.938 26.7 140.437 26.1678 141.489 25.079L141.676 24.8856L141.504 24.6788L141.308 24.4435L141.099 24.1919L140.867 24.4221C139.883 25.3958 138.698 25.7797 137.373 25.7797C134.382 25.7797 132.116 23.4566 132.116 20.4065L132.116 20.4059C132.11 17.3431 134.375 15.0203 137.373 15.0203C138.707 15.0203 139.884 15.3924 140.867 16.359Z" fill="#216D6B" stroke="#236967" stroke-width="0.6" stroke-miterlimit="10"/>
<path d="M153.569 14.4458V19.8386H145.807V14.4458V14.1458H145.507H145.181H144.881V14.4458V26.3413V26.6413H145.181H145.507H145.807V26.3413V20.7654H153.569V26.3413V26.6413H153.869H154.201H154.501V26.3413V14.4458V14.1458H154.201H153.869H153.569V14.4458Z" fill="#216D6B" stroke="#236967" stroke-width="0.6" stroke-miterlimit="10"/>
<path d="M164.057 14.1C160.527 14.1 157.867 16.8079 157.867 20.4C157.867 23.9919 160.52 26.7 164.057 26.7C167.593 26.7 170.247 23.9919 170.247 20.4C170.247 16.8014 167.593 14.1 164.057 14.1ZM164.057 25.7732C161.064 25.7732 158.8 23.4816 158.8 20.4C158.8 17.3184 161.064 15.0268 164.057 15.0268C167.05 15.0268 169.32 17.3189 169.32 20.4C169.32 23.4811 167.05 25.7732 164.057 25.7732Z" fill="#216D6B" stroke="#236967" stroke-width="0.6" stroke-miterlimit="10"/>
<path d="M178.589 14.1C175.059 14.1 172.399 16.8079 172.399 20.4C172.399 23.9919 175.053 26.7 178.589 26.7C182.125 26.7 184.779 23.9919 184.779 20.4C184.779 16.8014 182.125 14.1 178.589 14.1ZM178.589 25.7732C175.597 25.7732 173.332 23.4816 173.332 20.4C173.332 17.3184 175.597 15.0268 178.589 15.0268C181.582 15.0268 183.853 17.3188 183.853 20.3999C183.846 23.4818 181.581 25.7732 178.589 25.7732Z" fill="#216D6B" stroke="#236967" stroke-width="0.6" stroke-miterlimit="10"/>
<path d="M194.074 14.1458H193.774V14.4458V25.721H187.231H186.931V26.021V26.3413V26.6413H187.231H194.4H194.7V26.3413V14.4458V14.1458H194.4H194.074Z" fill="#216D6B" stroke="#236967" stroke-width="0.6" stroke-miterlimit="10"/>
<path d="M20 0C8.95579 0 0 8.95579 0 20C0 22.2954 0.390404 24.4967 1.10066 26.5475C1.56632 25.174 2.33772 23.8852 3.42897 22.7893C4.43556 21.7827 6.67451 19.3603 7.92568 18.8852C9.25682 16.8062 10.2963 15.9219 12.8833 13.3349C18.1044 8.11383 23.2738 4.82126 24.4356 5.98307C25.5974 7.14487 22.3048 12.3142 17.0837 17.5353C15.9737 18.6453 14.8683 19.6613 13.8006 20.5691C15.0517 21.0442 16.223 21.778 17.2295 22.7846C18.2361 23.7912 18.9699 24.9671 19.445 26.2183C20.3528 25.1505 21.3735 24.0452 22.4835 22.9351C27.7046 17.714 32.8786 14.4215 34.0357 15.5833C35.1976 16.7451 31.905 21.9144 26.6839 27.1355C24.0969 29.7225 23.2549 30.7996 21.1712 32.1308C20.6961 33.3772 18.2314 35.5833 17.2295 36.5851C16.143 37.6717 14.8589 38.4384 13.4995 38.904C15.5362 39.6049 17.7234 39.9906 19.9953 39.9906C31.0442 40 40 31.0442 40 20C40 8.95579 31.0442 0 20 0Z" fill="#236967"/>
<path d="M8.8286 28.1937C9.00734 28.1937 9.19078 28.1231 9.32719 27.9867C9.6 27.7139 9.6 27.2671 9.32719 26.9895C9.05908 26.7214 8.59812 26.7214 8.33001 26.9895C8.1983 27.1212 8.12305 27.3 8.12305 27.4881C8.12305 27.6763 8.1983 27.855 8.33001 27.9867C8.46641 28.1278 8.64515 28.1937 8.8286 28.1937Z" fill="#236967"/>
<path d="M13.043 30.7148C12.7796 30.4467 12.3139 30.4467 12.0458 30.7148C11.9141 30.8465 11.8389 31.0253 11.8389 31.2134C11.8389 31.4015 11.9141 31.5803 12.0458 31.712C12.1775 31.8437 12.3563 31.9189 12.5444 31.9189C12.7326 31.9189 12.9113 31.8437 13.043 31.712C13.1747 31.5803 13.25 31.4015 13.25 31.2134C13.25 31.0253 13.1794 30.8465 13.043 30.7148Z" fill="#236967"/>
<path d="M6.88597 30.3338C6.36387 30.8512 7.01297 32.1777 7.22464 32.5728L7.25756 32.6339L7.31871 32.6669C7.52567 32.775 8.35352 33.1984 8.98851 33.1984C9.21429 33.1984 9.41655 33.1466 9.55766 33.0055C10.0515 32.5116 9.84929 31.7167 9.01203 30.8795C8.17478 30.0469 7.37986 29.8447 6.88597 30.3338Z" fill="#236967"/>
</svg>
