<svg width="36" height="36" viewBox="0 0 36 36" fill="none" xmlns="http://www.w3.org/2000/svg">
<g clip-path="url(#clip0_4059_134)">
<path d="M1.11914 24.2608C3.66241 31.1152 10.2602 36 17.9996 36C25.7389 36 32.3367 31.1152 34.88 24.2608L17.9996 22.6957L1.11914 24.2608Z" fill="#FFDA44"/>
<path d="M17.9996 0C10.2602 0 3.66241 4.88475 1.11914 11.7392L17.9996 13.3043L34.88 11.7391C32.3367 4.88475 25.7389 0 17.9996 0Z" fill="black"/>
<path d="M1.11959 11.7391C0.39607 13.6891 0 15.7982 0 18C0 20.2017 0.39607 22.3108 1.11959 24.2608H34.8805C35.604 22.3108 36 20.2017 36 18C36 15.7982 35.604 13.6891 34.8804 11.7391H1.11959Z" fill="#D80027"/>
</g>
<defs>
<clipPath id="clip0_4059_134">
<rect width="36" height="36" fill="white"/>
</clipPath>
</defs>
</svg>
