<svg width="36" height="36" viewBox="0 0 36 36" fill="none" xmlns="http://www.w3.org/2000/svg">
<path d="M18 36C27.9411 36 36 27.9411 36 18C36 8.05887 27.9411 0 18 0C8.05887 0 0 8.05887 0 18C0 27.9411 8.05887 36 18 36Z" fill="#F0F0F0"/>
<path d="M3.72097 7.04126C2.30705 8.88085 1.24091 11.0011 0.620117 13.3045H9.98419L3.72097 7.04126Z" fill="#0052B4"/>
<path d="M35.3805 13.3045C34.7598 11.0012 33.6935 8.88097 32.2797 7.04138L26.0166 13.3045H35.3805Z" fill="#0052B4"/>
<path d="M0.620117 22.6958C1.24098 24.9991 2.30712 27.1194 3.72097 28.9589L9.98398 22.6958H0.620117Z" fill="#0052B4"/>
<path d="M28.9585 3.72104C27.1189 2.30713 24.9987 1.24098 22.6953 0.620117V9.98413L28.9585 3.72104Z" fill="#0052B4"/>
<path d="M7.04102 32.2791C8.8806 33.693 11.0009 34.7592 13.3042 35.38V26.0161L7.04102 32.2791Z" fill="#0052B4"/>
<path d="M13.3041 0.620117C11.0008 1.24098 8.88053 2.30712 7.04102 3.72097L13.3041 9.98405V0.620117Z" fill="#0052B4"/>
<path d="M22.6953 35.38C24.9986 34.7592 27.1189 33.693 28.9584 32.2792L22.6953 26.0161V35.38Z" fill="#0052B4"/>
<path d="M26.0166 22.6958L32.2797 28.959C33.6935 27.1194 34.7598 24.9991 35.3805 22.6958H26.0166Z" fill="#0052B4"/>
<path d="M35.8476 15.6522H20.3479H20.3479V0.152367C19.5793 0.0523125 18.7957 0 18 0C17.2041 0 16.4207 0.0523125 15.6522 0.152367V15.6521V15.6521H0.152367C0.0523125 16.4207 0 17.2043 0 18C0 18.7959 0.0523125 19.5793 0.152367 20.3478H15.6521H15.6521V35.8476C16.4207 35.9477 17.2041 36 18 36C18.7957 36 19.5793 35.9478 20.3478 35.8476V20.3479V20.3479H35.8476C35.9477 19.5793 36 18.7959 36 18C36 17.2043 35.9477 16.4207 35.8476 15.6522Z" fill="#D80027"/>
<path d="M22.6953 22.6957L30.7275 30.728C31.097 30.3587 31.4494 29.9726 31.7856 29.5724L24.9089 22.6957H22.6953V22.6957Z" fill="#D80027"/>
<path d="M13.3047 22.6958H13.3046L5.27246 30.728C5.64174 31.0974 6.02783 31.4498 6.42805 31.786L13.3047 24.9092V22.6958Z" fill="#D80027"/>
<path d="M13.3041 13.3044V13.3043L5.27193 5.27197C4.90251 5.64125 4.5501 6.02734 4.21387 6.42756L11.0906 13.3043H13.3041V13.3044Z" fill="#D80027"/>
<path d="M22.6953 13.3045L30.7276 5.2721C30.3583 4.90268 29.9722 4.55028 29.572 4.21411L22.6953 11.0909V13.3045Z" fill="#D80027"/>
</svg>
