<svg width="36" height="36" viewBox="0 0 36 36" fill="none" xmlns="http://www.w3.org/2000/svg">
<path d="M0 18C0 20.2018 0.39607 22.3109 1.11959 24.2609L18 25.8261L34.8804 24.2609C35.6039 22.3109 36 20.2018 36 18C36 15.7982 35.6039 13.6892 34.8804 11.7392L18 10.174L1.11959 11.7392C0.39607 13.6892 0 15.7982 0 18Z" fill="#FFDA44"/>
<path d="M34.88 11.7392C32.3367 4.88482 25.7389 0 17.9996 0C10.2602 0 3.66241 4.88482 1.11914 11.7392H34.88Z" fill="#D80027"/>
<path d="M1.11914 24.2607C3.66241 31.1151 10.2602 35.9999 17.9996 35.9999C25.7389 35.9999 32.3367 31.1151 34.88 24.2607H1.11914Z" fill="#D80027"/>
</svg>
