<svg width="80" height="276" viewBox="0 0 80 276" fill="none" xmlns="http://www.w3.org/2000/svg">
<mask id="path-1-inside-1_442_2370" fill="white">
<path d="M80 236C80 228.089 77.654 220.355 73.2588 213.777C68.8635 207.199 62.6164 202.072 55.3073 199.045C47.9983 196.017 39.9556 195.225 32.1964 196.769C24.4371 198.312 17.3098 202.122 11.7157 207.716C6.12163 213.31 2.312 220.437 0.768589 228.196C-0.77482 235.956 0.0173134 243.998 3.04482 251.307C6.07232 258.616 11.1992 264.864 17.7772 269.259C24.3552 273.654 32.0887 276 40 276V236H80Z"/>
</mask>
<path d="M80 236C80 228.089 77.654 220.355 73.2588 213.777C68.8635 207.199 62.6164 202.072 55.3073 199.045C47.9983 196.017 39.9556 195.225 32.1964 196.769C24.4371 198.312 17.3098 202.122 11.7157 207.716C6.12163 213.31 2.312 220.437 0.768589 228.196C-0.77482 235.956 0.0173134 243.998 3.04482 251.307C6.07232 258.616 11.1992 264.864 17.7772 269.259C24.3552 273.654 32.0887 276 40 276V236H80Z" stroke="#FE7167" stroke-width="20" mask="url(#path-1-inside-1_442_2370)"/>
<circle cx="60.0002" cy="256" r="19.9998" transform="rotate(90 60.0002 256)" fill="#FDD503"/>
<path d="M79.9996 256.001C79.9996 250.696 77.8925 245.609 74.1418 241.859C70.3911 238.108 65.3041 236.001 59.9998 236.001C54.6955 236.001 49.6085 238.108 45.8578 241.859C42.1071 245.609 40 250.696 40 256.001L59.9998 256.001L79.9996 256.001Z" fill="#FDD503"/>
<path fill-rule="evenodd" clip-rule="evenodd" d="M58.6667 44H51.3334V30.8519L42.0365 40.1488L36.8511 34.9634L46.1475 25.6669H33V18.3336H46.1483L36.8508 9.03609L42.0363 3.85064L51.3334 13.1478V0H58.6667V13.1477L67.9637 3.85064L73.1492 9.03609L63.8517 18.3336H77V25.6669H63.8525L73.1489 34.9634L67.9635 40.1488L58.6667 30.852V44Z" fill="#236967"/>
</svg>
