<svg width="300" height="150" fill="none" xmlns="http://www.w3.org/2000/svg"><path fill="#FE7167" d="M150 150h150V0H150z"/><path d="M223.5 48.214 192 101.786h63l-31.5-53.572Z" fill="#FDE9D4"/><path fill="#000" d="M209.85 150h27.3v-48.214h-27.3z"/><ellipse rx="10.5" ry="10.714" transform="matrix(1 0 0 -1 223.5 21.428)" fill="#000"/><ellipse rx="10.5" ry="10.714" transform="matrix(1 0 0 -1 255 21.428)" fill="#000"/><ellipse rx="10.5" ry="10.714" transform="matrix(1 0 0 -1 192 21.428)" fill="#000"/><g clip-path="url(#a)"><path fill="#FDE9D4" d="M150 150V0H0v150z"/><ellipse rx="21.386" ry="20.367" transform="matrix(0 -1 -1 0 3.062 128.614)" fill="#FFCC1A"/><ellipse rx="21.386" ry="20.367" transform="matrix(0 -1 -1 0 3.062 92.47)" fill="#FFCC1A"/><ellipse rx="21.386" ry="20.367" transform="matrix(0 -1 -1 0 3.062 56.326)" fill="#FFCC1A"/><ellipse rx="21.386" ry="20.367" transform="matrix(0 -1 -1 0 3.062 21.385)" fill="#FFCC1A"/><path d="M7.142 150c18.944 0 37.113-7.902 50.508-21.967C71.046 113.968 78.571 94.891 78.571 75s-7.525-38.968-20.92-53.033C44.254 7.902 26.085 0 7.141 0v13.812c15.456 0 30.278 6.447 41.206 17.922C59.277 43.209 65.416 58.772 65.416 75c0 16.228-6.14 31.791-17.068 43.266-10.928 11.475-25.75 17.922-41.206 17.922V150Z" fill="#FFCC1A"/><ellipse rx="21.429" ry="20.408" transform="matrix(0 -1 -1 0 115.306 75)" fill="#FC8B4C"/></g><defs><clipPath id="a"><path fill="#fff" transform="matrix(0 -1 -1 0 150 150)" d="M0 0h150v150H0z"/></clipPath></defs></svg>