<svg width="300" height="150" fill="none" xmlns="http://www.w3.org/2000/svg"><path fill="#236967" d="M0 0h150v150H0z"/><path d="M75 83.572 110.357 150H39.643L75 83.572Z" fill="#FC8B4C"/><path d="M75 70.714a36.27 36.27 0 0 0 21.428 21.429A36.27 36.27 0 0 0 75 113.57a36.27 36.27 0 0 0-21.43-21.427A36.27 36.27 0 0 0 75 70.714Z" fill="#FDE9D4"/><path d="m75 0 .554 1.497a60 60 0 0 0 35.449 35.449l1.497.554-1.497.554a60 60 0 0 0-35.449 35.449L75 75l-.554-1.497a60 60 0 0 0-35.449-35.449L37.5 37.5l1.497-.554A60 60 0 0 0 74.446 1.497L75 0Z" fill="#FDE9D4"/><path fill="#FC8B4C" d="M150 0h150v150H150z"/><path fill-rule="evenodd" clip-rule="evenodd" d="M229.464 47.526h-8.929v15.779l-11.319-11.157-6.314 6.223 11.319 11.157h-16.007v8.801h16.008l-11.319 11.158 6.313 6.223 11.319-11.157v15.779h8.929v-15.78l11.319 11.158 6.314-6.223-11.32-11.158h16.008v-8.801h-16.007l11.319-11.157-6.314-6.224-11.319 11.159v-15.78Z" fill="#fff"/><circle transform="matrix(-1 0 0 1 225 128.571)" fill="#fff" r="5.357"/><circle transform="matrix(-1 0 0 1 278.572 75)" fill="#fff" r="5.357"/><circle transform="matrix(-1 0 0 1 171.429 75)" fill="#fff" r="5.357"/><circle transform="matrix(-1 0 0 1 225 21.429)" fill="#fff" r="5.357"/></svg>