<svg width="300" height="150" fill="none" xmlns="http://www.w3.org/2000/svg"><path fill="#FDE9D4" d="M0 0h150v150H0z"/><circle r="35" transform="matrix(1 0 0 -1 35 105)" fill="#FFCC1A"/><circle r="35" transform="matrix(1 0 0 -1 105 35)" fill="#FE7167"/><circle r="31" transform="matrix(1 0 0 -1 35 35)" stroke="#FC8B4C" stroke-width="8"/><path d="M85.12 112.5a64.012 64.012 0 0 0 27.38-27.38 64.01 64.01 0 0 0 27.381 27.38 64.007 64.007 0 0 0-27.381 27.381A64.01 64.01 0 0 0 85.12 112.5Z" stroke="#236967" stroke-width="8"/><g clip-path="url(#a)"><path fill="#FFCC1A" d="M150 0h150v150H150z"/><path d="M298.393 148.929H150l7.5-21.965 10.714-20.357 18.75-15 21.429-8.571H240l27.857 11.25 18.214 26.25 12.322 28.393Z" fill="#236967"/><circle cx="171.386" cy="149.957" fill="#FDE9D4" r="21.386"/><circle cx="207.53" cy="149.957" r="21.386" fill="#FDE9D4"/><circle cx="243.675" cy="149.957" r="21.386" fill="#FDE9D4"/><circle cx="278.615" cy="149.957" fill="#FDE9D4" r="21.386"/><path d="M150 150a75.001 75.001 0 0 1 150 0h-13.812a61.187 61.187 0 0 0-122.376 0H150Z" fill="#FDE9D4"/><circle cx="225" cy="36.429" r="21.429" fill="#FC8B4C"/></g><defs><clipPath id="a"><path fill="#fff" transform="translate(150)" d="M0 0h150v150H0z"/></clipPath></defs></svg>