<svg width="300" height="150" fill="none" xmlns="http://www.w3.org/2000/svg"><g clip-path="url(#a)"><path d="M150 150h150V0H150v150Z" fill="#FDE9D4"/><mask id="b" fill="#fff"><path d="M300 160.714a75.003 75.003 0 0 0-75-75 75.001 75.001 0 0 0-75 75h37.297a37.703 37.703 0 0 1 75.406 0H300Z"/></mask><path d="M300 160.714a75.003 75.003 0 0 0-75-75 75.001 75.001 0 0 0-75 75h37.297a37.703 37.703 0 0 1 75.406 0H300Z" stroke="#FFCC1A" stroke-width="20" mask="url(#b)"/><mask id="c" maskUnits="userSpaceOnUse" x="199.429" y="19.643" width="52" height="52" fill="#000"><path fill="#fff" d="M199.429 19.643h52v52h-52z"/><path fill-rule="evenodd" clip-rule="evenodd" d="M228.929 69.643h-7.857V55.556l-9.961 9.96-5.556-5.555 9.96-9.96h-14.086v-7.858h14.087l-9.961-9.961 5.555-5.556 9.962 9.961V22.5h7.857v14.087l9.961-9.961 5.556 5.556-9.962 9.961h14.088V50h-14.087l9.96 9.961-5.555 5.556-9.961-9.961v14.087Z"/></mask><path fill-rule="evenodd" clip-rule="evenodd" d="M228.929 69.643h-7.857V55.556l-9.961 9.96-5.556-5.555 9.96-9.96h-14.086v-7.858h14.087l-9.961-9.961 5.555-5.556 9.962 9.961V22.5h7.857v14.087l9.961-9.961 5.556 5.556-9.962 9.961h14.088V50h-14.087l9.96 9.961-5.555 5.556-9.961-9.961v14.087Z" fill="#FC8B4C"/><path d="M221.072 69.643v2a2 2 0 0 1-2-2h2Zm7.857 0h2a2 2 0 0 1-2 2v-2Zm-7.857-14.087-1.415-1.414a2 2 0 0 1 3.415 1.414h-2Zm-9.961 9.96 1.414 1.415a2 2 0 0 1-2.828 0l1.414-1.414Zm-5.556-5.555-1.414 1.414a2 2 0 0 1 0-2.828l1.414 1.414Zm9.96-9.96v-2a2 2 0 0 1 1.415 3.414L215.515 50Zm-14.086 0v2a2 2 0 0 1-2-2h2Zm0-7.858h-2a2 2 0 0 1 2-2v2Zm14.087 0 1.414-1.414a2.001 2.001 0 0 1-1.414 3.414v-2Zm-9.961-9.961-1.415 1.414a2 2 0 0 1 0-2.828l1.415 1.414Zm5.555-5.556-1.414-1.414a2 2 0 0 1 2.829 0l-1.415 1.414Zm9.962 9.961h2a2.001 2.001 0 0 1-3.415 1.414l1.415-1.414Zm0-14.087h-2a2 2 0 0 1 2-2v2Zm7.857 0v-2a2 2 0 0 1 2 2h-2Zm0 14.087 1.414 1.414a2 2 0 0 1-3.414-1.414h2Zm9.961-9.961-1.414-1.414a1.998 1.998 0 0 1 2.828 0l-1.414 1.414Zm5.556 5.556 1.414-1.415a2 2 0 0 1 0 2.829l-1.414-1.414Zm-9.962 9.961v2a2 2 0 0 1-1.414-3.414l1.414 1.414Zm14.088 0v-2a2 2 0 0 1 2 2h-2Zm0 7.857h2a2 2 0 0 1-2 2v-2Zm-14.087 0-1.414 1.415A2.001 2.001 0 0 1 234.485 48v2Zm9.96 9.961 1.415-1.414a2 2 0 0 1 0 2.828l-1.415-1.414Zm-5.555 5.556 1.414 1.414a2 2 0 0 1-2.829 0l1.415-1.414Zm-9.961-9.961h-2a2 2 0 0 1 3.414-1.414l-1.414 1.414Zm-7.857 12.087h7.857v4h-7.857v-4Zm2-12.087v14.087h-4V55.556h4Zm-13.375 8.547 9.96-9.961 2.829 2.828-9.961 9.961-2.828-2.828Zm-2.728-5.556 5.556 5.556-2.828 2.828-5.556-5.556 2.828-2.828Zm9.961-7.132-9.961 9.96-2.828-2.828 9.96-9.96 2.829 2.828ZM201.429 48h14.086v4h-14.086v-4Zm2-5.857V50h-4v-7.857h4Zm12.087 2h-14.087v-4h14.087v4Zm-8.547-13.376 9.961 9.962-2.828 2.828-9.962-9.961 2.829-2.828Zm5.556-2.727-5.556 5.556-2.829-2.828 5.556-5.556 2.829 2.828Zm7.132 9.961-9.961-9.96 2.829-2.83 9.961 9.962L219.657 38Zm3.415-15.5v14.086h-4V22.5h4Zm5.857 2h-7.857v-4h7.857v4Zm-2 12.086V22.5h4v14.087h-4Zm13.375-8.547-9.961 9.961-2.829-2.828 9.962-9.961 2.828 2.828Zm2.728 5.556-5.556-5.556 2.828-2.828 5.556 5.555-2.828 2.829Zm-9.962 7.133 9.962-9.962 2.828 2.829-9.962 9.962-2.828-2.829Zm15.502 3.414h-14.088v-4h14.088v4Zm-2 5.857v-7.857h4V50h-4Zm-12.087-2h14.087v4h-14.087v-4Zm8.546 13.375-9.96-9.96 2.828-2.829 9.961 9.96-2.829 2.83Zm-5.556 2.728 5.556-5.556 2.829 2.828-5.556 5.556-2.829-2.828Zm-7.132-9.961 9.961 9.96-2.829 2.829-9.961-9.96 2.829-2.83Zm-3.414 15.501V55.556h4v14.087h-4Z" fill="#236967" mask="url(#c)"/></g><path fill="#FFCC1A" d="M0 0h150v150H0z"/><circle cx="75.761" cy="76.071" r="53.571" transform="rotate(-45 75.761 76.071)" fill="#236967"/><mask id="d" fill="#fff"><path d="M37.881 38.19a53.571 53.571 0 0 0 75.761 75.762l-37.88-37.88L37.88 38.19Z"/></mask><path d="M37.881 38.19a53.571 53.571 0 0 0 75.761 75.762l-37.88-37.88L37.88 38.19Z" fill="#FE7167" stroke="#000" stroke-width="20" mask="url(#d)"/><defs><clipPath id="a"><path fill="#fff" transform="matrix(1 0 0 -1 150 150)" d="M0 0h150v150H0z"/></clipPath></defs></svg>