<svg width="300" height="150" fill="none" xmlns="http://www.w3.org/2000/svg"><path fill="#FC8B4C" d="M0 0h150v150H0z"/><circle cx="36.428" cy="113.571" r="25.786" fill="#FDE9D4" stroke="#236967" stroke-width="2"/><circle cx="113.572" cy="36.429" r="25.786" fill="#FDE9D4" stroke="#236967" stroke-width="2"/><path d="M7.854 42.5A61 61 0 0 0 42.5 7.854 61 61 0 0 0 77.146 42.5 61 61 0 0 0 42.5 77.146 61 61 0 0 0 7.854 42.5Zm65 65A60.999 60.999 0 0 0 107.5 72.854a60.999 60.999 0 0 0 34.646 34.646 61 61 0 0 0-34.646 34.646A60.999 60.999 0 0 0 72.854 107.5Z" fill="#FDE9D4" stroke="#236967" stroke-width="2"/><path d="M42.5 26.429A27.202 27.202 0 0 0 58.572 42.5 27.202 27.202 0 0 0 42.5 58.572 27.202 27.202 0 0 0 26.43 42.5 27.201 27.201 0 0 0 42.5 26.43Zm65 65a27.201 27.201 0 0 0 16.072 16.071 27.202 27.202 0 0 0-16.072 16.072A27.201 27.201 0 0 0 91.429 107.5 27.2 27.2 0 0 0 107.5 91.429Z" fill="#236967"/><path fill="#FDE9D4" d="M150 0h150v150H150z"/><path d="m225 101.786-32.143-53.572h64.286L225 101.786Z" fill="#236967"/><path fill="#FE7167" d="M211.071 0h27.857v48.214h-27.857z"/><circle cx="225" cy="128.571" r="9.714" fill="#FE7167" stroke="#236967" stroke-width="2"/><circle cx="257.143" cy="128.571" r="9.714" fill="#FE7167" stroke="#236967" stroke-width="2"/><circle cx="192.857" cy="128.571" r="9.714" fill="#FE7167" stroke="#236967" stroke-width="2"/></svg>