<svg width="300" height="150" fill="none" xmlns="http://www.w3.org/2000/svg"><path fill="#FDE9D4" d="M0 0h149.998v149.998H0z"/><path d="M149.998 100c0-55.228-44.771-100-100-100H0v149.998h149.998V100Z" fill="#FE7167"/><path d="M70 75C31.34 75 0 106.34.002 145v5L150 149.997v-4.999c-.001-38.66-31.342-70-70.002-69.999H70Z" fill="#000"/><path fill="#fff" d="m74.998 48.214-37.88 37.881L75 123.975l37.88-37.882z"/><circle r="7.5" transform="matrix(.00002 1 1 -.00002 75 85.714)" fill="#000"/><path fill="#236967" d="M149.998 0h149.998v149.998H149.998z"/><circle cx="225.533" cy="58.392" r="32.678" fill="#FFCC1A"/><circle cx="225.533" cy="91.606" r="32.678" fill="#fff"/><path d="M194.251 58.392a55.811 55.811 0 0 0 31.282-31.282 55.81 55.81 0 0 0 31.281 31.282 55.81 55.81 0 0 0-31.281 31.282 55.812 55.812 0 0 0-31.282-31.282Z" stroke="#fff"/><path d="M194.251 91.606a55.811 55.811 0 0 0 31.282-31.282 55.81 55.81 0 0 0 31.281 31.282 55.81 55.81 0 0 0-31.281 31.282 55.812 55.812 0 0 0-31.282-31.282Z" stroke="#FDD503"/></svg>