<svg width="335" height="254" viewBox="0 0 335 254" fill="none" xmlns="http://www.w3.org/2000/svg">
<path fill-rule="evenodd" clip-rule="evenodd" d="M146.471 184.675H3.75362C3.33741 184.675 3 185.012 3 185.429C3 185.845 3.3374 186.182 3.75362 186.182H146.471C146.887 186.182 147.224 185.845 147.224 185.429C147.224 185.012 146.887 184.675 146.471 184.675ZM3.75362 181.675C1.68055 181.675 0 183.356 0 185.429C0 187.502 1.68056 189.182 3.75362 189.182H146.471C148.544 189.182 150.224 187.502 150.224 185.429C150.224 183.356 148.544 181.675 146.471 181.675H3.75362ZM146.471 214.704H3.75362C3.33741 214.704 3 215.041 3 215.458C3 215.874 3.3374 216.211 3.75362 216.211H146.471C146.887 216.211 147.224 215.874 147.224 215.458C147.224 215.041 146.887 214.704 146.471 214.704ZM3.75362 211.704C1.68055 211.704 0 213.385 0 215.458C0 217.531 1.68056 219.211 3.75362 219.211H146.471C148.544 219.211 150.224 217.531 150.224 215.458C150.224 213.385 148.544 211.704 146.471 211.704H3.75362ZM3.75362 199.689H146.471C146.887 199.689 147.224 200.027 147.224 200.443C147.224 200.859 146.887 201.197 146.471 201.197H3.75362C3.3374 201.197 3 200.859 3 200.443C3 200.027 3.33741 199.689 3.75362 199.689ZM0 200.443C0 198.37 1.68055 196.689 3.75362 196.689H146.471C148.544 196.689 150.224 198.37 150.224 200.443C150.224 202.516 148.544 204.197 146.471 204.197H3.75362C1.68056 204.197 0 202.516 0 200.443Z" fill="black"/>
<rect x="-1.5" y="1.5" width="147.224" height="147.145" rx="58.5" transform="matrix(-1 0 0 1 332 53.3013)" fill="#FFCC1A" stroke="#FFCC1A" stroke-width="3"/>
<rect x="-2.5" y="2.5" width="127.197" height="127.127" rx="47.5" transform="matrix(-1 0 0 1 320.986 62.3101)" fill="white" stroke="#236967" stroke-width="5"/>
<path d="M87.8822 49.923C87.8822 70.0317 71.5722 86.3331 51.4528 86.3331C31.3334 86.3331 15.0234 70.0317 15.0234 49.923C15.0234 29.8143 31.3334 13.5129 51.4528 13.5129C71.5722 13.5129 87.8822 29.8143 87.8822 49.923ZM23.3418 49.923C23.3418 65.44 35.9276 78.0191 51.4528 78.0191C66.9781 78.0191 79.5638 65.44 79.5638 49.923C79.5638 34.406 66.9781 21.8269 51.4528 21.8269C35.9276 21.8269 23.3418 34.406 23.3418 49.923Z" fill="#FC8B4C"/>
<ellipse cx="266.647" cy="227.469" rx="26.2892" ry="26.2753" fill="#FE7167"/>
<path fill-rule="evenodd" clip-rule="evenodd" d="M266.773 206.449H260.513V217.665L252.578 209.734L248.152 214.158L256.087 222.089H244.865V228.345H256.088L248.152 236.276L252.578 240.7L260.513 232.769V243.985H266.773V232.768L274.708 240.7L279.134 236.276L271.199 228.345H282.421V222.089H271.199L279.134 214.158L274.708 209.734L266.773 217.666V206.449Z" fill="white"/>
<path fill-rule="evenodd" clip-rule="evenodd" d="M150.976 37.5362C161.346 37.5362 169.754 29.1334 169.754 18.7681C169.754 8.40276 161.346 0 150.976 0C140.653 0 132.276 8.32468 132.198 18.6234C132.12 8.32472 123.743 8.96604e-05 113.421 8.96604e-05C103.05 8.96604e-05 94.6426 8.40285 94.6426 18.7682C94.6426 29.1335 103.05 37.5363 113.421 37.5363C123.743 37.5363 132.12 29.2116 132.198 18.9129C132.276 29.2115 140.653 37.5362 150.976 37.5362Z" fill="#038192"/>
</svg>
