<svg width="390" height="352" viewBox="0 0 390 352" fill="none" xmlns="http://www.w3.org/2000/svg">
<rect x="155.679" y="0.000183105" width="117.161" height="117.333" fill="#FFCC1A"/>
<rect width="12.5622" height="50.2488" transform="matrix(0.706587 -0.707626 0.706587 0.707626 160.624 13.8423)" fill="#FDE9D4"/>
<rect width="12.5622" height="50.2488" transform="matrix(-0.706587 -0.707626 0.706587 -0.707626 169.501 49.3997)" fill="#FDE9D4"/>
<rect width="12.5622" height="50.2488" transform="matrix(0.706587 -0.707626 0.706587 0.707626 160.624 76.576)" fill="#FDE9D4"/>
<rect width="12.5622" height="50.2488" transform="matrix(-0.706587 -0.707626 0.706587 -0.707626 169.501 112.133)" fill="#FDE9D4"/>
<rect width="12.5622" height="50.2488" transform="matrix(0.706587 -0.707626 0.706587 0.707626 223.266 13.8423)" fill="#FDE9D4"/>
<rect width="12.5622" height="50.2488" transform="matrix(-0.706586 -0.707627 0.706586 -0.707627 232.143 49.3997)" fill="#FDE9D4"/>
<rect width="12.5622" height="50.2488" transform="matrix(0.706587 -0.707626 0.706587 0.707626 223.266 76.576)" fill="#FDE9D4"/>
<rect width="12.5622" height="50.2488" transform="matrix(-0.706586 -0.707627 0.706586 -0.707627 232.143 112.133)" fill="#FDE9D4"/>
<rect x="272.84" y="234.667" width="117.161" height="117.333" fill="#236967"/>
<path d="M390.001 234.667C390.001 250.226 383.829 265.148 372.843 276.15C361.857 287.153 346.957 293.333 331.42 293.333C315.884 293.333 300.984 287.153 289.998 276.15C279.012 265.148 272.84 250.226 272.84 234.667L331.42 234.667H390.001Z" fill="#FFCC1A"/>
<rect x="329.271" y="303.891" width="5.97386" height="40.9048" stroke="#FDE9D4"/>
<rect x="0.706586" width="5.979" height="40.874" transform="matrix(0.706586 -0.707627 0.706586 0.707627 315.205 312.497)" stroke="#FDE9D4"/>
<rect x="-0.706587" width="5.979" height="40.874" transform="matrix(-0.706587 -0.707627 -0.706587 0.707627 348.312 311.497)" stroke="#FDE9D4"/>
<rect x="311.836" y="327.335" width="5.98411" height="40.8432" transform="rotate(-90 311.836 327.335)" stroke="#FDE9D4"/>
<path d="M390.001 117.333V234.667H272.84V117.333H390.001Z" fill="#FDE9D4"/>
<path d="M331.421 117.333C363.774 117.333 390.001 143.647 390.001 176V176H272.84V176C272.84 143.647 299.067 117.333 331.421 117.333V117.333Z" fill="#FE7167"/>
<rect x="331.122" y="146.667" width="41.874" height="41.874" transform="rotate(45 331.122 146.667)" fill="#FFCC1A"/>
<ellipse cx="331.419" cy="176" rx="5.86667" ry="5.85805" transform="rotate(90 331.419 176)" fill="black"/>
<path d="M272.84 0V117.333L390.001 117.333V100C390.001 44.7716 345.229 0 290.001 0L272.84 0Z" fill="#FC8B4C"/>
<ellipse rx="16.7619" ry="16.7373" transform="matrix(0 1 1 0 309.663 75.4287)" fill="black"/>
<ellipse rx="16.7619" ry="16.7373" transform="matrix(0 1 1 0 326.4 75.4287)" fill="#FDE9D4"/>
<ellipse rx="3.35183" ry="3.34801" transform="matrix(-0.33489 -0.942257 0.941946 -0.335766 63.7157 331.978)" fill="#FE7167"/>
<ellipse rx="6.55883" ry="6.55136" transform="matrix(-0.33489 -0.942257 0.941946 -0.335766 254.427 138.285)" fill="#FE7167"/>
<ellipse rx="8.37957" ry="8.37002" transform="matrix(-0.33489 -0.942257 0.941946 -0.335766 99.4099 337.006)" fill="#FFCC1A"/>
<path fill-rule="evenodd" clip-rule="evenodd" d="M41.0278 301.714C36.7286 313.35 27.5532 322.547 15.9219 326.857C27.5532 331.167 36.7286 340.365 41.0278 352C45.327 340.365 54.5024 331.167 66.1337 326.857C54.5024 322.547 45.327 313.35 41.0278 301.714C45.327 290.079 54.5024 280.882 66.1337 276.571C54.5024 272.261 45.327 263.064 41.0278 251.429C36.7286 263.064 27.5532 272.261 15.9219 276.571C27.5532 280.882 36.7286 290.079 41.0278 301.714Z" fill="#236967"/>
<path d="M250.244 352C250.244 345.396 248.945 338.857 246.422 332.756C243.899 326.656 240.2 321.112 235.537 316.443C230.875 311.773 225.339 308.069 219.247 305.542C213.155 303.015 206.626 301.714 200.032 301.714L200.032 352H250.244Z" fill="#FC8B4C"/>
<path d="M223.431 161.361C231.549 161.361 238.135 154.77 238.135 146.633C238.135 138.496 231.549 131.905 223.431 131.905C215.313 131.905 208.728 138.496 208.728 146.633C208.728 154.77 215.313 161.361 223.431 161.361Z" stroke="#038192" stroke-width="4"/>
<ellipse cx="126.388" cy="29.3333" rx="29.2902" ry="29.3333" fill="#FDE9D4"/>
<ellipse cx="126.388" cy="88.0001" rx="29.2902" ry="29.3333" fill="#038192"/>
<path d="M52.9441 235.893C38.9024 229.234 28.0772 217.261 22.8501 202.609C17.6229 187.956 18.4219 171.825 25.0712 157.762C31.7206 143.7 43.6756 132.859 58.3064 127.624C72.9372 122.389 89.0452 123.189 103.087 129.848L97.644 141.359C86.6507 136.146 74.0397 135.519 62.5852 139.618C51.1307 143.716 41.7711 152.204 36.5653 163.213C31.3595 174.223 30.7339 186.852 34.8263 198.324C38.9187 209.795 47.3937 219.168 58.387 224.382L52.9441 235.893Z" fill="#FE7167"/>
</svg>
