<svg width="420" height="420" fill="none" xmlns="http://www.w3.org/2000/svg"><path d="M35 70a59.24 59.24 0 0 0 35 35 59.24 59.24 0 0 0-35 35 59.24 59.24 0 0 0-35-35 59.24 59.24 0 0 0 35-35Z" fill="#FE7167"/><path d="M105 70a59.24 59.24 0 0 0 35 35 59.24 59.24 0 0 0-35 35 59.24 59.24 0 0 0-35-35 59.24 59.24 0 0 0 35-35Z" fill="#236967"/><path d="M105 0a59.24 59.24 0 0 0 35 35 59.24 59.24 0 0 0-35 35 59.24 59.24 0 0 0-35-35 59.24 59.24 0 0 0 35-35Z" fill="#FFCC1A"/><path fill-rule="evenodd" clip-rule="evenodd" d="M320.833 350h-11.667v-20.916l-14.789 14.789-8.25-8.249 14.79-14.79H280v-11.667h20.917l-14.792-14.791 8.25-8.25 14.791 14.791V280h11.667v20.918l14.792-14.792 8.25 8.25-14.792 14.791H350v11.667h-20.917l14.79 14.79-8.25 8.249-14.79-14.79V350Z" fill="#236967"/><path fill-rule="evenodd" clip-rule="evenodd" d="M320.833 420h-11.667v-20.916l-14.789 14.789-8.25-8.249 14.79-14.79H280v-11.667h20.917l-14.792-14.791 8.25-8.25 14.791 14.791V350h11.667v20.918l14.792-14.792 8.25 8.25-14.792 14.791H350v11.667h-20.917l14.79 14.79-8.25 8.249-14.79-14.79V420Z" fill="#FE7167"/><g clip-path="url(#a)"><path fill="#FDE9D4" d="M280 0H140v140h140z"/><circle r="19.96" transform="matrix(-1 0 0 1 260.04 144)" fill="#FE7167"/><circle r="19.96" transform="matrix(-1 0 0 1 226.305 144)" fill="#FE7167"/><circle r="19.96" transform="matrix(-1 0 0 1 192.57 144)" fill="#FE7167"/><circle r="19.96" transform="matrix(-1 0 0 1 159.959 144)" fill="#FE7167"/><path d="M280 140a70 70 0 0 0-140 0h12.892a57.108 57.108 0 1 1 114.216 0H280Z" fill="#FE7167"/><circle r="20" transform="matrix(-1 0 0 1 210 34)" fill="#FC8B4C"/></g><path fill="#236967" d="M280 0h140v140H280z"/><path d="m350 78 33 62h-66l33-62Z" fill="#FC8B4C"/><path d="M350 66a33.852 33.852 0 0 0 20 20 33.852 33.852 0 0 0-20 20 33.852 33.852 0 0 0-20-20 33.852 33.852 0 0 0 20-20Z" fill="#FDE9D4"/><path d="M350 0a59.24 59.24 0 0 0 35 35 59.24 59.24 0 0 0-35 35 59.24 59.24 0 0 0-35-35 59.24 59.24 0 0 0 35-35Z" fill="#FDE9D4"/><path fill="#FE7167" d="M280 280h140V140H280z"/><path d="m350 185-30 50h60l-30-50Z" fill="#FDE9D4"/><path fill="#000" d="M337 280h26v-45h-26z"/><circle r="10" transform="matrix(1 0 0 -1 350 160)" fill="#000"/><circle r="10" transform="matrix(1 0 0 -1 380 160)" fill="#000"/><circle r="10" transform="matrix(1 0 0 -1 320 160)" fill="#000"/><path fill="#FFCC1A" d="M140 140h140v140H140z"/><path fill="#FDE9D4" d="m145.91 156.516 10.607-10.607 42.426 42.427-10.607 10.606z"/><path fill="#FDE9D4" d="m156.517 198.943-10.607-10.607 42.427-42.426 10.606 10.607zm-10.607 32.426 10.607-10.607 42.426 42.427-10.607 10.606z"/><path fill="#FDE9D4" d="m156.517 273.796-10.607-10.607 42.427-42.426 10.606 10.607zm64.246-117.28 10.607-10.607 42.426 42.427-10.607 10.606z"/><path fill="#FDE9D4" d="m231.369 198.943-10.607-10.607 42.427-42.426 10.606 10.607zm-10.606 32.426 10.607-10.607 42.426 42.427-10.607 10.606z"/><path fill="#FDE9D4" d="m231.369 273.796-10.607-10.607 42.427-42.426 10.606 10.607z"/><circle cx="385" cy="315" r="35" fill="#FFCC1A"/><circle cx="385" cy="385" r="30" stroke="#038192" stroke-width="10"/><defs><clipPath id="a"><path fill="#fff" transform="matrix(-1 0 0 1 280 0)" d="M0 0h140v140H0z"/></clipPath></defs></svg>