<svg width="729" height="656" viewBox="0 0 729 656" fill="none" xmlns="http://www.w3.org/2000/svg">
<g clip-path="url(#clip0)">
<path opacity="0.5" d="M436.227 429.269C442.186 418.998 445.28 407.082 445.072 395.209C444.928 387.174 443.314 379.246 441.532 371.409C433.398 335.603 421.668 300.614 406.576 267.136C402.312 257.678 397.734 248.259 391.4 240.038C384.452 231.023 375.597 223.699 367.106 216.118C352.934 203.462 339.588 189.879 327.185 175.489C310.52 156.156 295.168 135.012 273.916 120.865C261.957 112.905 257.054 99.4658 252.083 85.9923C250.859 82.671 249.696 79.1219 247.049 76.7665C243.045 73.2049 236.764 73.5195 231.893 75.7609C221.27 80.6475 215.663 92.9767 215.482 104.66C215.301 116.342 217.78 128.082 222.205 138.898C225.1 145.972 226.092 147.391 229.186 154.378C232.817 162.581 240.435 175.96 246.198 182.838C250.626 188.123 256.067 192.445 261.164 197.092C275.557 210.216 287.297 226.203 295.653 243.786C300.009 252.949 301.506 259.981 309.726 266.341C317.049 272.01 325.247 276.548 333.948 279.723" stroke="white" stroke-width="4" stroke-miterlimit="10" stroke-linecap="round" stroke-linejoin="round"/>
<path opacity="0.5" d="M307.905 266.963C301.958 281.508 301.502 298.224 306.648 313.07" stroke="white" stroke-width="4" stroke-miterlimit="10" stroke-linecap="round" stroke-linejoin="round"/>
<path opacity="0.5" d="M287.305 228.917C281.351 225.207 274.742 222.549 267.875 221.098" stroke="white" stroke-width="4" stroke-miterlimit="10" stroke-linecap="round" stroke-linejoin="round"/>
<path opacity="0.5" d="M25.9957 216.279C14.4041 220.058 6.48639 231.491 4.17601 243.451C1.86564 255.414 4.357 267.81 8.22415 279.364C10.4775 286.096 13.4845 293.043 19.2976 297.122C28.2366 303.393 41.7122 300.26 48.5813 291.775C55.4505 283.287 56.2487 270.978 52.5625 260.702C48.8763 250.426 41.2883 241.97 32.8053 235.092" stroke="white" stroke-width="4" stroke-miterlimit="10" stroke-linecap="round" stroke-linejoin="round"/>
<path opacity="0.5" d="M16.812 296.76C12.7491 310.244 16.6856 325.292 24.9008 336.735C33.116 348.177 45.1711 356.375 57.903 362.411C66.019 366.258 75.7315 369.282 83.7385 365.215C93.9617 360.021 95.93 345.867 92.7519 334.857C88.0568 318.595 74.6953 305.107 58.4632 300.25" stroke="white" stroke-width="4" stroke-miterlimit="10" stroke-linecap="round" stroke-linejoin="round"/>
<path opacity="0.5" d="M52.4434 287.574C59.5133 291.264 65.4256 297.127 69.1762 304.161" stroke="white" stroke-width="4" stroke-miterlimit="10" stroke-linecap="round" stroke-linejoin="round"/>
<path opacity="0.5" d="M48.002 359.065C45.3049 375.107 48.2796 392.043 56.2841 406.21C64.2886 420.374 77.2634 431.671 92.4048 437.652C97.9303 439.837 104.148 441.323 109.765 439.388C117.073 436.874 121.431 429.157 122.799 421.558C126.175 402.809 113.28 382.562 94.8515 377.673C95.9075 377.499 96.9611 377.321 98.0171 377.148" stroke="white" stroke-width="4" stroke-miterlimit="10" stroke-linecap="round" stroke-linejoin="round"/>
<path opacity="0.5" d="M88.6055 366.069C94.7185 369.044 100.118 373.47 104.228 378.882" stroke="white" stroke-width="4" stroke-miterlimit="10" stroke-linecap="round" stroke-linejoin="round"/>
<path opacity="0.5" d="M99.1683 440.008C97.1926 451.134 95.2144 462.536 97.1703 473.667C99.1237 484.795 105.839 495.787 116.466 499.653C122.423 501.82 128.955 501.582 135.279 501.144C139.446 500.859 143.861 500.398 147.173 497.857C151.256 494.719 152.637 489.164 152.748 484.02C152.969 473.996 149.258 463.941 142.58 456.456C135.901 448.974 126.323 444.144 116.333 443.218C117.146 443.124 123.323 438.148 124.134 438.054" stroke="white" stroke-width="4" stroke-miterlimit="10" stroke-linecap="round" stroke-linejoin="round"/>
<path opacity="0.5" d="M119.468 458.633C118.757 466.885 118.067 475.321 120.108 483.348C122.148 491.375 127.468 499.058 135.336 501.669" stroke="white" stroke-width="4" stroke-miterlimit="10" stroke-linecap="round" stroke-linejoin="round"/>
<path opacity="0.5" d="M118.094 459.029C113.399 458.578 109.157 462.588 107.908 467.13C106.658 471.678 107.747 476.53 109.281 480.99C111.641 487.851 115.062 494.345 119.383 500.173" stroke="white" stroke-width="4" stroke-miterlimit="10" stroke-linecap="round" stroke-linejoin="round"/>
<path opacity="0.5" d="M91.0255 432.005C84.3274 428.857 77.7607 424.917 73.2937 419.019C68.8266 413.122 66.8187 404.924 69.8108 398.158C73.5168 389.777 88.6953 387.867 93.2417 396.575C97.7807 405.276 92.5922 422.985 91.0255 432.005Z" stroke="white" stroke-width="4" stroke-miterlimit="10" stroke-linecap="round" stroke-linejoin="round"/>
<path opacity="0.5" d="M64.3866 357.76C64.1982 358.411 63.9453 359.13 63.3405 359.442C62.8249 359.707 62.2027 359.595 61.635 359.462C49.9939 356.702 40.3309 346.895 37.7553 335.219C34.5922 320.881 48.9899 311.252 61.3673 319.861C71.5656 326.954 67.2374 347.947 64.3866 357.76Z" stroke="white" stroke-width="4" stroke-miterlimit="10" stroke-linecap="round" stroke-linejoin="round"/>
<path opacity="0.5" d="M21.6155 257.004C13.9705 266.732 11.4444 280.263 15.0686 292.089" stroke="white" stroke-width="4" stroke-miterlimit="10" stroke-linecap="round" stroke-linejoin="round"/>
<path opacity="0.5" d="M21.9858 255.511C19.1896 253.606 15.9546 251.823 12.6055 252.318C8.17811 252.974 5.19592 257.556 4.834 262.012C4.47207 266.468 6.1082 270.817 7.71207 274.99" stroke="white" stroke-width="4" stroke-miterlimit="10" stroke-linecap="round" stroke-linejoin="round"/>
<path opacity="0.5" d="M421.269 481.959C421.046 501.045 416.494 523.088 399.509 531.818C386.078 538.721 369.873 534.62 355.376 530.382C327.751 522.308 300.125 514.236 272.5 506.167" stroke="white" stroke-width="4" stroke-miterlimit="10" stroke-linecap="round" stroke-linejoin="round"/>
<path opacity="0.5" d="M650.081 395.471C576.307 386.122 503.64 368.101 434.051 341.902" stroke="url(#paint0_linear)" stroke-width="4" stroke-miterlimit="10" stroke-linecap="round" stroke-linejoin="round"/>
<path opacity="0.5" d="M619.295 590.078C582.676 578.118 546.057 566.158 509.438 554.195C474.423 542.76 438.57 531.191 401.74 532.056" stroke="url(#paint1_linear)" stroke-width="4" stroke-miterlimit="10" stroke-linecap="round" stroke-linejoin="round"/>
<path opacity="0.5" d="M457.11 520.685C455.957 526.387 453.419 531.806 449.777 536.346" stroke="white" stroke-width="4" stroke-miterlimit="10" stroke-linecap="round" stroke-linejoin="round"/>
<path opacity="0.5" d="M453.689 350.065C459.245 361.143 463.456 372.891 466.211 384.972" stroke="white" stroke-width="4" stroke-miterlimit="10" stroke-linecap="round" stroke-linejoin="round"/>
<path d="M151.422 494.429L165.371 525.356C170.725 537.227 184.699 542.515 196.581 537.168L350.568 467.836C362.452 462.489 367.744 448.525 362.39 436.654L250.642 188.893" stroke="white" stroke-width="4" stroke-miterlimit="10" stroke-linecap="round" stroke-linejoin="round"/>
<path d="M122.197 429.643L129.257 445.296" stroke="white" stroke-width="4" stroke-miterlimit="10" stroke-linecap="round" stroke-linejoin="round"/>
<path d="M90.916 360.289L98.9577 378.117" stroke="white" stroke-width="4" stroke-miterlimit="10" stroke-linecap="round" stroke-linejoin="round"/>
<path d="M54.5957 279.753L60.099 291.953" stroke="white" stroke-width="4" stroke-miterlimit="10" stroke-linecap="round" stroke-linejoin="round"/>
<path d="M214.297 108.315L200.718 78.2102C195.363 66.3392 181.389 61.0514 169.508 66.4012L15.5183 135.73C3.6367 141.08 -1.65585 155.041 3.69866 166.912L34.792 235.85" stroke="white" stroke-width="4" stroke-miterlimit="10" stroke-linecap="round" stroke-linejoin="round"/>
<path d="M200.988 107.31L25.2578 186.422L162.367 490.443L338.098 411.331L200.988 107.31Z" stroke="white" stroke-width="4" stroke-miterlimit="10" stroke-linecap="round" stroke-linejoin="round"/>
<path d="M131.084 108.535L72.566 134.881C71.1084 135.537 70.454 137.263 71.1109 138.719C71.7678 140.176 73.4957 140.83 74.9533 140.173L133.471 113.828C134.926 113.172 135.583 111.446 134.926 109.989C134.267 108.533 132.539 107.879 131.084 108.535Z" stroke="white" stroke-width="4" stroke-miterlimit="10" stroke-linecap="round" stroke-linejoin="round"/>
<path d="M278.054 458.769L237.811 476.886C233.222 478.952 231.16 484.393 233.227 488.978C235.295 493.565 240.741 495.626 245.329 493.56L285.573 475.44C290.161 473.374 292.224 467.936 290.156 463.351C288.089 458.764 282.642 456.704 278.054 458.769Z" stroke="white" stroke-width="4" stroke-miterlimit="10" stroke-linecap="round" stroke-linejoin="round"/>
</g>
<defs>
<linearGradient id="paint0_linear" x1="453" y1="354" x2="501.528" y2="293.972" gradientUnits="userSpaceOnUse">
<stop stop-color="white"/>
<stop offset="1" stop-color="white" stop-opacity="0"/>
</linearGradient>
<linearGradient id="paint1_linear" x1="420.823" y1="545.124" x2="474.105" y2="483.893" gradientUnits="userSpaceOnUse">
<stop stop-color="white"/>
<stop offset="1" stop-color="white" stop-opacity="0"/>
</linearGradient>
<clipPath id="clip0">
<rect width="729" height="656" fill="white"/>
</clipPath>
</defs>
</svg>
