<svg width="728" height="588" viewBox="0 0 728 588" fill="none" xmlns="http://www.w3.org/2000/svg">
<path d="M496.262 105.122C496.262 174.355 423.528 275.093 414.583 275.093C405.638 275.093 332.904 174.355 332.904 105.122C332.904 60.3195 369.473 24 414.583 24C459.693 24 496.262 60.3195 496.262 105.122Z" stroke="white" stroke-width="4" stroke-miterlimit="10" stroke-linecap="round" stroke-linejoin="round"/>
<path d="M414.584 157.093C442.256 157.093 464.689 134.671 464.689 107.012C464.689 79.3524 442.256 56.9302 414.584 56.9302C386.911 56.9302 364.479 79.3524 364.479 107.012C364.479 134.671 386.911 157.093 414.584 157.093Z" stroke="white" stroke-width="4" stroke-miterlimit="10" stroke-linecap="round" stroke-linejoin="round"/>
<path d="M400.17 299.791C379.483 296.587 364.479 287.067 364.479 275.82C364.479 265.819 376.344 257.182 393.519 253.14" stroke="white" stroke-width="4" stroke-miterlimit="10" stroke-linecap="round" stroke-linejoin="round"/>
<path d="M437.234 253.14C453.472 257.302 464.689 266.195 464.689 276.493C464.689 277.885 464.485 279.25 464.09 280.581" stroke="white" stroke-width="4" stroke-miterlimit="10" stroke-linecap="round" stroke-linejoin="round"/>
<path d="M348.005 56.9302H318.163C296.737 56.9302 279.367 74.4397 279.367 96.0389V522.752C279.367 544.351 296.737 561.86 318.163 561.86H424.879" stroke="white" stroke-width="4" stroke-miterlimit="10" stroke-linecap="round" stroke-linejoin="round"/>
<path d="M538.818 357.419V96.0463C538.818 74.4431 520.664 56.9302 498.269 56.9302H481.162" stroke="white" stroke-width="4" stroke-miterlimit="10" stroke-linecap="round" stroke-linejoin="round"/>
<path d="M334.277 91.2325H279.367" stroke="white" stroke-width="4" stroke-miterlimit="10" stroke-linecap="round" stroke-linejoin="round"/>
<path d="M537.444 91.2325H494.889" stroke="white" stroke-width="4" stroke-miterlimit="10" stroke-linecap="round" stroke-linejoin="round"/>
<path d="M279.367 524.814H423.506" stroke="white" stroke-width="4" stroke-miterlimit="10" stroke-linecap="round" stroke-linejoin="round"/>
<g opacity="0.5">
<path d="M279.369 155.721H241.684C233.676 155.721 226.497 160.821 223.634 168.543L214.13 194.183C211.685 200.78 216.403 207.86 223.244 207.86H279.366" stroke="white" stroke-width="4" stroke-miterlimit="10" stroke-linecap="round" stroke-linejoin="round"/>
<path d="M279.365 207.86H217.128C189.706 207.86 163.961 220.909 147.961 242.917L80.7659 335.338C67.9783 352.926 61.0996 374.038 61.0996 395.695V484.005C61.0996 496.692 71.5065 506.977 84.3444 506.977H191.876C196.204 506.977 200.385 505.426 203.644 502.611L212.904 494.615C216.163 491.801 220.344 490.25 224.672 490.25H279.367" stroke="white" stroke-width="4" stroke-miterlimit="10" stroke-linecap="round" stroke-linejoin="round"/>
<path d="M142.437 561.86H95.075C88.4415 561.86 83.0645 556.53 83.0645 549.955V506.977H154.447V549.955C154.447 556.53 149.07 561.86 142.437 561.86Z" stroke="white" stroke-width="4" stroke-miterlimit="10" stroke-linecap="round" stroke-linejoin="round"/>
<path d="M279.368 338.877C251.337 338.877 223.305 340.107 195.352 342.569L171.297 344.688C142.94 347.186 114.869 337.354 94.052 317.633L94.0469 317.628" stroke="white" stroke-width="4" stroke-miterlimit="10" stroke-linecap="round" stroke-linejoin="round"/>
<path d="M81.6918 332.721H25.5431C12.5806 332.721 2.07227 322.584 2.07227 310.081C2.07227 297.577 12.5806 287.442 25.5431 287.442H49.2152C57.8787 287.442 64.9024 294.216 64.9024 302.573V332.721" stroke="white" stroke-width="4" stroke-miterlimit="10" stroke-linecap="round" stroke-linejoin="round"/>
<path d="M61.0996 454.837H195.629" stroke="white" stroke-width="4" stroke-miterlimit="10" stroke-linecap="round" stroke-linejoin="round"/>
<path d="M279.369 454.837H240.993C235.529 454.837 230.579 451.667 228.37 446.751L214.671 416.279C210.636 407.303 217.317 397.209 227.294 397.209H279.366" stroke="white" stroke-width="4" stroke-miterlimit="10" stroke-linecap="round" stroke-linejoin="round"/>
<path d="M170.921 399.32C170.921 413.339 151.61 416.419 127.79 416.419C103.97 416.419 85.8558 409.147 84.6594 395.178C82.9182 374.848 91.2733 365.651 115.094 365.651C138.915 365.651 170.921 385.301 170.921 399.32Z" stroke="white" stroke-width="4" stroke-miterlimit="10" stroke-linecap="round" stroke-linejoin="round"/>
<path d="M147.584 244.907H279.368" stroke="white" stroke-width="4" stroke-miterlimit="10" stroke-linecap="round" stroke-linejoin="round"/>
</g>
<path d="M459.197 424.651V392.374C459.197 381.405 468.109 372.512 479.102 372.512C490.095 372.512 499.007 381.405 499.007 392.374V424.651" stroke="white" stroke-width="4" stroke-miterlimit="10" stroke-linecap="round" stroke-linejoin="round"/>
<path d="M499.008 424.651V392.374C499.008 381.405 508.227 372.512 519.599 372.512C530.972 372.512 540.19 381.405 540.19 392.374V424.651" stroke="white" stroke-width="4" stroke-miterlimit="10" stroke-linecap="round" stroke-linejoin="round"/>
<path d="M539.504 424.981V405.262C539.504 394.059 548.569 384.978 559.752 384.978C570.935 384.978 580 394.059 580 405.262L580 495.677C580 532.229 550.419 561.86 513.93 561.86H484.085C447.596 561.86 418.016 532.229 418.016 495.677V313.213C418.016 302.011 427.081 292.93 438.264 292.93C449.447 292.93 458.512 302.011 458.512 313.213V424.981" stroke="white" stroke-width="4" stroke-miterlimit="10" stroke-linecap="round" stroke-linejoin="round"/>
</svg>
