<svg width="455" height="396" viewBox="0 0 455 396" fill="none" xmlns="http://www.w3.org/2000/svg">
<path d="M362 61.1231C362 111.581 309.016 185 302.5 185C295.984 185 243 111.581 243 61.1231C243 28.4701 269.639 2 302.5 2C335.361 2 362 28.4701 362 61.1231Z" stroke="white" stroke-width="4" stroke-miterlimit="10" stroke-linecap="round" stroke-linejoin="round"/>
<path d="M302.5 99C322.658 99 339 82.6584 339 62.5C339 42.3416 322.658 26 302.5 26C282.342 26 266 42.3416 266 62.5C266 82.6584 282.342 99 302.5 99Z" stroke="white" stroke-width="4" stroke-miterlimit="10" stroke-linecap="round" stroke-linejoin="round"/>
<path d="M292 203C276.93 200.665 266 193.727 266 185.53C266 178.241 274.644 171.946 287.155 169" stroke="white" stroke-width="4" stroke-miterlimit="10" stroke-linecap="round" stroke-linejoin="round"/>
<path d="M319 169C330.828 172.034 339 178.515 339 186.021C339 187.034 338.851 188.03 338.564 189" stroke="white" stroke-width="4" stroke-miterlimit="10" stroke-linecap="round" stroke-linejoin="round"/>
<path d="M254 26H232.262C216.653 26 204 38.7612 204 54.5029V365.497C204 381.239 216.653 394 232.262 394H310" stroke="white" stroke-width="4" stroke-miterlimit="10" stroke-linecap="round" stroke-linejoin="round"/>
<path d="M393 245V54.5083C393 38.7636 379.775 26 363.462 26H351" stroke="white" stroke-width="4" stroke-miterlimit="10" stroke-linecap="round" stroke-linejoin="round"/>
<path d="M244 51H204" stroke="white" stroke-width="4" stroke-miterlimit="10" stroke-linecap="round" stroke-linejoin="round"/>
<path d="M392 51H361" stroke="white" stroke-width="4" stroke-miterlimit="10" stroke-linecap="round" stroke-linejoin="round"/>
<path d="M204 367H309" stroke="white" stroke-width="4" stroke-miterlimit="10" stroke-linecap="round" stroke-linejoin="round"/>
<g opacity="0.5">
<path d="M204 98H176.548C170.714 98 165.485 101.717 163.399 107.345L156.476 126.031C154.695 130.84 158.132 136 163.115 136H203.998" stroke="white" stroke-width="4" stroke-miterlimit="10" stroke-linecap="round" stroke-linejoin="round"/>
<path d="M203.998 136H158.661C138.685 136 119.931 145.51 108.275 161.549L59.3262 228.907C50.0109 241.726 45 257.112 45 272.896V337.258C45 346.504 52.5811 354 61.933 354H140.266C143.418 354 146.464 352.869 148.838 350.818L155.584 344.99C157.958 342.939 161.004 341.809 164.157 341.809H204" stroke="white" stroke-width="4" stroke-miterlimit="10" stroke-linecap="round" stroke-linejoin="round"/>
<path d="M104.25 394H69.7493C64.917 394 61 390.115 61 385.323V354H113V385.323C113 390.115 109.082 394 104.25 394Z" stroke="white" stroke-width="4" stroke-miterlimit="10" stroke-linecap="round" stroke-linejoin="round"/>
<path d="M204 231.486C183.58 231.486 163.16 232.383 142.797 234.178L125.274 235.722C104.617 237.542 84.1683 230.377 69.0037 216.004L69 216" stroke="white" stroke-width="4" stroke-miterlimit="10" stroke-linecap="round" stroke-linejoin="round"/>
<path d="M60 227H19.0977C9.65494 227 2 219.612 2 210.5C2 201.387 9.65494 194 19.0977 194H36.3419C42.653 194 47.7695 198.937 47.7695 205.028V227" stroke="white" stroke-width="4" stroke-miterlimit="10" stroke-linecap="round" stroke-linejoin="round"/>
<path d="M45 316H143" stroke="white" stroke-width="4" stroke-miterlimit="10" stroke-linecap="round" stroke-linejoin="round"/>
<path d="M204 316H176.044C172.064 316 168.459 313.689 166.849 310.106L156.87 287.898C153.931 281.356 158.798 274 166.066 274H203.998" stroke="white" stroke-width="4" stroke-miterlimit="10" stroke-linecap="round" stroke-linejoin="round"/>
<path d="M125 275.538C125 285.756 110.933 288 93.581 288C76.2285 288 63.0332 282.701 62.1616 272.519C60.8933 257.703 66.9797 251 84.3321 251C101.685 251 125 265.321 125 275.538Z" stroke="white" stroke-width="4" stroke-miterlimit="10" stroke-linecap="round" stroke-linejoin="round"/>
<path d="M108 163H204" stroke="white" stroke-width="4" stroke-miterlimit="10" stroke-linecap="round" stroke-linejoin="round"/>
</g>
<path d="M335 294V270.476C335 262.481 341.492 256 349.5 256C357.508 256 364 262.481 364 270.476V294" stroke="white" stroke-width="4" stroke-miterlimit="10" stroke-linecap="round" stroke-linejoin="round"/>
<path d="M364 294V270.476C364 262.481 370.716 256 379 256C387.285 256 394 262.481 394 270.476V294" stroke="white" stroke-width="4" stroke-miterlimit="10" stroke-linecap="round" stroke-linejoin="round"/>
<path d="M393.5 294.24V279.869C393.5 271.704 400.103 265.086 408.25 265.086C416.396 265.086 423 271.704 423 279.869L423 345.764C423 372.404 401.451 394 374.87 394H353.129C326.548 394 305 372.404 305 345.764V212.782C305 204.618 311.604 198 319.75 198C327.896 198 334.5 204.618 334.5 212.782V294.24" stroke="white" stroke-width="4" stroke-miterlimit="10" stroke-linecap="round" stroke-linejoin="round"/>
</svg>
